<svg width="80" height="80" xmlns="http://www.w3.org/2000/svg" xmlns:xlink="http://www.w3.org/1999/xlink" xml:space="preserve" overflow="hidden"><g transform="translate(-422 -277)"><g><g><g><g><path d="M463 283.68C458.46 283.68 454.305 286.21 452.238 290.249 452.238 290.249 452.238 290.252 452.238 290.252 452.237 290.255 452.234 290.256 452.232 290.258 446.405 301.574 441.4 311.459 437.747 318.838 435.921 322.529 434.432 325.59 433.342 327.908 432.252 330.227 431.621 331.557 431.252 332.735L431.249 332.744 431.245 332.75C430.846 334.047 430.319 335.782 430.319 337.829 430.319 345.796 436.864 352.32 444.841 352.32 453.882 352.32 460.091 345.112 463 341.784 465.908 345.111 472.117 352.32 481.159 352.32 489.136 352.32 495.681 345.795 495.681 337.829 495.681 335.785 495.154 334.053 494.758 332.762L494.755 332.753 494.751 332.744C494.382 331.567 493.749 330.234 492.658 327.915 491.568 325.595 490.08 322.532 488.253 318.841 484.6 311.461 479.593 301.576 473.765 290.258L473.759 290.246C471.694 286.21 467.539 283.68 463 283.68ZM463 289.92C465.342 289.92 467.155 291.03 468.207 293.092L468.21 293.098 468.213 293.104C474.033 304.406 479.027 314.27 482.659 321.607 484.474 325.276 485.952 328.316 487.012 330.571 488.071 332.822 488.769 334.523 488.795 334.602 489.156 335.779 489.441 336.943 489.441 337.829 489.441 342.4 485.76 346.08 481.159 346.08 475.571 346.08 469.69 340.035 467.016 337.003L467.01 336.997 467.001 336.988C469.886 333.398 474.7 327.072 474.7 320.005 474.7 313.697 469.357 308.64 463 308.64 456.643 308.64 451.3 313.697 451.3 320.005 451.3 327.082 456.114 333.405 458.996 336.988L458.99 336.994 458.984 337.003C456.308 340.037 450.429 346.08 444.841 346.08 440.24 346.08 436.559 342.402 436.559 337.829 436.559 336.938 436.843 335.78 437.205 334.602 437.227 334.534 437.93 332.82 438.991 330.565 440.051 328.311 441.526 325.272 443.341 321.604 446.972 314.269 451.965 304.406 457.784 293.107L457.787 293.101 457.79 293.098C458.845 291.03 460.658 289.92 463 289.92ZM463 314.88C466.105 314.88 468.46 317.218 468.46 320.005 468.46 323.342 465.46 328.343 462.997 331.726 460.536 328.35 457.54 323.358 457.54 320.005 457.54 317.218 459.895 314.88 463 314.88Z" fill="#000000" fill-rule="nonzero" fill-opacity="1"/></g></g></g></g></g></svg>