<svg width="392" height="394" xmlns="http://www.w3.org/2000/svg" xmlns:xlink="http://www.w3.org/1999/xlink" xml:space="preserve" overflow="hidden"><g transform="translate(-445 -2)"><g><g><g><g><path d="M1659.57 1076.81C1610.8 1076.81 1556.62 1095.05 1545.22 1154.7 1544 1161.05 1548.45 1164.31 1552.64 1165.24L1602.15 1170.28C1606.81 1170.03 1610.52 1165.72 1611.42 1161.13 1615.68 1140.58 1633.08 1130.43 1652.6 1130.43 1663.14 1130.43 1675.09 1134.37 1681.32 1143.71 1688.53 1154.14 1687.33 1168.31 1687.33 1180.39L1687.33 1187.25C1657.62 1190.56 1618.87 1192.58 1591.08 1204.67 1558.97 1218.4 1536.44 1246.42 1536.44 1287.61 1536.44 1340.31 1570.14 1366.89 1613.29 1366.89 1649.73 1366.89 1669.39 1358.15 1697.53 1329.78 1706.82 1343.11 1710.13 1349.66 1727.16 1363.69 1730.98 1365.72 1735.81 1365.34 1739.19 1362.33L1739.19 1362.78C1749.42 1353.76 1768.07 1337.59 1778.51 1328.87 1782.67 1325.48 1781.77 1320.19 1778.51 1315.56 1769.14 1302.76 1759.53 1292.13 1759.53 1268.34L1759.53 1189.52C1759.53 1156.03 1761.8 1125.05 1736.87 1101.99 1717.19 1083.31 1684.48 1076.81 1659.57 1076.81ZM1673.45 1228.01C1678.08 1227.7 1682.69 1228.01 1687.33 1228.01L1687.33 1239C1687.35 1258.78 1688.13 1275.04 1678.07 1292.62 1669.92 1306.89 1656.82 1315.53 1642.44 1315.53 1622.77 1315.53 1611.39 1300.81 1611.39 1278.85 1611.39 1241.08 1641.11 1230.11 1673.45 1228.01ZM1817.6 1355.56C1804.41 1355.75 1788.97 1358.51 1777.15 1366.72 1773.52 1369.24 1774.05 1372.81 1778.08 1372.33 1791.38 1370.75 1820.77 1367.03 1826.07 1373.71 1831.34 1380.42 1820.24 1407.94 1815.28 1420.25 1813.77 1423.97 1817.04 1425.4 1820.43 1422.57 1842.56 1404.24 1848.46 1366.22 1843.94 1360.66 1841.69 1357.94 1830.79 1355.37 1817.6 1355.56ZM1470.95 1362.53C1468.2 1362.89 1467.12 1366.47 1470.02 1369.07 1519.21 1413.04 1584.06 1439.37 1656.26 1439.37 1707.75 1439.37 1767.87 1423.41 1809.13 1393.26 1815.94 1388.25 1810.02 1380.54 1803.04 1383.49 1756.79 1402.92 1706.23 1412.35 1660.51 1412.35 1592.71 1412.35 1527.33 1394.03 1474.27 1363.46 1473.09 1362.79 1471.85 1362.41 1470.95 1362.53Z" fill="#000000" fill-rule="nonzero" fill-opacity="1" transform="matrix(1 0 0 1.00321 -1016.52 -1063.04)"/></g></g></g></g></g></svg>