<svg width="361" height="362" xmlns="http://www.w3.org/2000/svg" xmlns:xlink="http://www.w3.org/1999/xlink" xml:space="preserve" overflow="hidden"><defs><clipPath id="clip0"><rect x="44" y="78" width="361" height="362"/></clipPath><clipPath id="clip1"><rect x="44" y="78" width="361" height="362"/></clipPath><clipPath id="clip2"><rect x="45" y="79" width="360" height="360"/></clipPath><clipPath id="clip3"><rect x="45" y="79" width="360" height="360"/></clipPath><clipPath id="clip4"><rect x="45" y="79" width="360" height="360"/></clipPath><clipPath id="clip5"><rect x="45" y="79" width="360" height="360"/></clipPath><clipPath id="clip6"><rect x="45" y="79" width="360" height="360"/></clipPath><clipPath id="clip7"><rect x="46" y="80" width="358" height="358"/></clipPath><clipPath id="clip8"><rect x="46" y="80" width="358" height="358"/></clipPath></defs><g clip-path="url(#clip0)" transform="translate(-44 -78)"><g clip-path="url(#clip1)"><g clip-path="url(#clip2)"><g clip-path="url(#clip3)"><g clip-path="url(#clip4)"><g clip-path="url(#clip5)"><g clip-path="url(#clip6)"><g clip-path="url(#clip7)"><g clip-path="url(#clip8)"><path d="M135.972 85.8775C108.348 85.8775 85.8775 108.348 85.8775 135.972L85.8775 551.045C85.8775 578.668 108.348 601.141 135.972 601.141L551.045 601.141C578.668 601.141 601.141 578.668 601.141 551.045L601.141 135.972C601.141 108.348 578.668 85.8775 551.045 85.8775L135.972 85.8775ZM135.972 128.816 551.045 128.816C554.981 128.816 558.204 132.022 558.204 135.972L558.204 551.045C558.204 554.981 554.981 558.204 551.045 558.204L135.972 558.204C132.036 558.204 128.816 554.981 128.816 551.045L128.816 135.972C128.816 132.022 132.036 128.816 135.972 128.816ZM454.294 171.754C452.931 171.716 451.556 171.842 450.185 172.118L293.47 201.079C281.762 203.168 273.174 213.341 273.174 225.12L273.174 404.843C273.174 418.34 261.993 429.386 248.295 429.386L231.355 429.386C208.326 429.386 188.395 446.324 186.291 467.907 185.046 480.061 189.033 492.188 197.248 501.146 205.594 510.108 217.298 515.263 229.621 515.263L235.828 515.263C270.178 515.263 300.57 491.877 300.57 458.013L300.57 271.945 443.699 243.319 443.699 379.907C443.699 393.389 428.771 400.761 415.074 400.761L400.761 400.761C377.731 400.761 357.822 415.074 357.822 443.699 357.822 472.326 388.437 486.64 400.761 486.64L415.074 486.64C458.013 486.64 472.326 458.013 472.326 429.386L472.326 190.15C472.326 184.625 469.838 179.466 465.615 176.031 462.35 173.369 458.382 171.87 454.294 171.754Z" fill="#000000" fill-rule="nonzero" fill-opacity="1" transform="matrix(1 0 0 1.01985 -104.19 -91.58)"/></g></g></g></g></g></g></g></g></g></svg>