<svg width="293" height="292" xmlns="http://www.w3.org/2000/svg" xmlns:xlink="http://www.w3.org/1999/xlink" xml:space="preserve" overflow="hidden"><g transform="translate(-785 -188)"><g><g><g><g><path d="M345.007 1853.75C330.649 1853.75 319.018 1865.38 319.018 1879.74L319.018 1943.13 515.505 2139.62 578.901 2139.62C593.26 2139.62 604.891 2127.99 604.891 2113.64L604.891 2050.24 408.404 1853.75 345.007 1853.75ZM510.581 1853.75C493.22 1853.75 484.521 1874.75 496.799 1887.02L571.617 1961.84C583.898 1974.11 604.891 1965.42 604.891 1948.06L604.891 1879.74C604.891 1865.38 593.26 1853.75 578.901 1853.75L510.581 1853.75ZM336.38 2025.92C327.229 2027 319.018 2034.47 319.018 2045.31L319.018 2113.64C319.018 2127.99 330.649 2139.62 345.007 2139.62L413.328 2139.62C430.689 2139.62 439.388 2118.63 427.11 2106.35L352.292 2031.53C347.687 2026.93 341.868 2025.28 336.38 2025.92Z" fill="#000000" fill-rule="nonzero" fill-opacity="1" transform="matrix(1.0005 0 0 1 471.068 -1663.02)"/></g></g></g></g></g></svg>