<svg width="396" height="395" xmlns="http://www.w3.org/2000/svg" xmlns:xlink="http://www.w3.org/1999/xlink" xml:space="preserve" overflow="hidden"><g transform="translate(-76 -94)"><g><g><g><g><path d="M181.121 228.481C181.121 228.481 186.214 220.525 195.122 217.026 204.031 213.528 201.167 222.119 196.4 225.617 191.616 229.116 186.84 230.076 181.121 228.481ZM185.888 214.153C177.614 215.749 175.067 220.198 176.019 224.974 177.297 221.159 185.888 214.163 185.888 214.153ZM315.109 252.678C311.602 255.859 304.605 267.323 304.605 267.323 304.605 267.323 315.426 266.045 318.616 257.454 321.788 248.853 318.607 249.497 315.109 252.678ZM94.2308 261.269C100.275 266.679 111.096 271.138 111.096 271.138L111.73 250.775C106.963 250.775 95.826 253.638 92.9531 254.273 90.0892 254.898 88.1771 255.859 94.2308 261.269ZM416.87 117.811 416.87 335.309C416.87 380.285 380.276 416.87 335.309 416.87L117.811 416.87C72.8435 416.87 36.2496 380.285 36.2496 335.309L36.2496 117.811C36.2496 72.8346 72.8435 36.2496 117.811 36.2496L335.309 36.2496C380.276 36.2496 416.87 72.8346 416.87 117.811ZM122.714 198.775 127.898 200.796C128.559 200.85 129.193 200.533 129.547 199.971 150.835 166.06 189.205 143.277 233.366 143.277 285.91 143.277 330.406 175.466 347.352 220.379 347.615 221.068 348.259 221.53 349.002 221.53L354.403 221.53C355.038 221.53 355.491 220.887 355.282 220.289 338.027 171.37 289.879 136.063 233.303 136.063 186.051 136.063 144.618 160.749 121.998 197.361 121.626 197.941 122.034 198.711 122.714 198.775ZM144.192 216.075C118.726 203.659 109.818 202.064 90.0802 203.342 70.3513 204.62 70.3513 214.48 75.1184 214.806 77.9366 214.997 79.5315 215.205 80.3746 215.304 81.0814 215.386 81.1809 215.205 81.4167 214.888 81.6158 214.616 81.7064 214.208 81.8064 213.963 81.9783 213.519 81.7792 213.066 81.3803 212.894 80.9725 212.713 76.396 210.674 76.396 210.674 76.396 210.674 101.227 204.312 132.093 219.265 162.96 234.218 170.926 253.638 162.335 263.19 153.744 272.742 138.782 277.518 120.322 273.376 120.004 260.326 120.639 250.775 120.639 250.775 120.639 250.775 137.83 250.14 142.289 253.321 146.095 256.04 143.866 257.825 141.355 258.886 140.929 259.067 140.884 259.855 141.274 260.082 144.835 262.057 147.672 262.52 150.246 259.375 153.109 255.877 156.29 240.915 121.282 241.867 120.648 235.822 122.56 231.68 117.467 225.636 112.374 219.564 112.374 242.165 112.374 242.165 112.374 242.165 99.3239 244.069 88.5032 251.717 77.683 259.357 110.779 277.817 110.779 277.817 110.779 277.817 111.413 286.091 116.189 287.051 120.965 288.003 120.648 281.007 120.648 281.007 120.648 281.007 149.285 289.281 168.398 272.416 187.483 255.533 169.657 228.481 144.192 216.075ZM178.892 234.209C183.985 236.447 193.845 234.852 200.216 228.481 206.577 222.119 209.45 210.338 198.312 210.973 198.312 210.973 194.171 205.562 185.263 208.109 176.354 210.655 165.216 222.437 173.174 230.067 173.164 233.565 174.125 240.253 178.892 234.209ZM187.8 274.636C187.8 269.86 187.483 250.765 186.84 246.941 186.205 243.126 182.707 239.936 180.795 243.76 180.795 243.76 179.2 262.221 179.834 273.676 180.16 278.46 187.8 279.403 187.8 274.636ZM205.3 249.488C211.978 248.853 216.764 248.527 222.491 247.585 228.218 246.633 228.536 242.492 224.077 241.54 224.077 241.54 206.568 237.725 194.796 245.356 189.069 249.171 190.655 256.176 193.836 256.493 197.017 256.81 213.247 257.454 217.072 259.991 220.887 262.538 221.848 264.45 217.706 266.996 213.564 269.543 204.339 270.812 200.514 269.543 196.699 268.265 195.422 261.586 202.418 265.084 209.423 268.582 222.147 264.45 213.555 261.586 204.964 258.723 197.968 259.366 193.509 262.547 189.051 265.728 195.105 272.416 200.188 274.636 205.282 276.856 214.833 277.5 220.561 274.002 226.288 270.504 229.152 257.137 219.926 254.907 210.692 252.687 204.964 253.004 200.832 252.361 196.708 251.717 198.621 250.131 205.3 249.488ZM251.781 238.685C241.912 227.221 246.996 243.443 247.639 246.307 248.273 249.171 250.82 259.991 250.82 264.45 247.639 259.674 242.546 250.122 238.087 245.673 233.629 241.214 232.36 245.038 232.36 245.038 232.36 245.038 227.901 261.269 229.179 271.772 230.457 282.276 235.858 274.953 236.184 271.772 236.502 268.591 237.145 258.088 237.145 255.224 240.009 261.586 244.467 268.908 247.965 272.416 251.463 275.914 254.971 273.693 256.239 270.513 257.508 267.332 261.65 250.14 251.781 238.685ZM285.828 271.12C289.326 268.256 285.185 265.401 281.686 265.728 278.189 266.045 268.002 267.631 268.002 267.631L270.223 260.952C270.223 260.952 276.902 261.269 282.312 260.635 287.722 260 283.907 253.956 281.995 253.956 280.092 253.956 273.087 253.956 273.087 253.956L274.681 249.497C274.681 249.497 286.454 249.18 290.269 248.536 294.084 247.902 288.048 241.531 283.59 241.214 279.131 240.897 269.579 242.174 263.217 243.434 256.855 244.712 267.359 249.479 267.359 249.479 267.359 249.479 266.398 252.66 265.139 254.889 261.323 255.523 261.64 257.753 262.918 260.616 260.372 267.295 259.103 275.579 266.416 278.125 273.739 280.663 282.33 273.975 285.828 271.12ZM324.669 252.678C325.621 239.302 313.523 242.174 308.747 246.95 303.971 251.726 295.697 264.142 295.697 264.142 296.658 255.868 298.878 253.638 303.971 245.364 308.321 238.296 301.424 240.906 301.424 240.906 301.424 240.906 285.194 254.59 292.19 270.187 287.414 281.958 279.774 298.824 290.912 307.741 293.776 309.644 292.815 303.926 293.776 300.736 294.736 297.555 297.917 281.324 301.098 276.865 308.756 276.231 322.44 273.367 324.669 252.678ZM380.657 251.808C380.684 251.237 380.204 250.765 379.615 250.765L360.457 250.765C360.058 244.431 359.297 237.67 357.901 231.318 357.82 230.964 357.53 230.683 357.167 230.656 354.566 230.656 354.167 230.674 351.721 230.674 351.014 230.692 350.534 231.354 350.715 232.025 351.512 234.952 352.672 242.419 353.053 250.757L334.856 250.757C334.294 250.757 333.822 251.219 333.795 251.772L333.315 256.593C333.279 257.363 333.94 257.998 334.711 257.916L353.271 257.979C353.379 264.812 353.434 268.918 352.853 276.14 352.781 276.621 353.153 277.029 353.642 277.056 356.56 277.237 358.409 277.464 359.505 277.482 359.95 277.491 360.312 277.155 360.348 276.711 360.52 274.391 360.964 267.105 360.747 258.007L379.597 258.07C380.186 258.07 380.657 257.59 380.657 257.001L380.657 251.808Z" fill="#000000" fill-rule="nonzero" fill-opacity="1" transform="matrix(1 0 0 1.01712 48.978 61.6654)"/></g></g></g></g></g></svg>