<svg width="380" height="383" xmlns="http://www.w3.org/2000/svg" xmlns:xlink="http://www.w3.org/1999/xlink" xml:space="preserve" overflow="hidden"><g transform="translate(-529 -17)"><g><g><g><path d="M1846.67 2338.34C1840.9 2338.34 1835.29 2338.94 1829.86 2340.05L1829.86 2494.24C1823.91 2496.36 1818.2 2498.96 1813.05 2502.42L1813.05 2345.43C1792.12 2354.59 1775.86 2372.11 1767.97 2393.69L1796.24 2413.49 1796.24 2516.7 1762.62 2493.16 1762.62 2624.08C1762.62 2658.52 1783.4 2688.06 1813.05 2701.03L1813.05 2628.09C1825.08 2636.17 1839.53 2640.89 1855.07 2640.89 1870.61 2640.89 1885.06 2636.17 1897.09 2628.09L1897.09 2708.13 2048.36 2708.13C2054.57 2708.13 2060.57 2707.37 2066.39 2706.09L1919.97 2603.46C1926.63 2592.21 1930.71 2579.25 1930.71 2565.25 1930.71 2547.43 1924.25 2531.25 1913.9 2518.31L1913.9 2495.95 2128.96 2646.7C2130.99 2639.46 2132.41 2631.96 2132.41 2624.08L2132.41 2539.61C2023.1 2535.28 1935.47 2447.65 1931.13 2338.34L1897.09 2338.34 1897.09 2502.42C1891.93 2498.96 1886.23 2496.36 1880.28 2494.24L1880.28 2338.34 1846.67 2338.34ZM1998.37 2338.34C2002.57 2410.52 2060.23 2468.16 2132.41 2472.38L2132.41 2422.38C2132.41 2375.98 2094.77 2338.34 2048.36 2338.34L1998.37 2338.34ZM1855.07 2506.43C1871.56 2506.43 1886.41 2513.26 1897.09 2524.19 1899.68 2526.84 1902.02 2529.72 1904.08 2532.82 1906.15 2535.91 1907.91 2539.23 1909.37 2542.7 1910.82 2546.17 1911.95 2549.8 1912.72 2553.57 1913.48 2557.35 1913.9 2561.25 1913.9 2565.25 1913.9 2569.25 1913.48 2573.17 1912.72 2576.94 1911.95 2580.71 1910.82 2584.33 1909.37 2587.81 1907.91 2591.28 1906.15 2594.59 1904.08 2597.69 1902.02 2600.79 1899.68 2603.67 1897.09 2606.32 1886.41 2617.25 1871.56 2624.08 1855.07 2624.08 1838.59 2624.08 1823.73 2617.27 1813.05 2606.35 1812.75 2606.05 1812.53 2605.66 1812.23 2605.34 1809.99 2602.94 1807.88 2600.43 1806.06 2597.69 1803.99 2594.59 1802.22 2591.28 1800.77 2587.81 1799.32 2584.33 1798.19 2580.71 1797.42 2576.94 1796.66 2573.17 1796.24 2569.25 1796.24 2565.25 1796.24 2561.25 1796.66 2557.35 1797.42 2553.57 1798.19 2549.8 1799.32 2546.17 1800.77 2542.7 1802.22 2539.23 1803.99 2535.91 1806.06 2532.82 1808.12 2529.72 1810.45 2526.84 1813.05 2524.19 1823.73 2513.26 1838.58 2506.43 1855.07 2506.43ZM1855.5 2526.88C1853.89 2526.87 1852.28 2527.8 1851.66 2529.63L1830.09 2593.52C1828.66 2597.81 1833.98 2601.08 1837.14 2597.85L1855.53 2579.04 1872.93 2597.43C1876.04 2600.7 1881.46 2597.49 1880.05 2593.19L1859.3 2529.67C1858.71 2527.83 1857.1 2526.89 1855.5 2526.88Z" fill="#FFFFFF" fill-rule="nonzero" fill-opacity="1" transform="matrix(1 0 0 1.00331 -1228.22 -2323.09)"/></g></g></g></g></svg>