<svg width="501" height="500" xmlns="http://www.w3.org/2000/svg" xmlns:xlink="http://www.w3.org/1999/xlink" xml:space="preserve" overflow="hidden"><g transform="translate(-129 314)"><g><g><g><g><path d="M490-274.1 270-274.1C214.86-274.1 170-229.24 170-174.1L170 45.9C170 101.04 214.86 145.9 270 145.9L490 145.9C545.14 145.9 590 101.04 590 45.9L590-174.1C590-229.24 545.14-274.1 490-274.1ZM429.93-35.17C426.88-33.61 423.13-33.61 420.08-35.17 362.64-64.58 330-110.86 330-152.45 330-200.31 382.6-218.41 417.71-185.92 421.84-182.09 428.15-182.09 432.28-185.92 467.4-218.41 520-200.31 520-152.45 520-110.86 487.36-64.58 429.93-35.17Z" fill="#FFFFFF" fill-rule="nonzero" fill-opacity="1"/></g></g></g></g></g></svg>