<svg width="330" height="329" xmlns="http://www.w3.org/2000/svg" xmlns:xlink="http://www.w3.org/1999/xlink" xml:space="preserve" overflow="hidden"><g transform="translate(-582 -80)"><g><g><g><path d="M304.911 1016.16C281.047 1016.16 260.812 1031.93 253.946 1053.55 258.15 1055.74 262.092 1058.41 265.643 1061.7 266.139 1062.17 266.635 1062.69 267.105 1063.16L295.512 1091.57C299.324 1095.38 302.456 1099.66 304.911 1104.31 307.365 1099.68 310.498 1095.38 314.31 1091.57L342.716 1063.16C343.187 1062.66 343.683 1062.17 344.179 1061.7 347.729 1058.41 351.671 1055.74 355.877 1053.55 349.035 1031.93 328.774 1016.16 304.911 1016.16ZM355.877 1053.55C357.287 1058.02 357.989 1062.66 358.172 1067.55 358.2 1068.25 358.382 1068.93 358.382 1069.63L358.382 1109.74C358.382 1115.22 357.624 1120.44 356.084 1125.4 361.069 1123.86 366.268 1123.11 371.75 1123.11L411.853 1123.11C412.532 1123.11 413.263 1123.08 413.941 1123.11 418.823 1123.29 423.471 1124.2 427.936 1125.61 438.379 1105.48 435.196 1080.03 418.327 1063.16 408.226 1053.06 394.803 1047.49 380.522 1047.49 371.802 1047.49 363.395 1049.63 355.877 1053.55ZM427.936 1125.61C425.769 1129.76 423.106 1133.73 419.792 1137.31 419.319 1137.8 418.799 1138.27 418.327 1138.77L389.921 1167.18C386.11 1170.99 381.828 1174.12 377.18 1176.58 381.828 1179.03 386.11 1182.16 389.921 1185.98L418.327 1214.38C418.799 1214.85 419.319 1215.35 419.792 1215.84 423.106 1219.42 425.769 1223.39 427.936 1227.54 449.556 1220.68 465.325 1200.44 465.325 1176.58 465.325 1152.71 449.556 1132.45 427.936 1125.61ZM427.936 1227.54C423.471 1228.95 418.823 1229.66 413.941 1229.84 413.263 1229.87 412.532 1230.05 411.853 1230.05L371.75 1230.05C366.268 1230.05 361.069 1229.29 356.084 1227.75 357.624 1232.74 358.382 1237.93 358.382 1243.42L358.382 1283.52C358.382 1284.23 358.2 1284.93 358.172 1285.61 357.989 1290.49 357.287 1295.14 355.877 1299.6 363.395 1303.52 371.802 1305.66 380.522 1305.66 394.803 1305.66 408.226 1300.1 418.327 1289.99 435.196 1273.13 438.379 1247.67 427.936 1227.54ZM355.877 1299.6C351.671 1297.41 347.729 1294.75 344.179 1291.46 343.683 1290.99 343.213 1290.47 342.716 1289.99L314.31 1261.59C310.498 1257.78 307.365 1253.49 304.911 1248.85 302.456 1253.49 299.324 1257.78 295.512 1261.59L267.105 1289.99C266.635 1290.47 266.139 1290.99 265.643 1291.46 262.092 1294.75 258.15 1297.41 253.946 1299.6 260.812 1321.22 281.047 1336.99 304.911 1336.99 328.774 1336.99 349.011 1321.22 355.877 1299.6ZM253.946 1299.6C252.536 1295.14 251.831 1290.49 251.648 1285.61 251.622 1284.9 251.439 1284.23 251.439 1283.52L251.439 1243.42C251.439 1237.93 252.197 1232.74 253.737 1227.75 248.777 1229.29 243.554 1230.05 238.072 1230.05L197.968 1230.05C197.263 1230.05 196.558 1229.87 195.88 1229.84 190.997 1229.66 186.349 1228.95 181.885 1227.54 177.969 1235.06 175.827 1243.47 175.827 1252.19 175.827 1266.47 181.389 1279.89 191.493 1289.99 201.597 1300.1 215.018 1305.66 229.299 1305.66 238.02 1305.66 246.426 1303.52 253.946 1299.6ZM181.885 1227.54C184.078 1223.34 186.741 1219.4 190.031 1215.84 190.501 1215.35 191.023 1214.85 191.493 1214.38L219.899 1185.98C223.712 1182.16 227.994 1179.03 232.641 1176.58 227.994 1174.12 223.712 1170.99 219.899 1167.18L191.493 1138.77C191.023 1138.3 190.501 1137.8 190.031 1137.31 186.741 1133.76 184.078 1129.82 181.885 1125.61 160.267 1132.48 144.497 1152.71 144.497 1176.58 144.497 1200.44 160.267 1220.7 181.885 1227.54ZM181.885 1125.61C186.349 1124.2 190.997 1123.5 195.88 1123.32 196.558 1123.29 197.263 1123.11 197.968 1123.11L238.072 1123.11C243.554 1123.11 248.777 1123.86 253.737 1125.4 252.197 1120.44 251.439 1115.22 251.439 1109.74L251.439 1069.63C251.439 1068.93 251.622 1068.22 251.648 1067.55 251.831 1062.66 252.536 1058.02 253.946 1053.55 246.426 1049.63 238.02 1047.49 229.299 1047.49 215.018 1047.49 201.597 1053.06 191.493 1063.16 181.389 1073.26 175.827 1086.68 175.827 1100.97 175.827 1109.69 177.969 1118.09 181.885 1125.61ZM264.807 1079.66 264.807 1109.74C264.807 1127.75 276.844 1142.92 293.214 1147.96 296.242 1142.24 297.809 1136 297.809 1129.37 297.809 1118.67 293.684 1108.54 286.112 1100.97ZM345.014 1079.66 323.709 1100.97C316.138 1108.54 312.012 1118.67 312.012 1129.37 312.012 1136 313.579 1142.24 316.608 1147.96 332.978 1142.92 345.014 1127.75 345.014 1109.74ZM207.994 1136.47 229.299 1157.78C236.871 1165.35 247 1169.48 257.706 1169.48 264.337 1169.48 270.577 1167.91 276.296 1164.88 271.256 1148.51 256.087 1136.47 238.072 1136.47ZM371.75 1136.47C353.734 1136.47 338.566 1148.51 333.526 1164.88 339.244 1167.91 345.483 1169.48 352.115 1169.48 362.82 1169.48 372.952 1165.35 380.522 1157.78L401.828 1136.47ZM299.271 1163C298.097 1164.46 296.869 1165.84 295.512 1167.18 294.154 1168.51 292.796 1169.76 291.335 1170.94 291.517 1172.79 291.543 1174.67 291.543 1176.58 291.543 1178.48 291.517 1180.36 291.335 1182.22 292.796 1183.39 294.154 1184.62 295.512 1185.98 296.869 1187.33 298.097 1188.69 299.271 1190.15 301.125 1189.97 303.004 1189.94 304.911 1189.94 306.817 1189.94 308.696 1189.97 310.551 1190.15 311.725 1188.69 312.952 1187.31 314.31 1185.98 315.668 1184.65 317.026 1183.39 318.487 1182.22 318.305 1180.36 318.279 1178.48 318.279 1176.58 318.279 1174.67 318.305 1172.79 318.487 1170.94 317.026 1169.76 315.642 1168.54 314.31 1167.18 312.952 1165.82 311.725 1164.46 310.551 1163 308.696 1163.18 306.817 1163.21 304.911 1163.21 303.004 1163.21 301.125 1163.18 299.271 1163ZM257.706 1183.68C247 1183.68 236.871 1188.01 229.299 1195.58L207.994 1216.68 238.072 1216.68C256.087 1216.68 271.256 1204.64 276.296 1188.27 270.577 1185.24 264.337 1183.68 257.706 1183.68ZM352.115 1183.68C345.483 1183.68 339.036 1185.24 333.317 1188.27 338.382 1204.64 353.734 1216.68 371.75 1216.68L401.828 1216.68 380.522 1195.37C372.952 1187.8 362.82 1183.68 352.115 1183.68ZM293.214 1204.98C276.844 1210.05 264.807 1225.4 264.807 1243.42L264.807 1273.49 286.112 1252.19C293.684 1244.62 297.809 1234.49 297.809 1223.78 297.809 1217.15 296.242 1210.7 293.214 1204.98ZM316.608 1205.19C313.579 1210.91 312.012 1217.15 312.012 1223.78 312.012 1234.49 316.346 1244.62 323.919 1252.19L345.014 1273.49 345.014 1243.42C345.014 1225.4 332.978 1210.23 316.608 1205.19Z" fill="#FFFFFF" fill-rule="nonzero" fill-opacity="1" transform="matrix(1 0 0 1.00614 441.895 -938.65)"/></g></g></g></g></svg>