<svg width="681" height="683" xmlns="http://www.w3.org/2000/svg" xmlns:xlink="http://www.w3.org/1999/xlink" xml:space="preserve" overflow="hidden"><g transform="translate(-300 -18)"><g><g><g><path d="M784.509-438.845 432.28-438.845C343.999-438.845 272.176-367.022 272.176-278.741L272.176 73.4877C272.176 161.769 343.999 233.591 432.28 233.591L784.509 233.591C872.79 233.591 944.613 161.769 944.613 73.4877L944.613-278.741C944.613-367.022 872.79-438.845 784.509-438.845ZM688.334-56.3085C683.451-53.8109 677.447-53.8109 672.564-56.3085 580.601-103.395 528.343-177.491 528.343-244.078 528.343-320.704 612.557-349.683 668.77-297.665 675.382-291.533 685.484-291.533 692.097-297.665 748.325-349.683 832.54-320.704 832.54-244.078 832.54-177.491 780.282-103.395 688.334-56.3085Z" fill="#FFFFFF" fill-rule="nonzero" fill-opacity="1" transform="matrix(1 0 0 1.00347 32.6894 462.822)"/></g></g></g></g></svg>