<svg width="366" height="365" xmlns="http://www.w3.org/2000/svg" xmlns:xlink="http://www.w3.org/1999/xlink" xml:space="preserve" overflow="hidden"><g transform="translate(-556 -44)"><g><g><g><path d="M-605.108-508.831-571.461-579.621C-597.159-585.079-623.017-600.975-637.642-620.315L-672.825-546.346C-653.272-529.761-629.799-516.726-605.108-508.831" fill="#FFFFFF" fill-rule="evenodd" fill-opacity="1" transform="matrix(1.00304 0 0 1 1283.64 831.619)"/><path d="M-464.694-622.435C-481.596-601.717-505.069-586.351-530.184-580.363L-496.643-509.785C-472.164-518.05-449.273-531.403-429.51-548.517Z" fill="#FFFFFF" fill-rule="evenodd" fill-opacity="1" transform="matrix(1.00304 0 0 1 1283.64 831.619)"/><path d="M-672.825-546.346-690.417-509.36C-699.371-490.551-692.641-467.395-674.202-457.593-654.65-447.208-630.594-455.314-621.162-475.079L-605.108-508.831C-629.9-516.822-652.902-529.565-672.825-546.346" fill="#FFFFFF" fill-rule="evenodd" fill-opacity="1" transform="matrix(1.00304 0 0 1 1283.64 831.619)"/><path d="M-394.856-703.186C-397.352-703.684-399.896-703.938-402.439-703.938-420.789-703.938-436.727-690.866-440.319-672.878-444.028-654.331-452.718-637.059-464.694-622.382L-429.563-548.412C-397.135-576.547-373.185-614.857-364.6-657.724-360.415-678.706-373.979-699.052-394.856-703.186" fill="#FFFFFF" fill-rule="evenodd" fill-opacity="1" transform="matrix(1.00304 0 0 1 1283.64 831.619)"/><path d="M-530.184-580.363C-537.709-578.561-545.391-577.608-553.075-577.608-559.062-577.608-565.261-578.297-571.461-579.621-597.159-585.079-623.017-600.975-637.642-620.315-641.297-625.136-644.265-630.17-646.332-635.31-654.331-655.073-676.852-664.611-696.615-656.663-716.38-648.662-725.917-626.143-717.969-606.38-708.909-583.914-692.907-563.301-672.825-546.346-652.918-529.565-629.937-516.827-605.16-508.831-588.152-503.373-570.508-500.353-553.128-500.353-533.841-500.353-514.818-503.691-496.697-509.785Z" fill="#FFFFFF" fill-rule="evenodd" fill-opacity="1" transform="matrix(1.00304 0 0 1 1283.64 831.619)"/><path d="M-411.018-509.52-429.563-548.517-464.694-622.435-464.746-622.382C-464.746-622.382-464.746-622.435-464.694-622.435L-515.772-729.891C-522.162-743.324-535.763-751.922-550.637-751.933-565.527-751.933-579.09-743.35-585.503-729.891L-637.589-620.315C-622.964-600.975-597.107-585.079-571.408-579.621L-554.558-615.016C-552.969-618.355-548.2-618.355-546.61-615.016L-530.131-580.363-530.025-580.363-530.131-580.363-496.59-509.785-480.112-475.132C-473.727-461.673-460.094-453.062-445.194-453.089-441.75-453.089-438.306-453.566-434.914-454.52-411.653-460.931-400.633-487.689-411.018-509.52" fill="#FFFFFF" fill-rule="evenodd" fill-opacity="1" transform="matrix(1.00304 0 0 1 1283.64 831.619)"/><path d="M152.602 275.372 186.248 204.582C160.55 199.124 134.692 183.228 120.068 163.888L84.8847 237.857C104.437 254.442 127.91 267.476 152.602 275.372" fill="#FFFFFF" fill-rule="evenodd" fill-opacity="1" transform="matrix(1.00304 0 0 1 523.624 47.4175)"/><path d="M293.016 161.768C276.113 182.486 252.641 197.852 227.524 203.84L261.065 274.418C285.545 266.153 308.435 252.8 328.199 235.684Z" fill="#FFFFFF" fill-rule="evenodd" fill-opacity="1" transform="matrix(1.00304 0 0 1 523.624 47.4175)"/><path d="M84.8847 237.857 67.2931 274.841C58.3383 293.652 65.0676 316.807 83.5069 326.61 103.059 336.995 127.115 328.888 136.547 309.124L152.602 275.372C127.809 267.381 104.808 254.638 84.8847 237.857" fill="#FFFFFF" fill-rule="evenodd" fill-opacity="1" transform="matrix(1.00304 0 0 1 523.624 47.4175)"/><path d="M362.852 81.0166C360.357 80.5185 357.813 80.2642 355.27 80.2642 336.921 80.2642 320.982 93.336 317.391 111.325 313.681 129.87 304.991 147.144 293.016 161.821L328.146 235.791C360.575 207.654 384.524 169.346 393.108 126.479 397.293 105.496 383.729 85.1496 362.852 81.0166" fill="#FFFFFF" fill-rule="evenodd" fill-opacity="1" transform="matrix(1.00304 0 0 1 523.624 47.4175)"/><path d="M227.524 203.84C220.001 205.641 212.317 206.595 204.635 206.595 198.647 206.595 192.447 205.906 186.248 204.582 160.55 199.124 134.692 183.228 120.068 163.888 116.412 159.066 113.444 154.032 111.378 148.892 103.377 129.128 80.8576 119.591 61.0936 127.539 41.3295 135.539 31.792 158.059 39.7401 177.823 48.8007 200.289 64.8027 220.901 84.8847 237.857 104.792 254.638 127.772 267.376 152.549 275.372 169.558 280.829 187.202 283.85 204.582 283.85 223.869 283.85 242.89 280.511 261.012 274.418Z" fill="#FFFFFF" fill-rule="evenodd" fill-opacity="1" transform="matrix(1.00304 0 0 1 523.624 47.4175)"/><path d="M346.691 274.683 328.146 235.684 293.016 161.768 292.963 161.821C292.963 161.821 292.963 161.768 293.016 161.768L241.937 54.3114C235.546 40.8792 221.945 32.2794 207.072 32.2688 192.182 32.2688 178.618 40.8527 172.206 54.3114L120.121 163.888C134.745 183.228 160.603 199.124 186.301 204.582L203.151 169.186C204.741 165.848 209.51 165.848 211.099 169.186L227.577 203.84 227.683 203.84 227.577 203.84 261.118 274.418 277.597 309.071C283.982 322.53 297.616 331.14 312.515 331.114 315.96 331.114 319.403 330.637 322.794 329.683 346.055 323.272 357.077 296.513 346.691 274.683" fill="#FFFFFF" fill-rule="evenodd" fill-opacity="1" transform="matrix(1.00304 0 0 1 523.624 47.4175)"/></g></g></g></g></svg>