<svg width="473" height="474" xmlns="http://www.w3.org/2000/svg" xmlns:xlink="http://www.w3.org/1999/xlink" xml:space="preserve" overflow="hidden"><g transform="translate(-313 -102)"><g><g><g><g><g><g><g><g><g><path d="M117.033 0C133.216 0 146.291 13.0747 146.291 29.2582L146.291 58.5164 263.324 58.5164 263.324 29.2582C263.324 13.0747 276.399 0 292.582 0 308.765 0 321.84 13.0747 321.84 29.2582L321.84 58.5164 365.727 58.5164C389.957 58.5164 409.615 78.1744 409.615 102.404L409.615 146.291 0 146.291 0 102.404C0 78.1744 19.6578 58.5164 43.8875 58.5164L87.7746 58.5164 87.7746 29.2582C87.7746 13.0747 100.849 0 117.033 0ZM0 175.549 409.615 175.549 409.615 424.243C409.615 448.473 389.957 468.131 365.727 468.131L43.8875 468.131C19.6578 468.131 0 448.473 0 424.243L0 175.549ZM58.5164 248.694 58.5164 277.953C58.5164 285.999 65.0996 292.582 73.1453 292.582L102.404 292.582C110.45 292.582 117.033 285.999 117.033 277.953L117.033 248.694C117.033 240.649 110.45 234.066 102.404 234.066L73.1453 234.066C65.0996 234.066 58.5164 240.649 58.5164 248.694ZM175.549 248.694 175.549 277.953C175.549 285.999 182.132 292.582 190.178 292.582L219.437 292.582C227.482 292.582 234.066 285.999 234.066 277.953L234.066 248.694C234.066 240.649 227.482 234.066 219.437 234.066L190.178 234.066C182.132 234.066 175.549 240.649 175.549 248.694ZM307.211 234.066C299.165 234.066 292.582 240.649 292.582 248.694L292.582 277.953C292.582 285.999 299.165 292.582 307.211 292.582L336.469 292.582C344.515 292.582 351.098 285.999 351.098 277.953L351.098 248.694C351.098 240.649 344.515 234.066 336.469 234.066L307.211 234.066ZM58.5164 365.727 58.5164 394.987C58.5164 403.03 65.0996 409.615 73.1453 409.615L102.404 409.615C110.45 409.615 117.033 403.03 117.033 394.987L117.033 365.727C117.033 357.682 110.45 351.098 102.404 351.098L73.1453 351.098C65.0996 351.098 58.5164 357.682 58.5164 365.727ZM190.178 351.098C182.132 351.098 175.549 357.682 175.549 365.727L175.549 394.987C175.549 403.03 182.132 409.615 190.178 409.615L219.437 409.615C227.482 409.615 234.066 403.03 234.066 394.987L234.066 365.727C234.066 357.682 227.482 351.098 219.437 351.098L190.178 351.098ZM292.582 365.727 292.582 394.987C292.582 403.03 299.165 409.615 307.211 409.615L336.469 409.615C344.515 409.615 351.098 403.03 351.098 394.987L351.098 365.727C351.098 357.682 344.515 351.098 336.469 351.098L307.211 351.098C299.165 351.098 292.582 357.682 292.582 365.727Z" fill="#FFFFFF" fill-rule="nonzero" fill-opacity="1" transform="matrix(1.00289 0 0 1 346.061 103.754)"/></g></g></g></g></g></g></g></g></g></g></svg>