<svg width="468" height="468" xmlns="http://www.w3.org/2000/svg" xmlns:xlink="http://www.w3.org/1999/xlink" xml:space="preserve" overflow="hidden"><defs><clipPath id="clip0"><rect x="450" y="109" width="468" height="468"/></clipPath><clipPath id="clip1"><rect x="450" y="109" width="468" height="468"/></clipPath><clipPath id="clip2"><rect x="451" y="110" width="467" height="467"/></clipPath><clipPath id="clip3"><rect x="451" y="110" width="468" height="467"/></clipPath></defs><g clip-path="url(#clip0)" transform="translate(-450 -109)"><g clip-path="url(#clip1)"><g clip-path="url(#clip2)"><g clip-path="url(#clip3)"><path d="M269.253 134.627C195.434 134.627 134.627 195.434 134.627 269.253L134.627 807.757C134.627 881.578 195.434 942.387 269.253 942.387L807.757 942.387C881.578 942.387 942.387 881.578 942.387 807.757L942.387 269.253C942.387 195.434 881.578 134.627 807.757 134.627L269.253 134.627ZM269.253 224.378 807.757 224.378C833.112 224.378 852.634 243.897 852.634 269.253L852.634 807.757C852.634 833.112 833.112 852.634 807.757 852.634L269.253 852.634C243.897 852.634 224.378 833.112 224.378 807.757L224.378 269.253C224.378 243.897 243.897 224.378 269.253 224.378ZM460.764 359.004C453.225 359.004 446.222 362.758 442.094 368.996L426.317 403.88 403.88 403.88C403.88 391.494 393.828 381.442 381.442 381.442 369.056 381.442 359.004 391.494 359.004 403.88 334.233 403.88 314.129 423.984 314.129 448.755L314.129 673.133C314.129 697.904 334.233 718.009 359.004 718.009L718.009 718.009C742.781 718.009 762.886 697.904 762.886 673.133L762.886 448.755C762.886 423.984 742.781 403.88 718.009 403.88L650.695 403.88 634.919 368.996C630.742 362.758 623.742 359.004 616.249 359.004L460.764 359.004ZM538.508 448.755C600.39 448.755 650.695 499.061 650.695 560.941 650.695 622.828 600.39 673.133 538.508 673.133 476.623 673.133 426.317 622.828 426.317 560.941 426.317 499.061 476.623 448.755 538.508 448.755ZM695.571 448.755C707.957 448.755 718.009 458.807 718.009 471.193 718.009 483.579 707.957 493.631 695.571 493.631 683.185 493.631 673.133 483.579 673.133 471.193 673.133 458.807 683.185 448.755 695.571 448.755ZM538.508 493.631C501.331 493.631 471.193 523.769 471.193 560.941 471.193 598.12 501.331 628.256 538.508 628.256 575.681 628.256 605.818 598.12 605.818 560.941 605.818 523.769 575.681 493.631 538.508 493.631Z" fill="#FFFFFF" fill-rule="nonzero" fill-opacity="1" transform="matrix(1 0 0 1.00817 148.004 -194.567)"/></g></g></g></g></svg>