<svg width="512" height="512" xmlns="http://www.w3.org/2000/svg" xmlns:xlink="http://www.w3.org/1999/xlink" xml:space="preserve" overflow="hidden"><g transform="translate(-384 -104)"><g><path d="M384 360C384 313.4 396.47 269.6 418.27 231.1L528.1 422.3C550 461.5 591.9 488 640 488 654.3 488 667.1 485.7 680.8 481.4L604.5 613.6C479.9 596.3 384 489.3 384 360ZM749.1 425.6C761.4 406.4 768 383.1 768 360 768 321.8 751.2 287.5 724.7 264L877.4 264C889.4 293.6 896 326.1 896 360 896 501.4 781.4 615.1 640 616L749.1 425.6ZM861.8 232 640 232C577.1 232 526.3 276.1 514.5 334.7L438.19 202.47C485 142.53 558 104 640 104 734.8 104 817.5 155.48 861.8 232ZM552 360C552 311.4 591.4 272 640 272 688.6 272 728 311.4 728 360 728 408.6 688.6 448 640 448 591.4 448 552 408.6 552 360Z" fill="#FFFFFF" fill-rule="nonzero" fill-opacity="1"/></g></g></svg>