<svg width="640" height="640" xmlns="http://www.w3.org/2000/svg" xmlns:xlink="http://www.w3.org/1999/xlink" xml:space="preserve" overflow="hidden"><defs><clipPath id="clip0"><rect x="88" y="-126" width="640" height="640"/></clipPath><clipPath id="clip1"><rect x="88" y="-126" width="640" height="640"/></clipPath><clipPath id="clip2"><rect x="88" y="-63" width="640" height="513"/></clipPath><clipPath id="clip3"><rect x="88" y="-63" width="640" height="513"/></clipPath><clipPath id="clip4"><rect x="88" y="-63" width="640" height="513"/></clipPath><clipPath id="clip5"><rect x="88" y="-63" width="640" height="513"/></clipPath></defs><g clip-path="url(#clip0)" transform="translate(-88 126)"><g clip-path="url(#clip1)"><g clip-path="url(#clip2)"><g clip-path="url(#clip3)"><g clip-path="url(#clip4)"><g clip-path="url(#clip5)"><path d="M727.661 423.771 496.939 420.844C495.493 420.812 494.146 420.098 493.308 418.918 492.498 417.693 492.314 416.155 492.814 414.773 493.631 412.469 495.735 410.869 498.174 410.698L731.035 407.763C758.657 406.503 788.562 384.197 799.034 356.996L812.316 322.466C812.674 321.529 812.852 320.533 812.84 319.531 812.843 318.983 812.788 318.436 812.676 317.9 793.956 236.147 712.507 185.048 630.753 203.768 579.635 215.472 538.174 252.722 521.082 302.298 491.068 279.636 448.365 285.596 425.702 315.61 413.233 332.124 408.95 353.412 414.061 373.465 361.802 374.98 319.893 417.588 319.893 469.962 319.896 474.633 320.239 479.296 320.921 483.915 321.237 486.129 323.128 487.776 325.365 487.785L751.322 487.836C751.365 487.836 751.402 487.817 751.443 487.816 753.883 487.772 756.014 486.156 756.713 483.817L759.985 472.556C763.883 459.161 762.432 446.765 755.886 437.668 749.872 429.279 739.841 424.344 727.661 423.771ZM833.576 324.991C831.436 324.991 829.306 325.053 827.187 325.155 825.639 325.271 824.32 326.323 823.864 327.807L814.79 358.989C810.892 372.385 812.342 384.767 818.889 393.868 824.907 402.265 834.938 407.186 847.117 407.763L896.301 410.701C897.702 410.75 899 411.45 899.81 412.594 900.636 413.822 900.827 415.37 900.323 416.762 899.506 419.06 897.407 420.659 894.974 420.836L843.867 423.774C816.122 425.043 786.217 447.34 775.744 474.541L772.051 484.143C771.517 485.545 772.221 487.113 773.622 487.647 773.896 487.751 774.184 487.81 774.477 487.822 774.523 487.822 774.565 487.839 774.613 487.839L950.464 487.839C952.559 487.856 954.411 486.481 955.001 484.47 958.119 473.41 959.695 461.973 959.682 450.482 959.678 381.172 903.221 324.991 833.576 324.991Z" fill="#FFFFFF" fill-rule="nonzero" fill-opacity="1" transform="matrix(1.00034 0 0 1 -232 -166.217)"/></g></g></g></g></g></g></svg>