<svg width="541" height="542" xmlns="http://www.w3.org/2000/svg" xmlns:xlink="http://www.w3.org/1999/xlink" xml:space="preserve" overflow="hidden"><g transform="translate(-628 -62)"><g><g><g><path d="M163.676 50.362C101.203 50.362 50.362 101.19 50.362 163.676L50.362 465.848C50.362 528.335 101.203 579.163 163.676 579.163L465.848 579.163C470.104 579.163 474.297 578.891 478.439 578.425L478.439 51.0997C474.297 50.6338 470.104 50.362 465.848 50.362L163.676 50.362ZM503.62 56.9769 503.62 176.267 579.163 176.267 579.163 163.676C579.163 114.448 547.561 72.5767 503.62 56.9769ZM276.991 151.086C367.24 151.086 440.667 224.514 440.667 314.762 440.667 405.011 367.24 478.439 276.991 478.439 186.742 478.439 113.314 405.011 113.314 314.762 113.314 224.514 186.742 151.086 276.991 151.086ZM276.991 176.267C200.63 176.267 138.495 238.401 138.495 314.762 138.495 350.192 151.985 382.464 173.955 406.978 200.056 380.55 237.356 365.124 276.991 365.124 316.525 365.124 353.963 380.514 380.075 406.929 402.008 382.415 415.486 350.167 415.486 314.762 415.486 238.401 353.352 176.267 276.991 176.267ZM503.62 201.448 503.62 302.172 579.163 302.172 579.163 201.448 503.62 201.448ZM276.991 232.924C308.228 232.924 333.648 258.345 333.648 289.581 333.648 320.818 308.228 346.239 276.991 346.239 245.754 346.239 220.334 320.818 220.334 289.581 220.334 258.345 245.754 232.924 276.991 232.924ZM503.62 327.353 503.62 428.077 579.163 428.077 579.163 327.353 503.62 327.353ZM503.62 453.258 503.62 572.548C547.561 556.948 579.163 515.077 579.163 465.848L579.163 453.258 503.62 453.258Z" fill="#FFFFFF" fill-rule="nonzero" fill-opacity="1" transform="matrix(1.00967 0 0 1 581.259 16.2298)"/></g></g></g></g></svg>