<svg width="588" height="588" xmlns="http://www.w3.org/2000/svg" xmlns:xlink="http://www.w3.org/1999/xlink" xml:space="preserve" overflow="hidden"><g transform="translate(-104 60)"><g><g><g><g><path d="M774.593 159.44C774.444 159.149 774.195 158.922 773.893 158.798 738.927 142.756 702.027 131.316 664.118 124.765 663.412 124.634 662.701 124.97 662.354 125.6 657.33 134.719 652.769 144.086 648.688 153.666 607.825 147.463 566.258 147.463 525.394 153.666 521.287 144.062 516.653 134.693 511.513 125.6 511.152 124.985 510.452 124.654 509.748 124.765 471.835 131.302 434.933 142.743 399.972 158.799 399.673 158.926 399.42 159.143 399.249 159.419 329.333 263.83 310.18 365.673 319.576 466.256 319.629 466.754 319.882 467.209 320.277 467.517 360.988 497.661 406.525 520.67 454.943 535.562 455.641 535.771 456.396 535.525 456.836 534.942 467.235 520.793 476.449 505.81 484.385 490.145 484.812 489.305 484.476 488.279 483.636 487.852 483.575 487.822 483.514 487.794 483.45 487.771 468.92 482.211 454.853 475.509 441.381 467.728 440.558 467.244 440.283 466.184 440.766 465.362 440.881 465.167 441.031 464.998 441.211 464.861 444.038 462.743 446.867 460.54 449.566 458.315 450.055 457.912 450.73 457.821 451.309 458.08 539.569 498.36 635.122 498.36 722.337 458.08 722.917 457.804 723.605 457.888 724.102 458.294 726.802 460.519 729.63 462.743 732.478 464.861 733.242 465.432 733.399 466.516 732.826 467.28 732.692 467.46 732.523 467.612 732.329 467.728 718.888 475.576 704.808 482.273 690.24 487.75 689.352 488.088 688.906 489.081 689.243 489.969 689.266 490.029 689.293 490.088 689.322 490.145 697.391 505.723 706.592 520.686 716.851 534.918 717.278 535.516 718.039 535.775 718.743 535.56 767.247 520.718 812.864 497.706 853.626 467.517 854.028 467.224 854.284 466.772 854.328 466.277 865.576 349.993 835.496 248.984 774.593 159.44ZM497.566 405.012C470.993 405.012 449.098 380.626 449.098 350.678 449.098 320.73 470.569 296.343 497.566 296.343 524.774 296.343 546.458 320.942 546.033 350.677 546.033 380.626 524.562 405.012 497.566 405.012ZM676.766 405.012C650.194 405.012 628.299 380.626 628.299 350.678 628.299 320.73 649.77 296.343 676.766 296.343 703.976 296.343 725.659 320.942 725.234 350.677 725.234 380.626 703.976 405.012 676.766 405.012Z" fill="#FFFFFF" fill-rule="nonzero" fill-opacity="1" transform="matrix(1 0 0 1.00074 -188.989 -98.5389)"/></g></g></g></g></g></svg>