<svg width="512" height="512" xmlns="http://www.w3.org/2000/svg" xmlns:xlink="http://www.w3.org/1999/xlink" xml:space="preserve" overflow="hidden"><g transform="translate(-384 -104)"><g><path d="M432 168C405.5 168 384 189.5 384 216 384 231.1 391.1 245.3 403.2 254.4L620.8 417.6C632.2 426.1 647.8 426.1 659.2 417.6L876.8 254.4C888.9 245.3 896 231.1 896 216 896 189.5 874.5 168 848 168L432 168ZM384 280 384 488C384 523.3 412.7 552 448 552L832 552C867.3 552 896 523.3 896 488L896 280 678.4 443.2C655.6 460.3 624.4 460.3 601.6 443.2L384 280Z" fill="#FFFFFF" fill-rule="nonzero" fill-opacity="1"/></g></g></svg>