<svg width="586" height="585" xmlns="http://www.w3.org/2000/svg" xmlns:xlink="http://www.w3.org/1999/xlink" xml:space="preserve" overflow="hidden"><g transform="translate(-640 76)"><g><g><g><g><path d="M351.767 231.847C351.767 196.57 380.448 167.889 415.725 167.889L671.555 167.889C706.832 167.889 735.513 196.57 735.513 231.847L735.513 487.677C735.513 522.954 706.832 551.635 671.555 551.635L415.725 551.635C380.448 551.635 351.767 522.954 351.767 487.677L351.767 231.847ZM910.497 203.665C920.89 209.261 927.386 220.054 927.386 231.847L927.386 487.677C927.386 499.469 920.89 510.262 910.497 515.859 900.104 521.455 887.513 520.855 877.619 514.26L781.683 450.302 767.492 440.808 767.492 423.72 767.492 295.804 767.492 278.716 781.683 269.222 877.619 205.264C887.413 198.768 900.004 198.069 910.497 203.665Z" fill="#FFFFFF" fill-rule="nonzero" fill-opacity="1" transform="matrix(1.00173 0 0 1 290.97 -149.956)"/></g></g></g></g></g></svg>