<svg width="501" height="501" xmlns="http://www.w3.org/2000/svg" xmlns:xlink="http://www.w3.org/1999/xlink" xml:space="preserve" overflow="hidden"><g transform="translate(-389 -109)"><g><g><g><g><path d="M530 150C474.887 150 430 194.887 430 250L430 470C430 525.113 474.887 570 530 570L750 570C805.113 570 850 525.113 850 470L850 250C850 194.887 805.113 150 750 150L530 150ZM640 190C667.2 190 692.808 196.295 715.508 207.695L659.102 313.809C653.202 311.409 646.8 310 640 310 633.2 310 626.798 311.409 620.898 313.809L564.492 207.695C587.192 196.295 612.8 190 640 190ZM547.207 217.598 570.293 261.191C539.093 283.591 520 319.891 520 358.691 520 424.791 573.8 478.691 640 478.691 706.2 478.691 760 424.791 760 358.691 760 319.891 740.907 283.591 709.707 261.191L732.793 217.598C779.293 247.898 810 300.4 810 360 810 453.9 733.9 530 640 530 546.1 530 470 453.9 470 360 470 300.4 500.707 247.898 547.207 217.598ZM579.707 278.906 604.297 325.098C595.497 334.098 590 346.4 590 360 590 387.6 612.4 410 640 410 667.6 410 690 387.6 690 360 690 346.4 684.503 334.098 675.703 325.098L700.293 278.906C724.993 297.706 740 327.191 740 358.691 740 413.791 695.1 458.691 640 458.691 584.9 458.691 540 413.791 540 358.691 540 327.191 555.007 297.706 579.707 278.906Z" fill="#FFFFFF" fill-rule="nonzero" fill-opacity="1"/></g></g></g></g></g></svg>