<svg width="424" height="424" xmlns="http://www.w3.org/2000/svg" xmlns:xlink="http://www.w3.org/1999/xlink" xml:space="preserve" overflow="hidden"><g transform="translate(-428 -148)"><g><g><g><path d="M530.719 150.918C475.716 150.918 430.918 195.716 430.918 250.719L430.918 470.279C430.918 525.282 475.716 570.08 530.719 570.08L750.279 570.08C805.282 570.08 850.08 525.282 850.08 470.279L850.08 250.719C850.08 195.716 805.282 150.918 750.279 150.918L530.719 150.918ZM640.499 190.838C667.645 190.838 693.202 197.121 715.856 208.498L659.563 314.4C653.675 312.005 647.285 310.599 640.499 310.599 633.713 310.599 627.323 312.005 621.435 314.4L565.142 208.498C587.796 197.121 613.353 190.838 640.499 190.838ZM547.891 218.381 570.931 261.887C539.793 284.243 520.739 320.47 520.739 359.193 520.739 425.161 574.431 478.953 640.499 478.953 706.567 478.953 760.26 425.161 760.26 359.193 760.26 320.47 741.205 284.243 710.067 261.887L733.107 218.381C779.514 248.621 810.16 301.018 810.16 360.499 810.16 454.212 734.212 530.16 640.499 530.16 546.786 530.16 470.838 454.212 470.838 360.499 470.838 301.018 501.484 248.621 547.891 218.381ZM580.326 279.567 604.867 325.667C596.085 334.649 590.599 346.926 590.599 360.499 590.599 388.044 612.954 410.399 640.499 410.399 668.044 410.399 690.399 388.044 690.399 360.499 690.399 346.926 684.913 334.649 676.131 325.667L700.672 279.567C725.322 298.329 740.299 327.755 740.299 359.193 740.299 414.183 695.489 458.993 640.499 458.993 585.509 458.993 540.699 414.183 540.699 359.193 540.699 327.755 555.676 298.329 580.326 279.567Z" fill="#FFFFFF" fill-rule="nonzero" fill-opacity="1"/></g></g></g></g></svg>