<svg width="412" height="412" xmlns="http://www.w3.org/2000/svg" xmlns:xlink="http://www.w3.org/1999/xlink" xml:space="preserve" overflow="hidden"><g transform="translate(-586 -112)"><g><g><g><path d="M2978.2 741.572 2978.2 925.723C2978.2 944.04 2993.08 958.919 3011.39 958.919L3243.73 958.919C3262.04 958.919 3276.92 944.04 3276.92 925.723L3276.92 741.572C3276.92 723.251 3262.04 708.372 3243.73 708.372L3011.4 708.372C2993.08 708.364 2978.2 723.242 2978.2 741.572Z" fill="#FFFFFF" fill-rule="nonzero" fill-opacity="1" transform="matrix(1 0 0 1.00298 -2289.7 -595.754)"/><path d="M2891.47 1098.64 2891.48 1007.08 3004.76 1020.25 2916.26 1108.75C2913.63 1111.44 2909.96 1113.1 2905.93 1113.1 2897.96 1113.1 2891.47 1106.6 2891.47 1098.64Z" fill="#FFFFFF" fill-rule="nonzero" fill-opacity="1" transform="matrix(1 0 0 1.00298 -2289.7 -595.754)"/><path d="M2891.47 828.294 2891.47 1012.45C2891.47 1030.77 2906.35 1045.65 2924.67 1045.65L3157 1045.65C3175.32 1045.65 3190.2 1030.77 3190.2 1012.45L3190.2 958.87 2978.23 795.09 2924.67 795.09C2906.35 795.09 2891.47 809.964 2891.47 828.294Z" fill="#FFFFFF" fill-rule="nonzero" fill-opacity="1" transform="matrix(1 0 0 1.00298 -2289.7 -595.754)"/></g></g></g></g></svg>