<svg width="504" height="504" xmlns="http://www.w3.org/2000/svg" xmlns:xlink="http://www.w3.org/1999/xlink" xml:space="preserve" overflow="hidden"><g transform="translate(-450 -100)"><g><g><g><path d="M4168.27 3551.71 4394.9 3276.6C4401.17 3294.62 4404.74 3313.88 4404.74 3334.01 4404.74 3392.52 4382.79 3427.76 4361.49 3456.4 4353.88 3466.63 4345.94 3476.38 4337.54 3486.7 4309.1 3521.61 4273.29 3565.95 4264.56 3622.83 4263.05 3632.61 4252.36 3649.48 4229.48 3649.48 4206.6 3649.48 4195.71 3633.05 4194.52 3623.23 4191.51 3598.16 4181.24 3573.98 4168.27 3551.71ZM4245.54 3401.91 4147.81 3520.56C4139.11 3508.58 4130.22 3497.44 4122.09 3487.45 4113.69 3477.14 4105.75 3467.38 4098.14 3457.15 4093.54 3450.97 4088.89 3444.4 4084.4 3437.38L4168.66 3335.08C4168.36 3337.6 4168.14 3340.16 4168.14 3342.77 4168.14 3376.65 4195.6 3404.11 4229.48 3404.11 4235.05 3404.11 4240.42 3403.3 4245.54 3401.91ZM4210.32 3284.52 4301.16 3174.24C4332.9 3188.53 4359.56 3211.98 4377.91 3241.23L4290.6 3347.22C4290.71 3345.75 4290.82 3344.28 4290.82 3342.77 4290.82 3308.89 4263.36 3281.42 4229.48 3281.42 4222.79 3281.42 4216.35 3282.54 4210.32 3284.52ZM4152.89 3298.25 4066.68 3402.91C4059.21 3383.83 4054.22 3361.42 4054.22 3334.01 4054.22 3299.32 4064.47 3267.05 4081.92 3239.8L4152.89 3298.25ZM4175.52 3270.78 4104.02 3211.88C4135.88 3179.16 4180.31 3158.74 4229.48 3158.74 4241.59 3158.74 4253.42 3159.98 4264.85 3162.34L4175.52 3270.78Z" fill="#FFFFFF" fill-rule="nonzero" fill-opacity="1" transform="matrix(1.00175 0 0 1 -3534.98 -3053.8)"/></g></g></g></g></svg>