<svg width="325" height="326" xmlns="http://www.w3.org/2000/svg" xmlns:xlink="http://www.w3.org/1999/xlink" xml:space="preserve" overflow="hidden"><g transform="translate(-453 -170)"><g><g><g><path d="M412.1 147.348C423.174 154.516 426.352 169.311 419.184 180.386L391.456 223.232C393.212 232.192 394.234 241.408 394.234 250.876 394.234 330.022 330.022 394.234 250.876 394.234 171.731 394.234 107.518 330.022 107.518 250.876 107.518 171.731 171.731 107.518 250.876 107.518 286.656 107.518 319.329 120.659 344.477 142.342L259.716 273.335 211.035 217.605C204.524 210.139 193.234 209.362 185.768 215.873 178.301 222.384 177.525 233.673 184.036 241.14L248.308 314.849C251.772 318.732 256.67 321.002 261.807 321.002 262.285 321.002 262.703 320.942 263.121 320.942 268.736 320.524 273.813 317.537 276.86 312.819L379.062 154.432C386.23 143.346 401.013 140.174 412.1 147.348Z" fill="#FFFFFF" fill-rule="nonzero" fill-opacity="1" transform="matrix(1.00004 0 0 1 350.97 81.4573)"/></g></g></g></g></svg>