<svg width="453" height="452" xmlns="http://www.w3.org/2000/svg" xmlns:xlink="http://www.w3.org/1999/xlink" xml:space="preserve" overflow="hidden"><g transform="translate(-497 -126)"><g><g><g><path d="M1183.56 2975.79C1168.51 2975.79 1155.98 2988.13 1155.98 3003.2L1155.98 3052.01C1147.93 3054.77 1140.67 3059.74 1135.16 3066.48 1126.37 3077.2 1122.87 3091.34 1125.66 3104.93 1135.37 3151.88 1149.19 3218.88 1149.69 3221.31 1149.18 3223.76 1135.42 3290.44 1125.74 3337.39 1122.92 3351.05 1126.45 3365.26 1135.28 3376.05 1144.13 3386.83 1157.38 3393.11 1171.37 3393.11L1514.75 3393.11C1528.91 3393.11 1542.32 3386.77 1551.29 3375.85L1551.31 3375.85C1560.28 3364.91 1563.81 3350.51 1560.97 3336.68 1551.28 3289.74 1537.67 3223.71 1537.17 3221.29 1537.67 3218.84 1551.47 3151.78 1561.15 3104.83 1563.94 3091.27 1560.48 3077.15 1551.68 3066.41 1546.28 3059.83 1539.23 3055 1531.4 3052.21L1531.4 3003.2C1531.4 2988.13 1518.88 2975.79 1503.83 2975.79L1183.56 2975.79ZM1183.56 2996.66 1503.83 2996.66C1507.71 2996.66 1510.53 2999.53 1510.53 3003.2L1510.53 3049.5 1176.85 3049.5 1176.85 3003.2C1176.85 2999.53 1179.68 2996.66 1183.56 2996.66ZM1291.32 3142.16C1339.27 3142.16 1341.07 3178.57 1341.07 3185.67 1341.07 3204.32 1325.07 3214.97 1318.85 3218.52L1318.85 3219.42C1320.64 3219.74 1322.81 3220.42 1325.07 3221.29L1281.56 3221.29 1281.56 3230.06C1285.11 3229.17 1288.66 3229.16 1293.09 3229.16 1297.52 3229.16 1327.73 3230.06 1327.73 3260.26 1327.73 3289.56 1296.65 3292.21 1292.21 3292.21 1276.47 3292.21 1258.22 3282.66 1257.67 3256.92L1238.07 3256.92C1238.25 3269.72 1242.13 3309.09 1292.21 3309.09 1301.98 3309.09 1348.15 3306.43 1348.15 3259.36 1348.15 3235.46 1335.19 3225.25 1325.1 3221.29L1416.34 3221.29 1416.34 3188.08 1375.48 3188.08 1375.48 3173.39C1388.65 3173.39 1399.1 3171.24 1406.82 3166.96 1414.55 3162.69 1419.7 3154.8 1422.31 3143.32L1437.7 3143.32 1437.7 3221.29 1515.87 3221.29 1516.3 3223.41C1516.3 3223.41 1530.67 3293.09 1540.53 3340.88 1542.11 3348.56 1540.17 3356.51 1535.17 3362.6 1530.16 3368.7 1522.69 3372.24 1514.75 3372.24L1171.37 3372.24C1163.6 3372.24 1156.3 3368.78 1151.42 3362.83 1146.55 3356.86 1144.64 3349.1 1146.18 3341.61 1156.04 3293.8 1170.56 3223.41 1170.56 3223.41L1170.98 3221.29 1281.56 3221.29 1281.56 3213.2 1289.55 3213.2C1317.97 3213.2 1320.64 3191 1320.64 3186.55 1320.64 3177.67 1317.07 3159.92 1291.32 3159.92 1263.82 3159.92 1260.57 3187.3 1260.28 3194.33L1240.74 3194.33C1240.98 3184.13 1245.11 3142.16 1291.32 3142.16ZM1416.54 3221.29 1416.54 3305.82 1437.21 3305.82 1437.21 3221.29 1416.54 3221.29Z" fill="#FFFFFF" fill-rule="nonzero" fill-opacity="1" transform="matrix(1.00161 0 0 1 -622.3 -2832.7)"/></g></g></g></g></svg>