<svg width="310" height="310" xmlns="http://www.w3.org/2000/svg" xmlns:xlink="http://www.w3.org/1999/xlink" xml:space="preserve" overflow="hidden"><g transform="translate(-870 -70)"><g><g><g><path d="M975.788 311.524 1076.41 311.524 1076.41 378.605 975.788 378.605 975.788 311.524ZM875.166 352.778 942.246 285.698 942.246 378.605 900.32 378.605C886.402 378.605 875.166 367.369 875.166 353.45L875.166 352.778ZM1073.39 106.926 1026.1 154.385 942.246 238.238 875.166 305.15 875.166 224.317C875.166 215.429 878.687 206.877 885.059 200.672L1002.45 83.2796C1015.53 70.0311 1036.66 70.0311 1049.74 83.2796L1073.39 106.926ZM1177.03 224.317 1177.03 353.45C1177.03 367.369 1165.8 378.605 1151.88 378.605L1109.95 378.605 1109.95 238.238 1049.91 178.2 1097.2 130.74 1167.14 200.672C1173.51 206.877 1177.03 215.429 1177.03 224.317Z" fill="#FFFFFF" fill-rule="nonzero" fill-opacity="1"/></g></g></g></g></svg>