<svg width="471" height="471" xmlns="http://www.w3.org/2000/svg" xmlns:xlink="http://www.w3.org/1999/xlink" xml:space="preserve" overflow="hidden"><g transform="translate(-453 -173)"><g><g><g><g><path d="M516.392 552.12 423.492 552.12 423.492 252.955 516.392 252.955ZM469.892 212.146C440.185 212.146 416.09 187.541 416.09 157.834 416.09 128.121 440.178 104.033 469.892 104.033 499.605 104.033 523.693 128.121 523.693 157.834 523.693 187.541 499.588 212.146 469.892 212.146ZM864.087 552.12 771.387 552.12 771.387 406.488C771.387 371.781 770.687 327.271 723.087 327.271 674.786 327.271 667.385 364.979 667.385 403.987L667.385 552.12 574.584 552.12 574.584 252.955 663.684 252.955 663.684 293.764 664.984 293.764C677.387 270.259 707.683 245.453 752.883 245.453 846.903 245.453 864.187 307.367 864.187 387.784L864.187 552.12Z" fill="#FFFFFF" fill-rule="nonzero" fill-opacity="1" transform="matrix(1 0 0 1.00017 47.8846 79.8294)"/></g></g></g></g></g></svg>