<svg width="641" height="641" xmlns="http://www.w3.org/2000/svg" xmlns:xlink="http://www.w3.org/1999/xlink" xml:space="preserve" overflow="hidden"><defs><clipPath id="clip0"><rect x="386" y="10" width="640" height="640"/></clipPath><clipPath id="clip1"><rect x="386" y="73" width="640" height="513"/></clipPath><clipPath id="clip2"><rect x="386" y="73" width="640" height="513"/></clipPath></defs><g transform="translate(-385 -9)"><g><g clip-path="url(#clip0)"><g clip-path="url(#clip1)"><g clip-path="url(#clip2)"><path d="M500.32 178.198C400.669 178.198 319.885 259.54 319.885 359.87 319.885 460.201 400.675 541.543 500.32 541.543 599.965 541.543 680.755 460.207 680.755 359.87 680.755 259.534 599.975 178.198 500.32 178.198ZM788.466 188.84C738.639 188.84 698.254 265.431 698.254 359.873 698.254 454.315 738.645 530.912 788.472 530.912 838.299 530.912 878.691 454.32 878.691 359.873L878.684 359.873C878.684 265.404 838.298 188.84 788.468 188.84ZM927.922 206.655C910.402 206.655 896.198 275.258 896.198 359.873 896.198 444.489 910.393 513.092 927.922 513.092 945.451 513.092 959.654 444.471 959.654 359.87 959.654 275.252 945.445 206.655 927.924 206.655Z" fill="#FFFFFF" fill-rule="nonzero" fill-opacity="1" transform="matrix(1.00036 0 0 1 66 -30.5998)"/></g></g></g></g></g></svg>