<svg width="501" height="502" xmlns="http://www.w3.org/2000/svg" xmlns:xlink="http://www.w3.org/1999/xlink" xml:space="preserve" overflow="hidden"><g transform="translate(-424 -64)"><g><g><g><g><path d="M1697.51 2618.65C1564.17 2618.65 1471.07 2719.4 1471.07 2863.63 1471.07 2986.19 1555.72 3112.93 1697.51 3112.93 1840.39 3112.93 1925.81 2986.19 1925.81 2863.63 1925.81 2719.4 1831.9 2618.65 1697.51 2618.65ZM1697.51 2678.27C1765.51 2678.27 1778.76 2773.03 1778.76 2859.92 1778.76 2935.37 1771.85 3047.44 1697.51 3047.44 1624.26 3047.44 1618.12 2934.72 1618.12 2859.92 1618.12 2779.02 1629.55 2678.27 1697.51 2678.27Z" fill="#FFFFFF" fill-rule="nonzero" fill-opacity="1" transform="matrix(1 0 0 1.00292 -1024.07 -2556.02)"/></g></g></g></g></g></svg>