<svg width="512" height="512" xmlns="http://www.w3.org/2000/svg" xmlns:xlink="http://www.w3.org/1999/xlink" xml:space="preserve" overflow="hidden"><g transform="translate(-384 -104)"><g><path d="M448 248C474.51 248 496 226.51 496 200 496 173.49 474.51 152 448 152 421.49 152 400 173.49 400 200 400 226.51 421.49 248 448 248ZM576 168C558.3 168 544 182.3 544 200 544 217.7 558.3 232 576 232L864 232C881.7 232 896 217.7 896 200 896 182.3 881.7 168 864 168L576 168ZM576 328C558.3 328 544 342.3 544 360 544 377.7 558.3 392 576 392L864 392C881.7 392 896 377.7 896 360 896 342.3 881.7 328 864 328L576 328ZM576 488C558.3 488 544 502.3 544 520 544 537.7 558.3 552 576 552L864 552C881.7 552 896 537.7 896 520 896 502.3 881.7 488 864 488L576 488ZM448 568C474.51 568 496 546.51 496 520 496 493.49 474.51 472 448 472 421.49 472 400 493.49 400 520 400 546.51 421.49 568 448 568ZM496 360C496 333.49 474.51 312 448 312 421.49 312 400 333.49 400 360 400 386.51 421.49 408 448 408 474.51 408 496 386.51 496 360Z" fill="#FFFFFF" fill-rule="nonzero" fill-opacity="1"/></g></g></svg>