<svg width="568" height="568" xmlns="http://www.w3.org/2000/svg" xmlns:xlink="http://www.w3.org/1999/xlink" xml:space="preserve" overflow="hidden"><g transform="translate(-481 -73)"><g><g><g><path d="M163.138 37.6472C93.9924 37.6472 37.6472 93.9924 37.6472 163.138L37.6472 464.315C37.6472 533.46 93.9924 589.806 163.138 589.806L464.315 589.806C533.46 589.806 589.806 533.46 589.806 464.315L589.806 163.138C589.806 93.9924 533.46 37.6472 464.315 37.6472L163.138 37.6472ZM313.751 125.466C327.606 125.466 341.46 129.927 352.967 138.849L467.159 227.305C471.112 230.366 473.716 234.325 475.246 238.604 478.585 247.978 476.312 258.941 467.992 266.006L455.05 276.938 433.58 295.05 368.31 244.462C352.749 232.54 333.428 225.883 313.726 225.883 294.024 225.883 274.578 232.54 259.143 244.462L241.201 258.382 236.545 261.987C230.183 266.894 230.039 276.437 236.251 281.545 240.757 285.259 247.221 285.329 251.84 281.766L274.437 264.29C281.589 258.768 289.751 254.876 298.285 252.869 308.449 250.359 319.004 250.359 329.168 252.869 337.576 254.876 345.715 258.768 352.868 264.29L407.085 306.202 413.996 311.595 355.051 361.423C343.167 371.462 328.447 376.472 313.726 376.472 299.006 376.472 284.286 371.462 272.402 361.423L213.457 311.595 189.707 291.545 159.461 265.981C157.943 264.701 156.645 263.296 155.516 261.79 151.287 256.105 149.898 249.066 151.128 242.428 152.195 236.693 155.199 231.258 160.319 227.305L274.536 138.849C286.043 129.927 299.898 125.466 313.751 125.466ZM193.163 327.304 256.227 380.589C272.252 394.117 292.669 401.57 313.726 401.57 334.784 401.57 355.201 394.117 371.226 380.589L434.315 327.304 467.208 352.746C479.757 362.534 480.116 381.23 467.943 391.521L355.001 486.913C331.284 506.992 296.169 506.992 272.451 486.913L159.51 391.521C147.337 381.23 147.696 362.534 160.245 352.746L193.163 327.304Z" fill="#FFFFFF" fill-rule="nonzero" fill-opacity="1" transform="matrix(1 0 0 1.01528 451.645 38.7243)"/></g></g></g></g></svg>