<svg width="227" height="226" xmlns="http://www.w3.org/2000/svg" xmlns:xlink="http://www.w3.org/1999/xlink" xml:space="preserve" overflow="hidden"><g transform="translate(-618 -238)"><g><g><g><path d="M3746.87 2186.03C3748.41 2190.94 3747.71 2196.11 3743.03 2200.86 3735.54 2208.44 3722.44 2210.34 3720.81 2211.89 3719.13 2213.46 3718.43 2219.39 3713.15 2222.78 3707.87 2226.17 3701.39 2226.08 3698.05 2226.33 3684.62 2227.35 3681.11 2227.98 3672.75 2233.32 3670.05 2235.04 3656.78 2244.15 3637.33 2244.15 3617.88 2244.15 3604.62 2235.05 3601.91 2233.32 3593.56 2227.98 3590.05 2227.36 3576.62 2226.33 3573.31 2226.08 3566.79 2226.17 3561.51 2222.78 3556.23 2219.39 3555.53 2213.46 3553.86 2211.89 3552.22 2210.33 3539.12 2208.44 3531.64 2200.86 3526.96 2196.11 3526.26 2190.94 3527.79 2186.03 3529.8 2179.57 3536.88 2177.34 3540.96 2175 3563.35 2162.2 3566.93 2149.96 3567.96 2148.14 3568.4 2147.42 3569.46 2144.98 3567.06 2143.04 3564.89 2141.24 3553.12 2135.54 3548.18 2126.94 3545.64 2122.48 3544.97 2115.68 3547.28 2110.93 3550.95 2103.33 3557.1 2098.91 3565.59 2098.91 3568.7 2098.91 3571.84 2099.7 3572.3 2099.81 3572.44 2094.91 3572.47 2089.24 3572.77 2084.12 3574.11 2062.74 3592.05 2027.1 3637.33 2027.1 3682.61 2027.1 3700.56 2062.74 3701.89 2084.12 3702.19 2089.24 3702.19 2094.91 3702.36 2099.8 3702.83 2099.7 3705.97 2098.9 3709.08 2098.9 3717.56 2098.9 3723.71 2103.33 3727.39 2110.93 3729.69 2115.67 3729.03 2122.47 3726.49 2126.94 3721.54 2135.53 3709.78 2141.24 3707.61 2143.04 3705.2 2144.98 3706.27 2147.41 3706.7 2148.14 3707.74 2149.95 3711.32 2162.19 3733.7 2175 3737.78 2177.34 3744.87 2179.57 3746.87 2186.03Z" fill="#FFFFFF" fill-rule="nonzero" fill-opacity="1" transform="matrix(1.00298 0 0 1 -2916.35 -1783.22)"/></g></g></g></g></svg>