<svg width="161" height="161" xmlns="http://www.w3.org/2000/svg" xmlns:xlink="http://www.w3.org/1999/xlink" xml:space="preserve" overflow="hidden"><g transform="translate(-612 -244)"><g><g><g><g><path d="M27.5748 63.4419 29.0105 79.5314 27.5748 96.4377C27.5006 97.0565 27.0303 97.5269 26.4857 97.5269 25.9411 97.5269 25.4461 97.0565 25.4461 96.4377L24.06 79.5314 25.4461 63.4419C25.4461 62.8974 25.9164 62.4023 26.4857 62.4023 27.0303 62.4023 27.5006 62.8974 27.5748 63.4419ZM32.872 52.1546C32.1789 52.1546 31.7086 52.6992 31.6343 53.3922L30.3967 79.5314 31.6343 96.4377C31.7086 97.1308 32.1789 97.6754 32.872 97.6754 33.4908 97.6754 34.0353 97.1308 34.0353 96.4377L35.471 79.5314 34.0353 53.3922C34.0353 52.6992 33.4908 52.1546 32.872 52.1546ZM39.184 46.1891C38.4167 46.1891 37.8721 46.7336 37.7979 47.501L36.7088 79.6799 37.7979 96.4625C37.8721 97.2298 38.4167 97.7743 39.184 97.7743 39.8771 97.7743 40.4959 97.2298 40.4959 96.4625L41.8078 79.6799 40.4959 47.501C40.4959 46.7336 39.8771 46.1891 39.184 46.1891ZM1.78222 70.1005C1.43567 70.1005 1.23765 70.3728 1.16339 70.7193L0 79.5314 1.16339 88.1949C1.23765 88.5415 1.43567 88.8138 1.78222 88.8138 2.12876 88.8138 2.32678 88.5415 2.40104 88.1949L3.78721 79.5314 2.40104 70.7193C2.32678 70.3728 2.12876 70.1005 1.78222 70.1005ZM7.62392 64.6796C7.27738 64.6796 7.0051 64.9519 7.0051 65.2985L5.42091 79.5314 7.0051 93.4178C7.0051 93.8387 7.27738 94.1109 7.62392 94.1109 7.97047 94.1109 8.24275 93.8387 8.317 93.4921L10.0992 79.5314 8.317 65.2985C8.24275 64.9519 7.97047 64.6796 7.62392 64.6796ZM13.8864 61.8577C13.4657 61.8577 13.1191 62.2043 13.0696 62.6746L11.6339 79.5314 13.0696 95.8188C13.1439 96.2396 13.4904 96.5862 13.8864 96.5862 14.3072 96.5862 14.6538 96.2396 14.6538 95.8188L16.3617 79.5314 14.6538 62.6746C14.6538 62.2043 14.3072 61.8577 13.8864 61.8577ZM20.1489 61.3132C19.6786 61.3132 19.2578 61.6598 19.2578 62.2043L17.8222 79.5314 19.2578 96.3139C19.2578 96.8585 19.6786 97.205 20.1489 97.205 20.6192 97.205 21.0401 96.8585 21.1143 96.3139L22.6985 79.5314 21.1143 62.2043C21.0401 61.6598 20.6192 61.3132 20.1489 61.3132ZM79.9027 33.8621C79.6304 33.6641 79.2096 33.5155 78.863 33.5155 78.3185 33.5155 77.8234 33.7136 77.4769 33.9858 77.0066 34.4067 76.7095 35.0255 76.66 35.6444L76.66 35.8424 75.8432 79.5809 76.264 87.6256 76.6848 95.4724C76.759 96.6357 77.7244 97.6011 78.8878 97.6011 80.0513 97.6011 81.0165 96.6357 81.0165 95.4724L81.9819 79.5809 81.0165 35.6444C80.9175 34.9017 80.5215 34.2087 79.9027 33.8621ZM73.2937 37.6493C72.9471 37.4513 72.6005 37.3028 72.2045 37.3028 71.8085 37.3028 71.4371 37.4513 71.1154 37.6493 70.5708 37.9959 70.2243 38.6147 70.2243 39.3077L70.15 39.7285 69.457 79.5314C69.457 79.5314 69.457 79.6057 70.2243 95.7693L70.2243 95.8437C70.2243 96.2644 70.3728 96.6605 70.6451 97.007 71.0659 97.4774 71.6105 97.7743 72.2293 97.7743 72.7738 97.7743 73.2689 97.5021 73.6154 97.1555 74.0362 96.809 74.2343 96.3386 74.2343 95.7693L74.3085 94.1109 75.0758 79.6057 74.259 39.3077C74.1848 38.6147 73.8382 37.9959 73.2937 37.6493ZM45.7188 43.2188C44.9514 43.2188 44.2831 43.9118 44.2831 44.7287L43.194 79.5314 44.2831 96.1654C44.3574 96.9823 44.9762 97.6011 45.7188 97.6011 46.5356 97.6011 47.1544 96.9823 47.2287 96.1654L48.4664 79.5314 47.2287 44.7287C47.1792 43.9118 46.5604 43.2188 45.7188 43.2188ZM138.964 58.7636C136.29 58.7636 133.741 59.3082 131.389 60.2735 129.805 42.7484 115.102 28.9858 97.1555 28.9858 92.7495 28.9858 88.492 29.8026 84.7047 31.3125 83.1949 31.8571 82.7741 32.4016 82.7741 33.5899L82.7741 95.3981C82.7741 96.6357 83.7394 97.5269 84.9028 97.6754L138.939 97.6754C149.657 97.6754 158.394 89.0118 158.394 78.2937 158.419 67.5015 149.681 58.7636 138.964 58.7636ZM65.5212 43.8376C64.4816 43.8376 63.6648 44.6545 63.5904 45.7683L62.7736 79.6057 63.5904 95.8437C63.6648 96.8832 64.4816 97.7001 65.5212 97.7001 66.5608 97.7001 67.3777 96.8832 67.3777 95.8437L68.343 79.6057 67.3777 45.7683C67.3034 44.6545 66.5608 43.8376 65.5212 43.8376ZM52.2536 41.9068C51.4367 41.9068 50.6694 42.6742 50.6694 43.5652L49.704 79.5314 50.6694 96.0912C50.7436 96.9823 51.4367 97.6754 52.2536 97.6754 53.1447 97.6754 53.8378 96.9823 53.912 96.0912L55.0012 79.5314 53.912 43.5652C53.8378 42.6742 53.1447 41.9068 52.2536 41.9068ZM58.8626 42.7484C57.8973 42.7484 57.1547 43.5157 57.1547 44.4564L56.1893 79.5314 57.1547 95.9674C57.2289 96.9328 57.9221 97.6754 58.8626 97.6754 59.8032 97.6754 60.5706 96.9081 60.5706 95.9674L61.6103 79.5314 60.5706 44.4564C60.5706 43.491 59.828 42.7484 58.8626 42.7484Z" fill="#FFFFFF" fill-rule="nonzero" fill-opacity="1" transform="matrix(1.00366 0 0 1 614 262.142)"/></g></g></g></g></g></svg>