<svg width="108" height="108" xmlns="http://www.w3.org/2000/svg" xmlns:xlink="http://www.w3.org/1999/xlink" xml:space="preserve" overflow="hidden"><g transform="translate(-844 -578)"><g><g><g><g><path d="M97.8104 13.8902C96.2204 12.5419 93.7231 12.349 91.1409 13.3857L91.1367 13.3857C88.421 14.4754 14.2634 46.2838 11.2445 47.5834 10.6954 47.7742 5.89996 49.5635 6.39392 53.5491 6.83488 57.1425 10.689 58.6307 11.1597 58.8024L30.0128 65.2578C31.2636 69.4215 35.8746 84.783 36.8944 88.0648 37.5304 90.1106 38.567 92.7988 40.3839 93.3521 41.9781 93.9669 43.5639 93.4051 44.59 92.5995L56.1164 81.9083 74.7236 96.4197 75.1667 96.6847C76.4302 97.2444 77.6408 97.5242 78.7962 97.5242 79.6887 97.5242 80.5452 97.3568 81.3635 97.0218 84.1513 95.877 85.2664 93.2206 85.383 92.9196L99.2817 20.6764C100.13 16.818 98.951 14.8548 97.8104 13.8902ZM46.64 67.84 40.28 84.8 33.92 63.6 82.68 27.56 46.64 67.84Z" fill="#FFFFFF" fill-rule="nonzero" fill-opacity="1" transform="matrix(1 0 0 1.00943 845 579)"/></g></g></g></g></g></svg>