<svg width="660" height="658" xmlns="http://www.w3.org/2000/svg" xmlns:xlink="http://www.w3.org/1999/xlink" xml:space="preserve" overflow="hidden"><g transform="translate(-521 0)"><g><g><g><path d="M6648.38 3252.43C6515.83 3252.43 6407.99 3344.4 6407.99 3457.46 6407.99 3517.83 6437.11 3572.13 6490.22 3611.45L6452.98 3723.36 6569.55 3651.17C6601.95 3661.33 6641.42 3664.92 6679.55 3660.73 6710.45 3720.6 6780.31 3761.47 6860.48 3761.47 6884.86 3761.47 6907.35 3756.89 6928.28 3750.64L7025.15 3804.83 6998.15 3712.2C7034.55 3681.94 7058.44 3639.79 7058.44 3591.79 7058.44 3503.97 6982.06 3433.93 6885.25 3423.6 6866.21 3325.28 6766.67 3252.43 6648.38 3252.43ZM6563.54 3365.55C6579.12 3365.55 6591.81 3378.25 6591.81 3393.83 6591.81 3409.41 6579.12 3422.11 6563.54 3422.11 6547.95 3422.11 6535.25 3409.41 6535.25 3393.83 6535.25 3378.25 6547.95 3365.55 6563.54 3365.55ZM6733.22 3365.55C6748.8 3365.55 6761.5 3378.25 6761.5 3393.83 6761.5 3409.41 6748.8 3422.11 6733.22 3422.11 6717.63 3422.11 6704.94 3409.41 6704.94 3393.83 6704.94 3378.25 6717.63 3365.55 6733.22 3365.55ZM6860.48 3450.39C6955.89 3450.39 7030.16 3514.52 7030.16 3591.79 7030.16 3633.6 7008.83 3670.28 6973.65 3696.35L6965.75 3702.26 6978.61 3746.39 6932.68 3720.6 6926.72 3722.59C6906.9 3729.22 6884.36 3733.19 6860.48 3733.19 6765.06 3733.19 6690.8 3669.07 6690.8 3591.79 6690.8 3514.52 6765.06 3450.39 6860.48 3450.39ZM6796.85 3535.23C6785.54 3535.23 6775.64 3545.12 6775.64 3556.44 6775.64 3567.76 6785.54 3577.65 6796.85 3577.65 6808.15 3577.65 6818.06 3567.76 6818.06 3556.44 6818.06 3545.12 6808.15 3535.23 6796.85 3535.23ZM6924.11 3535.23C6912.81 3535.23 6902.9 3545.12 6902.9 3556.44 6902.9 3567.76 6912.81 3577.65 6924.11 3577.65 6935.41 3577.65 6945.32 3567.76 6945.32 3556.44 6945.32 3545.12 6935.41 3535.23 6924.11 3535.23Z" fill="#FFFFFF" fill-rule="nonzero" fill-opacity="1" transform="matrix(1.00028 0 0 1 -5884.14 -3193.51)"/></g></g></g></g></svg>