<svg width="641" height="513" xmlns="http://www.w3.org/2000/svg" xmlns:xlink="http://www.w3.org/1999/xlink" xml:space="preserve" overflow="hidden"><g transform="translate(-276 -53)"><g><g><g><g><path d="M597 54C614.7 54 629 68.3 629 86L629 150 749 150C788.8 150 821 182.2 821 222L821 494C821 533.8 788.8 566 749 566L445 566C405.2 566 373 533.8 373 494L373 222C373 182.2 405.2 150 445 150L565 150 565 86C565 68.3 579.3 54 597 54ZM485 438C476.2 438 469 445.2 469 454 469 462.8 476.2 470 485 470L517 470C525.8 470 533 462.8 533 454 533 445.2 525.8 438 517 438L485 438ZM581 438C572.2 438 565 445.2 565 454 565 462.8 572.2 470 581 470L613 470C621.8 470 629 462.8 629 454 629 445.2 621.8 438 613 438L581 438ZM677 438C668.2 438 661 445.2 661 454 661 462.8 668.2 470 677 470L709 470C717.8 470 725 462.8 725 454 725 445.2 717.8 438 709 438L677 438ZM541 310C541 287.909 523.091 270 501 270 478.909 270 461 287.909 461 310 461 332.091 478.909 350 501 350 523.091 350 541 332.091 541 310ZM693 350C715.091 350 733 332.091 733 310 733 287.909 715.091 270 693 270 670.909 270 653 287.909 653 310 653 332.091 670.909 350 693 350ZM325 278 341 278 341 470 325 470C298.5 470 277 448.5 277 422L277 326C277 299.5 298.5 278 325 278ZM869 278C895.5 278 917 299.5 917 326L917 422C917 448.5 895.5 470 869 470L853 470 853 278 869 278Z" fill="#FFFFFF" fill-rule="nonzero" fill-opacity="1"/></g></g></g></g></g></svg>