<svg width="79" height="79" xmlns="http://www.w3.org/2000/svg" xmlns:xlink="http://www.w3.org/1999/xlink" xml:space="preserve" overflow="hidden"><g transform="translate(-350 -98)"><g><g><g><g><path d="M390 103.68C385.46 103.68 381.305 106.21 379.238 110.249 379.238 110.249 379.238 110.252 379.238 110.252 379.237 110.255 379.234 110.256 379.232 110.258 373.405 121.574 368.4 131.459 364.747 138.838 362.921 142.529 361.432 145.59 360.342 147.908 359.252 150.227 358.621 151.557 358.252 152.735L358.249 152.744 358.245 152.75C357.846 154.047 357.319 155.782 357.319 157.829 357.319 165.796 363.864 172.32 371.841 172.32 380.882 172.32 387.091 165.112 390 161.784 392.908 165.111 399.117 172.32 408.159 172.32 416.136 172.32 422.681 165.795 422.681 157.829 422.681 155.785 422.154 154.053 421.758 152.762L421.755 152.753 421.751 152.744C421.382 151.567 420.749 150.234 419.658 147.915 418.568 145.595 417.08 142.532 415.253 138.841 411.6 131.461 406.593 121.576 400.765 110.258L400.759 110.246C398.694 106.21 394.539 103.68 390 103.68ZM390 109.92C392.342 109.92 394.155 111.03 395.207 113.092L395.21 113.098 395.213 113.104C401.033 124.406 406.027 134.27 409.659 141.607 411.474 145.276 412.952 148.316 414.012 150.571 415.071 152.822 415.769 154.523 415.795 154.602 416.156 155.779 416.441 156.943 416.441 157.829 416.441 162.4 412.76 166.08 408.159 166.08 402.571 166.08 396.69 160.035 394.016 157.003L394.01 156.997 394.001 156.988C396.886 153.398 401.7 147.072 401.7 140.005 401.7 133.697 396.357 128.64 390 128.64 383.643 128.64 378.3 133.697 378.3 140.005 378.3 147.082 383.114 153.405 385.996 156.988L385.99 156.994 385.984 157.003C383.308 160.037 377.429 166.08 371.841 166.08 367.24 166.08 363.559 162.402 363.559 157.829 363.559 156.938 363.843 155.78 364.205 154.602 364.227 154.534 364.93 152.82 365.991 150.565 367.051 148.311 368.526 145.272 370.341 141.604 373.972 134.269 378.965 124.406 384.784 113.107L384.787 113.101 384.79 113.098C385.845 111.03 387.658 109.92 390 109.92ZM390 134.88C393.105 134.88 395.46 137.218 395.46 140.005 395.46 143.342 392.46 148.343 389.997 151.726 387.536 148.35 384.54 143.358 384.54 140.005 384.54 137.218 386.895 134.88 390 134.88Z" fill="#FFFFFF" fill-rule="nonzero" fill-opacity="1"/></g></g></g></g></g></svg>