<svg width="121" height="121" xmlns="http://www.w3.org/2000/svg" xmlns:xlink="http://www.w3.org/1999/xlink" xml:space="preserve" overflow="hidden"><g transform="translate(-396 -284)"><g><g><g><g><path d="M457.734 297C444.282 297 429.339 302.032 426.195 318.484 425.859 320.236 427.086 321.135 428.242 321.391L441.898 322.781C443.182 322.713 444.205 321.522 444.453 320.258 445.629 314.59 450.428 311.789 455.812 311.789 458.72 311.789 462.014 312.877 463.734 315.453 465.722 318.329 465.391 322.238 465.391 325.57L465.391 327.461C457.195 328.373 446.508 328.93 438.844 332.266 429.988 336.054 423.773 343.781 423.773 355.141 423.773 369.677 433.069 377.008 444.969 377.008 455.021 377.008 460.443 374.597 468.203 366.773 470.767 370.449 471.679 372.257 476.375 376.125 477.431 376.685 478.763 376.582 479.695 375.75L479.695 375.875C482.515 373.387 487.659 368.927 490.539 366.523 491.687 365.587 491.439 364.128 490.539 362.852 487.955 359.32 485.305 356.388 485.305 349.828L485.305 328.086C485.305 318.85 485.931 310.305 479.055 303.945 473.627 298.793 464.606 297 457.734 297ZM461.562 338.703C462.839 338.619 464.111 338.703 465.391 338.703L465.391 341.734C465.395 347.19 465.612 351.675 462.836 356.523 460.588 360.459 456.976 362.844 453.008 362.844 447.584 362.844 444.445 358.783 444.445 352.727 444.445 342.307 452.643 339.283 461.562 338.703ZM501.32 373.883C497.684 373.935 493.424 374.697 490.164 376.961 489.164 377.657 489.31 378.64 490.422 378.508 494.09 378.072 502.196 377.047 503.656 378.891 505.112 380.739 502.048 388.331 500.68 391.727 500.264 392.751 501.166 393.147 502.102 392.367 508.206 387.311 509.834 376.825 508.586 375.289 507.966 374.541 504.96 373.831 501.32 373.883ZM405.711 375.805C404.951 375.905 404.653 376.893 405.453 377.609 419.021 389.737 436.908 397 456.82 397 471.024 397 487.604 392.597 498.984 384.281 500.864 382.901 499.229 380.774 497.305 381.586 484.549 386.946 470.604 389.547 457.992 389.547 439.292 389.547 421.261 384.495 406.625 376.062 406.301 375.879 405.959 375.773 405.711 375.805Z" fill="#FFFFFF" fill-rule="nonzero" fill-opacity="1"/></g></g></g></g></g></svg>