<svg width="95" height="93" xmlns="http://www.w3.org/2000/svg" xmlns:xlink="http://www.w3.org/1999/xlink" xml:space="preserve" overflow="hidden"><g transform="translate(-393 -376)"><g><g><g><g><path d="M440.5 459.7C461.044 459.7 477.7 443.044 477.7 422.5 477.7 401.956 461.044 385.3 440.5 385.3 419.956 385.3 403.3 401.956 403.3 422.5 403.3 443.044 419.956 459.7 440.5 459.7ZM424.529 439.643C423.94 440.582 422.932 441.1 421.897 441.1 421.336 441.1 420.768 440.948 420.257 440.629 418.803 439.72 418.363 437.808 419.271 436.357L420.108 435.018C420.645 434.95 421.224 434.9 421.9 434.9 423.772 434.9 425.326 435.492 426.631 436.28L424.529 439.643ZM421.9 431.8C420.189 431.8 418.8 430.411 418.8 428.7 418.8 426.989 420.189 425.6 421.9 425.6L425.995 425.6 436.845 408.24 433.221 402.443C432.316 400.992 432.756 399.079 434.207 398.171 435.658 397.266 437.57 397.709 438.479 399.157L440.5 402.39 442.521 399.157C443.43 397.703 445.342 397.26 446.793 398.171 448.247 399.079 448.687 400.992 447.779 402.443L433.305 425.6 443.185 425.6C443.975 426.167 444.849 427.048 445.773 428.517 446.458 429.605 446.793 430.715 446.979 431.8L421.9 431.8ZM461.729 436.357C462.634 437.808 462.194 439.72 460.743 440.629 460.232 440.948 459.664 441.1 459.103 441.1 458.071 441.1 457.06 440.582 456.471 439.643L442.459 417.224C442.707 416.607 443.026 415.944 443.501 415.187 444.359 413.82 445.46 412.868 446.622 412.186L455.005 425.6 459.1 425.6C460.811 425.6 462.2 426.989 462.2 428.7 462.2 430.411 460.811 431.8 459.1 431.8L458.88 431.8 461.729 436.357Z" fill="#FFFFFF" fill-rule="nonzero" fill-opacity="1"/></g></g></g></g></g></svg>