<svg width="336" height="337" xmlns="http://www.w3.org/2000/svg" xmlns:xlink="http://www.w3.org/1999/xlink" xml:space="preserve" overflow="hidden"><g transform="translate(-713 -72)"><g><g><g><path d="M1933.92 2018.22C2024.12 2018.22 2097.24 1945.09 2097.24 1854.9 2097.24 1764.7 2024.12 1691.58 1933.92 1691.58 1843.73 1691.58 1770.6 1764.7 1770.6 1854.9 1770.6 1945.09 1843.73 2018.22 1933.92 2018.22ZM1863.81 1930.16C1861.22 1934.28 1856.8 1936.56 1852.25 1936.56 1849.79 1936.56 1847.29 1935.89 1845.05 1934.49 1838.67 1930.5 1836.74 1922.11 1840.72 1915.73L1844.4 1909.86C1846.75 1909.56 1849.3 1909.34 1852.26 1909.34 1860.48 1909.34 1867.31 1911.94 1873.03 1915.4L1863.81 1930.16ZM1852.26 1895.73C1844.75 1895.73 1838.65 1889.63 1838.65 1882.12 1838.65 1874.61 1844.75 1868.51 1852.26 1868.51L1870.24 1868.51 1917.88 1792.29 1901.97 1766.84C1897.99 1760.47 1899.93 1752.07 1906.3 1748.09 1912.67 1744.11 1921.06 1746.06 1925.05 1752.42L1933.92 1766.61 1942.8 1752.42C1946.79 1746.03 1955.18 1744.09 1961.55 1748.09 1967.94 1752.07 1969.87 1760.47 1965.88 1766.84L1902.34 1868.51 1945.71 1868.51C1949.18 1871 1953.02 1874.87 1957.07 1881.31 1960.08 1886.09 1961.55 1890.96 1962.37 1895.73L1852.26 1895.73ZM2027.13 1915.73C2031.1 1922.11 2029.17 1930.5 2022.8 1934.49 2020.55 1935.89 2018.06 1936.56 2015.6 1936.56 2011.07 1936.56 2006.63 1934.28 2004.04 1930.16L1942.52 1831.74C1943.61 1829.03 1945.01 1826.12 1947.1 1822.79 1950.87 1816.79 1955.7 1812.61 1960.8 1809.62L1997.6 1868.51 2015.58 1868.51C2023.09 1868.51 2029.19 1874.61 2029.19 1882.12 2029.19 1889.63 2023.09 1895.73 2015.58 1895.73L2014.62 1895.73 2027.13 1915.73Z" fill="#FFFFFF" fill-rule="nonzero" fill-opacity="1" transform="matrix(1.00437 0 0 1 -1060.5 -1613.94)"/></g></g></g></g></svg>