<svg width="146" height="133" xmlns="http://www.w3.org/2000/svg" xmlns:xlink="http://www.w3.org/1999/xlink" xml:space="preserve" overflow="hidden"><defs><clipPath id="clip0"><rect x="240" y="465" width="146" height="133"/></clipPath><clipPath id="clip1"><rect x="240" y="465" width="146" height="133"/></clipPath><clipPath id="clip2"><rect x="241" y="466" width="145" height="132"/></clipPath><clipPath id="clip3"><rect x="241" y="466" width="145" height="132"/></clipPath></defs><g clip-path="url(#clip0)" transform="translate(-240 -465)"><g clip-path="url(#clip1)"><g clip-path="url(#clip2)"><g clip-path="url(#clip3)"><path d="M37.007 16.4476C25.7013 16.4476 16.4476 25.7013 16.4476 37.007L16.4476 168.588C16.4476 179.893 25.7013 189.147 37.007 189.147L168.588 189.147C179.893 189.147 189.147 179.893 189.147 168.588L189.147 37.007C189.147 25.7013 179.893 16.4476 168.588 16.4476L37.007 16.4476ZM37.007 24.6714 168.588 24.6714C175.448 24.6714 180.923 30.1464 180.923 37.007L180.923 168.588C180.923 175.448 175.448 180.923 168.588 180.923L37.007 180.923C30.1464 180.923 24.6714 175.448 24.6714 168.588L24.6714 37.007C24.6714 30.1464 30.1464 24.6714 37.007 24.6714ZM74.3274 74.0141C71.4285 74.4129 68.1197 76.0022 66.0473 78.3912 63.9749 80.7761 62.7269 83.566 63.5575 86.3498 66.8676 86.3498 69.7735 84.7552 71.8459 82.3662 73.503 80.3764 74.7427 77.1967 74.3274 74.0141ZM110.202 74.0141 102.797 76.07 102.797 86.3498 96.6295 86.3498 96.6295 92.0036 102.797 92.0036 102.797 113.487C102.797 118.421 103.616 121.709 105.672 124.176 107.728 126.232 110.607 127.469 113.896 127.469 116.774 127.469 119.248 127.061 120.482 126.65L120.064 120.891C119.242 121.302 118.008 121.301 115.952 121.301 111.429 121.301 110.202 118.421 110.202 113.487L110.202 92.0036 120.891 92.0036 120.891 86.3498 110.202 86.3498 110.202 74.0141ZM54.8601 86.3498C50.7153 86.3498 46.5717 88.8152 43.6728 92.9271 39.5321 99.095 40.3589 110.607 46.5721 120.064 48.6445 123.765 51.5467 127.469 55.6874 127.469 59.4169 127.88 60.2409 125.413 65.2122 125.413 69.7681 125.002 70.5979 127.469 74.3274 127.469 78.0569 127.469 81.3686 122.944 83.8522 119.654 85.0981 117.187 85.9254 115.955 87.5784 113.077 78.4664 109.376 76.8122 96.6328 85.9242 91.6985 83.0253 88.409 79.3016 86.3498 75.5721 86.3498 70.6049 86.3498 68.5263 88.8152 65.2122 88.8152 61.898 88.8152 59.0048 86.3498 54.8601 86.3498ZM125.927 86.3498 141.507 127.469 148.478 127.469 164.476 86.3498 156.686 86.3498 148.895 109.375C147.666 113.487 146.429 116.774 145.611 120.064L145.201 120.064C144.379 116.363 143.154 113.075 141.924 109.375L133.717 86.3498 125.927 86.3498Z" fill="#FFFFFF" fill-rule="nonzero" fill-opacity="1" transform="matrix(1.00272 0 0 1 204.766 427.079)"/></g></g></g></g></svg>