<svg width="122" height="124" xmlns="http://www.w3.org/2000/svg" xmlns:xlink="http://www.w3.org/1999/xlink" xml:space="preserve" overflow="hidden"><g transform="translate(4 -400)"><g><g><g><g><path d="M107.756 84.095C105.147 89.8897 103.89 92.4798 100.534 97.594 95.8359 104.741 89.2092 113.664 81.0228 113.721 73.7345 113.787 71.8532 108.966 61.9559 109.051 52.0678 109.098 50.0071 113.816 42.7091 113.74 34.5133 113.664 28.246 105.629 23.5477 98.4921 10.4079 78.4799 9.01828 55.0173 17.1385 42.539 22.886 33.691 31.9704 28.4916 40.5067 28.4916 49.2034 28.4916 54.6673 33.2656 61.8518 33.2656 68.8282 33.2656 73.0726 28.4822 83.1309 28.4822 90.7311 28.4822 98.7663 32.6228 104.514 39.7693 85.721 50.0732 88.7743 76.9105 107.756 84.095ZM75.4926 20.4944C79.1509 15.7962 81.9303 9.16953 80.9188 2.42 74.9539 2.82649 67.9773 6.6361 63.903 11.5706 60.2069 16.0703 57.1442 22.7442 58.3353 29.2007 64.8485 29.4086 71.5884 25.5235 75.4926 20.4944Z" fill="#FFFFFF" fill-rule="nonzero" fill-opacity="1" transform="matrix(1 0 0 1.00826 -3 401)"/></g></g></g></g></g></svg>