<svg width="501" height="501" xmlns="http://www.w3.org/2000/svg" xmlns:xlink="http://www.w3.org/1999/xlink" xml:space="preserve" overflow="hidden"><g transform="translate(-389 -109)"><g><g><g><g><path d="M530 150C474.86 150 430 194.86 430 250L430 470C430 525.14 474.86 570 530 570L750 570C805.14 570 850 525.14 850 470L850 250C850 194.86 805.14 150 750 150L530 150ZM450 290 830 290 830 370 450 370 450 290ZM470 310 470 330 490 330 490 310 470 310ZM510 310 510 330 530 330 530 310 510 310ZM550 310 550 330 570 330 570 310 550 310ZM590 310 590 330 610 330 610 310 590 310ZM630 310 630 330 650 330 650 310 630 310ZM670 310 670 330 690 330 690 310 670 310ZM710 310 710 330 730 330 730 310 710 310ZM750 310 750 330 770 330 770 310 750 310ZM790 310 790 330 810 330 810 310 790 310ZM450 390 830 390 830 460 450 460 450 390ZM450 480 830 480C825.05 519.4 790.72 550 750 550L530 550C489.28 550 454.95 519.4 450 480Z" fill="#FFFFFF" fill-rule="nonzero" fill-opacity="1"/></g></g></g></g></g></svg>