<svg width="128" height="128" xmlns="http://www.w3.org/2000/svg" xmlns:xlink="http://www.w3.org/1999/xlink" xml:space="preserve" overflow="hidden"><g transform="translate(-426 -572)"><g><g><g><g><path d="M465.1 588.933C463.648 588.933 462.234 589.084 460.867 589.363L460.867 628.199C459.369 628.733 457.932 629.386 456.633 630.258L456.633 590.719C451.363 593.026 447.266 597.438 445.281 602.874L452.4 607.859 452.4 633.854 443.933 627.926 443.933 660.9C443.933 669.574 449.166 677.013 456.633 680.281L456.633 661.909C459.663 663.943 463.302 665.133 467.217 665.133 471.132 665.133 474.77 663.943 477.8 661.909L477.8 682.067 515.9 682.067C517.462 682.067 518.975 681.876 520.439 681.554L483.563 655.707C485.24 652.872 486.267 649.609 486.267 646.083 486.267 641.595 484.641 637.519 482.033 634.26L482.033 628.629 536.198 666.597C536.711 664.772 537.067 662.885 537.067 660.9L537.067 639.626C509.537 638.534 487.466 616.463 486.374 588.933L477.8 588.933 477.8 630.258C476.501 629.386 475.064 628.733 473.567 628.199L473.567 588.933 465.1 588.933ZM503.308 588.933C504.366 607.111 518.889 621.63 537.067 622.692L537.067 610.1C537.067 598.412 527.588 588.933 515.9 588.933L503.308 588.933ZM467.217 631.267C471.37 631.267 475.11 632.987 477.8 635.74 478.453 636.408 479.042 637.134 479.561 637.914 480.081 638.694 480.526 639.528 480.892 640.403 481.258 641.278 481.543 642.19 481.736 643.14 481.928 644.092 482.033 645.075 482.033 646.083 482.033 647.091 481.928 648.077 481.736 649.027 481.543 649.977 481.258 650.889 480.892 651.764 480.526 652.638 480.081 653.472 479.561 654.252 479.042 655.033 478.453 655.759 477.8 656.427 475.11 659.179 471.37 660.9 467.217 660.9 463.066 660.9 459.323 659.185 456.633 656.435 456.557 656.357 456.502 656.259 456.427 656.179 455.863 655.576 455.331 654.942 454.872 654.252 454.353 653.471 453.907 652.638 453.541 651.764 453.175 650.889 452.89 649.977 452.698 649.027 452.505 648.076 452.4 647.091 452.4 646.083 452.4 645.075 452.506 644.092 452.698 643.14 452.89 642.19 453.175 641.278 453.541 640.403 453.907 639.528 454.353 638.694 454.872 637.914 455.392 637.134 455.98 636.408 456.633 635.74 459.324 632.987 463.064 631.267 467.217 631.267ZM467.324 636.418C466.919 636.416 466.513 636.649 466.357 637.112L460.925 653.202C460.565 654.282 461.906 655.107 462.702 654.294L467.332 649.556 471.715 654.186C472.498 655.012 473.864 654.203 473.509 653.12L468.283 637.121C468.133 636.657 467.729 636.42 467.324 636.418Z" fill="#FFFFFF" fill-rule="nonzero" fill-opacity="1"/></g></g></g></g></g></svg>