<svg width="292" height="293" xmlns="http://www.w3.org/2000/svg" xmlns:xlink="http://www.w3.org/1999/xlink" xml:space="preserve" overflow="hidden"><g transform="translate(-634 -80)"><g><g><g><path d="M345.181 1854.68C330.815 1854.68 319.179 1866.32 319.179 1880.69L319.179 1944.11 515.764 2140.7 579.192 2140.7C593.559 2140.7 605.195 2129.06 605.195 2114.7L605.195 2051.27 408.61 1854.68 345.181 1854.68ZM510.838 1854.68C493.468 1854.68 484.765 1875.69 497.049 1887.97L571.905 1962.83C584.192 1975.1 605.195 1966.41 605.195 1949.04L605.195 1880.69C605.195 1866.32 593.559 1854.68 579.192 1854.68L510.838 1854.68ZM336.549 2026.94C327.394 2028.02 319.179 2035.49 319.179 2046.34L319.179 2114.7C319.179 2129.06 330.815 2140.7 345.181 2140.7L413.536 2140.7C430.906 2140.7 439.609 2119.7 427.325 2107.41L352.469 2032.55C347.862 2027.95 342.04 2026.3 336.549 2026.94Z" fill="#FFFFFF" fill-rule="nonzero" fill-opacity="1" transform="matrix(1 0 0 1.00292 319.068 -1777.36)"/></g></g></g></g></svg>