<svg width="338" height="339" xmlns="http://www.w3.org/2000/svg" xmlns:xlink="http://www.w3.org/1999/xlink" xml:space="preserve" overflow="hidden"><g transform="translate(-894 -33)"><g><g><g><g><path d="M415.264 117.528C372.061 117.528 336.913 152.676 336.913 195.88L336.913 368.253C336.913 411.456 372.061 446.605 415.264 446.605L587.639 446.605C630.842 446.605 665.99 411.456 665.99 368.253L665.99 195.88C665.99 152.676 630.842 117.528 587.639 117.528L415.264 117.528ZM352.583 227.22 650.319 227.22 650.319 289.902 352.583 289.902 352.583 227.22ZM368.253 242.891 368.253 258.561 383.924 258.561 383.924 242.891 368.253 242.891ZM399.594 242.891 399.594 258.561 415.264 258.561 415.264 242.891 399.594 242.891ZM430.935 242.891 430.935 258.561 446.605 258.561 446.605 242.891 430.935 242.891ZM462.275 242.891 462.275 258.561 477.946 258.561 477.946 242.891 462.275 242.891ZM493.617 242.891 493.617 258.561 509.286 258.561 509.286 242.891 493.617 242.891ZM524.957 242.891 524.957 258.561 540.628 258.561 540.628 242.891 524.957 242.891ZM556.297 242.891 556.297 258.561 571.968 258.561 571.968 242.891 556.297 242.891ZM587.639 242.891 587.639 258.561 603.308 258.561 603.308 242.891 587.639 242.891ZM618.979 242.891 618.979 258.561 634.65 258.561 634.65 242.891 618.979 242.891ZM352.583 305.572 650.319 305.572 650.319 360.418 352.583 360.418 352.583 305.572ZM352.583 376.088 650.319 376.088C646.442 406.959 619.544 430.935 587.639 430.935L415.264 430.935C383.359 430.935 356.461 406.959 352.583 376.088Z" fill="#FFFFFF" fill-rule="nonzero" fill-opacity="1" transform="matrix(1 0 0 1.00164 562.22 -78.377)"/></g></g></g></g></g></svg>