<svg width="128" height="128" xmlns="http://www.w3.org/2000/svg" xmlns:xlink="http://www.w3.org/1999/xlink" xml:space="preserve" overflow="hidden"><g transform="translate(-86 -586)"><g><g><g><g><path d="M112.4 603.933C107.722 603.933 103.933 607.722 103.933 612.4L103.933 633.054 167.946 697.067 188.6 697.067C193.278 697.067 197.067 693.278 197.067 688.6L197.067 667.946 133.054 603.933 112.4 603.933ZM166.342 603.933C160.686 603.933 157.852 610.773 161.852 614.773L186.227 639.148C190.228 643.144 197.067 640.314 197.067 634.658L197.067 612.4C197.067 607.722 193.278 603.933 188.6 603.933L166.342 603.933ZM109.589 660.025C106.608 660.376 103.933 662.807 103.933 666.342L103.933 688.6C103.933 693.278 107.722 697.067 112.4 697.067L134.658 697.067C140.314 697.067 143.148 690.228 139.148 686.227L114.773 661.852C113.273 660.354 111.377 659.814 109.589 660.025Z" fill="#FFFFFF" fill-rule="nonzero" fill-opacity="1"/></g></g></g></g></g></svg>