<svg width="97" height="98" xmlns="http://www.w3.org/2000/svg" xmlns:xlink="http://www.w3.org/1999/xlink" xml:space="preserve" overflow="hidden"><g transform="translate(-40 -292)"><g><g><g><g><path d="M88.5 294.94C81.5736 294.94 75.7005 299.517 73.7075 305.792 74.9276 306.428 76.072 307.201 77.1025 308.156 77.2464 308.293 77.3904 308.444 77.527 308.581L85.772 316.826C86.8784 317.932 87.7876 319.175 88.5 320.524 89.2124 319.182 90.1216 317.932 91.228 316.826L99.473 308.581C99.6096 308.437 99.7536 308.293 99.8975 308.156 100.928 307.201 102.072 306.428 103.293 305.792 101.307 299.517 95.4264 294.94 88.5 294.94ZM103.293 305.792C103.702 307.088 103.906 308.437 103.959 309.854 103.967 310.058 104.02 310.255 104.02 310.46L104.02 322.1C104.02 323.691 103.8 325.207 103.353 326.647 104.8 326.2 106.309 325.98 107.9 325.98L119.54 325.98C119.737 325.98 119.949 325.972 120.146 325.98 121.563 326.033 122.912 326.298 124.208 326.707 127.239 320.865 126.315 313.476 121.419 308.581 118.487 305.648 114.591 304.034 110.446 304.034 107.915 304.034 105.475 304.655 103.293 305.792ZM124.208 326.707C123.579 327.912 122.806 329.064 121.844 330.103 121.707 330.246 121.556 330.383 121.419 330.527L113.174 338.772C112.068 339.878 110.825 340.788 109.476 341.5 110.825 342.212 112.068 343.122 113.174 344.228L121.419 352.473C121.556 352.61 121.707 352.754 121.844 352.897 122.806 353.936 123.579 355.088 124.208 356.293 130.483 354.3 135.06 348.426 135.06 341.5 135.06 334.574 130.483 328.693 124.208 326.707ZM124.208 356.293C122.912 356.702 121.563 356.906 120.146 356.959 119.949 356.967 119.737 357.02 119.54 357.02L107.9 357.02C106.309 357.02 104.8 356.8 103.353 356.353 103.8 357.8 104.02 359.309 104.02 360.9L104.02 372.54C104.02 372.745 103.967 372.949 103.959 373.146 103.906 374.563 103.702 375.912 103.293 377.208 105.475 378.345 107.915 378.966 110.446 378.966 114.591 378.966 118.487 377.352 121.419 374.419 126.315 369.524 127.239 362.135 124.208 356.293ZM103.293 377.208C102.072 376.572 100.928 375.799 99.8975 374.844 99.7536 374.707 99.6172 374.556 99.473 374.419L91.228 366.174C90.1216 365.068 89.2124 363.825 88.5 362.476 87.7876 363.825 86.8784 365.068 85.772 366.174L77.527 374.419C77.3904 374.556 77.2464 374.707 77.1025 374.844 76.072 375.799 74.9276 376.572 73.7075 377.208 75.7005 383.483 81.5736 388.06 88.5 388.06 95.4264 388.06 101.3 383.483 103.293 377.208ZM73.7075 377.208C73.2984 375.912 73.0937 374.563 73.0405 373.146 73.033 372.942 72.98 372.745 72.98 372.54L72.98 360.9C72.98 359.309 73.1998 357.8 73.647 356.353 72.2071 356.8 70.6914 357.02 69.1 357.02L57.46 357.02C57.2554 357.02 57.0508 356.967 56.8538 356.959 55.4366 356.906 54.0877 356.702 52.7919 356.293 51.6552 358.475 51.0337 360.915 51.0337 363.446 51.0337 367.591 52.6479 371.487 55.5806 374.419 58.5134 377.352 62.4086 378.966 66.5537 378.966 69.0849 378.966 71.525 378.345 73.7075 377.208ZM52.7919 356.293C53.4284 355.072 54.2014 353.928 55.1562 352.897 55.2927 352.754 55.4442 352.61 55.5806 352.473L63.8255 344.228C64.9321 343.122 66.1749 342.212 67.5238 341.5 66.1749 340.788 64.9321 339.878 63.8255 338.772L55.5806 330.527C55.4442 330.39 55.2927 330.246 55.1562 330.103 54.2014 329.072 53.4284 327.928 52.7919 326.707 46.5172 328.7 41.94 334.574 41.94 341.5 41.94 348.426 46.5172 354.307 52.7919 356.293ZM52.7919 326.707C54.0877 326.298 55.4366 326.094 56.8538 326.041 57.0508 326.033 57.2554 325.98 57.46 325.98L69.1 325.98C70.6914 325.98 72.2071 326.2 73.647 326.647 73.1998 325.207 72.98 323.691 72.98 322.1L72.98 310.46C72.98 310.255 73.033 310.051 73.0405 309.854 73.0937 308.437 73.2984 307.088 73.7075 305.792 71.525 304.655 69.0849 304.034 66.5537 304.034 62.4086 304.034 58.5134 305.648 55.5806 308.581 52.6479 311.513 51.0337 315.409 51.0337 319.554 51.0337 322.085 51.6552 324.525 52.7919 326.707ZM76.86 313.37 76.86 322.1C76.86 327.329 80.3536 331.732 85.105 333.194 85.984 331.535 86.4388 329.724 86.4388 327.799 86.4388 324.692 85.2414 321.751 83.0438 319.554ZM100.14 313.37 93.9563 319.554C91.7586 321.751 90.5612 324.692 90.5612 327.799 90.5612 329.724 91.016 331.535 91.895 333.194 96.6464 331.732 100.14 327.329 100.14 322.1ZM60.37 329.86 66.5537 336.044C68.7514 338.241 71.6916 339.439 74.7988 339.439 76.7236 339.439 78.5348 338.984 80.1945 338.105 78.7317 333.354 74.3289 329.86 69.1 329.86ZM107.9 329.86C102.671 329.86 98.2683 333.354 96.8055 338.105 98.4652 338.984 100.276 339.439 102.201 339.439 105.308 339.439 108.249 338.241 110.446 336.044L116.63 329.86ZM86.863 337.559C86.5222 337.984 86.166 338.385 85.772 338.772 85.3778 339.158 84.9837 339.522 84.5595 339.863 84.6124 340.401 84.62 340.947 84.62 341.5 84.62 342.053 84.6124 342.599 84.5595 343.137 84.9837 343.478 85.3778 343.834 85.772 344.228 86.166 344.622 86.5222 345.016 86.863 345.441 87.4012 345.388 87.9467 345.38 88.5 345.38 89.0533 345.38 89.5988 345.388 90.137 345.441 90.4778 345.016 90.834 344.615 91.228 344.228 91.6222 343.842 92.0163 343.478 92.4405 343.137 92.3876 342.599 92.38 342.053 92.38 341.5 92.38 340.947 92.3876 340.401 92.4405 339.863 92.0163 339.522 91.6147 339.166 91.228 338.772 90.834 338.378 90.4778 337.984 90.137 337.559 89.5988 337.612 89.0533 337.62 88.5 337.62 87.9467 337.62 87.4012 337.612 86.863 337.559ZM74.7988 343.561C71.6916 343.561 68.7514 344.819 66.5537 347.017L60.37 353.14 69.1 353.14C74.3289 353.14 78.7317 349.646 80.1945 344.895 78.5348 344.016 76.7236 343.561 74.7988 343.561ZM102.201 343.561C100.276 343.561 98.4047 344.016 96.745 344.895 98.2151 349.646 102.671 353.14 107.9 353.14L116.63 353.14 110.446 346.956C108.249 344.759 105.308 343.561 102.201 343.561ZM85.105 349.745C80.3536 351.215 76.86 355.671 76.86 360.9L76.86 369.63 83.0438 363.446C85.2414 361.249 86.4388 358.308 86.4388 355.201 86.4388 353.276 85.984 351.405 85.105 349.745ZM91.895 349.806C91.016 351.465 90.5612 353.276 90.5612 355.201 90.5612 358.308 91.8191 361.249 94.017 363.446L100.14 369.63 100.14 360.9C100.14 355.671 96.6464 351.268 91.895 349.806Z" fill="#FFFFFF" fill-rule="nonzero" fill-opacity="1"/></g></g></g></g></g></svg>