<svg width="501" height="501" xmlns="http://www.w3.org/2000/svg" xmlns:xlink="http://www.w3.org/1999/xlink" xml:space="preserve" overflow="hidden"><g transform="translate(-389 -109)"><g><g><g><g><path d="M750 149.9 530 149.9C474.86 149.9 430 194.76 430 249.9L430 469.9C430 525.04 474.86 569.9 530 569.9L750 569.9C805.14 569.9 850 525.04 850 469.9L850 249.9C850 194.76 805.14 149.9 750 149.9ZM689.93 388.83C686.88 390.39 683.13 390.39 680.08 388.83 622.64 359.42 590 313.14 590 271.55 590 223.69 642.6 205.59 677.71 238.08 681.84 241.91 688.15 241.91 692.28 238.08 727.4 205.59 780 223.69 780 271.55 780 313.14 747.36 359.42 689.93 388.83Z" fill="#FFFFFF" fill-rule="nonzero" fill-opacity="1"/></g></g></g></g></g></svg>