<svg width="437" height="438" xmlns="http://www.w3.org/2000/svg" xmlns:xlink="http://www.w3.org/1999/xlink" xml:space="preserve" overflow="hidden"><g transform="translate(-492 -28)"><g><g><g><g><path d="M377.999 294.998C368.847 315.325 364.437 324.411 352.665 342.351 336.184 367.423 312.938 398.724 284.221 398.924 258.654 399.155 252.055 382.243 217.336 382.542 182.649 382.707 175.421 399.257 149.82 398.99 121.07 398.724 99.0846 370.538 82.6033 345.502 36.51 275.301 31.6354 192.996 60.1204 149.223 80.2821 118.185 112.149 99.9461 142.094 99.9461 172.601 99.9461 191.768 116.693 216.971 116.693 241.443 116.693 256.332 99.9131 291.616 99.9131 318.277 99.9131 346.464 114.438 366.626 139.507 300.702 175.653 311.413 269.796 377.999 294.998ZM264.822 71.8926C277.655 55.4117 287.405 32.1659 283.856 8.48915 262.932 9.91509 238.459 23.2789 224.166 40.5887 211.201 56.3732 200.457 79.7847 204.635 102.434 227.483 103.163 251.126 89.5343 264.822 71.8926Z" fill="#FFFFFF" fill-rule="nonzero" fill-opacity="1" transform="matrix(1 0 0 1.01294 497.288 32.5242)"/></g></g></g></g></g></svg>