<svg width="93" height="95" xmlns="http://www.w3.org/2000/svg" xmlns:xlink="http://www.w3.org/1999/xlink" xml:space="preserve" overflow="hidden"><defs><clipPath id="clip0"><rect x="284" y="401" width="93" height="95"/></clipPath><clipPath id="clip1"><rect x="284" y="401" width="93" height="95"/></clipPath><clipPath id="clip2"><rect x="284" y="402" width="93" height="93"/></clipPath><clipPath id="clip3"><rect x="284" y="402" width="93" height="93"/></clipPath></defs><g clip-path="url(#clip0)" transform="translate(-284 -401)"><g clip-path="url(#clip1)"><g clip-path="url(#clip2)"><g clip-path="url(#clip3)"><path d="M29.7807 18.8089C23.7305 18.8089 18.8089 23.7305 18.8089 29.7807L18.8089 120.69C18.8089 126.74 23.7305 131.662 29.7807 131.662L120.69 131.662C126.74 131.662 131.662 126.74 131.662 120.69L131.662 29.7807C131.662 23.7305 126.74 18.8089 120.69 18.8089L29.7807 18.8089ZM29.7807 28.2133 120.69 28.2133C121.552 28.2133 122.258 28.9155 122.258 29.7807L122.258 120.69C122.258 121.552 121.552 122.258 120.69 122.258L29.7807 122.258C28.9186 122.258 28.2133 121.552 28.2133 120.69L28.2133 29.7807C28.2133 28.9155 28.9186 28.2133 29.7807 28.2133ZM99.4995 37.6177C99.201 37.6092 98.8998 37.6368 98.5995 37.6973L64.2758 44.0403C61.7115 44.498 59.8307 46.7259 59.8307 49.3058L59.8307 88.6687C59.8307 91.6248 57.3817 94.0443 54.3817 94.0443L50.6714 94.0443C45.6275 94.0443 41.2622 97.754 40.8014 102.481 40.5287 105.143 41.4021 107.799 43.2014 109.761 45.0293 111.724 47.5927 112.853 50.2917 112.853L51.651 112.853C59.1745 112.853 65.831 107.731 65.831 100.314L65.831 59.5614 97.1791 53.2918 97.1791 83.2072C97.1791 86.1602 93.9095 87.7747 90.9095 87.7747L87.7747 87.7747C82.7307 87.7747 78.3702 90.9095 78.3702 97.1791 78.3702 103.449 85.0756 106.584 87.7747 106.584L90.9095 106.584C100.314 106.584 103.449 100.314 103.449 94.0443L103.449 41.6466C103.449 40.4365 102.904 39.3067 101.979 38.5544 101.264 37.9713 100.395 37.6431 99.4995 37.6177Z" fill="#FFFFFF" fill-rule="nonzero" fill-opacity="1" transform="matrix(1 0 0 1.01386 255.069 372.273)"/></g></g></g></g></svg>