<svg width="132" height="132" xmlns="http://www.w3.org/2000/svg" xmlns:xlink="http://www.w3.org/1999/xlink" xml:space="preserve" overflow="hidden"><defs><clipPath id="clip0"><rect x="648" y="80" width="132" height="132"/></clipPath><clipPath id="clip1"><rect x="648" y="80" width="132" height="132"/></clipPath></defs><g clip-path="url(#clip0)" transform="translate(-648 -80)"><g clip-path="url(#clip1)"><path d="M36.6905 16.3069C25.4815 16.3069 16.3069 25.4815 16.3069 36.6905L16.3069 167.146C16.3069 178.354 25.4815 187.529 36.6905 187.529L167.146 187.529C178.354 187.529 187.529 178.354 187.529 167.146L187.529 36.6905C187.529 25.4815 178.354 16.3069 167.146 16.3069L36.6905 16.3069ZM36.6905 24.4604 167.146 24.4604C173.947 24.4604 179.375 29.8885 179.375 36.6905L179.375 167.146C179.375 173.947 173.947 179.375 167.146 179.375L36.6905 179.375C29.8885 179.375 24.4604 173.947 24.4604 167.146L24.4604 36.6905C24.4604 29.8885 29.8885 24.4604 36.6905 24.4604ZM73.6916 73.381C70.8175 73.7764 67.537 75.3521 65.4824 77.7207 63.4277 80.0852 62.1904 82.8512 63.0139 85.6112 66.2956 85.6112 69.1767 84.0303 71.2314 81.6617 72.8743 79.6889 74.1034 76.5364 73.6916 73.381ZM109.259 73.381 101.918 75.4193 101.918 85.6112 95.803 85.6112 95.803 91.2166 101.918 91.2166 101.918 112.516C101.918 117.408 102.73 120.668 104.768 123.114 106.807 125.152 109.661 126.379 112.922 126.379 115.775 126.379 118.228 125.974 119.451 125.567L119.037 119.857C118.222 120.264 116.999 120.263 114.96 120.263 110.476 120.263 109.259 117.408 109.259 112.516L109.259 91.2166 119.857 91.2166 119.857 85.6112 109.259 85.6112 109.259 73.381ZM54.3909 85.6112C50.2815 85.6112 46.1734 88.0555 43.2992 92.1322 39.194 98.2474 40.0137 109.661 46.1737 119.037 48.2284 122.706 51.1058 126.379 55.2111 126.379 58.9087 126.786 59.7256 124.34 64.6544 124.34 69.1713 123.933 69.994 126.379 73.6916 126.379 77.3892 126.379 80.6726 121.892 83.135 118.631 84.3702 116.185 85.1904 114.963 86.8293 112.11 77.7952 108.44 76.1552 95.8063 85.1892 90.9142 82.3151 87.6528 78.6233 85.6112 74.9257 85.6112 70.001 85.6112 67.9402 88.0555 64.6544 88.0555 61.3686 88.0555 58.5001 85.6112 54.3909 85.6112ZM124.85 85.6112 140.297 126.379 147.208 126.379 163.069 85.6112 155.346 85.6112 147.621 108.439C146.403 112.516 145.177 115.775 144.366 119.037L143.959 119.037C143.144 115.368 141.93 112.108 140.71 108.439L132.573 85.6112 124.85 85.6112Z" fill="#FFFFFF" fill-rule="nonzero" fill-opacity="1" transform="matrix(1 0 0 1.00104 613.162 42.3641)"/></g></g></svg>