<svg width="560" height="402" xmlns="http://www.w3.org/2000/svg" xmlns:xlink="http://www.w3.org/1999/xlink" xml:space="preserve" overflow="hidden"><g transform="translate(124 -2)"><g><g><g><g><path d="M-457.556-384.756-432.114-438.284C-451.546-442.411-471.098-454.431-482.157-469.055L-508.761-413.123C-493.976-400.582-476.227-390.726-457.556-384.756" fill="#FFFFFF" fill-rule="evenodd" fill-opacity="1" transform="matrix(1.00039 0 0 1 566.231 658.579)"/><path d="M-351.381-470.658C-364.162-454.992-381.911-443.373-400.902-438.845L-375.54-385.477C-357.03-391.727-339.721-401.824-324.777-414.765Z" fill="#FFFFFF" fill-rule="evenodd" fill-opacity="1" transform="matrix(1.00039 0 0 1 566.231 658.579)"/><path d="M-508.761-413.123-522.063-385.156C-528.834-370.933-523.745-353.424-509.802-346.012-495.018-338.159-476.828-344.289-469.696-359.234L-457.556-384.756C-476.303-390.798-493.696-400.434-508.761-413.123" fill="#FFFFFF" fill-rule="evenodd" fill-opacity="1" transform="matrix(1.00039 0 0 1 566.231 658.579)"/><path d="M-298.573-531.719C-300.46-532.095-302.384-532.287-304.307-532.287-318.182-532.287-330.234-522.403-332.95-508.801-335.755-494.777-342.326-481.716-351.381-470.618L-324.817-414.685C-300.296-435.96-282.186-464.928-275.695-497.342-272.53-513.208-282.787-528.593-298.573-531.719" fill="#FFFFFF" fill-rule="evenodd" fill-opacity="1" transform="matrix(1.00039 0 0 1 566.231 658.579)"/><path d="M-400.902-438.845C-406.592-437.483-412.401-436.762-418.211-436.762-422.738-436.762-427.426-437.283-432.114-438.284-451.546-442.411-471.098-454.431-482.157-469.055-484.921-472.701-487.165-476.507-488.728-480.394-494.777-495.338-511.806-502.55-526.75-496.54-541.695-490.49-548.907-473.462-542.897-458.518-536.046-441.53-523.946-425.944-508.761-413.123-493.708-400.434-476.331-390.802-457.596-384.756-444.735-380.629-431.393-378.345-418.251-378.345-403.667-378.345-389.283-380.869-375.581-385.477Z" fill="#FFFFFF" fill-rule="evenodd" fill-opacity="1" transform="matrix(1.00039 0 0 1 566.231 658.579)"/><path d="M-310.794-385.277-324.817-414.765-351.381-470.658-351.421-470.618C-351.421-470.618-351.421-470.658-351.381-470.658L-390.004-551.912C-394.836-562.069-405.121-568.571-416.368-568.579-427.627-568.579-437.883-562.089-442.732-551.912L-482.117-469.055C-471.058-454.431-451.506-442.411-432.074-438.284L-419.333-465.048C-418.131-467.573-414.525-467.573-413.323-465.048L-400.862-438.845-400.782-438.845-400.862-438.845-375.5-385.477-363.04-359.274C-358.212-349.097-347.903-342.586-336.636-342.606-334.032-342.606-331.428-342.967-328.863-343.688-311.274-348.536-302.941-368.769-310.794-385.277" fill="#FFFFFF" fill-rule="evenodd" fill-opacity="1" transform="matrix(1.00039 0 0 1 566.231 658.579)"/><path d="M115.391 208.224 140.833 154.696C121.401 150.569 101.848 138.549 90.79 123.925L64.1861 179.857C78.9705 192.398 96.7198 202.254 115.391 208.224" fill="#FFFFFF" fill-rule="evenodd" fill-opacity="1" transform="matrix(1.00039 0 0 1 -6.942 65.5997)"/><path d="M221.566 122.322C208.785 137.988 191.036 149.607 172.044 154.135L197.406 207.503C215.917 201.253 233.225 191.156 248.17 178.214Z" fill="#FFFFFF" fill-rule="evenodd" fill-opacity="1" transform="matrix(1.00039 0 0 1 -6.942 65.5997)"/><path d="M64.1861 179.857 50.8841 207.823C44.1129 222.047 49.2013 239.556 63.1443 246.968 77.9288 254.821 96.1188 248.691 103.251 233.746L115.391 208.224C96.6437 202.182 79.2509 192.546 64.1861 179.857" fill="#FFFFFF" fill-rule="evenodd" fill-opacity="1" transform="matrix(1.00039 0 0 1 -6.942 65.5997)"/><path d="M274.373 61.2612C272.486 60.8846 270.563 60.6923 268.64 60.6923 254.765 60.6923 242.713 70.5766 239.997 84.1791 237.192 98.2023 230.621 111.264 221.566 122.362L248.13 178.295C272.651 157.019 290.76 128.052 297.251 95.638 300.416 79.7718 290.159 64.3864 274.373 61.2612" fill="#FFFFFF" fill-rule="evenodd" fill-opacity="1" transform="matrix(1.00039 0 0 1 -6.942 65.5997)"/><path d="M172.044 154.135C166.355 155.497 160.545 156.218 154.736 156.218 150.208 156.218 145.52 155.697 140.833 154.696 121.401 150.569 101.848 138.549 90.79 123.925 88.0254 120.279 85.7817 116.472 84.2192 112.586 78.1692 97.6413 61.141 90.4294 46.1963 96.4393 31.2516 102.489 24.0397 119.517 30.0497 134.462 36.901 151.45 49.001 167.036 64.1861 179.857 79.2389 192.546 96.6156 202.178 115.351 208.224 128.212 212.351 141.554 214.635 154.696 214.635 169.28 214.635 183.663 212.11 197.366 207.503Z" fill="#FFFFFF" fill-rule="evenodd" fill-opacity="1" transform="matrix(1.00039 0 0 1 -6.942 65.5997)"/><path d="M262.153 207.703 248.13 178.214 221.566 122.322 221.526 122.362C221.526 122.362 221.526 122.322 221.566 122.322L182.942 41.0679C178.11 30.9111 167.825 24.4083 156.579 24.4003 145.32 24.4003 135.063 30.891 130.215 41.0679L90.8301 123.925C101.888 138.549 121.441 150.569 140.873 154.696L153.614 127.931C154.816 125.407 158.422 125.407 159.624 127.931L172.084 154.135 172.164 154.135 172.084 154.135 197.446 207.503 209.907 233.706C214.735 243.883 225.044 250.394 236.31 250.374 238.915 250.374 241.519 250.013 244.083 249.292 261.672 244.444 270.006 224.21 262.153 207.703" fill="#FFFFFF" fill-rule="evenodd" fill-opacity="1" transform="matrix(1.00039 0 0 1 -6.942 65.5997)"/></g></g></g></g></g></svg>