<svg width="124" height="124" xmlns="http://www.w3.org/2000/svg" xmlns:xlink="http://www.w3.org/1999/xlink" xml:space="preserve" overflow="hidden"><g transform="translate(-260 -181)"><g><g><g><g><path d="M321.5 191.84C313.348 191.84 306.74 198.448 306.74 206.6 306.74 214.752 313.348 221.36 321.5 221.36 329.652 221.36 336.26 214.752 336.26 206.6 336.26 198.448 329.652 191.84 321.5 191.84ZM316.58 225.953C315.141 226.249 313.72 226.664 312.337 227.217L267.889 245.052C263.921 246.644 263.734 252.189 267.587 254.046L305.472 272.318C315.597 277.202 327.398 277.202 337.524 272.318L375.409 254.046C379.263 252.189 379.079 246.644 375.111 245.052L330.663 227.217C329.282 226.664 327.859 226.251 326.42 225.958L326.42 250.669C326.42 253.387 324.218 255.589 321.5 255.589 318.782 255.589 316.58 253.387 316.58 250.669L316.58 225.953ZM288.29 245.96C293.045 245.96 296.9 248.162 296.9 250.88 296.9 253.596 293.045 255.8 288.29 255.8 283.535 255.8 279.68 253.596 279.68 250.88 279.68 248.162 283.535 245.96 288.29 245.96ZM267.183 262.089C265.973 262.177 264.92 263.182 264.92 264.535L264.92 271.194C264.92 272.141 265.462 273.001 266.318 273.409L303.04 290.975C314.713 296.557 328.287 296.557 339.96 290.975L376.682 273.409C377.538 272.998 378.08 272.137 378.08 271.19L378.08 264.549C378.08 262.741 376.199 261.549 374.573 262.339 365.092 266.925 339.662 279.208 339.662 279.208 334.033 281.924 327.751 283.36 321.5 283.36 315.249 283.36 308.964 281.924 303.333 279.208 303.333 279.208 277.882 266.913 268.413 262.33 268.008 262.133 267.586 262.06 267.183 262.089Z" fill="#FFFFFF" fill-rule="nonzero" fill-opacity="1"/></g></g></g></g></g></svg>