<svg width="426" height="426" xmlns="http://www.w3.org/2000/svg" xmlns:xlink="http://www.w3.org/1999/xlink" xml:space="preserve" overflow="hidden"><g transform="translate(-406 -104)"><g><g><g><g><path d="M422.842 182.358 261.833 182.358 342.452 42.9577 292.106 13.8615 240.485 103.079 240.485 0 182.358 0 182.358 161.042 42.9577 80.4231 13.8615 130.737 103.079 182.358 0 182.358 0 240.485 161.042 240.485 80.4231 379.885 130.737 409.013 182.358 319.763 182.358 422.842 240.485 422.842 240.485 261.833 379.885 342.452 409.013 292.106 319.763 240.485 422.842 240.485 422.842 182.358Z" fill="#FFFFFF" fill-rule="nonzero" fill-opacity="1" transform="matrix(1 0 0 1.00235 407 104)"/></g></g></g></g></g></svg>