<svg width="107" height="122" xmlns="http://www.w3.org/2000/svg" xmlns:xlink="http://www.w3.org/1999/xlink" xml:space="preserve" overflow="hidden"><defs><clipPath id="clip0"><rect x="30" y="160" width="107" height="122"/></clipPath><clipPath id="clip1"><rect x="30" y="160" width="107" height="122"/></clipPath><clipPath id="clip2"><rect x="31" y="161" width="106" height="121"/></clipPath><clipPath id="clip3"><rect x="31" y="161" width="106" height="121"/></clipPath><clipPath id="clip4"><rect x="31" y="161" width="106" height="121"/></clipPath></defs><g clip-path="url(#clip0)" transform="translate(-30 -160)"><g clip-path="url(#clip1)"><g clip-path="url(#clip2)"><g clip-path="url(#clip3)"><g clip-path="url(#clip4)"><path d="M30.25 0C34.433 0 37.8125 3.37949 37.8125 7.5625L37.8125 15.125 68.0625 15.125 68.0625 7.5625C68.0625 3.37949 71.442 0 75.625 0 79.808 0 83.1875 3.37949 83.1875 7.5625L83.1875 15.125 94.5312 15.125C100.794 15.125 105.875 20.2061 105.875 26.4688L105.875 37.8125 0 37.8125 0 26.4688C0 20.2061 5.08105 15.125 11.3438 15.125L22.6875 15.125 22.6875 7.5625C22.6875 3.37949 26.067 0 30.25 0ZM0 45.375 105.875 45.375 105.875 109.656C105.875 115.919 100.794 121 94.5312 121L11.3438 121C5.08105 121 0 115.919 0 109.656L0 45.375ZM15.125 64.2812 15.125 71.8438C15.125 73.9234 16.8266 75.625 18.9062 75.625L26.4688 75.625C28.5484 75.625 30.25 73.9234 30.25 71.8438L30.25 64.2812C30.25 62.2016 28.5484 60.5 26.4688 60.5L18.9062 60.5C16.8266 60.5 15.125 62.2016 15.125 64.2812ZM45.375 64.2812 45.375 71.8438C45.375 73.9234 47.0766 75.625 49.1562 75.625L56.7188 75.625C58.7984 75.625 60.5 73.9234 60.5 71.8438L60.5 64.2812C60.5 62.2016 58.7984 60.5 56.7188 60.5L49.1562 60.5C47.0766 60.5 45.375 62.2016 45.375 64.2812ZM79.4062 60.5C77.3266 60.5 75.625 62.2016 75.625 64.2812L75.625 71.8438C75.625 73.9234 77.3266 75.625 79.4062 75.625L86.9688 75.625C89.0484 75.625 90.75 73.9234 90.75 71.8438L90.75 64.2812C90.75 62.2016 89.0484 60.5 86.9688 60.5L79.4062 60.5ZM15.125 94.5312 15.125 102.094C15.125 104.173 16.8266 105.875 18.9062 105.875L26.4688 105.875C28.5484 105.875 30.25 104.173 30.25 102.094L30.25 94.5312C30.25 92.4516 28.5484 90.75 26.4688 90.75L18.9062 90.75C16.8266 90.75 15.125 92.4516 15.125 94.5312ZM49.1562 90.75C47.0766 90.75 45.375 92.4516 45.375 94.5312L45.375 102.094C45.375 104.173 47.0766 105.875 49.1562 105.875L56.7188 105.875C58.7984 105.875 60.5 104.173 60.5 102.094L60.5 94.5312C60.5 92.4516 58.7984 90.75 56.7188 90.75L49.1562 90.75ZM75.625 94.5312 75.625 102.094C75.625 104.173 77.3266 105.875 79.4062 105.875L86.9688 105.875C89.0484 105.875 90.75 104.173 90.75 102.094L90.75 94.5312C90.75 92.4516 89.0484 90.75 86.9688 90.75L79.4062 90.75C77.3266 90.75 75.625 92.4516 75.625 94.5312Z" fill="#FFFFFF" fill-rule="nonzero" fill-opacity="1" transform="matrix(1.00118 0 0 1 31 161)"/></g></g></g></g></g></svg>