<svg width="113" height="111" xmlns="http://www.w3.org/2000/svg" xmlns:xlink="http://www.w3.org/1999/xlink" xml:space="preserve" overflow="hidden"><defs><clipPath id="clip0"><rect x="480" y="458" width="113" height="111"/></clipPath><clipPath id="clip1"><rect x="480" y="458" width="113" height="111"/></clipPath><clipPath id="clip2"><rect x="480" y="459" width="113" height="110"/></clipPath><clipPath id="clip3"><rect x="480" y="459" width="113" height="110"/></clipPath></defs><g clip-path="url(#clip0)" transform="translate(-480 -458)"><g clip-path="url(#clip1)"><g clip-path="url(#clip2)"><g clip-path="url(#clip3)"><path d="M51.2388 25.6194C37.1911 25.6194 25.6194 37.1911 25.6194 51.2388L25.6194 153.716C25.6194 167.764 37.1911 179.336 51.2388 179.336L153.716 179.336C167.764 179.336 179.336 167.764 179.336 153.716L179.336 51.2388C179.336 37.1911 167.764 25.6194 153.716 25.6194L51.2388 25.6194ZM51.2388 42.699 153.716 42.699C158.541 42.699 162.256 46.4136 162.256 51.2388L162.256 153.716C162.256 158.541 158.541 162.256 153.716 162.256L51.2388 162.256C46.4136 162.256 42.699 158.541 42.699 153.716L42.699 51.2388C42.699 46.4136 46.4136 42.699 51.2388 42.699ZM87.6833 68.3184C86.2486 68.3184 84.916 69.0328 84.1303 70.2199L81.1281 76.8582 76.8582 76.8582C76.8582 74.5012 74.9453 72.5883 72.5883 72.5883 70.2313 72.5883 68.3184 74.5012 68.3184 76.8582 63.6044 76.8582 59.7786 80.684 59.7786 85.398L59.7786 128.097C59.7786 132.811 63.6044 136.637 68.3184 136.637L136.637 136.637C141.351 136.637 145.177 132.811 145.177 128.097L145.177 85.398C145.177 80.684 141.351 76.8582 136.637 76.8582L123.827 76.8582 120.825 70.2199C120.03 69.0328 118.698 68.3184 117.272 68.3184L87.6833 68.3184ZM102.478 85.398C114.254 85.398 123.827 94.9711 123.827 106.747 123.827 118.524 114.254 128.097 102.478 128.097 90.7012 128.097 81.1281 118.524 81.1281 106.747 81.1281 94.9711 90.7012 85.398 102.478 85.398ZM132.367 85.398C134.724 85.398 136.637 87.3109 136.637 89.6679 136.637 92.0249 134.724 93.9378 132.367 93.9378 130.01 93.9378 128.097 92.0249 128.097 89.6679 128.097 87.3109 130.01 85.398 132.367 85.398ZM102.478 93.9378C95.4032 93.9378 89.6679 99.6731 89.6679 106.747 89.6679 113.822 95.4032 119.557 102.478 119.557 109.552 119.557 115.287 113.822 115.287 106.747 115.287 99.6731 109.552 93.9378 102.478 93.9378Z" fill="#FFFFFF" fill-rule="nonzero" fill-opacity="1" transform="matrix(1 0 0 1.00161 434.719 408.993)"/></g></g></g></g></svg>