<svg width="640" height="512" xmlns="http://www.w3.org/2000/svg" xmlns:xlink="http://www.w3.org/1999/xlink" xml:space="preserve" overflow="hidden"><defs><clipPath id="clip0"><rect x="320" y="104" width="640" height="512"/></clipPath><clipPath id="clip1"><rect x="320" y="104" width="640" height="512"/></clipPath></defs><g clip-path="url(#clip0)" transform="translate(-320 -104)"><g clip-path="url(#clip1)"><path d="M727.906 423.913 497.106 420.985C495.659 420.953 494.312 420.239 493.474 419.059 492.663 417.833 492.479 416.295 492.98 414.912 493.797 412.608 495.902 411.007 498.341 410.836L731.281 407.9C758.912 406.64 788.827 384.326 799.303 357.116L812.589 322.574C812.947 321.637 813.125 320.641 813.113 319.638 813.116 319.09 813.061 318.543 812.949 318.007 794.223 236.226 712.746 185.11 630.965 203.836 579.83 215.544 538.355 252.807 521.257 302.4 491.233 279.73 448.516 285.692 425.845 315.716 413.372 332.236 409.087 353.531 414.2 373.59 361.924 375.106 320 417.728 320 470.12 320.003 474.792 320.347 479.457 321.029 484.078 321.345 486.292 323.237 487.94 325.474 487.949L751.574 488C751.617 488 751.654 487.981 751.696 487.98 754.136 487.936 756.268 486.319 756.967 483.98L760.24 472.715C764.14 459.315 762.688 446.915 756.14 437.815 750.124 429.423 740.09 424.487 727.906 423.913ZM833.856 325.1C831.715 325.1 829.585 325.162 827.465 325.264 825.916 325.38 824.597 326.433 824.141 327.917L815.064 359.11C811.164 372.51 812.615 384.896 819.164 394 825.184 402.4 835.218 407.323 847.402 407.9L896.602 410.839C898.004 410.888 899.302 411.588 900.112 412.733 900.939 413.961 901.13 415.51 900.626 416.902 899.808 419.201 897.709 420.8 895.275 420.977L844.15 423.916C816.396 425.186 786.481 447.49 776.005 474.7L772.31 484.306C771.776 485.708 772.48 487.277 773.882 487.811 774.156 487.915 774.444 487.974 774.737 487.986 774.783 487.986 774.825 488.003 774.873 488.003L950.783 488.003C952.879 488.02 954.732 486.644 955.322 484.633 958.441 473.569 960.017 462.128 960.004 450.633 960 381.3 903.524 325.1 833.856 325.1Z" fill="#FFFFFF" fill-rule="nonzero" fill-opacity="1"/></g></g></svg>