<svg width="384" height="512" xmlns="http://www.w3.org/2000/svg" xmlns:xlink="http://www.w3.org/1999/xlink" xml:space="preserve" overflow="hidden"><defs><clipPath id="clip0"><rect x="448" y="104" width="384" height="512"/></clipPath><clipPath id="clip1"><rect x="448" y="104" width="384" height="512"/></clipPath></defs><g clip-path="url(#clip0)" transform="translate(-448 -104)"><g clip-path="url(#clip1)"><path d="M777.1 246.9C714.6 184.4 621.3 184.4 558.8 246.9 496.3 309.4 496.3 410.7 558.8 473.2 621.3 535.7 714.6 535.7 777.1 473.2 789.6 460.7 809.9 460.7 822.4 473.2 834.9 485.7 834.9 506 822.4 518.5 734.9 606 601.1 606 513.6 518.5 426.1 431 426.1 289.2 513.6 201.7 601.1 114.2 734.9 114.2 822.4 201.7 834.9 214.2 834.9 234.5 822.4 247 809.9 259.5 789.6 259.5 777.1 247Z" fill="#FFFFFF" fill-rule="nonzero" fill-opacity="1"/></g></g></svg>