<svg width="102" height="102" xmlns="http://www.w3.org/2000/svg" xmlns:xlink="http://www.w3.org/1999/xlink" xml:space="preserve" overflow="hidden"><g transform="translate(-916 -10)"><g><g><g><g><path d="M26.26 8.08C16.2368 8.08 8.08 16.2347 8.08 26.26L8.08 74.74C8.08 84.7653 16.2368 92.92 26.26 92.92L74.74 92.92C75.4228 92.92 76.0954 92.8764 76.76 92.8016L76.76 8.19835C76.0954 8.12361 75.4228 8.08 74.74 8.08L26.26 8.08ZM80.8 9.14129 80.8 28.28 92.92 28.28 92.92 26.26C92.92 18.3618 87.8498 11.6441 80.8 9.14129ZM44.44 24.24C58.9194 24.24 70.7 36.0206 70.7 50.5 70.7 64.9794 58.9194 76.76 44.44 76.76 29.9606 76.76 18.18 64.9794 18.18 50.5 18.18 36.0206 29.9606 24.24 44.44 24.24ZM44.44 28.28C32.1887 28.28 22.22 38.2487 22.22 50.5 22.22 56.1843 24.3842 61.3619 27.9091 65.2949 32.0966 61.0549 38.081 58.58 44.44 58.58 50.7828 58.58 56.7893 61.049 60.9787 65.287 64.4976 61.3541 66.66 56.1802 66.66 50.5 66.66 38.2487 56.6913 28.28 44.44 28.28ZM80.8 32.32 80.8 48.48 92.92 48.48 92.92 32.32 80.8 32.32ZM44.44 37.37C49.4516 37.37 53.53 41.4484 53.53 46.46 53.53 51.4716 49.4516 55.55 44.44 55.55 39.4284 55.55 35.35 51.4716 35.35 46.46 35.35 41.4484 39.4284 37.37 44.44 37.37ZM80.8 52.52 80.8 68.68 92.92 68.68 92.92 52.52 80.8 52.52ZM80.8 72.72 80.8 91.8587C87.8498 89.3559 92.92 82.6382 92.92 74.74L92.92 72.72 80.8 72.72Z" fill="#FFFFFF" fill-rule="nonzero" fill-opacity="1" transform="matrix(1.0099 0 0 1 916 11)"/></g></g></g></g></g></svg>