<svg width="384" height="512" xmlns="http://www.w3.org/2000/svg" xmlns:xlink="http://www.w3.org/1999/xlink" xml:space="preserve" overflow="hidden"><defs><clipPath id="clip0"><rect x="448" y="104" width="384" height="512"/></clipPath><clipPath id="clip1"><rect x="448" y="104" width="384" height="512"/></clipPath></defs><g clip-path="url(#clip0)" transform="translate(-448 -104)"><g clip-path="url(#clip1)"><path d="M671.5 136C548 136 448 236.3 448 360 448 483.7 548 584 671.5 584 732.1 584 787 559.8 827.3 520.6 832.3 515.7 833.6 508.1 830.4 501.9 827.2 495.7 820.3 492.2 813.4 493.4 803.6 495.1 793.6 496 783.3 496 686.4 496 607.8 417.2 607.8 320 607.8 254.2 643.8 196.9 697.1 166.7 703.2 163.2 706.3 156.2 704.8 149.4 703.3 142.6 697.5 137.5 690.5 136.9 684.2 136.4 677.9 136.1 671.5 136.1Z" fill="#FFFFFF" fill-rule="nonzero" fill-opacity="1"/></g></g></svg>