<svg width="640" height="512" xmlns="http://www.w3.org/2000/svg" xmlns:xlink="http://www.w3.org/1999/xlink" xml:space="preserve" overflow="hidden"><g transform="translate(-320 -104)"><g><path d="M844.531 173.836C844.368 173.519 844.097 173.271 843.767 173.136 805.644 155.645 765.413 143.172 724.081 136.03 723.311 135.887 722.536 136.254 722.158 136.94 716.68 146.883 711.707 157.096 707.258 167.54 662.705 160.777 617.385 160.777 572.832 167.54 568.354 157.069 563.301 146.854 557.697 136.94 557.304 136.27 556.54 135.909 555.773 136.03 514.437 143.157 474.203 155.631 436.085 173.137 435.759 173.275 435.483 173.512 435.297 173.813 359.068 287.651 338.186 398.69 348.43 508.354 348.488 508.897 348.764 509.393 349.195 509.729 393.582 542.595 443.23 567.681 496.02 583.918 496.781 584.146 497.604 583.877 498.083 583.242 509.421 567.815 519.467 551.479 528.12 534.4 528.585 533.484 528.219 532.365 527.303 531.9 527.237 531.867 527.17 531.837 527.101 531.812 511.259 525.75 495.921 518.443 481.233 509.959 480.336 509.431 480.036 508.276 480.563 507.379 480.688 507.167 480.852 506.982 481.048 506.833 484.13 504.524 487.214 502.122 490.157 499.696 490.69 499.257 491.426 499.158 492.057 499.44 588.286 543.357 692.467 543.357 787.557 499.44 788.189 499.139 788.939 499.23 789.481 499.673 792.425 502.099 795.508 504.524 798.613 506.833 799.446 507.456 799.617 508.637 798.993 509.47 798.846 509.667 798.662 509.833 798.451 509.959 783.796 518.515 768.445 525.817 752.561 531.789 751.593 532.157 751.107 533.24 751.475 534.208 751.5 534.274 751.529 534.338 751.561 534.4 760.358 551.384 770.39 567.699 781.575 583.215 782.041 583.868 782.871 584.15 783.638 583.915 836.522 567.733 886.257 542.644 930.7 509.729 931.138 509.41 931.417 508.917 931.465 508.377 943.729 381.594 910.933 271.465 844.531 173.836ZM542.491 441.58C513.519 441.58 489.647 414.993 489.647 382.341 489.647 349.689 513.056 323.1 542.491 323.1 572.156 323.1 595.797 349.92 595.334 382.339 595.334 414.993 571.924 441.58 542.491 441.58ZM737.871 441.58C708.9 441.58 685.028 414.993 685.028 382.341 685.028 349.689 708.437 323.1 737.871 323.1 767.538 323.1 791.178 349.92 790.715 382.339 790.715 414.993 767.538 441.58 737.871 441.58Z" fill="#FFFFFF" fill-rule="nonzero" fill-opacity="1"/></g></g></svg>