<svg width="117" height="120" xmlns="http://www.w3.org/2000/svg" xmlns:xlink="http://www.w3.org/1999/xlink" xml:space="preserve" overflow="hidden"><g transform="translate(-260 -216)"><g><g><g><g><path d="M46.7672 58.9961C46.7672 58.9961 48.0823 56.9416 50.3825 56.0383 52.6828 55.1351 51.9433 57.3534 50.7125 58.2566 49.477 59.1599 48.2438 59.4079 46.7672 58.9961ZM47.9981 55.2965C45.8617 55.7084 45.2041 56.8573 45.4498 58.0905 45.7798 57.1054 47.9981 55.2989 47.9981 55.2965ZM81.3641 65.2439C80.4586 66.0652 78.6521 69.0253 78.6521 69.0253 78.6521 69.0253 81.446 68.6954 82.2697 66.4771 83.0887 64.2564 82.2674 64.4225 81.3641 65.2439ZM24.3313 67.4622C25.8921 68.8592 28.6861 70.0105 28.6861 70.0105L28.8499 64.7525C27.619 64.7525 24.7432 65.4919 24.0014 65.6557 23.2619 65.8172 22.7682 66.0652 24.3313 67.4622ZM107.64 30.42 107.64 86.58C107.64 98.1934 98.1911 107.64 86.58 107.64L30.42 107.64C18.8089 107.64 9.36 98.1934 9.36 86.58L9.36 30.42C9.36 18.8066 18.8089 9.36 30.42 9.36L86.58 9.36C98.1911 9.36 107.64 18.8066 107.64 30.42ZM31.6859 51.3256 33.0244 51.8474C33.1952 51.8614 33.359 51.7795 33.4503 51.6344 38.947 42.8782 48.8545 36.9954 60.2573 36.9954 73.8247 36.9954 85.3141 45.3071 89.6898 56.9041 89.7577 57.082 89.9239 57.2013 90.1157 57.2013L91.5104 57.2013C91.6742 57.2013 91.7912 57.0352 91.7374 56.8807 87.282 44.2494 74.8496 35.1328 60.241 35.1328 48.0402 35.1328 37.3417 41.5069 31.5011 50.9605 31.4051 51.1103 31.5104 51.3092 31.6859 51.3256ZM37.2317 55.7926C30.6563 52.5868 28.3561 52.175 23.2596 52.5049 18.1654 52.8349 18.1654 55.3808 19.3963 55.465 20.124 55.5142 20.5358 55.568 20.7535 55.5937 20.936 55.6148 20.9617 55.568 21.0226 55.4861 21.074 55.4159 21.0974 55.3106 21.1232 55.2474 21.1676 55.1327 21.1162 55.0157 21.0132 54.9713 20.9079 54.9245 19.7262 54.398 19.7262 54.398 19.7262 54.398 26.1378 52.7553 34.1078 56.6163 42.0779 60.4773 44.1347 65.4919 41.9164 67.9583 39.6981 70.4246 35.8348 71.6578 31.0682 70.5884 30.9863 67.2188 31.1501 64.7525 31.1501 64.7525 31.1501 64.7525 35.5891 64.5887 36.7403 65.41 37.7231 66.112 37.1475 66.573 36.4993 66.8468 36.3893 66.8936 36.3776 67.0972 36.4783 67.1557 37.3979 67.6658 38.1303 67.7851 38.7949 66.9731 39.5343 66.0699 40.3556 62.2066 31.3162 62.4523 31.1524 60.8915 31.6462 59.8221 30.3311 58.2613 29.016 56.6935 29.016 62.5295 29.016 62.5295 29.016 62.5295 25.6464 63.0209 22.8524 64.9958 20.0585 66.9685 28.6042 71.735 28.6042 71.735 28.6042 71.735 28.768 73.8715 30.0011 74.1195 31.2343 74.3652 31.1524 72.5587 31.1524 72.5587 31.1524 72.5587 38.5468 74.6951 43.4819 70.3404 48.4099 65.981 43.8071 58.9961 37.2317 55.7926ZM46.1916 60.475C47.5067 61.0529 50.0526 60.6411 51.6976 58.9961 53.3403 57.3534 54.0821 54.3114 51.2062 54.4752 51.2062 54.4752 50.1368 53.0782 47.8366 53.7358 45.5364 54.3933 42.6605 57.4353 44.7151 59.4056 44.7127 60.3088 44.9608 62.0357 46.1916 60.475ZM48.4918 70.9137C48.4918 69.6805 48.4099 64.7501 48.2438 63.7627 48.08 62.7775 47.1767 61.9538 46.683 62.9413 46.683 62.9413 46.2712 67.7079 46.435 70.6657 46.5192 71.9012 48.4918 72.1445 48.4918 70.9137ZM53.0104 64.4202C54.7349 64.2564 55.9705 64.1722 57.4493 63.9288 58.9282 63.6831 59.0101 62.6137 57.8588 62.368 57.8588 62.368 53.338 61.3829 50.2983 63.3532 48.8194 64.3383 49.2289 66.1471 50.0503 66.229 50.8716 66.3109 55.0625 66.4771 56.05 67.1323 57.0352 67.7898 57.2832 68.2835 56.2138 68.9411 55.1444 69.5986 52.7623 69.9262 51.7748 69.5986 50.7897 69.2687 50.4598 67.5441 52.2662 68.4473 54.0751 69.3506 57.3604 68.2835 55.1421 67.5441 52.9238 66.8047 51.1173 66.9708 49.966 67.7921 48.8147 68.6135 50.3779 70.3404 51.6906 70.9137 53.0057 71.487 55.472 71.6531 56.9509 70.7499 58.4298 69.8467 59.1692 66.3952 56.7871 65.8195 54.4027 65.2462 52.9238 65.3281 51.8567 65.162 50.792 64.9958 51.2858 64.5863 53.0104 64.4202ZM65.0122 61.6309C62.464 58.6708 63.7767 62.8594 63.9428 63.5989 64.1066 64.3383 64.7642 67.1323 64.7642 68.2835 63.9428 67.0504 62.6278 64.584 61.4765 63.4351 60.3252 62.2838 59.9976 63.2713 59.9976 63.2713 59.9976 63.2713 58.8463 67.4622 59.1763 70.1743 59.5062 72.8863 60.9008 70.9956 60.9851 70.1743 61.067 69.3529 61.2331 66.6409 61.2331 65.9014 61.9726 67.5441 63.1238 69.4348 64.0271 70.3404 64.9303 71.2436 65.8359 70.6703 66.1635 69.849 66.4911 69.0277 67.5605 64.5887 65.0122 61.6309ZM73.8036 70.0058C74.7068 69.2663 73.6375 68.5292 72.7342 68.6135 71.831 68.6954 69.2008 69.1049 69.2008 69.1049L69.7741 67.3803C69.7741 67.3803 71.4987 67.4622 72.8957 67.2984 74.2927 67.1346 73.3075 65.5738 72.8138 65.5738 72.3224 65.5738 70.5136 65.5738 70.5136 65.5738L70.9254 64.4225C70.9254 64.4225 73.9651 64.3406 74.9502 64.1745 75.9353 64.0107 74.3769 62.3657 73.2256 62.2838 72.0743 62.2019 69.608 62.5318 67.9653 62.8571 66.3226 63.187 69.0347 64.4179 69.0347 64.4179 69.0347 64.4179 68.7866 65.2392 68.4614 65.8148 67.4762 65.9786 67.5581 66.5543 67.8881 67.2937 67.2305 69.0183 66.9029 71.1571 68.7913 71.8146 70.682 72.4698 72.9004 70.7429 73.8036 70.0058ZM83.8328 65.2439C84.0785 61.79 80.9546 62.5318 79.7215 63.765 78.4883 64.9982 76.3519 68.204 76.3519 68.204 76.5999 66.0676 77.1732 65.4919 78.4883 63.3555 79.6115 61.5303 77.8307 62.2042 77.8307 62.2042 77.8307 62.2042 73.6398 65.7376 75.4463 69.7648 74.2131 72.8044 72.2405 77.1592 75.1163 79.4617 75.8558 79.9531 75.6077 78.4766 75.8558 77.6529 76.1038 76.8316 76.9252 72.6406 77.7465 71.4893 79.7238 71.3255 83.2572 70.5861 83.8328 65.2439ZM98.2894 65.0192C98.2964 64.8718 98.1724 64.7501 98.0203 64.7501L93.0735 64.7501C92.9705 63.1145 92.774 61.3688 92.4136 59.7285 92.3926 59.6372 92.3177 59.5647 92.2241 59.5577 91.5525 59.5577 91.4495 59.5624 90.8177 59.5624 90.6352 59.567 90.5112 59.7379 90.558 59.911 90.7639 60.6668 91.0634 62.595 91.1617 64.7478L86.463 64.7478C86.3179 64.7478 86.1962 64.8671 86.1892 65.0099L86.0652 66.2548C86.0558 66.4537 86.2267 66.6175 86.4256 66.5964L91.2179 66.6128C91.246 68.3771 91.26 69.4372 91.1102 71.3021 91.0915 71.4262 91.1875 71.5315 91.3138 71.5385 92.0673 71.5853 92.5447 71.6438 92.8278 71.6485 92.9425 71.6508 93.0361 71.5642 93.0454 71.4496 93.0899 70.8505 93.2045 68.9692 93.1484 66.6198L98.0156 66.6362C98.1677 66.6362 98.2894 66.5122 98.2894 66.3601L98.2894 65.0192Z" fill="#FFFFFF" fill-rule="nonzero" fill-opacity="1" transform="matrix(1 0 0 1.00855 260 217)"/></g></g></g></g></g></svg>