<svg width="402" height="404" xmlns="http://www.w3.org/2000/svg" xmlns:xlink="http://www.w3.org/1999/xlink" xml:space="preserve" overflow="hidden"><g transform="translate(-828 -12)"><g><g><g><g><path d="M124.653 15.9876 7.99379 91.1791 87.9317 151.882 199.845 80.6874ZM199.845 80.6874 317.254 148.635 391.696 87.9317 278.283 15.9876ZM317.254 148.635 199.845 222.327 276.534 280.531 391.696 211.836ZM199.845 222.327 87.9317 151.882 7.99379 211.836 124.653 280.531ZM199.845 242.311 134.396 293.273C131.585 295.426 128.182 296.519 124.653 296.519 121.812 296.519 119.126 295.708 116.659 294.271L71.9441 268.042 71.9441 312.507C71.9441 315.193 73.1931 317.753 75.4415 319.253L195.348 398.44C196.691 399.315 198.315 399.69 199.845 399.69 201.375 399.69 203.03 399.315 204.341 398.44L324.248 320.001C326.496 318.534 327.746 315.974 327.746 313.257L327.746 268.541 284.78 294.271C282.313 295.77 279.409 296.519 276.534 296.519 273.039 296.519 269.571 295.364 266.794 293.273Z" fill="#FFFFFF" fill-rule="nonzero" fill-opacity="1" transform="matrix(1 0 0 1.00964 830.31 4.31059)"/></g></g></g></g></g></svg>