<svg width="174" height="176" xmlns="http://www.w3.org/2000/svg" xmlns:xlink="http://www.w3.org/1999/xlink" xml:space="preserve" overflow="hidden"><g transform="translate(-612 -272)"><g><g><g><g><path d="M53.9544 6.92 3.46 39.4656 38.06 65.74 86.5 34.9244ZM86.5 34.9244 137.319 64.3344 169.54 38.06 120.451 6.92ZM137.319 64.3344 86.5 96.2313 119.694 121.424 169.54 91.69ZM86.5 96.2313 38.06 65.74 3.46 91.69 53.9544 121.424ZM86.5 104.881 58.1712 126.939C56.9548 127.871 55.4816 128.344 53.9544 128.344 52.7245 128.344 51.5621 127.993 50.4944 127.371L31.14 116.018 31.14 135.264C31.14 136.427 31.6806 137.535 32.6538 138.184L84.5537 172.459C85.1349 172.838 85.8377 173 86.5 173 87.1623 173 87.8786 172.838 88.4463 172.459L140.346 138.508C141.319 137.873 141.86 136.765 141.86 135.589L141.86 116.234 123.263 127.371C122.195 128.02 120.938 128.344 119.694 128.344 118.181 128.344 116.68 127.844 115.478 126.939Z" fill="#FFFFFF" fill-rule="nonzero" fill-opacity="1" transform="matrix(1 0 0 1.00578 613 273)"/></g></g></g></g></g></svg>