<svg width="1080" height="1078" xmlns="http://www.w3.org/2000/svg" xmlns:xlink="http://www.w3.org/1999/xlink" xml:space="preserve" overflow="hidden"><defs><clipPath id="clip0"><rect x="165" y="-177" width="1078" height="1078"/></clipPath><clipPath id="clip1"><rect x="165" y="237" width="1078" height="260"/></clipPath><clipPath id="clip2"><rect x="165" y="237" width="1078" height="260"/></clipPath><clipPath id="clip3"><rect x="165" y="237" width="1078" height="260"/></clipPath><clipPath id="clip4"><rect x="165" y="237" width="1078" height="260"/></clipPath></defs><g transform="translate(-164 177)"><g><g clip-path="url(#clip0)"><g clip-path="url(#clip1)"><g clip-path="url(#clip2)"><g clip-path="url(#clip3)"><g clip-path="url(#clip4)"><path d="M871.737 258.709 877.129 258.709 877.129 233.76 877.21 233.76 886.184 258.709 890.841 258.709 899.807 233.76 899.896 233.76 899.896 258.709 905.28 258.709 905.28 226.381 897.414 226.381 888.715 251.693 888.626 251.693 879.708 226.381 871.737 226.381 871.737 258.709ZM841.905 231.27 852.132 231.27 852.132 258.709 857.791 258.709 857.791 231.27 868.075 231.27 868.075 226.381 841.905 226.381 841.905 231.27ZM776.127 258.709 1034.84 0 879.126 0 620.422 258.709 776.127 258.709ZM739.034 112.668 425.851 112.668C330.404 112.668 313.7 117.729 272.819 158.611 234.584 196.846 172.478 258.709 172.478 258.709L308.144 258.709 340.51 226.344C361.789 205.065 372.762 202.861 417.443 202.861L648.848 202.861 739.034 112.668ZM268.642 140.161C240.405 166.803 178.967 226.484 145.852 258.709L-0.000538978 258.709C-0.000538978 258.709 116.871 142.177 181.829 78.238 248.754 14.5308 282.117 0 404.869 0L851.711 0 754.956 96.7467 413.945 96.7467C327.692 96.7467 308.311 102.724 268.642 140.161Z" fill="#FFFFFF" fill-rule="evenodd" fill-opacity="1" transform="matrix(1.04171 0 0 1 165 237.517)"/></g></g></g></g></g></g></g></svg>