<svg width="134" height="32" xmlns="http://www.w3.org/2000/svg" xmlns:xlink="http://www.w3.org/1999/xlink" xml:space="preserve" overflow="hidden"><defs><clipPath id="clip0"><rect x="656" y="108" width="134" height="32"/></clipPath><clipPath id="clip1"><rect x="656" y="108" width="134" height="32"/></clipPath></defs><g clip-path="url(#clip0)" transform="translate(-656 -108)"><g clip-path="url(#clip1)"><path d="M107.826 32 108.493 32 108.493 28.914 108.503 28.914 109.613 32 110.189 32 111.298 28.914 111.309 28.914 111.309 32 111.975 32 111.975 28.0013 111.002 28.0013 109.926 31.1321 109.915 31.1321 108.812 28.0013 107.826 28.0013 107.826 32ZM104.136 28.606 105.401 28.606 105.401 32 106.101 32 106.101 28.606 107.373 28.606 107.373 28.0013 104.136 28.0013 104.136 28.606ZM95.9999 32 128 0 108.74 0 76.7406 32 95.9999 32ZM91.4119 13.936 52.6739 13.936C40.868 13.936 38.8019 14.562 33.7453 19.6187 29.0159 24.3481 21.334 32 21.334 32L38.1146 32 42.118 27.9967C44.75 25.3647 46.1073 25.0921 51.6339 25.0921L80.2566 25.0921 91.4119 13.936ZM33.2286 17.3366C29.7359 20.632 22.1366 28.014 18.0406 32L-6.66667e-05 32C-6.66667e-05 32 14.4559 17.586 22.4906 9.67733 30.7686 1.79733 34.8953 0 50.0786 0L105.349 0 93.3812 11.9667 51.2013 11.9667C40.5326 11.9667 38.1353 12.706 33.2286 17.3366Z" fill="#FFFFFF" fill-rule="evenodd" fill-opacity="1" transform="matrix(1.04687 0 0 1 656 108)"/></g></g></svg>