<svg width="576" height="512" xmlns="http://www.w3.org/2000/svg" xmlns:xlink="http://www.w3.org/1999/xlink" xml:space="preserve" overflow="hidden"><g transform="translate(-352 -104)"><g><path d="M352 232C352 196.7 380.7 168 416 168L672 168C707.3 168 736 196.7 736 232L736 488C736 523.3 707.3 552 672 552L416 552C380.7 552 352 523.3 352 488L352 232ZM911.1 203.8C921.5 209.4 928 220.2 928 232L928 488C928 499.8 921.5 510.6 911.1 516.2 900.7 521.8 888.1 521.2 878.2 514.6L782.2 450.6 768 441.1 768 424 768 296 768 278.9 782.2 269.4 878.2 205.4C888 198.9 900.6 198.2 911.1 203.8Z" fill="#FFFFFF" fill-rule="nonzero" fill-opacity="1"/></g></g></svg>