<svg width="125" height="126" xmlns="http://www.w3.org/2000/svg" xmlns:xlink="http://www.w3.org/1999/xlink" xml:space="preserve" overflow="hidden"><g transform="translate(-688 -16)"><g><g><g><g><path d="M789.104 67.3958C793.191 71.7708 794.476 75.9826 794.51 79.9427 794.552 84.6476 792.983 89.4358 789.797 92.6684L771.714 112.281C768.877 115.382 764.431 117.184 760.319 117.257L740.083 117.252C733.783 117.252 728.59 112.113 728.589 112.115L711.234 93.3177C706.852 88.6059 706.036 84.5226 705.929 80.566 705.797 75.6892 708.104 70.7153 710.905 67.9132L737.132 41.5868C741.054 37.6667 746.127 36.1181 750.476 36.0851 754.693 36.0521 760.163 38.0955 763.425 41.6858L789.104 67.3958ZM733.759 82.9306C734.203 82.9306 734.628 82.7535 734.943 82.441 738.023 79.3611 754.566 62.8177 754.566 62.8177 755.922 61.4635 755.922 59.2622 754.566 57.908 753.21 56.5538 751.01 56.5521 749.656 57.908L728.823 78.7413C728.092 79.4722 727.755 80.4479 727.812 81.4045 727.887 82.1962 728.552 82.8004 729.347 82.8004 730.616 82.9306 732.688 82.9306 733.759 82.9306ZM743.995 91.7691C744.394 91.7691 745.059 91.3281 745.059 91.3281 745.061 91.3264 753.995 82.3924 753.997 82.3906 755.352 81.0347 753.998 77.4826 753.997 77.4809L749.087 77.4809C749.085 77.4826 738.99 87.5781 738.988 87.5799 738.186 88.382 737.859 89.4792 738.005 90.5226 738.128 91.1892 738.71 91.6719 739.387 91.6719 740.668 91.7691 742.91 91.7691 743.995 91.7691ZM757.391 95.8177C758.747 94.4618 758.747 92.2622 757.391 90.908 756.036 89.5521 753.835 89.5521 752.481 90.908L748.799 94.5885C748 95.3872 747.672 96.4809 747.816 97.5208 747.92 98.0903 748.415 98.5035 748.995 98.5035 750.363 98.5695 752.997 98.5695 754.115 98.5695 754.45 98.5695 754.771 98.4358 755.007 98.1997 755.759 97.4497 757.391 95.8177 757.391 95.8177Z" fill="#FFFFFF" fill-rule="nonzero" fill-opacity="1"/></g></g></g></g></g></svg>