<svg width="434" height="435" xmlns="http://www.w3.org/2000/svg" xmlns:xlink="http://www.w3.org/1999/xlink" xml:space="preserve" overflow="hidden"><g transform="translate(-510 -85)"><g><g><g><path d="M3823.55 326.562C3843.35 347.761 3849.58 368.169 3849.74 387.357 3849.95 410.154 3842.35 433.355 3826.91 449.019L3739.29 544.05C3725.54 559.076 3704 567.807 3684.07 568.161L3586.02 568.137C3555.5 568.137 3530.33 543.236 3530.33 543.246L3446.24 452.165C3425 429.334 3421.05 409.549 3420.53 390.377 3419.89 366.747 3431.07 342.646 3444.64 329.069L3571.72 201.506C3590.73 182.511 3615.31 175.008 3636.38 174.848 3656.81 174.688 3683.32 184.589 3699.12 201.986L3823.55 326.562ZM3555.38 401.835C3557.53 401.835 3559.59 400.977 3561.12 399.462 3576.04 384.539 3656.2 304.379 3656.2 304.379 3662.77 297.817 3662.77 287.151 3656.2 280.589 3649.63 274.028 3638.97 274.019 3632.41 280.589L3531.46 381.536C3527.92 385.077 3526.29 389.805 3526.56 394.44 3526.93 398.276 3530.15 401.204 3534 401.204 3540.15 401.835 3550.19 401.835 3555.38 401.835ZM3604.98 444.661C3606.91 444.661 3610.13 442.524 3610.13 442.524 3610.14 442.516 3653.43 399.227 3653.44 399.218 3660.01 392.648 3653.45 375.437 3653.44 375.428L3629.65 375.428C3629.64 375.437 3580.73 424.354 3580.72 424.363 3576.83 428.249 3575.25 433.565 3575.95 438.621 3576.55 441.851 3579.37 444.19 3582.65 444.19 3588.86 444.661 3599.72 444.661 3604.98 444.661ZM3669.89 464.278C3676.46 457.708 3676.46 447.05 3669.89 440.489 3663.32 433.919 3652.66 433.919 3646.1 440.489L3628.26 458.322C3624.38 462.192 3622.79 467.492 3623.49 472.53 3624 475.29 3626.39 477.292 3629.2 477.292 3635.83 477.612 3648.6 477.612 3654.01 477.612 3655.64 477.612 3657.19 476.964 3658.34 475.82 3661.98 472.186 3669.89 464.278 3669.89 464.278Z" fill="#FFFFFF" fill-rule="nonzero" fill-opacity="1" transform="matrix(1 0 0 1.00274 -2907.62 -70.7369)"/></g></g></g></g></svg>