<svg width="89" height="88" xmlns="http://www.w3.org/2000/svg" xmlns:xlink="http://www.w3.org/1999/xlink" xml:space="preserve" overflow="hidden"><g transform="translate(-585 -348)"><g><g><g><g><path d="M12.0833 39.875 74.9167 39.875 74.9167 59.2083C74.9167 65.2041 70.0386 70.0833 64.0417 70.0833L22.9583 70.0833C16.9614 70.0833 12.0833 65.2041 12.0833 59.2083L12.0833 39.875ZM74.9167 32.625 12.0833 32.625 12.0833 26.5833C12.0833 20.5876 16.9614 15.7083 22.9583 15.7083L29.2973 15.7083C31.7586 15.7083 34.1729 16.5554 36.0929 18.0936L38.8262 20.2795C39.0376 20.4486 39.3035 20.5417 39.5778 20.5417L64.0417 20.5417C70.0386 20.5417 74.9167 25.4209 74.9167 31.4167L74.9167 32.625Z" fill="#FFFFFF" fill-rule="nonzero" fill-opacity="1" transform="matrix(1.01149 0 0 1 586 349)"/></g></g></g></g></g></svg>