<svg width="389" height="386" xmlns="http://www.w3.org/2000/svg" xmlns:xlink="http://www.w3.org/1999/xlink" xml:space="preserve" overflow="hidden"><g transform="translate(-460 -160)"><g><g><g><path d="M72.8296 240.338 451.545 240.338 451.545 356.866C451.545 393.004 422.143 422.413 385.998 422.413L138.376 422.413C102.231 422.413 72.8296 393.004 72.8296 356.866L72.8296 240.338ZM451.545 196.64 72.8296 196.64 72.8296 160.225C72.8296 124.088 102.231 94.6786 138.376 94.6786L176.583 94.6786C191.418 94.6786 205.97 99.7843 217.543 109.055L234.017 122.231C235.291 123.25 236.894 123.811 238.547 123.811L385.998 123.811C422.143 123.811 451.545 153.219 451.545 189.358L451.545 196.64Z" fill="#FFFFFF" fill-rule="nonzero" fill-opacity="1" transform="matrix(1.0032 0 0 1 392.509 92.9591)"/></g></g></g></g></svg>