<svg width="114" height="115" xmlns="http://www.w3.org/2000/svg" xmlns:xlink="http://www.w3.org/1999/xlink" xml:space="preserve" overflow="hidden"><g transform="translate(-696 -165)"><g><g><g><g><path d="M727.602 181.173 727.602 226.163C727.602 230.638 731.237 234.273 735.712 234.273L792.473 234.273C796.948 234.273 800.583 230.638 800.583 226.163L800.583 181.173C800.583 176.697 796.948 173.062 792.473 173.062L735.714 173.062C731.237 173.06 727.602 176.695 727.602 181.173Z" fill="#FFFFFF" fill-rule="nonzero" fill-opacity="1"/><path d="M706.414 268.409 706.417 246.039 734.092 249.257 712.469 270.878C711.827 271.535 710.932 271.94 709.946 271.94 707.999 271.94 706.414 270.353 706.414 268.409Z" fill="#FFFFFF" fill-rule="nonzero" fill-opacity="1"/><path d="M706.414 202.36 706.414 247.351C706.414 251.826 710.049 255.461 714.524 255.461L771.286 255.461C775.761 255.461 779.396 251.826 779.396 247.351L779.396 234.261 727.611 194.248 714.524 194.248C710.049 194.248 706.414 197.882 706.414 202.36Z" fill="#FFFFFF" fill-rule="nonzero" fill-opacity="1"/></g></g></g></g></g></svg>