<svg width="76" height="76" xmlns="http://www.w3.org/2000/svg" xmlns:xlink="http://www.w3.org/1999/xlink" xml:space="preserve" overflow="hidden"><g transform="translate(-114 -508)"><g><g><g><g><path d="M133 543.104 133 543.085 133 523.583 132.82 523.45 132.805 523.45 128.71 520.42C126.205 518.56 122.635 518.65 120.415 520.84 118.93 522.31 118 524.35 118 526.615L118 532.018 133 543.104ZM172 543.085 172 543.104 187 532.018 187 526.615C187 524.38 186.1 522.34 184.63 520.87 182.44 518.685 178.982 518.428 176.494 520.266L172.18 523.45 172 523.583 172 543.085ZM136 545.302 151.609 556.84C152.139 557.232 152.863 557.232 153.393 556.84L169 545.302 169 525.8 152.5 538 136 525.8 136 545.302ZM172 546.833 172 569.5C172 570.328 172.672 571 173.5 571L183.25 571C185.322 571 187 569.321 187 567.25L187 535.745 172 546.833ZM133 546.833 118 535.745 118 567.25C118 569.321 119.678 571 121.75 571L131.5 571C132.328 571 133 570.328 133 569.5L133 546.833Z" fill="#FFFFFF" fill-rule="nonzero" fill-opacity="1"/></g></g></g></g></g></svg>