<svg width="384" height="512" xmlns="http://www.w3.org/2000/svg" xmlns:xlink="http://www.w3.org/1999/xlink" xml:space="preserve" overflow="hidden"><g transform="translate(-448 -104)"><g><path d="M663.7 603.2C715 539 832 383.4 832 296 832 190 746 104 640 104 534 104 448 190 448 296 448 383.4 565 539 616.3 603.2 628.6 618.5 651.4 618.5 663.7 603.2ZM640 232C675.346 232 704 260.654 704 296 704 331.346 675.346 360 640 360 604.654 360 576 331.346 576 296 576 260.654 604.654 232 640 232Z" fill="#FFFFFF" fill-rule="nonzero" fill-opacity="1"/></g></g></svg>