<svg width="106" height="106" xmlns="http://www.w3.org/2000/svg" xmlns:xlink="http://www.w3.org/1999/xlink" xml:space="preserve" overflow="hidden"><g transform="translate(-220 -592)"><g><path d="M240.48 604.633C237.422 604.633 234.877 607.14 234.877 610.202L234.877 620.119C233.24 620.68 231.766 621.689 230.646 623.059 228.861 625.237 228.15 628.111 228.716 630.872 230.688 640.411 233.496 654.025 233.598 654.519 233.495 655.017 230.7 668.565 228.733 678.104 228.16 680.88 228.877 683.767 230.67 685.959 232.468 688.15 235.161 689.425 238.003 689.425L307.773 689.425C310.649 689.425 313.375 688.137 315.197 685.918L315.201 685.918C317.023 683.696 317.742 680.769 317.164 677.959 315.196 668.423 312.429 655.006 312.328 654.515 312.43 654.017 315.234 640.391 317.201 630.852 317.768 628.097 317.064 625.227 315.276 623.046 314.18 621.709 312.747 620.726 311.156 620.16L311.156 610.202C311.156 607.14 308.611 604.633 305.554 604.633L240.48 604.633ZM240.48 608.873 305.554 608.873C306.342 608.873 306.916 609.457 306.916 610.202L306.916 619.61 239.117 619.61 239.117 610.202C239.117 609.457 239.691 608.873 240.48 608.873ZM262.375 638.437C272.119 638.437 272.483 645.834 272.483 647.277 272.483 651.066 269.233 653.231 267.969 653.952L267.969 654.134C268.332 654.2 268.774 654.337 269.232 654.515L260.392 654.515 260.392 656.296C261.113 656.115 261.834 656.113 262.735 656.113 263.636 656.113 269.774 656.297 269.774 662.432 269.774 668.385 263.458 668.925 262.557 668.925 259.358 668.925 255.651 666.983 255.539 661.753L251.556 661.753C251.592 664.354 252.381 672.353 262.557 672.353 264.542 672.353 273.923 671.813 273.923 662.25 273.923 657.393 271.29 655.319 269.24 654.515L287.778 654.515 287.778 647.766 279.476 647.766 279.476 644.781C282.151 644.781 284.275 644.345 285.844 643.476 287.413 642.607 288.461 641.005 288.991 638.673L292.117 638.673 292.117 654.515 308.001 654.515 308.088 654.946C308.088 654.946 311.007 669.103 313.011 678.812 313.332 680.374 312.937 681.988 311.922 683.226 310.904 684.466 309.387 685.185 307.773 685.185L238.003 685.185C236.424 685.185 234.942 684.481 233.95 683.272 232.96 682.06 232.572 680.484 232.886 678.961 234.889 669.247 237.838 654.946 237.838 654.946L237.925 654.515 260.392 654.515 260.392 652.871 262.015 652.871C267.79 652.871 268.333 648.359 268.333 647.455 268.333 645.651 267.607 642.044 262.375 642.044 256.787 642.044 256.128 647.608 256.069 649.037L252.098 649.037C252.147 646.964 252.986 638.437 262.375 638.437ZM287.819 654.515 287.819 671.69 292.018 671.69 292.018 654.515 287.819 654.515Z" fill="#FFFFFF" fill-rule="nonzero" fill-opacity="1"/></g></g></svg>