<svg width="450" height="451" xmlns="http://www.w3.org/2000/svg" xmlns:xlink="http://www.w3.org/1999/xlink" xml:space="preserve" overflow="hidden"><g transform="translate(-532 -105)"><g><g><g><path d="M3305.63 114.497 3305.63 142.641 3236.15 134.884C3228.62 131.006 3220.09 128.901 3211.22 128.901 3208.12 128.901 3204.91 129.233 3201.8 129.787L3017.54 161.366 3017.54 114.497C3017.54 102.308 3027.51 92.336 3039.7 92.336L3283.47 92.336C3295.65 92.336 3305.63 102.308 3305.63 114.497ZM3381.86 207.128 3375.54 263.638C3365.79 247.35 3348.06 236.38 3327.79 236.38L3276.38 236.38 3265.85 174.995C3265.63 173.776 3265.41 172.668 3265.07 171.56L3305.63 176.103 3362.36 182.53C3374.55 183.97 3383.3 194.94 3381.86 207.128ZM3242.58 236.38 2995.38 236.38C2974.21 236.38 2955.93 248.236 2946.51 265.632L2940.53 230.84C2938.43 218.762 2946.51 207.239 2958.59 205.244L3207.46 162.474C3219.53 160.48 3230.95 168.569 3233.05 180.646L3242.58 236.38ZM3327.79 269.621 2995.38 269.621C2983.19 269.621 2973.22 279.593 2973.22 291.782L2973.22 502.308C2973.22 514.496 2983.19 524.468 2995.38 524.468L3327.79 524.468C3339.98 524.468 3349.95 514.496 3349.95 502.308L3349.95 291.782C3349.95 279.593 3339.98 269.621 3327.79 269.621ZM3211.44 325.023 3266.85 325.023C3276.04 325.023 3283.47 332.446 3283.47 341.643 3283.47 350.84 3276.04 358.263 3266.85 358.263L3211.44 358.263C3202.25 358.263 3194.82 350.84 3194.82 341.643 3194.82 332.446 3202.25 325.023 3211.44 325.023ZM3089.56 469.067C3049.89 469.067 3017.54 436.712 3017.54 397.045 3017.54 357.377 3049.89 325.023 3089.56 325.023 3105.29 325.023 3120.14 330.009 3132.66 339.316 3140.09 344.856 3141.53 355.272 3135.99 362.585 3130.56 370.009 3120.14 371.449 3112.72 366.02 3106.07 360.923 3097.98 358.263 3089.56 358.263 3068.18 358.263 3050.78 375.66 3050.78 397.045 3050.78 418.43 3068.18 435.826 3089.56 435.826 3104.96 435.826 3118.37 426.74 3124.57 413.665L3089.56 413.665C3080.36 413.665 3072.94 406.241 3072.94 397.045 3072.94 387.848 3080.36 380.424 3089.56 380.424L3144.96 380.424C3154.16 380.424 3161.58 387.848 3161.58 397.045 3161.58 436.712 3129.23 469.067 3089.56 469.067ZM3266.85 469.067 3211.44 469.067C3202.25 469.067 3194.82 461.643 3194.82 452.446 3194.82 443.25 3202.25 435.826 3211.44 435.826L3266.85 435.826C3276.04 435.826 3283.47 443.25 3283.47 452.446 3283.47 461.643 3276.04 469.067 3266.85 469.067ZM3289.01 413.665 3211.44 413.665C3202.25 413.665 3194.82 406.241 3194.82 397.045 3194.82 387.848 3202.25 380.424 3211.44 380.424L3289.01 380.424C3298.2 380.424 3305.63 387.848 3305.63 397.045 3305.63 406.241 3298.2 413.665 3289.01 413.665Z" fill="#FFFFFF" fill-rule="nonzero" fill-opacity="1" transform="matrix(1.00686 0 0 1 -2425.56 20.7573)"/></g></g></g></g></svg>