<svg width="433" height="435" xmlns="http://www.w3.org/2000/svg" xmlns:xlink="http://www.w3.org/1999/xlink" xml:space="preserve" overflow="hidden"><g transform="translate(-508 -77)"><g><g><g><path d="M80.3889 40.1944C58.1814 40.1944 40.1944 58.1814 40.1944 80.3889L40.1944 422.042C40.1944 444.248 58.1814 462.236 80.3889 462.236L345.774 462.236 462.236 345.774 462.236 80.3889C462.236 58.1814 444.248 40.1944 422.042 40.1944L80.3889 40.1944ZM251.215 110.535C301.056 110.535 341.653 151.131 341.653 200.972 341.653 235.74 322.158 266.796 291.41 281.97L291.41 361.75 271.312 361.75 271.312 381.847 231.118 381.847 231.118 361.75 211.021 361.75 211.021 281.97C180.272 266.796 160.778 235.74 160.778 200.972 160.778 198.058 160.869 195.052 161.17 192.239 163.381 168.926 174.237 148.521 190.315 133.85 206.393 119.28 227.802 110.535 251.215 110.535ZM251.215 130.632C214.839 130.632 184.686 157.967 181.169 194.142 180.969 196.353 180.875 198.661 180.875 200.972 180.875 229.812 198.15 255.337 224.779 266.19L231.118 268.702 231.118 301.458 271.312 301.458 271.312 268.702 277.652 266.19C304.281 255.337 321.555 229.812 321.555 200.972 321.555 162.185 290.003 130.632 251.215 130.632ZM231.118 321.555 231.118 341.653 271.312 341.653 271.312 321.555 231.118 321.555ZM361.75 341.653 438.015 341.653 341.653 438.015 341.653 361.75C341.653 350.696 350.696 341.653 361.75 341.653Z" fill="#FFFFFF" fill-rule="nonzero" fill-opacity="1" transform="matrix(1 0 0 1.00047 473.287 45.1509)"/></g></g></g></g></svg>