<svg width="204" height="204" xmlns="http://www.w3.org/2000/svg" xmlns:xlink="http://www.w3.org/1999/xlink" xml:space="preserve" overflow="hidden"><g transform="translate(-456 -60)"><g><g><g><g><path d="M533.125 204.792 583.875 204.792 583.875 238.625 533.125 238.625 533.125 204.792ZM482.375 225.599 516.208 191.766 516.208 238.625 495.062 238.625C488.042 238.625 482.375 232.958 482.375 225.938L482.375 225.599ZM582.352 101.6 558.5 125.537 516.208 167.829 482.375 201.577 482.375 160.808C482.375 156.325 484.151 152.012 487.365 148.882L546.574 89.6738C553.171 82.9917 563.829 82.9917 570.426 89.6738L582.352 101.6ZM634.625 160.808 634.625 225.938C634.625 232.958 628.958 238.625 621.938 238.625L600.792 238.625 600.792 167.829 570.511 137.548 594.363 113.611 629.635 148.882C632.849 152.012 634.625 156.325 634.625 160.808Z" fill="#FFFFFF" fill-rule="nonzero" fill-opacity="1"/></g></g></g></g></g></svg>