<svg width="92" height="92" xmlns="http://www.w3.org/2000/svg" xmlns:xlink="http://www.w3.org/1999/xlink" xml:space="preserve" overflow="hidden"><g transform="translate(-482 -346)"><g><g><g><g><path d="M528.5 389.656C528.5 378.662 519.588 369.75 508.594 369.75 497.6 369.75 488.688 378.662 488.688 389.656 488.688 389.656 488.688 390.299 488.688 390.604 488.688 391.651 489.537 392.5 490.583 392.5 491.63 392.5 528.5 392.5 528.5 392.5 528.5 392.5 528.5 391.651 528.5 390.604 528.5 390.299 528.5 389.656 528.5 389.656Z" fill="#FFFFFF" fill-rule="nonzero" fill-opacity="1"/><path d="M525.656 392.5C514.662 392.5 505.75 401.412 505.75 412.406 505.75 423.4 514.662 432.312 525.656 432.312 525.656 432.312 526.299 432.312 526.604 432.312 527.651 432.312 528.5 431.463 528.5 430.417 528.5 429.37 528.5 392.5 528.5 392.5 528.5 392.5 527.651 392.5 526.604 392.5 526.299 392.5 525.656 392.5 525.656 392.5Z" fill="#FFFFFF" fill-rule="nonzero" fill-opacity="1"/><path d="M528.5 395.344C528.5 406.338 537.412 415.25 548.406 415.25 559.4 415.25 568.312 406.338 568.312 395.344 568.312 395.344 568.312 394.701 568.312 394.396 568.312 393.349 567.463 392.5 566.417 392.5 565.37 392.5 528.5 392.5 528.5 392.5 528.5 392.5 528.5 393.349 528.5 394.396 528.5 394.701 528.5 395.344 528.5 395.344Z" fill="#FFFFFF" fill-rule="nonzero" fill-opacity="1"/><path d="M531.344 392.5C542.338 392.5 551.25 383.588 551.25 372.594 551.25 361.6 542.338 352.688 531.344 352.688 531.344 352.688 530.701 352.688 530.396 352.688 529.349 352.688 528.5 353.537 528.5 354.583 528.5 355.63 528.5 392.5 528.5 392.5 528.5 392.5 529.349 392.5 530.396 392.5 530.701 392.5 531.344 392.5 531.344 392.5Z" fill="#FFFFFF" fill-rule="nonzero" fill-opacity="1"/></g></g></g></g></g></svg>