<svg width="117" height="116" xmlns="http://www.w3.org/2000/svg" xmlns:xlink="http://www.w3.org/1999/xlink" xml:space="preserve" overflow="hidden"><g transform="translate(-512 -28)"><g><path d="M18.56 9.28C13.4328 9.28 9.28 13.4328 9.28 18.56L9.28 97.44C9.28 102.567 13.4328 106.72 18.56 106.72L79.8316 106.72 106.72 79.8316 106.72 18.56C106.72 13.4328 102.567 9.28 97.44 9.28L18.56 9.28ZM58 25.52C69.5072 25.52 78.88 34.8928 78.88 46.4 78.88 54.4272 74.3792 61.5973 67.28 65.1005L67.28 83.52 62.64 83.52 62.64 88.16 53.36 88.16 53.36 83.52 48.72 83.52 48.72 65.1005C41.6208 61.5973 37.12 54.4272 37.12 46.4 37.12 45.7272 37.141 45.0332 37.2106 44.3836 37.721 39.0012 40.2275 34.2903 43.9395 30.9031 47.6515 27.5391 52.5944 25.52 58 25.52ZM58 30.16C49.6016 30.16 42.64 36.4711 41.828 44.8231 41.7816 45.3335 41.76 45.8664 41.76 46.4 41.76 53.0584 45.7484 58.9517 51.8964 61.4573L53.36 62.0373 53.36 69.6 62.64 69.6 62.64 62.0373 64.1036 61.4573C70.2516 58.9517 74.24 53.0584 74.24 46.4 74.24 37.4448 66.9552 30.16 58 30.16ZM53.36 74.24 53.36 78.88 62.64 78.88 62.64 74.24 53.36 74.24ZM83.52 78.88 101.128 78.88 78.88 101.128 78.88 83.52C78.88 80.968 80.968 78.88 83.52 78.88Z" fill="#FFFFFF" fill-rule="nonzero" fill-opacity="1" transform="matrix(1.00862 0 0 1 512 28)"/></g></g></svg>