<svg width="76" height="78" xmlns="http://www.w3.org/2000/svg" xmlns:xlink="http://www.w3.org/1999/xlink" xml:space="preserve" overflow="hidden"><g transform="translate(-20 -532)"><g><g><g><g><path d="M74.3438 39.8836C74.3438 61.4402 59.5816 76.7812 37.7812 76.7812 16.8797 76.7812 0 59.9016 0 39 0 18.0984 16.8797 1.21875 37.7812 1.21875 47.9578 1.21875 56.5195 4.95117 63.116 11.1059L52.8328 20.993C39.3809 8.01328 14.366 17.7633 14.366 39 14.366 52.1777 24.893 62.857 37.7812 62.857 52.7414 62.857 58.3477 52.132 59.2312 46.5715L37.7812 46.5715 37.7812 33.5766 73.7496 33.5766C74.1 35.5113 74.3438 37.3699 74.3438 39.8836Z" fill="#FFFFFF" fill-rule="nonzero" fill-opacity="1" transform="matrix(1.00883 0 0 1 20 532)"/></g></g></g></g></g></svg>