<svg width="144" height="145" xmlns="http://www.w3.org/2000/svg" xmlns:xlink="http://www.w3.org/1999/xlink" xml:space="preserve" overflow="hidden"><g transform="translate(-784 -9)"><g><g><g><g><path d="M895 31 895 38.62 876.19 36.52C874.15 35.47 871.84 34.9 869.44 34.9 868.6 34.9 867.73 34.99 866.89 35.14L817 43.69 817 31C817 27.7 819.7 25 823 25L889 25C892.3 25 895 27.7 895 31ZM915.64 56.08 913.93 71.38C911.29 66.97 906.49 64 901 64L887.08 64 884.23 47.38C884.17 47.05 884.11 46.75 884.02 46.45L895 47.68 910.36 49.42C913.66 49.81 916.03 52.78 915.64 56.08ZM877.93 64 811 64C805.27 64 800.32 67.21 797.77 71.92L796.15 62.5C795.58 59.23 797.77 56.11 801.04 55.57L868.42 43.99C871.69 43.45 874.78 45.64 875.35 48.91L877.93 64ZM901 73 811 73C807.7 73 805 75.7 805 79L805 136C805 139.3 807.7 142 811 142L901 142C904.3 142 907 139.3 907 136L907 79C907 75.7 904.3 73 901 73ZM869.5 88 884.5 88C886.99 88 889 90.01 889 92.5 889 94.99 886.99 97 884.5 97L869.5 97C867.01 97 865 94.99 865 92.5 865 90.01 867.01 88 869.5 88ZM836.5 127C825.76 127 817 118.24 817 107.5 817 96.76 825.76 88 836.5 88 840.76 88 844.78 89.35 848.17 91.87 850.18 93.37 850.57 96.19 849.07 98.17 847.6 100.18 844.78 100.57 842.77 99.1 840.97 97.72 838.78 97 836.5 97 830.71 97 826 101.71 826 107.5 826 113.29 830.71 118 836.5 118 840.67 118 844.3 115.54 845.98 112L836.5 112C834.01 112 832 109.99 832 107.5 832 105.01 834.01 103 836.5 103L851.5 103C853.99 103 856 105.01 856 107.5 856 118.24 847.24 127 836.5 127ZM884.5 127 869.5 127C867.01 127 865 124.99 865 122.5 865 120.01 867.01 118 869.5 118L884.5 118C886.99 118 889 120.01 889 122.5 889 124.99 886.99 127 884.5 127ZM890.5 112 869.5 112C867.01 112 865 109.99 865 107.5 865 105.01 867.01 103 869.5 103L890.5 103C892.99 103 895 105.01 895 107.5 895 109.99 892.99 112 890.5 112Z" fill="#FFFFFF" fill-rule="nonzero" fill-opacity="1"/></g></g></g></g></g></svg>