<svg width="118" height="118" xmlns="http://www.w3.org/2000/svg" xmlns:xlink="http://www.w3.org/1999/xlink" xml:space="preserve" overflow="hidden"><g transform="translate(-732 -576)"><g><path d="M779.552 664.243 821.936 612.791C823.109 616.161 823.778 619.763 823.778 623.528 823.778 634.472 819.672 641.061 815.688 646.418 814.266 648.331 812.781 650.155 811.209 652.084 805.891 658.613 799.194 666.906 797.56 677.544 797.279 679.373 795.279 682.528 791 682.528 786.721 682.528 784.684 679.456 784.462 677.619 783.899 672.93 781.978 668.407 779.552 664.243ZM794.004 636.228 775.726 658.418C774.098 656.176 772.436 654.093 770.915 652.225 769.344 650.296 767.859 648.472 766.436 646.559 765.576 645.402 764.706 644.174 763.867 642.86L779.626 623.728C779.569 624.2 779.528 624.678 779.528 625.167 779.528 631.503 784.664 636.639 791 636.639 792.041 636.639 793.045 636.488 794.004 636.228ZM787.416 614.273 804.406 593.648C810.341 596.321 815.328 600.706 818.76 606.177L802.431 625.999C802.451 625.724 802.472 625.449 802.472 625.167 802.472 618.831 797.336 613.694 791 613.694 789.748 613.694 788.545 613.903 787.416 614.273ZM776.676 616.841 760.553 636.414C759.156 632.846 758.222 628.654 758.222 623.528 758.222 617.041 760.14 611.005 763.404 605.91L776.676 616.841ZM780.908 611.703 767.536 600.688C773.495 594.569 781.804 590.75 791 590.75 793.265 590.75 795.477 590.981 797.615 591.422L780.908 611.703Z" fill="#FFFFFF" fill-rule="nonzero" fill-opacity="1"/></g></g></svg>