<svg width="128" height="128" xmlns="http://www.w3.org/2000/svg" xmlns:xlink="http://www.w3.org/1999/xlink" xml:space="preserve" overflow="hidden"><g transform="translate(-844 -80)"><g><g><g><g><path d="M878.543 92.7C866.54 92.7 856.7 102.54 856.7 114.543L856.7 172.457C856.7 184.46 866.54 194.3 878.543 194.3L896.68 194.3 905.57 204.673C906.482 205.739 908.086 205.864 909.152 204.951 909.252 204.866 909.344 204.773 909.43 204.673L918.32 194.3 936.457 194.3C948.46 194.3 958.3 184.46 958.3 172.457L958.3 114.543C958.3 102.54 948.46 92.7 936.457 92.7L878.543 92.7ZM897.34 107.94C898.737 107.94 899.88 109.083 899.88 110.48L899.88 118.1 915.12 118.1 915.12 110.48C915.12 109.083 916.263 107.94 917.66 107.94 919.057 107.94 920.2 109.083 920.2 110.48L920.2 118.1 927.82 118.1C929.217 118.1 930.36 119.243 930.36 120.64 930.36 122.037 929.217 123.18 927.82 123.18L920.2 123.18 920.2 138.42 927.82 138.42C929.217 138.42 930.36 139.563 930.36 140.96 930.36 142.357 929.217 143.5 927.82 143.5L920.2 143.5 920.2 151.12C920.2 152.517 919.057 153.66 917.66 153.66 916.263 153.66 915.12 152.517 915.12 151.12L915.12 143.5 899.88 143.5 899.88 151.12C899.88 152.517 898.737 153.66 897.34 153.66 895.943 153.66 894.8 152.517 894.8 151.12L894.8 143.5 887.18 143.5C885.783 143.5 884.64 142.357 884.64 140.96 884.64 139.563 885.783 138.42 887.18 138.42L894.8 138.42 894.8 123.18 887.18 123.18C885.783 123.18 884.64 122.037 884.64 120.64 884.64 119.243 885.783 118.1 887.18 118.1L894.8 118.1 894.8 110.48C894.8 109.083 895.943 107.94 897.34 107.94ZM899.88 123.18 899.88 138.42 915.12 138.42 915.12 123.18 899.88 123.18ZM876.707 153.685C877.69 153.556 878.688 154.016 879.203 154.93 885.223 165.268 895.791 171.44 907.5 171.44 919.184 171.44 929.752 165.268 935.797 154.93 936.508 153.711 938.056 153.306 939.25 154.017 940.469 154.703 940.874 156.276 940.163 157.47 933.229 169.408 921.013 176.52 907.5 176.52 893.962 176.52 881.746 169.408 874.837 157.47 874.126 156.251 874.531 154.703 875.75 154.017 876.055 153.839 876.38 153.728 876.707 153.685Z" fill="#FFFFFF" fill-rule="nonzero" fill-opacity="1"/></g></g></g></g></g></svg>