<svg width="144" height="144" xmlns="http://www.w3.org/2000/svg" xmlns:xlink="http://www.w3.org/1999/xlink" xml:space="preserve" overflow="hidden"><g transform="translate(-12 -12)"><g><path d="M137.982 49.336C141.69 51.736 142.754 56.69 140.354 60.398L131.07 74.744C131.658 77.744 132 80.83 132 84 132 110.5 110.5 132 84 132 57.5 132 36 110.5 36 84 36 57.5 57.5 36 84 36 95.98 36 106.92 40.4 115.34 47.66L86.96 91.52 70.66 72.86C68.48 70.36 64.7 70.1 62.2 72.28 59.7 74.46 59.44 78.24 61.62 80.74L83.14 105.42C84.3 106.72 85.94 107.48 87.66 107.48 87.82 107.48 87.96 107.46 88.1 107.46 89.98 107.32 91.68 106.32 92.7 104.74L126.92 51.708C129.32 47.996 134.27 46.934 137.982 49.336Z" fill="#FFFFFF" fill-rule="nonzero" fill-opacity="1"/></g></g></svg>