<svg width="512" height="512" xmlns="http://www.w3.org/2000/svg" xmlns:xlink="http://www.w3.org/1999/xlink" xml:space="preserve" overflow="hidden"><g transform="translate(-384 -104)"><g><path d="M480 456 480 200C480 164.7 508.7 136 544 136L800 136C835.3 136 864 164.7 864 200L864 397.5C864 414.5 857.3 430.8 845.3 442.8L786.8 501.3C774.8 513.3 758.5 520 741.5 520L544 520C508.7 520 480 491.3 480 456ZM656 232C647.2 232 640 239.2 640 248L640 296 592 296C583.2 296 576 303.2 576 312L576 344C576 352.8 583.2 360 592 360L640 360 640 408C640 416.8 647.2 424 656 424L688 424C696.8 424 704 416.8 704 408L704 360 752 360C760.8 360 768 352.8 768 344L768 312C768 303.2 760.8 296 752 296L704 296 704 248C704 239.2 696.8 232 688 232L656 232ZM680 568C693.3 568 704 578.7 704 592 704 605.3 693.3 616 680 616L520 616C444.9 616 384 555.1 384 480L384 256C384 242.7 394.7 232 408 232 421.3 232 432 242.7 432 256L432 480C432 528.6 471.4 568 520 568L680 568Z" fill="#FFFFFF" fill-rule="nonzero" fill-opacity="1"/></g></g></svg>