<svg width="512" height="512" xmlns="http://www.w3.org/2000/svg" xmlns:xlink="http://www.w3.org/1999/xlink" xml:space="preserve" overflow="hidden"><g transform="translate(-384 -104)"><g><path d="M431.6 404.4 612.3 573.1C619.8 580.1 629.7 584 640 584 650.3 584 660.2 580.1 667.7 573.1L848.4 404.4C878.8 376.1 896 336.4 896 294.9L896 289.1C896 219.2 845.5 159.6 776.6 148.1 731 140.5 684.6 155.4 652 188L640 200 628 188C595.4 155.4 549 140.5 503.4 148.1 434.5 159.6 384 219.2 384 289.1L384 294.9C384 336.4 401.2 376.1 431.6 404.4Z" fill="#FFFFFF" fill-rule="nonzero" fill-opacity="1"/></g></g></svg>