<svg width="122" height="122" xmlns="http://www.w3.org/2000/svg" xmlns:xlink="http://www.w3.org/1999/xlink" xml:space="preserve" overflow="hidden"><g transform="translate(-264 -18)"><g><g><g><g><path d="M325.5 21.5429C324.974 21.5429 324.449 21.7098 324.002 22.0486L268.342 65.4904C267.301 66.3132 267.108 67.8334 267.93 68.8982 268.753 69.9388 270.274 70.1324 271.338 69.3096L274.68 66.7004 274.68 130.32C274.68 131.651 275.769 132.74 277.1 132.74L310.98 132.74 310.98 89.18 340.02 89.18 340.02 132.74 373.9 132.74C375.231 132.74 376.32 131.651 376.32 130.32L376.32 66.7004 379.662 69.3096C380.122 69.6484 380.628 69.82 381.16 69.82 381.886 69.82 382.586 69.5032 383.07 68.8982 383.892 67.8334 383.699 66.3132 382.658 65.4904L326.998 22.0486C326.551 21.7098 326.026 21.5429 325.5 21.5429ZM349.7 31.1 349.7 33.6429 364.22 44.9678 364.22 31.1 349.7 31.1Z" fill="#FFFFFF" fill-rule="nonzero" fill-opacity="1"/></g></g></g></g></g></svg>