<svg width="496" height="497" xmlns="http://www.w3.org/2000/svg" xmlns:xlink="http://www.w3.org/1999/xlink" xml:space="preserve" overflow="hidden"><g transform="translate(-412 -105)"><g><g><g><path d="M3500.86 959.044C3275.92 959.044 3258.31 976.65 3258.31 1201.59L3258.31 1207.17C3258.31 1432.11 3275.92 1449.72 3500.86 1449.72L3506.44 1449.72C3731.38 1449.72 3748.99 1432.11 3748.99 1207.17L3748.99 1201.59C3748.99 976.65 3731.38 959.044 3506.44 959.044L3500.86 959.044ZM3648.58 1053.83C3657.83 1053.81 3665.33 1061.28 3665.35 1070.52 3665.37 1079.76 3657.91 1087.26 3648.67 1087.28 3639.42 1087.31 3631.92 1079.85 3631.89 1070.61 3631.87 1061.36 3639.34 1053.85 3648.58 1053.83ZM3503.39 1092.86C3564.97 1092.72 3615.02 1142.54 3615.17 1204.12 3615.31 1265.7 3565.49 1315.75 3503.91 1315.9 3442.33 1316.04 3392.28 1266.22 3392.13 1204.64 3391.99 1143.06 3441.81 1093.01 3503.39 1092.86ZM3503.54 1159.77C3478.91 1159.84 3458.99 1179.85 3459.04 1204.49 3459.11 1229.12 3479.13 1249.04 3503.76 1248.99 3528.4 1248.93 3548.31 1228.91 3548.26 1204.27 3548.19 1179.64 3528.18 1159.72 3503.54 1159.77Z" fill="#FFFFFF" fill-rule="nonzero" fill-opacity="1" transform="matrix(1.00302 0 0 1 -2854.51 -850.206)"/></g></g></g></g></svg>