<svg width="112" height="111" xmlns="http://www.w3.org/2000/svg" xmlns:xlink="http://www.w3.org/1999/xlink" xml:space="preserve" overflow="hidden"><g transform="translate(-424 -109)"><g><g><g><g><path d="M479.618 131.389C448.801 131.389 446.389 133.801 446.389 164.618L446.389 165.382C446.389 196.199 448.801 198.611 479.618 198.611L480.382 198.611C511.199 198.611 513.611 196.199 513.611 165.382L513.611 164.618C513.611 133.801 511.199 131.389 480.382 131.389L479.618 131.389ZM499.855 144.375C501.122 144.372 502.15 145.396 502.153 146.661 502.156 147.927 501.134 148.955 499.867 148.958 498.601 148.961 497.573 147.939 497.569 146.673 497.566 145.406 498.589 144.378 499.855 144.375ZM479.964 149.722C488.401 149.702 495.258 156.528 495.278 164.964 495.298 173.401 488.472 180.258 480.036 180.278 471.599 180.298 464.742 173.472 464.722 165.036 464.702 156.599 471.528 149.742 479.964 149.722ZM479.985 158.889C476.61 158.898 473.881 161.64 473.889 165.015 473.898 168.39 476.64 171.119 480.015 171.111 483.39 171.103 486.119 168.36 486.111 164.985 486.102 161.61 483.36 158.881 479.985 158.889Z" fill="#FFFFFF" fill-rule="nonzero" fill-opacity="1"/></g></g></g></g></g></svg>