<svg width="448" height="512" xmlns="http://www.w3.org/2000/svg" xmlns:xlink="http://www.w3.org/1999/xlink" xml:space="preserve" overflow="hidden"><defs><clipPath id="clip0"><rect x="416" y="104" width="448" height="512"/></clipPath><clipPath id="clip1"><rect x="416" y="104" width="448" height="512"/></clipPath></defs><g clip-path="url(#clip0)" transform="translate(-416 -104)"><g clip-path="url(#clip1)"><path d="M640.1 245C576.5 245 525.2 296.3 525.2 359.9 525.2 423.5 576.5 474.8 640.1 474.8 703.7 474.8 755 423.5 755 359.9 755 296.3 703.7 245 640.1 245ZM640.1 434.6C599 434.6 565.4 401.1 565.4 359.9 565.4 318.7 598.9 285.2 640.1 285.2 681.3 285.2 714.8 318.7 714.8 359.9 714.8 401.1 681.2 434.6 640.1 434.6ZM786.5 240.3C786.5 255.2 774.5 267.1 759.7 267.1 744.8 267.1 732.9 255.1 732.9 240.3 732.9 225.5 744.9 213.5 759.7 213.5 774.5 213.5 786.5 225.5 786.5 240.3ZM862.6 267.5C860.9 231.6 852.7 199.8 826.4 173.6 800.2 147.4 768.4 139.2 732.5 137.4 695.5 135.3 584.6 135.3 547.6 137.4 511.8 139.1 480 147.3 453.7 173.5 427.4 199.7 419.3 231.5 417.5 267.4 415.4 304.4 415.4 415.3 417.5 452.3 419.2 488.2 427.4 520 453.7 546.2 480 572.4 511.7 580.6 547.6 582.4 584.6 584.5 695.5 584.5 732.5 582.4 768.4 580.7 800.2 572.5 826.4 546.2 852.6 520 860.8 488.2 862.6 452.3 864.7 415.3 864.7 304.5 862.6 267.5ZM814.8 492C807 511.6 791.9 526.7 772.2 534.6 742.7 546.3 672.7 543.6 640.1 543.6 607.5 543.6 537.4 546.2 508 534.6 488.4 526.8 473.3 511.7 465.4 492 453.7 462.5 456.4 392.5 456.4 359.9 456.4 327.3 453.8 257.2 465.4 227.8 473.2 208.2 488.3 193.1 508 185.2 537.5 173.5 607.5 176.2 640.1 176.2 672.7 176.2 742.8 173.6 772.2 185.2 791.8 193 806.9 208.1 814.8 227.8 826.5 257.3 823.8 327.3 823.8 359.9 823.8 392.5 826.5 462.6 814.8 492Z" fill="#FFFFFF" fill-rule="nonzero" fill-opacity="1"/></g></g></svg>