<svg width="512" height="512" xmlns="http://www.w3.org/2000/svg" xmlns:xlink="http://www.w3.org/1999/xlink" xml:space="preserve" overflow="hidden"><defs><clipPath id="clip0"><rect x="384" y="104" width="512" height="512"/></clipPath><clipPath id="clip1"><rect x="384" y="104" width="512" height="512"/></clipPath></defs><g clip-path="url(#clip0)" transform="translate(-384 -104)"><g clip-path="url(#clip1)"><path d="M745.5 105.2C750.5 107.3 754.1 111.8 755.1 117.1L775 225 882.9 244.8C888.2 245.8 892.7 249.4 894.8 254.4 896.9 259.4 896.3 265.1 893.2 269.6L830.9 360 893.2 450.3C896.3 454.8 896.9 460.5 894.8 465.5 892.7 470.5 888.2 474.1 882.9 475.1L775 495 755.1 602.9C754.1 608.2 750.5 612.7 745.5 614.8 740.5 616.9 734.8 616.3 730.3 613.2L640 550.9 549.7 613.2C545.2 616.3 539.5 616.9 534.5 614.8 529.5 612.7 525.9 608.2 524.9 602.9L505 495 397.1 475.1C391.8 474.1 387.3 470.5 385.2 465.5 383.1 460.5 383.7 454.8 386.8 450.3L449.1 360 386.8 269.7C383.7 265.2 383.1 259.5 385.2 254.5 387.3 249.5 391.8 245.9 397.1 244.9L505 225 524.9 117.1C525.9 111.8 529.5 107.3 534.5 105.2 539.5 103.1 545.2 103.7 549.7 106.8L640 169.1 730.3 106.8C734.8 103.7 740.5 103.1 745.5 105.2ZM544 360C544 306.981 586.981 264 640 264 693.019 264 736 306.981 736 360 736 413.019 693.019 456 640 456 586.981 456 544 413.019 544 360ZM768 360C768 289.308 710.692 232 640 232 569.308 232 512 289.308 512 360 512 430.692 569.308 488 640 488 710.692 488 768 430.692 768 360Z" fill="#FFFFFF" fill-rule="nonzero" fill-opacity="1"/></g></g></svg>