<svg width="512" height="512" xmlns="http://www.w3.org/2000/svg" xmlns:xlink="http://www.w3.org/1999/xlink" xml:space="preserve" overflow="hidden"><g transform="translate(-384 -104)"><g><path d="M512 280C512 209.308 569.308 152 640 152 710.692 152 768 209.308 768 280 768 350.692 710.692 408 640 408 569.308 408 512 350.692 512 280ZM775.8 168C743.5 128.9 694.7 104 640 104 585.3 104 536.5 128.9 504.2 168L448 168C412.7 168 384 196.7 384 232L384 552C384 587.3 412.7 616 448 616L832 616C867.3 616 896 587.3 896 552L896 232C896 196.7 867.3 168 832 168L775.8 168ZM680 328C680 317.4 675.9 307.8 669.1 300.6L702.7 222.3C706.2 214.2 702.4 204.8 694.3 201.3 686.2 197.8 676.8 201.6 673.3 209.7L639.7 288C617.7 288.1 600 306 600 328 600 350.1 617.9 368 640 368 662.1 368 680 350.1 680 328Z" fill="#FFFFFF" fill-rule="nonzero" fill-opacity="1"/></g></g></svg>