<svg width="640" height="512" xmlns="http://www.w3.org/2000/svg" xmlns:xlink="http://www.w3.org/1999/xlink" xml:space="preserve" overflow="hidden"><g transform="translate(-320 -104)"><g><path d="M500.5 178.262C400.813 178.262 320 259.633 320 360 320 460.367 400.819 541.738 500.5 541.738 600.181 541.738 681 460.373 681 360 681 259.627 600.191 178.262 500.5 178.262ZM788.75 188.908C738.905 188.908 698.505 265.527 698.505 360.003 698.505 454.479 738.911 531.103 788.756 531.103 838.601 531.103 879.007 454.484 879.007 360.003L879 360.003C879 265.5 838.6 188.908 788.752 188.908ZM928.256 206.729C910.73 206.729 896.521 275.357 896.521 360.003 896.521 444.649 910.721 513.277 928.256 513.277 945.791 513.277 960 444.631 960 360 960 275.351 945.785 206.729 928.258 206.729Z" fill="#FFFFFF" fill-rule="nonzero" fill-opacity="1"/></g></g></svg>