<svg width="512" height="512" xmlns="http://www.w3.org/2000/svg" xmlns:xlink="http://www.w3.org/1999/xlink" xml:space="preserve" overflow="hidden"><defs><clipPath id="clip0"><rect x="384" y="104" width="512" height="512"/></clipPath><clipPath id="clip1"><rect x="384" y="104" width="512" height="512"/></clipPath></defs><g clip-path="url(#clip0)" transform="translate(-384 -104)"><g clip-path="url(#clip1)"><path d="M896 344C896 458.9 781.4 552 640 552 602.9 552 567.7 545.6 535.9 534.1 524 542.8 504.6 554.7 481.6 564.7 457.6 575.1 428.7 584 400 584 393.5 584 387.7 580.1 385.2 574.1 382.7 568.1 384.1 561.3 388.6 556.7L388.6 556.7 388.9 556.4C389.2 556.1 389.6 555.7 390.2 555 391.3 553.8 393 551.9 395.1 549.3 399.2 544.3 404.7 536.9 410.3 527.7 420.3 511.1 429.8 489.3 431.7 464.8 401.7 430.8 384 389.1 384 344 384 229.1 498.6 136 640 136 781.4 136 896 229.1 896 344Z" fill="#FFFFFF" fill-rule="nonzero" fill-opacity="1"/></g></g></svg>