<svg width="512" height="512" xmlns="http://www.w3.org/2000/svg" xmlns:xlink="http://www.w3.org/1999/xlink" xml:space="preserve" overflow="hidden"><defs><clipPath id="clip0"><rect x="384" y="104" width="512" height="512"/></clipPath><clipPath id="clip1"><rect x="384" y="104" width="512" height="512"/></clipPath></defs><g clip-path="url(#clip0)" transform="translate(-384 -104)"><g clip-path="url(#clip1)"><path d="M883.1 110.3C891.2 116.3 896 125.9 896 136L896 208 896 472C896 516.2 853 552 800 552 747 552 704 516.2 704 472 704 427.8 747 392 800 392 811.2 392 822 393.6 832 396.6L832 251 576 327.8 576 536C576 580.2 533 616 480 616 427 616 384 580.2 384 536 384 491.8 427 456 480 456 491.2 456 502 457.6 512 460.6L512 304 512 232C512 217.9 521.3 205.4 534.8 201.3L854.8 105.3C864.5 102.4 875 104.2 883.1 110.3Z" fill="#FFFFFF" fill-rule="nonzero" fill-opacity="1"/></g></g></svg>