<svg width="448" height="512" xmlns="http://www.w3.org/2000/svg" xmlns:xlink="http://www.w3.org/1999/xlink" xml:space="preserve" overflow="hidden"><g transform="translate(-416 -104)"><g><path d="M480 136C444.7 136 416 164.7 416 200L416 520C416 555.3 444.7 584 480 584L704 584 704 472C704 445.5 725.5 424 752 424L864 424 864 200C864 164.7 835.3 136 800 136L480 136ZM864 456 818.7 456 752 456C743.2 456 736 463.2 736 472L736 538.7 736 584 768 552 832 488 864 456Z" fill="#FFFFFF" fill-rule="nonzero" fill-opacity="1"/></g></g></svg>