<svg width="108" height="106" xmlns="http://www.w3.org/2000/svg" xmlns:xlink="http://www.w3.org/1999/xlink" xml:space="preserve" overflow="hidden"><g transform="translate(-320 -592)"><g><g><g><g><path d="M415.594 619.836C415.107 619.39 414.492 619.136 413.835 619.136 413.792 619.136 413.729 619.157 413.665 619.157L350.362 623.228C349.026 623.312 347.966 624.457 347.966 625.793L347.966 686.743C347.966 687.464 348.263 688.121 348.772 688.608 349.302 689.096 349.98 689.35 350.701 689.308L414.004 685.216C415.361 685.132 416.4 684.008 416.4 682.651L416.4 621.722C416.4 621.002 416.124 620.323 415.594 619.836ZM401.793 636.35C400.521 636.753 400.118 636.774 400.118 636.774L400.118 673.323C397.956 674.489 396.175 675.04 394.31 675.04 392.041 675.04 390.748 674.532 389.01 671.86 385.321 666.158 373.3 646.823 373.3 646.823L373.3 671.097 378.028 672.094C378.028 672.094 377.901 674.85 373.767 675.168 370.142 675.443 362.234 675.846 362.234 675.846 362.234 674.85 362.446 673.472 364.015 673.069 364.757 672.878 366.983 672.284 366.983 672.284L366.983 639.53 362.234 639.53C362.234 637.347 362.87 635.651 365.16 635.481L377.434 634.782 393.822 660.052 393.822 637.559 389.073 637.156C389.073 635.184 390.981 633.976 392.614 633.806L403.298 633.213C403.298 634.591 403.235 635.884 401.793 636.35ZM331.558 610.105 343.726 622.274 343.726 684.898 332.872 671.839C332.003 670.61 331.558 669.189 331.558 667.684L331.558 610.105ZM411.566 615.129 349.959 619.009C347.86 619.157 345.825 618.373 344.341 616.91L334.229 606.776 391.872 602.77C393.589 602.621 395.306 603.13 396.705 604.169L411.566 615.129Z" fill="#FFFFFF" fill-rule="nonzero" fill-opacity="1"/></g></g></g></g></g></svg>