<svg width="385" height="384" xmlns="http://www.w3.org/2000/svg" xmlns:xlink="http://www.w3.org/1999/xlink" xml:space="preserve" overflow="hidden"><g transform="translate(-545 -220)"><g><g><g><g><path d="M208.764 63.2616C176.867 63.2616 149.657 83.0078 138.434 110.881 128.452 104.884 116.895 101.219 104.382 101.219 67.7026 101.219 37.957 130.952 37.957 167.643 37.957 171.186 38.4636 174.595 38.995 177.998 16.8913 182.009 0 201.362 0 224.579 0 250.668 21.3571 272.025 47.4463 272.025L75.3951 272.025C71.6626 263.27 69.588 253.654 69.588 243.558 69.588 208.371 94.7064 178.933 127.957 172.24 142.33 137.497 176.419 113.871 215.287 113.871 237.303 113.871 258.275 121.565 275.065 135.445 278.038 134.622 281.06 134.034 284.11 133.591 281.199 94.318 248.77 63.2616 208.764 63.2616ZM215.287 139.176C181.24 139.176 153.041 163.759 147.158 196.111L142.339 196.111C116.25 196.111 94.8926 217.469 94.8926 243.558 94.8926 269.647 116.25 291.004 142.339 291.004L341.613 291.004C362.49 291.004 379.57 273.923 379.57 253.047 379.57 232.17 362.49 215.09 341.613 215.09L340.674 215.09C341.306 212.015 341.613 208.84 341.613 205.601 341.613 179.385 320.383 158.154 294.167 158.154 284.981 158.154 276.483 160.878 269.233 165.395 256.505 149.529 237.188 139.176 215.287 139.176Z" fill="#FFFFFF" fill-rule="nonzero" fill-opacity="1" transform="matrix(1 0 0 1.0031 549.01 223.254)"/></g></g></g></g></g></svg>