<svg width="116" height="118" xmlns="http://www.w3.org/2000/svg" xmlns:xlink="http://www.w3.org/1999/xlink" xml:space="preserve" overflow="hidden"><g transform="translate(-272 -306)"><g><g><g><g><path d="M63.8 19.3333C54.0521 19.3333 45.7365 25.3679 42.3067 33.8862 39.2559 32.0534 35.7241 30.9333 31.9 30.9333 20.6905 30.9333 11.6 40.02 11.6 51.2333 11.6 52.316 11.7548 53.3577 11.9172 54.3978 5.16212 55.6235 0 61.538 0 68.6333 0 76.6064 6.52693 83.1333 14.5 83.1333L23.0414 83.1333C21.9007 80.4576 21.2667 77.5189 21.2667 74.4333 21.2667 63.6801 28.9431 54.6836 39.1048 52.6381 43.4973 42.0202 53.9152 34.8 65.7937 34.8 72.5217 34.8 78.931 37.1512 84.0621 41.3931 84.9708 41.1417 85.8945 40.9619 86.8264 40.8266 85.937 28.8244 76.0264 19.3333 63.8 19.3333ZM65.7937 42.5333C55.3885 42.5333 46.7708 50.0463 44.9728 59.9333L43.5 59.9333C35.5269 59.9333 29 66.4603 29 74.4333 29 82.4064 35.5269 88.9333 43.5 88.9333L104.4 88.9333C110.78 88.9333 116 83.7133 116 77.3333 116 70.9533 110.78 65.7333 104.4 65.7333L104.113 65.7333C104.306 64.7937 104.4 63.8232 104.4 62.8333 104.4 54.8216 97.9117 48.3333 89.9 48.3333 87.0928 48.3333 84.4956 49.1658 82.28 50.5462 78.3901 45.6974 72.4868 42.5333 65.7937 42.5333Z" fill="#FFFFFF" fill-rule="nonzero" fill-opacity="1" transform="matrix(1 0 0 1.00862 272 307)"/></g></g></g></g></g></svg>