<svg width="720" height="720" xmlns="http://www.w3.org/2000/svg" xmlns:xlink="http://www.w3.org/1999/xlink" xml:space="preserve" overflow="hidden"><defs><clipPath id="clip0"><rect x="280" y="0" width="720" height="720"/></clipPath><clipPath id="clip1"><rect x="280" y="0" width="720" height="720"/></clipPath></defs><g clip-path="url(#clip0)" transform="translate(-280 0)"><g clip-path="url(#clip1)"><path d="M948.457 294.633C964.743 245.587 959.106 191.902 932.986 147.309 893.713 78.949 814.779 43.7856 737.692 60.309 670.51-14.422 555.466-20.5412 480.735 46.6413 457.019 67.9615 439.323 95.1403 429.421 125.454 378.784 135.838 335.079 167.542 309.49 212.454 269.787 280.705 278.797 366.8 331.771 425.352 315.424 474.375 321.012 528.066 347.101 572.673 386.424 641.057 465.409 676.219 542.539 659.676 576.845 698.309 626.132 720.29 677.797 720 756.812 720.073 826.813 669.064 850.951 593.826 901.581 583.425 945.279 551.724 970.882 506.823 1010.1 438.692 1001.05 353.063 948.457 294.636ZM677.797 672.876C646.259 672.926 615.709 661.872 591.505 641.652L595.762 639.24 739.111 556.494C746.369 552.237 750.847 544.47 750.892 536.055L750.892 333.948 811.492 369.006C812.1 369.314 812.523 369.894 812.632 370.566L812.632 538.044C812.474 612.445 752.198 672.719 677.797 672.876ZM387.976 549.114C372.159 521.803 366.48 489.788 371.938 458.703L376.198 461.259 519.688 544.005C526.918 548.247 535.876 548.247 543.106 544.005L718.39 442.95 718.39 512.922C718.357 513.657 717.99 514.336 717.394 514.767L572.2 598.506C507.68 635.674 425.249 613.573 387.976 549.114ZM350.224 236.868C366.151 209.381 391.289 188.416 421.189 177.684L421.189 348C421.079 356.38 425.538 364.157 432.826 368.295L607.258 468.924 546.655 503.979C545.989 504.333 545.191 504.333 544.525 503.979L399.616 420.384C335.224 383.059 313.141 300.691 350.224 236.16ZM848.113 352.542 673.114 250.92 733.576 216C734.242 215.646 735.04 215.646 735.706 216L880.615 299.739C945.114 336.956 967.23 419.412 930.013 483.91 914.344 511.067 889.699 531.914 860.32 542.865L860.32 372.549C860.064 364.192 855.425 356.588 848.11 352.539ZM908.434 261.849 904.174 259.293 760.969 175.839C753.695 171.57 744.681 171.57 737.407 175.839L562.27 276.891 562.27 206.922C562.194 206.197 562.521 205.489 563.122 205.077L708.031 121.479C772.624 84.2677 855.153 106.465 892.365 171.059 908.08 198.337 913.765 230.251 908.437 261.279ZM529.195 385.89 468.595 350.976C467.981 350.606 467.564 349.983 467.455 349.275L467.455 182.226C467.552 107.681 528.061 47.3288 602.607 47.4258 634.071 47.4667 664.532 58.4987 688.726 78.615L684.466 81.03 541.12 163.77C533.862 168.027 529.384 175.795 529.339 184.209ZM562.123 314.928 640.183 269.934 718.39 314.928 718.39 404.91 640.468 449.901 562.267 404.91Z" fill="#FFFFFF" fill-rule="nonzero" fill-opacity="1"/></g></g></svg>