<svg width="512" height="512" xmlns="http://www.w3.org/2000/svg" xmlns:xlink="http://www.w3.org/1999/xlink" xml:space="preserve" overflow="hidden"><defs><clipPath id="clip0"><rect x="384" y="104" width="512" height="512"/></clipPath><clipPath id="clip1"><rect x="384" y="104" width="512" height="512"/></clipPath></defs><g clip-path="url(#clip0)" transform="translate(-384 -104)"><g clip-path="url(#clip1)"><path d="M548.9 128.6C541.2 110 520.9 100.1 501.5 105.4L413.5 129.4C396.1 134.2 384 150 384 168 384 415.4 584.6 616 832 616 850 616 865.8 603.9 870.6 586.5L894.6 498.5C899.9 479.1 890 458.8 871.4 451.1L775.4 411.1C759.1 404.3 740.2 409 729.1 422.7L688.7 472C618.3 438.7 561.3 381.7 528 311.3L577.3 271C591 259.8 595.7 241 588.9 224.7L548.9 128.7Z" fill="#FFFFFF" fill-rule="nonzero" fill-opacity="1"/></g></g></svg>