<svg width="496" height="512" xmlns="http://www.w3.org/2000/svg" xmlns:xlink="http://www.w3.org/1999/xlink" xml:space="preserve" overflow="hidden"><g transform="translate(-392 -104)"><g><path d="M888 360C888 497 777 608 640 608 614.4 608 589.8 604.1 566.6 596.9 576.7 580.4 591.8 553.4 597.4 531.9 600.4 520.3 612.8 472.9 612.8 472.9 620.9 488.3 644.5 501.4 669.6 501.4 744.4 501.4 798.3 432.6 798.3 347.1 798.3 265.2 731.4 203.9 645.4 203.9 538.4 203.9 481.5 275.7 481.5 354 481.5 390.4 500.9 435.7 531.8 450.1 536.5 452.3 539 451.3 540.1 446.8 540.9 443.4 545.1 426.5 547 418.7 547.6 416.2 547.3 414 545.3 411.6 535.2 399.1 527 376.3 527 355 527 300.3 568.4 247.4 639 247.4 699.9 247.4 742.6 288.9 742.6 348.3 742.6 415.4 708.7 461.9 664.6 461.9 640.3 461.9 622 441.8 627.9 417.1 634.9 387.6 648.4 355.8 648.4 334.5 648.4 315.5 638.2 299.6 617 299.6 592.1 299.6 572.1 325.3 572.1 359.8 572.1 381.8 579.5 396.6 579.5 396.6 579.5 396.6 555 500.4 550.5 519.8 545.5 541.2 547.5 571.4 549.6 591 457.4 554.9 392 465.1 392 360 392 223 503 112 640 112 777 112 888 223 888 360Z" fill="#FFFFFF" fill-rule="nonzero" fill-opacity="1"/></g></g></svg>