<svg width="501" height="502" xmlns="http://www.w3.org/2000/svg" xmlns:xlink="http://www.w3.org/1999/xlink" xml:space="preserve" overflow="hidden"><g transform="translate(-389 -74)"><g><g><g><g><path d="M887.872 359.948C887.872 496.928 776.888 607.912 639.908 607.912 614.311 607.912 589.715 604.013 566.518 596.814 576.617 580.316 591.715 553.32 597.314 531.823 600.313 520.225 612.712 472.832 612.712 472.832 620.81 488.23 644.407 501.328 669.503 501.328 744.293 501.328 798.185 432.538 798.185 347.05 798.185 265.162 731.294 203.871 645.307 203.871 538.322 203.871 481.431 275.66 481.431 353.949 481.431 390.344 500.828 435.637 531.723 450.035 536.423 452.235 538.922 451.235 540.022 446.736 540.822 443.336 545.021 426.438 546.921 418.64 547.521 416.14 547.221 413.94 545.221 411.541 535.123 399.042 526.924 376.246 526.924 354.949 526.924 300.257 568.318 247.364 638.908 247.364 699.799 247.364 742.493 288.858 742.493 348.25 742.493 415.34 708.598 461.833 664.504 461.833 640.208 461.833 621.91 441.736 627.809 417.04 634.808 387.544 648.306 355.749 648.306 334.452 648.306 315.454 638.108 299.557 616.911 299.557 592.015 299.557 572.017 325.253 572.017 359.748 572.017 381.745 579.416 396.543 579.416 396.543 579.416 396.543 554.92 500.328 550.421 519.725 545.421 541.122 547.421 571.318 549.521 590.915 457.334 554.82 391.943 465.033 391.943 359.948 391.943 222.968 502.927 111.984 639.908 111.984 776.888 111.984 887.872 222.968 887.872 359.948Z" fill="#FFFFFF" fill-rule="nonzero" fill-opacity="1" transform="matrix(1 0 0 1 -0.0539474 -35.3384)"/></g></g></g></g></g></svg>