<svg width="513" height="512" xmlns="http://www.w3.org/2000/svg" xmlns:xlink="http://www.w3.org/1999/xlink" xml:space="preserve" overflow="hidden"><defs><clipPath id="clip0"><rect x="433" y="104" width="513" height="512"/></clipPath><clipPath id="clip1"><rect x="433" y="104" width="513" height="512"/></clipPath><clipPath id="clip2"><rect x="434" y="104" width="512" height="512"/></clipPath><clipPath id="clip3"><rect x="465" y="104" width="450" height="512"/></clipPath><clipPath id="clip4"><rect x="465" y="104" width="450" height="512"/></clipPath><clipPath id="clip5"><rect x="465" y="104" width="450" height="512"/></clipPath><clipPath id="clip6"><rect x="465" y="104" width="450" height="512"/></clipPath></defs><g clip-path="url(#clip0)" transform="translate(-433 -104)"><g clip-path="url(#clip1)"><g clip-path="url(#clip2)"><g clip-path="url(#clip3)"><g clip-path="url(#clip4)"><g clip-path="url(#clip5)"><g clip-path="url(#clip6)"><path d="M735.4 476C783.9 444.7 816 390.1 816 328 816 230.8 737.2 152 640 152 542.8 152 464 230.8 464 328 464 390.1 496.1 444.6 544.6 476 545.8 493.3 548.6 514 551.8 533.1L552 534.1C472 499.8 416 420.5 416 328 416 204.3 516.3 104 640 104 763.7 104 864 204.3 864 328 864 420.5 808 499.9 728 534.1L728.2 533C731.3 513.8 734.2 493.2 735.4 476ZM733.1 437.9C731.5 432.2 729.2 426.8 726.1 421.7 720.3 412 712.6 404.7 704.2 399.3 723.7 381.7 736 356.3 736 328 736 275 693 232 640 232 587 232 544 275 544 328 544 356.3 556.3 381.8 575.8 399.3 567.4 404.7 559.7 412 553.9 421.7 550.8 426.8 548.5 432.2 546.9 437.9 515.8 411.5 496 372 496 328 496 248.5 560.5 184 640 184 719.5 184 784 248.5 784 328 784 372 764.2 411.5 733.1 437.9ZM640 416C672.9 416 704 424.6 704 459.8 704 492.8 691.1 563.9 683.4 592.7 678.3 611.7 658.9 616.1 640 616.1 621.1 616.1 601.8 611.7 596.6 592.7 588.8 564.2 576 493 576 459.9 576 424.8 607.1 416.1 640 416.1ZM640 272C670.928 272 696 297.072 696 328 696 358.928 670.928 384 640 384 609.072 384 584 358.928 584 328 584 297.072 609.072 272 640 272Z" fill="#FFFFFF" fill-rule="nonzero" fill-opacity="1" transform="matrix(1.00111 0 0 1 49.0945 0)"/></g></g></g></g></g></g></g></svg>