<svg width="184" height="175" xmlns="http://www.w3.org/2000/svg" xmlns:xlink="http://www.w3.org/1999/xlink" xml:space="preserve" overflow="hidden"><defs><clipPath id="clip0"><rect x="844" y="230" width="184" height="175"/></clipPath><clipPath id="clip1"><rect x="844" y="230" width="184" height="175"/></clipPath><clipPath id="clip2"><rect x="844" y="231" width="184" height="174"/></clipPath><clipPath id="clip3"><rect x="844" y="231" width="184" height="174"/></clipPath></defs><g clip-path="url(#clip0)" transform="translate(-844 -230)"><g clip-path="url(#clip1)"><g clip-path="url(#clip2)"><g clip-path="url(#clip3)"><path d="M141.68 20C124.22 20 110 34.2855 110 51.8555L110 448.145C110 465.705 124.22 480 141.68 480L358.32 480C375.78 480 390 465.715 390 448.145L390 51.8555C390 34.2855 375.78 20 358.32 20L141.68 20ZM130 90 370 90 370 400 130 400 130 90ZM249.98 170C209.26 170 175.634 200.6 170.684 240L221.816 240C225.966 228.37 236.96 220 250 220 263.04 220 274.034 228.37 278.164 240L329.297 240C324.347 200.6 290.7 170 249.98 170ZM170.703 260C175.653 299.4 209.3 330 250.02 330 290.74 330 324.366 299.4 329.316 260L278.184 260C274.034 271.63 263.04 280 250 280 236.96 280 225.966 271.63 221.836 260L170.703 260ZM220 430 280 430C285.53 430 290 434.48 290 440 290 445.52 285.53 450 280 450L220 450C214.47 450 210 445.52 210 440 210 434.48 214.47 430 220 430Z" fill="#FFFFFF" fill-rule="nonzero" fill-opacity="1" transform="matrix(1 0 0 1.00332 684.57 67.1736)"/></g></g></g></g></svg>