<svg width="392" height="392" xmlns="http://www.w3.org/2000/svg" xmlns:xlink="http://www.w3.org/1999/xlink" xml:space="preserve" overflow="hidden"><defs><clipPath id="clip0"><rect x="808" y="30" width="392" height="392"/></clipPath><clipPath id="clip1"><rect x="808" y="30" width="392" height="392"/></clipPath><clipPath id="clip2"><rect x="808" y="31" width="391" height="391"/></clipPath><clipPath id="clip3"><rect x="808" y="31" width="391" height="392"/></clipPath></defs><g clip-path="url(#clip0)" transform="translate(-808 -30)"><g clip-path="url(#clip1)"><g clip-path="url(#clip2)"><g clip-path="url(#clip3)"><path d="M345.402 48.7581C302.837 48.7581 268.17 83.5848 268.17 126.419L268.17 1092.53C268.17 1135.34 302.837 1170.19 345.402 1170.19L873.55 1170.19C916.116 1170.19 950.783 1135.37 950.783 1092.53L950.783 126.419C950.783 83.5848 916.116 48.7581 873.55 48.7581L345.402 48.7581ZM316.928 219.411 902.025 219.411 902.025 975.162 316.928 975.162 316.928 219.411ZM609.427 414.444C510.156 414.444 428.179 489.044 416.111 585.097L540.766 585.097C550.884 556.744 577.686 536.339 609.476 536.339 641.267 536.339 668.069 556.744 678.137 585.097L802.795 585.097C790.727 489.044 708.699 414.444 609.427 414.444ZM416.158 633.855C428.225 729.909 510.254 804.509 609.525 804.509 708.797 804.509 790.773 729.909 802.841 633.855L678.186 633.855C668.069 662.208 641.267 682.613 609.476 682.613 577.686 682.613 550.884 662.208 540.815 633.855L416.158 633.855ZM536.339 1048.3 682.613 1048.3C696.095 1048.3 706.992 1059.22 706.992 1072.68 706.992 1086.14 696.095 1097.06 682.613 1097.06L536.339 1097.06C522.857 1097.06 511.96 1086.14 511.96 1072.68 511.96 1059.22 522.857 1048.3 536.339 1048.3Z" fill="#FFFFFF" fill-rule="nonzero" fill-opacity="1" transform="matrix(1 0 0 1.00143 393.949 -383.785)"/></g></g></g></g></svg>