<svg width="765" height="764" xmlns="http://www.w3.org/2000/svg" xmlns:xlink="http://www.w3.org/1999/xlink" xml:space="preserve" overflow="hidden"><g transform="translate(-257 22)"><g><g><g><g><path d="M915.01 281.66C892.627 281.66 872.93 290.912 858.456 305.386 805.185 268.529 733.411 244.803 653.877 242.266L695.211 56.0414 826.822 85.5867C826.822 117.818 853.084 144.08 885.316 144.08 918.144 144.08 944.555 117.072 944.555 84.8406 944.555 52.6094 918.293 25.6008 885.316 25.6008 862.336 25.6008 842.49 39.4781 832.641 58.4289L687.302 26.1977C679.991 24.2578 672.828 29.4805 670.888 36.7922L625.526 242.117C546.589 245.4 475.561 269.126 422.141 305.983 407.666 290.912 387.223 281.66 364.841 281.66 281.875 281.66 254.717 392.977 330.67 431.028 327.984 442.816 326.79 455.351 326.79 467.885 326.79 592.93 467.652 694.25 640.597 694.25 814.287 694.25 955.15 592.93 955.15 467.885 955.15 455.351 953.807 442.22 950.524 430.431 1024.98 392.231 997.528 281.66 915.01 281.66ZM451.089 438.937C451.089 406.109 477.352 379.697 510.329 379.697 542.56 379.697 568.823 405.959 568.823 438.937 568.823 471.168 542.56 497.43 510.329 497.43 477.501 497.58 451.089 471.168 451.089 438.937ZM770.865 578.456C716.549 632.772 563.302 632.772 508.986 578.456 503.017 573.234 503.017 563.982 508.986 558.013 514.209 552.791 523.46 552.791 528.683 558.013 570.166 600.541 707.745 601.287 751.019 558.013 756.241 552.791 765.493 552.791 770.716 558.013 776.834 563.982 776.834 573.234 770.865 578.456ZM769.671 497.58C737.44 497.58 711.177 471.317 711.177 439.086 711.177 406.258 737.44 379.846 769.671 379.846 802.499 379.846 828.911 406.109 828.911 439.086 828.762 471.168 802.499 497.58 769.671 497.58Z" fill="#FFFFFF" fill-rule="nonzero" fill-opacity="1"/></g></g></g></g></g></svg>