<svg width="511" height="511" xmlns="http://www.w3.org/2000/svg" xmlns:xlink="http://www.w3.org/1999/xlink" xml:space="preserve" overflow="hidden"><g transform="translate(-581 -114)"><g><g><g><path d="M271.873 20.879C133.382 20.879 20.879 133.382 20.879 271.873 20.879 410.364 133.382 522.868 271.873 522.868 410.364 522.868 522.868 410.364 522.868 271.873 522.868 133.382 410.364 20.879 271.873 20.879ZM271.873 42.6289C398.61 42.6289 501.118 145.137 501.118 271.873 501.118 398.61 398.61 501.118 271.873 501.118 145.137 501.118 42.6289 398.61 42.6289 271.873 42.6289 267.913 42.7285 263.975 42.9263 260.064 49.0588 138.829 149.097 42.6289 271.873 42.6289ZM271.873 65.2496C157.937 65.2496 65.2496 157.937 65.2496 271.873 65.2496 385.81 157.937 478.497 271.873 478.497 385.81 478.497 478.497 385.81 478.497 271.873 478.497 157.937 385.81 65.2496 271.873 65.2496ZM271.873 97.8744C277.887 97.8744 282.748 102.736 282.748 108.749L282.748 119.624C282.748 125.638 277.887 130.499 271.873 130.499 265.86 130.499 260.998 125.638 260.998 119.624L260.998 108.749C260.998 102.736 265.86 97.8744 271.873 97.8744ZM334.256 110.3C335.668 110.288 337.101 110.558 338.482 111.129 344.029 113.424 346.66 119.781 344.365 125.338L340.203 135.384C338.474 139.571 334.431 142.096 330.157 142.096 328.764 142.096 327.353 141.833 325.994 141.267 320.447 138.962 317.814 132.605 320.109 127.059L324.273 117.012C325.994 112.852 330.019 110.334 334.256 110.3ZM209.385 110.342C213.621 110.366 217.639 112.895 219.368 117.054L223.552 127.079C225.868 132.625 223.236 138.984 217.69 141.289 216.331 141.865 214.897 142.139 213.506 142.139 209.243 142.139 205.209 139.614 203.48 135.427L199.296 125.401C196.98 119.855 199.611 113.497 205.158 111.192 206.543 110.613 207.973 110.335 209.385 110.342ZM402.373 141.374 304.498 304.498 141.374 402.373 239.249 239.249 402.373 141.374ZM156.412 145.749C159.196 145.749 161.997 146.8 164.122 148.915L171.811 156.603C176.063 160.855 176.074 167.74 171.833 172.002 169.712 174.123 166.907 175.189 164.122 175.189 161.338 175.189 158.555 174.112 156.434 172.002L148.744 164.314C144.492 160.073 144.482 153.198 148.724 148.935 150.85 146.81 153.628 145.749 156.412 145.749ZM422.444 198.128C426.684 198.144 430.712 200.659 432.448 204.819 434.765 210.365 432.154 216.733 426.607 219.049L416.561 223.255C415.191 223.831 413.779 224.084 412.376 224.084 408.124 224.084 404.07 221.59 402.33 217.414 400.014 211.857 402.625 205.499 408.171 203.183L418.197 198.978C419.58 198.398 421.032 198.122 422.444 198.128ZM121.111 198.595C122.522 198.585 123.959 198.853 125.338 199.423L135.384 203.586C140.93 205.881 143.562 212.249 141.267 217.796 139.539 221.982 135.484 224.507 131.221 224.507 129.829 224.507 128.418 224.246 127.059 223.68L117.012 219.516C111.466 217.221 108.833 210.853 111.129 205.307 112.849 201.139 116.876 198.626 121.111 198.595ZM271.873 250.124C260.7 250.122 251.343 258.589 250.23 269.707 250.159 270.427 250.122 271.15 250.124 271.873 250.124 283.886 259.861 293.623 271.873 293.623 283.886 293.623 293.623 283.886 293.623 271.873 293.623 259.861 283.886 250.124 271.873 250.124ZM108.749 260.998 119.624 260.998C125.638 260.998 130.499 265.86 130.499 271.873 130.499 277.887 125.638 282.748 119.624 282.748L108.749 282.748C102.736 282.748 97.8744 277.887 97.8744 271.873 97.8744 265.86 102.736 260.998 108.749 260.998ZM424.122 260.998 434.997 260.998C441.011 260.998 445.872 265.86 445.872 271.873 445.872 277.887 441.011 282.748 434.997 282.748L424.122 282.748C418.109 282.748 413.248 277.887 413.248 271.873 413.248 265.86 418.109 260.998 424.122 260.998ZM412.461 319.239C413.874 319.228 415.305 319.496 416.688 320.067L426.734 324.231C432.281 326.526 434.912 332.894 432.618 338.44 430.889 342.627 426.835 345.152 422.572 345.152 421.18 345.152 419.768 344.889 418.409 344.324L408.363 340.16C402.816 337.866 400.185 331.497 402.479 325.951 404.2 321.783 408.223 319.269 412.461 319.239ZM131.413 319.663C135.65 319.682 139.68 322.173 141.417 326.333 143.733 331.879 141.122 338.247 135.575 340.564L125.55 344.769C124.18 345.345 122.747 345.598 121.345 345.598 117.092 345.598 113.039 343.104 111.299 338.928 108.982 333.382 111.593 327.014 117.139 324.697L127.186 320.492C128.567 319.916 130 319.658 131.413 319.663ZM379.625 368.558C382.408 368.558 385.187 369.629 387.313 371.745L395.003 379.433C399.255 383.674 399.265 390.548 395.023 394.811 392.903 396.932 390.097 397.998 387.313 397.998 384.529 397.998 381.745 396.941 379.625 394.832L371.936 387.143C367.683 382.892 367.673 376.007 371.914 371.745 374.04 369.618 376.84 368.558 379.625 368.558ZM330.304 401.608C334.544 401.631 338.546 404.161 340.267 408.32L344.45 418.346C346.767 423.891 344.135 430.249 338.589 432.555 337.23 433.131 335.818 433.404 334.426 433.404 330.163 433.404 326.108 430.879 324.379 426.693L320.195 416.668C317.879 411.121 320.511 404.763 326.057 402.458 327.441 401.879 328.892 401.601 330.304 401.608ZM213.527 401.651C214.939 401.64 216.372 401.908 217.753 402.479 223.299 404.784 225.932 411.142 223.637 416.688L219.474 426.734C217.744 430.921 213.701 433.447 209.428 433.447 208.036 433.447 206.624 433.184 205.264 432.618 199.718 430.324 197.086 423.966 199.381 418.409L203.544 408.363C205.264 404.203 209.29 401.685 213.527 401.651ZM271.873 413.248C277.887 413.248 282.748 418.109 282.748 424.122L282.748 434.997C282.748 441.011 277.887 445.872 271.873 445.872 265.86 445.872 260.998 441.011 260.998 434.997L260.998 424.122C260.998 418.109 265.86 413.248 271.873 413.248Z" fill="#FFFFFF" fill-rule="nonzero" fill-opacity="1" transform="matrix(1 0 0 1.00438 565.139 97.0099)"/></g></g></g></g></svg>