<svg width="88" height="90" xmlns="http://www.w3.org/2000/svg" xmlns:xlink="http://www.w3.org/1999/xlink" xml:space="preserve" overflow="hidden"><g transform="translate(-380 -478)"><g><g><g><g><path d="M43.5 3.34066C21.3413 3.34066 3.34066 21.3413 3.34066 43.5 3.34066 65.6587 21.3413 83.6594 43.5 83.6594 65.6587 83.6594 83.6594 65.6587 83.6594 43.5 83.6594 21.3413 65.6587 3.34066 43.5 3.34066ZM43.5 6.82066C63.778 6.82066 80.1794 23.222 80.1794 43.5 80.1794 63.778 63.778 80.1794 43.5 80.1794 23.222 80.1794 6.82066 63.778 6.82066 43.5 6.82066 42.8663 6.8366 42.2362 6.86825 41.6105 7.84945 22.2127 23.8557 6.82066 43.5 6.82066ZM43.5 10.44C25.27 10.44 10.44 25.27 10.44 43.5 10.44 61.73 25.27 76.56 43.5 76.56 61.73 76.56 76.56 61.73 76.56 43.5 76.56 25.27 61.73 10.44 43.5 10.44ZM43.5 15.66C44.4622 15.66 45.24 16.4378 45.24 17.4L45.24 19.14C45.24 20.1022 44.4622 20.88 43.5 20.88 42.5378 20.88 41.76 20.1022 41.76 19.14L41.76 17.4C41.76 16.4378 42.5378 15.66 43.5 15.66ZM53.4812 17.6481C53.7072 17.6462 53.9365 17.6894 54.1575 17.7807 55.0449 18.1479 55.466 19.1651 55.0988 20.0542L54.4328 21.6616C54.1561 22.3315 53.5092 22.7355 52.8254 22.7355 52.6026 22.7355 52.3768 22.6934 52.1593 22.6029 51.2719 22.2341 50.8506 21.2169 51.2178 20.3295L51.884 18.7221C52.1593 18.0565 52.8034 17.6535 53.4812 17.6481ZM33.5018 17.6549C34.1795 17.6586 34.8224 18.0633 35.0991 18.7288L35.7685 20.3328C36.1391 21.2202 35.718 22.2375 34.8306 22.6064 34.6131 22.6986 34.3838 22.7423 34.1611 22.7423 33.479 22.7423 32.8336 22.3383 32.557 21.6684L31.8876 20.0643C31.517 19.1769 31.938 18.1597 32.8254 17.7908 33.047 17.6982 33.2759 17.6537 33.5018 17.6549ZM64.38 22.62 48.72 48.72 22.62 64.38 38.28 38.28 64.38 22.62ZM25.0261 23.32C25.4715 23.32 25.9196 23.4881 26.2597 23.8265L27.4899 25.0567C28.1703 25.737 28.172 26.8385 27.4934 27.5205 27.1541 27.8598 26.7052 28.0304 26.2597 28.0304 25.8143 28.0304 25.3689 27.8581 25.0296 27.5205L23.7992 26.2904C23.1189 25.6118 23.1173 24.5119 23.7959 23.8298 24.1361 23.4897 24.5806 23.32 25.0261 23.32ZM67.5915 31.7007C68.2698 31.7033 68.9143 32.1056 69.1921 32.7712 69.5628 33.6586 69.145 34.6775 68.2576 35.0481L66.6502 35.721C66.4309 35.8132 66.2051 35.8536 65.9806 35.8536 65.3003 35.8536 64.6516 35.4546 64.3732 34.7864 64.0026 33.8973 64.4204 32.8801 65.3078 32.5095L66.9119 31.8366C67.1332 31.7439 67.3655 31.6997 67.5915 31.7007ZM19.3779 31.7754C19.6037 31.7738 19.8336 31.8166 20.0542 31.9079L21.6616 32.574C22.549 32.9412 22.9701 33.9601 22.6029 34.8475 22.3263 35.5174 21.6776 35.9214 20.9955 35.9214 20.7728 35.9214 20.547 35.8795 20.3295 35.789L18.7221 35.1228C17.8347 34.7556 17.4134 33.7367 17.7807 32.8493 18.056 32.1825 18.7003 31.7804 19.3779 31.7754ZM43.5 40.02C41.7122 40.0198 40.2151 41.3744 40.0371 43.1534 40.0256 43.2686 40.0198 43.3843 40.02 43.5 40.02 45.422 41.578 46.98 43.5 46.98 45.422 46.98 46.98 45.422 46.98 43.5 46.98 41.578 45.422 40.02 43.5 40.02ZM17.4 41.76 19.14 41.76C20.1022 41.76 20.88 42.5378 20.88 43.5 20.88 44.4622 20.1022 45.24 19.14 45.24L17.4 45.24C16.4378 45.24 15.66 44.4622 15.66 43.5 15.66 42.5378 16.4378 41.76 17.4 41.76ZM67.86 41.76 69.6 41.76C70.5622 41.76 71.34 42.5378 71.34 43.5 71.34 44.4622 70.5622 45.24 69.6 45.24L67.86 45.24C66.8978 45.24 66.12 44.4622 66.12 43.5 66.12 42.5378 66.8978 41.76 67.86 41.76ZM65.9942 51.0786C66.2202 51.0768 66.4492 51.1196 66.6705 51.211L68.2779 51.8772C69.1653 52.2444 69.5864 53.2633 69.2193 54.1507 68.9426 54.8206 68.294 55.2246 67.6119 55.2246 67.3892 55.2246 67.1633 55.1825 66.9458 55.0921L65.3384 54.426C64.451 54.0588 64.0299 53.0399 64.397 52.1525 64.6723 51.4856 65.3161 51.0834 65.9942 51.0786ZM21.0262 51.1464C21.7042 51.1494 22.3489 51.548 22.6268 52.2136 22.9974 53.101 22.5796 54.1199 21.6922 54.4905L20.0881 55.1634C19.8689 55.2556 19.6397 55.296 19.4153 55.296 18.7349 55.296 18.0863 54.897 17.8079 54.2288 17.4372 53.3414 17.855 52.3225 18.7424 51.9519L20.3498 51.279C20.5708 51.1868 20.8001 51.1456 21.0262 51.1464ZM60.7403 58.9696C61.1857 58.9696 61.6303 59.141 61.9704 59.4795L63.2008 60.7096C63.8811 61.3882 63.8827 62.4881 63.2041 63.1702 62.8648 63.5095 62.4159 63.68 61.9704 63.68 61.525 63.68 61.0796 63.511 60.7403 63.1735L59.5101 61.9433C58.8297 61.263 58.828 60.1615 59.5066 59.4795 59.8468 59.1393 60.2948 58.9696 60.7403 58.9696ZM52.849 64.2577C53.5273 64.2613 54.1676 64.6661 54.443 65.3316L55.1124 66.9357C55.483 67.8229 55.062 68.8403 54.1746 69.2092 53.9571 69.3014 53.7312 69.3451 53.5085 69.3451 52.8264 69.3451 52.1776 68.9411 51.9009 68.2712L51.2315 66.6672C50.8609 65.7798 51.282 64.7625 52.1694 64.3936 52.3909 64.301 52.623 64.2565 52.849 64.2577ZM34.1646 64.2645C34.3904 64.2627 34.6197 64.3057 34.8407 64.397 35.7281 64.7659 36.1494 65.7831 35.7822 66.6705L35.116 68.2779C34.8393 68.9478 34.1924 69.3519 33.5086 69.3519 33.2859 69.3519 33.06 69.3098 32.8425 69.2193 31.9551 68.8523 31.534 67.8349 31.9012 66.9458L32.5672 65.3384C32.8425 64.6728 33.4866 64.2699 34.1646 64.2645ZM43.5 66.12C44.4622 66.12 45.24 66.8978 45.24 67.86L45.24 69.6C45.24 70.5622 44.4622 71.34 43.5 71.34 42.5378 71.34 41.76 70.5622 41.76 69.6L41.76 67.86C41.76 66.8978 42.5378 66.12 43.5 66.12Z" fill="#FFFFFF" fill-rule="nonzero" fill-opacity="1" transform="matrix(1 0 0 1.01149 381 479)"/></g></g></g></g></g></svg>