<svg width="89" height="90" xmlns="http://www.w3.org/2000/svg" xmlns:xlink="http://www.w3.org/1999/xlink" xml:space="preserve" overflow="hidden"><g transform="translate(-497 -238)"><g><g><g><g><path d="M22.88 5.28C13.1824 5.28 5.28 13.1824 5.28 22.88L5.28 65.12C5.28 74.8176 13.1824 82.72 22.88 82.72L65.12 82.72C74.8176 82.72 82.72 74.8176 82.72 65.12L82.72 22.88C82.72 13.1824 74.8176 5.28 65.12 5.28L22.88 5.28ZM44.0035 17.5966C45.9466 17.5966 47.8896 18.2222 49.5035 19.4735L65.5188 31.8794C66.0732 32.3088 66.4384 32.864 66.6531 33.4641 67.1213 34.7788 66.8026 36.3164 65.6357 37.3072L63.8206 38.8404 60.8094 41.3806 51.6553 34.2857C49.4729 32.6137 46.7632 31.68 44 31.68 41.2368 31.68 38.5095 32.6137 36.3447 34.2857L33.8284 36.238 33.1753 36.7435C32.283 37.4317 32.2629 38.7702 33.1341 39.4865 33.766 40.0074 34.6727 40.0173 35.3204 39.5175L38.4896 37.0665C39.4928 36.2921 40.6375 35.7463 41.8343 35.4647 43.2599 35.1127 44.7401 35.1127 46.1657 35.4647 47.3449 35.7463 48.4864 36.2921 49.4896 37.0665L57.0935 42.9447 58.0628 43.701 49.7957 50.6894C48.129 52.0974 46.0645 52.8 44 52.8 41.9355 52.8 39.871 52.0974 38.2043 50.6894L29.9372 43.701 26.6063 40.889 22.3643 37.3037C22.1514 37.1242 21.9694 36.9271 21.811 36.7159 21.2179 35.9186 21.0232 34.9314 21.1957 34.0004 21.3453 33.1961 21.7666 32.4338 22.4847 31.8794L38.5035 19.4735C40.1174 18.2222 42.0605 17.5966 44.0035 17.5966ZM27.091 45.9043 35.9357 53.3775C38.1832 55.2747 41.0467 56.32 44 56.32 46.9533 56.32 49.8168 55.2747 52.0643 53.3775L60.9125 45.9043 65.5257 49.4725C67.2857 50.8453 67.336 53.4674 65.6288 54.9106L49.7888 68.2894C46.4624 71.1054 41.5376 71.1054 38.2112 68.2894L22.3712 54.9106C20.664 53.4674 20.7143 50.8453 22.4743 49.4725L27.091 45.9043Z" fill="#FFFFFF" fill-rule="nonzero" fill-opacity="1" transform="matrix(1 0 0 1.01136 498 239)"/></g></g></g></g></g></svg>