<svg width="100" height="100" xmlns="http://www.w3.org/2000/svg" xmlns:xlink="http://www.w3.org/1999/xlink" xml:space="preserve" overflow="hidden"><g transform="translate(-1038 -585)"><g><g><g><g><path d="M1121.28 654.188C1121.74 655.657 1121.53 657.203 1120.13 658.625 1117.89 660.893 1113.97 661.46 1113.48 661.926 1112.98 662.394 1112.77 664.169 1111.19 665.183 1109.61 666.198 1107.67 666.172 1106.67 666.248 1102.65 666.553 1101.6 666.739 1099.1 668.338 1098.29 668.853 1094.32 671.579 1088.5 671.579 1082.68 671.579 1078.71 668.855 1077.9 668.338 1075.4 666.74 1074.35 666.554 1070.33 666.248 1069.34 666.172 1067.39 666.198 1065.81 665.183 1064.23 664.169 1064.02 662.394 1063.52 661.926 1063.03 661.459 1059.11 660.893 1056.87 658.625 1055.47 657.203 1055.26 655.657 1055.72 654.188 1056.32 652.254 1058.44 651.585 1059.66 650.886 1066.36 647.054 1067.43 643.393 1067.74 642.849 1067.87 642.631 1068.19 641.903 1067.47 641.322 1066.82 640.784 1063.3 639.076 1061.82 636.504 1061.06 635.169 1060.86 633.134 1061.55 631.712 1062.65 629.439 1064.49 628.114 1067.03 628.114 1067.96 628.114 1068.9 628.353 1069.04 628.384 1069.08 626.919 1069.09 625.221 1069.18 623.69 1069.58 617.291 1074.95 606.625 1088.5 606.625 1102.05 606.625 1107.42 617.291 1107.82 623.689 1107.91 625.221 1107.91 626.917 1107.96 628.383 1108.1 628.351 1109.04 628.112 1109.97 628.112 1112.51 628.112 1114.35 629.438 1115.45 631.711 1116.14 633.132 1115.94 635.167 1115.18 636.502 1113.7 639.075 1110.18 640.783 1109.53 641.32 1108.81 641.902 1109.13 642.629 1109.26 642.848 1109.57 643.39 1110.64 647.053 1117.34 650.885 1118.56 651.585 1120.68 652.254 1121.28 654.188Z" fill="#FFFFFF" fill-rule="nonzero" fill-opacity="1"/></g></g></g></g></g></svg>