<svg width="160" height="128" xmlns="http://www.w3.org/2000/svg" xmlns:xlink="http://www.w3.org/1999/xlink" xml:space="preserve" overflow="hidden"><g transform="translate(-566 -581)"><g><g><g><g><path d="M27.6324 63.5744 29.0711 79.6975 27.6324 96.6391C27.558 97.2592 27.0867 97.7305 26.541 97.7305 25.9953 97.7305 25.4992 97.2592 25.4992 96.6391L24.1102 79.6975 25.4992 63.5744C25.4992 63.0287 25.9705 62.5326 26.541 62.5326 27.0867 62.5326 27.558 63.0287 27.6324 63.5744ZM32.9406 52.2635C32.2461 52.2635 31.7748 52.8092 31.7004 53.5037L30.4602 79.6975 31.7004 96.6391C31.7748 97.3336 32.2461 97.8793 32.9406 97.8793 33.5607 97.8793 34.1064 97.3336 34.1064 96.6391L35.5451 79.6975 34.1064 53.5037C34.1064 52.8092 33.5607 52.2635 32.9406 52.2635ZM39.2658 46.2855C38.4969 46.2855 37.9512 46.8312 37.8768 47.6002L36.7854 79.8463 37.8768 96.6639C37.9512 97.4328 38.4969 97.9785 39.2658 97.9785 39.9604 97.9785 40.5805 97.4328 40.5805 96.6639L41.8951 79.8463 40.5805 47.6002C40.5805 46.8312 39.9604 46.2855 39.2658 46.2855ZM1.78594 70.2469C1.43867 70.2469 1.24023 70.5197 1.16582 70.867L0 79.6975 1.16582 88.3791C1.24023 88.7264 1.43867 88.9992 1.78594 88.9992 2.1332 88.9992 2.33164 88.7264 2.40605 88.3791L3.79512 79.6975 2.40605 70.867C2.33164 70.5197 2.1332 70.2469 1.78594 70.2469ZM7.63984 64.8146C7.29258 64.8146 7.01973 65.0875 7.01973 65.4348L5.43223 79.6975 7.01973 93.6129C7.01973 94.0346 7.29258 94.3074 7.63984 94.3074 7.98711 94.3074 8.25996 94.0346 8.33437 93.6873L10.1203 79.6975 8.33437 65.4348C8.25996 65.0875 7.98711 64.8146 7.63984 64.8146ZM13.9154 61.9869C13.4938 61.9869 13.1465 62.3342 13.0969 62.8055L11.6582 79.6975 13.0969 96.0189C13.1713 96.4406 13.5186 96.7879 13.9154 96.7879 14.3371 96.7879 14.6844 96.4406 14.6844 96.0189L16.3959 79.6975 14.6844 62.8055C14.6844 62.3342 14.3371 61.9869 13.9154 61.9869ZM20.191 61.4412C19.7197 61.4412 19.298 61.7885 19.298 62.3342L17.8594 79.6975 19.298 96.515C19.298 97.0607 19.7197 97.408 20.191 97.408 20.6623 97.408 21.084 97.0607 21.1584 96.515L22.7459 79.6975 21.1584 62.3342C21.084 61.7885 20.6623 61.4412 20.191 61.4412ZM80.0695 33.9328C79.7967 33.7344 79.375 33.5855 79.0277 33.5855 78.482 33.5855 77.9859 33.784 77.6387 34.0568 77.1674 34.4785 76.8697 35.0986 76.8201 35.7188L76.8201 35.9172 76.0016 79.7471 76.4232 87.8086 76.8449 95.6717C76.9193 96.8375 77.8867 97.8049 79.0525 97.8049 80.2184 97.8049 81.1857 96.8375 81.1857 95.6717L82.1531 79.7471 81.1857 35.7188C81.0865 34.9746 80.6896 34.2801 80.0695 33.9328ZM73.4467 37.7279C73.0994 37.5295 72.7521 37.3807 72.3553 37.3807 71.9584 37.3807 71.5863 37.5295 71.2639 37.7279 70.7182 38.0752 70.3709 38.6953 70.3709 39.3898L70.2965 39.8115 69.602 79.6975C69.602 79.6975 69.602 79.7719 70.3709 95.9693L70.3709 96.0438C70.3709 96.4654 70.5197 96.8623 70.7926 97.2096 71.2143 97.6809 71.76 97.9785 72.3801 97.9785 72.9258 97.9785 73.4219 97.7057 73.7691 97.3584 74.1908 97.0111 74.3893 96.5398 74.3893 95.9693L74.4637 94.3074 75.2326 79.7719 74.4141 39.3898C74.3397 38.6953 73.9924 38.0752 73.4467 37.7279ZM45.8143 43.309C45.0453 43.309 44.3756 44.0035 44.3756 44.8221L43.2842 79.6975 44.3756 96.3662C44.45 97.1848 45.0701 97.8049 45.8143 97.8049 46.6328 97.8049 47.2529 97.1848 47.3273 96.3662L48.5676 79.6975 47.3273 44.8221C47.2777 44.0035 46.6576 43.309 45.8143 43.309ZM139.254 58.8863C136.575 58.8863 134.02 59.432 131.663 60.3994 130.076 42.8377 115.342 29.0463 97.3584 29.0463 92.9432 29.0463 88.6768 29.8648 84.8816 31.3779 83.3686 31.9236 82.9469 32.4693 82.9469 33.66L82.9469 95.5973C82.9469 96.8375 83.9143 97.7305 85.0801 97.8793L139.229 97.8793C149.969 97.8793 158.725 89.1977 158.725 78.4572 158.75 67.6424 149.994 58.8863 139.254 58.8863ZM65.658 43.9291C64.6162 43.9291 63.7977 44.7477 63.7232 45.8639L62.9047 79.7719 63.7232 96.0438C63.7977 97.0855 64.6162 97.9041 65.658 97.9041 66.6998 97.9041 67.5184 97.0855 67.5184 96.0438L68.4857 79.7719 67.5184 45.8639C67.4439 44.7477 66.6998 43.9291 65.658 43.9291ZM52.3627 41.9943C51.5441 41.9943 50.7752 42.7633 50.7752 43.6562L49.8078 79.6975 50.7752 96.2918C50.8496 97.1848 51.5441 97.8793 52.3627 97.8793 53.2557 97.8793 53.9502 97.1848 54.0246 96.2918L55.116 79.6975 54.0246 43.6562C53.9502 42.7633 53.2557 41.9943 52.3627 41.9943ZM58.9855 42.8377C58.0182 42.8377 57.274 43.6066 57.274 44.5492L56.3066 79.6975 57.274 96.1678C57.3484 97.1352 58.043 97.8793 58.9855 97.8793 59.9281 97.8793 60.6971 97.1104 60.6971 96.1678L61.7389 79.6975 60.6971 44.5492C60.6971 43.5818 59.9529 42.8377 58.9855 42.8377Z" fill="#FFFFFF" fill-rule="nonzero" fill-opacity="1" transform="matrix(1.00157 0 0 1 567 582)"/></g></g></g></g></g></svg>