<svg width="100" height="102" xmlns="http://www.w3.org/2000/svg" xmlns:xlink="http://www.w3.org/1999/xlink" xml:space="preserve" overflow="hidden"><defs><clipPath id="clip0"><rect x="109" y="92" width="100" height="102"/></clipPath><clipPath id="clip1"><rect x="109" y="92" width="100" height="102"/></clipPath><clipPath id="clip2"><rect x="110" y="92" width="99" height="102"/></clipPath><clipPath id="clip3"><rect x="110" y="92" width="99" height="102"/></clipPath><clipPath id="clip4"><rect x="110" y="92" width="99" height="102"/></clipPath></defs><g clip-path="url(#clip0)" transform="translate(-109 -92)"><g clip-path="url(#clip1)"><g clip-path="url(#clip2)"><g clip-path="url(#clip3)"><g clip-path="url(#clip4)"><path d="M49.4062 1.59375C22.1332 1.59375 0 23.727 0 51 0 78.273 22.1332 100.406 49.4062 100.406 76.6793 100.406 98.8125 78.273 98.8125 51 98.8125 23.727 76.6793 1.59375 49.4062 1.59375ZM69.4676 74.2887C68.6309 74.2887 68.1129 74.0297 67.3359 73.5715 54.9047 66.0809 40.4414 65.7621 26.1574 68.6906 25.3805 68.8898 24.3645 69.2086 23.7867 69.2086 21.8543 69.2086 20.6391 67.6746 20.6391 66.0609 20.6391 64.009 21.8543 63.0328 23.3484 62.7141 39.6645 59.1082 56.3391 59.427 70.5633 67.9336 71.7785 68.7105 72.4957 69.4078 72.4957 71.2207 72.4957 73.0336 71.0812 74.2887 69.4676 74.2887ZM74.8266 61.2199C73.7906 61.2199 73.0934 60.7617 72.3762 60.3832 59.925 53.0121 41.3578 50.0438 24.8426 54.5262 23.8863 54.7852 23.3684 55.0441 22.4719 55.0441 20.3402 55.0441 18.607 53.3109 18.607 51.1793 18.607 49.0477 19.643 47.6332 21.6949 47.0555 27.2332 45.5016 32.891 44.3461 41.1785 44.3461 54.1078 44.3461 66.5988 47.5535 76.4402 53.4105 78.0539 54.3668 78.6914 55.602 78.6914 57.3352 78.6715 59.4867 76.998 61.2199 74.8266 61.2199ZM81.0023 46.0395C79.9664 46.0395 79.3289 45.7805 78.4324 45.2625 64.248 36.7957 38.8875 34.7637 22.4719 39.3457 21.7547 39.5449 20.8582 39.8637 19.902 39.8637 17.2723 39.8637 15.2602 37.8117 15.2602 35.1621 15.2602 32.4527 16.9336 30.9187 18.7266 30.4008 25.7391 28.3488 33.5883 27.3727 42.1348 27.3727 56.6777 27.3727 71.918 30.4008 83.0543 36.8953 84.6082 37.7918 85.6242 39.027 85.6242 41.3977 85.6242 44.107 83.4328 46.0395 81.0023 46.0395Z" fill="#FFFFFF" fill-rule="nonzero" fill-opacity="1" transform="matrix(1.0019 0 0 1 110 92)"/></g></g></g></g></g></svg>