<svg width="112" height="111" xmlns="http://www.w3.org/2000/svg" xmlns:xlink="http://www.w3.org/1999/xlink" xml:space="preserve" overflow="hidden"><g transform="translate(-676 1)"><g><g><g><g><path d="M75.625 20.625C64.4383 20.625 55.3255 29.5769 55.0268 40.6928L42.4115 58.7262C41.4765 58.5492 40.5168 58.4375 39.5312 58.4375 36.2715 58.4375 33.2531 59.4612 30.7562 61.1903L13.75 54.4631 13.75 72.9462 24.4251 77.1691C25.9289 84.1345 32.1233 89.375 39.5312 89.375 47.1061 89.375 53.3992 83.8925 54.7181 76.6923L74.5642 61.8214C74.9176 61.8392 75.2672 61.875 75.625 61.875 86.9997 61.875 96.25 52.6247 96.25 41.25 96.25 29.8753 86.9997 20.625 75.625 20.625ZM75.625 27.5C83.2081 27.5 89.375 33.6669 89.375 41.25 89.375 48.8331 83.2081 55 75.625 55 68.0419 55 61.875 48.8331 61.875 41.25 61.875 33.6669 68.0419 27.5 75.625 27.5ZM75.625 30.9375C69.9294 30.9375 65.3125 35.5544 65.3125 41.25 65.3125 46.9456 69.9294 51.5625 75.625 51.5625 81.3206 51.5625 85.9375 46.9456 85.9375 41.25 85.9375 35.5544 81.3206 30.9375 75.625 30.9375ZM39.5312 61.875C46.1656 61.875 51.5625 67.2719 51.5625 73.9062 51.5625 80.5406 46.1656 85.9375 39.5312 85.9375 34.6455 85.9375 30.4499 82.9998 28.5675 78.8074L36.3691 81.8957C37.4072 82.3082 38.4725 82.5069 39.5244 82.5069 42.9481 82.5069 46.1869 80.4509 47.5207 77.0753 49.2704 72.6615 47.1072 67.6631 42.6934 65.9168L34.8652 62.8148C36.3003 62.2088 37.8778 61.875 39.5312 61.875Z" fill="#FFFFFF" fill-rule="nonzero" fill-opacity="1" transform="matrix(1 0 0 1.00909 677 -1)"/></g></g></g></g></g></svg>