<svg width="240" height="240" xmlns="http://www.w3.org/2000/svg" xmlns:xlink="http://www.w3.org/1999/xlink" xml:space="preserve" overflow="hidden"><g><g><path d="M24 120C24 66.928 66.928 24 120 24 173.072 24 216 66.928 216 120 216 173.072 173.072 216 120 216 66.928 216.296 24 173.064 24 120ZM120 184.096C155.48 184.096 184.096 155.472 184.096 120 184.096 84.528 155.48 55.896 120 55.896 84.52 55.896 55.904 84.52 55.904 120 55.904 155.48 84.52 184.096 120 184.096ZM151.904 120C151.904 137.592 137.592 151.904 120 151.904 102.408 151.904 88.096 137.592 88.096 120 88.096 102.408 102.408 88.096 120 88.096 137.592 88.096 151.904 102.408 151.904 120Z" fill="#FFFFFF" fill-rule="nonzero" fill-opacity="1"/></g></g></svg>