<svg width="720" height="720" xmlns="http://www.w3.org/2000/svg" xmlns:xlink="http://www.w3.org/1999/xlink" xml:space="preserve" overflow="hidden"><defs><clipPath id="clip0"><rect x="280" y="0" width="720" height="720"/></clipPath><clipPath id="clip1"><rect x="280" y="0" width="720" height="720"/></clipPath></defs><g clip-path="url(#clip0)" transform="translate(-280 0)"><g clip-path="url(#clip1)"><path d="M640 160.898 714.295 70.0875C714.295 70.0875 841.555 72.7875 968.365 131.738 935.897 180.832 871.458 204.862 871.458 204.862 867.115 161.73 836.897 151.2 740.8 151.2L640.022 720.022 538.547 151.088C443.147 151.088 412.93 161.64 408.587 204.75 408.587 204.75 344.125 180.967 311.68 131.85 438.467 72.9 565.75 70.2 565.75 70.2L640.045 160.898 639.932 160.898ZM640 43.9425C742.42 42.9975 859.735 59.76 979.84 112.252 995.905 83.1825 1000 70.425 1000 70.425 868.758 18.3825 745.818 0.4725 640 0 534.182 0.4725 411.242 18.2925 280 70.425 280 70.425 285.85 86.2425 300.16 112.387 420.288 59.6475 537.58 43.02 640 43.83Z" fill="#FFFFFF" fill-rule="nonzero" fill-opacity="1"/></g></g></svg>