<svg width="66" height="74" xmlns="http://www.w3.org/2000/svg" xmlns:xlink="http://www.w3.org/1999/xlink" xml:space="preserve" overflow="hidden"><g transform="translate(-308 -12)"><g><g><g><g><path d="M64.75 30.3386C58.387 30.3537 52.18 28.3693 47.0059 24.6657L47.0059 50.4963C47.0011 63.4715 36.4788 73.986 23.5037 73.9812 10.5286 73.9764 0.0140289 63.4543 0.0187934 50.4791 0.0235577 37.504 10.5458 26.9893 23.521 26.9941 24.5972 26.9945 25.6722 27.0688 26.7383 27.2167L26.7383 40.2086C21.0563 38.4213 15.0015 41.5786 13.2142 47.2606 11.427 52.9424 14.5842 58.9974 20.2662 60.7845 25.9481 62.5718 32.003 59.4145 33.7903 53.7327 34.1196 52.6854 34.2871 51.594 34.2871 50.4963L34.2871 0 47.0059 0C46.9971 1.07407 47.0871 2.14668 47.2747 3.20426 48.1679 7.9757 50.986 12.169 55.0664 14.7986 57.9388 16.6978 61.3064 17.7101 64.75 17.7094Z" fill="#FFFFFF" fill-rule="nonzero" fill-opacity="1" transform="matrix(1.00386 0 0 1 309 12)"/></g></g></g></g></g></svg>