<svg width="461" height="464" xmlns="http://www.w3.org/2000/svg" xmlns:xlink="http://www.w3.org/1999/xlink" xml:space="preserve" overflow="hidden"><g transform="translate(-740 -144)"><g><g><g><g><path d="M405.125 189.821C365.313 189.916 326.478 177.5 294.104 154.327L294.104 315.943C294.074 397.126 228.239 462.912 147.057 462.882 65.8749 462.852 0.0877754 397.018 0.117586 315.835 0.147395 234.653 65.9825 168.865 147.165 168.896 153.899 168.898 160.625 169.363 167.295 170.288L167.295 251.575C131.744 240.393 93.8607 260.147 82.678 295.698 71.496 331.248 91.2498 369.132 126.801 380.314 162.351 391.497 200.235 371.742 211.418 336.192 213.478 329.64 214.526 322.811 214.526 315.943L214.526 0 294.104 0C294.049 6.72019 294.613 13.4313 295.786 20.0483 301.375 49.902 319.007 76.1385 344.537 92.5912 362.509 104.474 383.579 110.808 405.125 110.803Z" fill="#FFFFFF" fill-rule="nonzero" fill-opacity="1" transform="matrix(1.00021 0 0 1 770.587 145)"/></g></g></g></g></g></svg>