<svg width="149" height="151" xmlns="http://www.w3.org/2000/svg" xmlns:xlink="http://www.w3.org/1999/xlink" xml:space="preserve" overflow="hidden"><g transform="translate(-364 -193)"><g><g><g><g><path d="M55.5 58.9122C76.3125 52.3036 79.6261 32.9403 76.9744 15.9655 76.9292 15.6777 77.0587 15.0097 77.6363 15.3036 98.5125 25.9699 120.25 46.0301 120.25 78.0741 120.25 101.859 101.421 123.333 74 123.333 44.2664 123.333 27.75 102.521 27.75 77.7452 27.75 62.8794 37.5879 48.2377 48.9757 41.5284 49.6026 41.1584 50.2131 41.5921 50.2213 42.254 50.2912 47.9376 52.9943 56.5339 55.5 58.9122Z" fill="#FFFFFF" fill-rule="nonzero" fill-opacity="1" transform="matrix(1 0 0 1.00676 365 194)"/></g></g></g></g></g></svg>