<svg width="421" height="421" xmlns="http://www.w3.org/2000/svg" xmlns:xlink="http://www.w3.org/1999/xlink" xml:space="preserve" overflow="hidden"><g transform="translate(-692 -197)"><g><g><g><path d="M670.648 929.166 642.281 1004.63 642.281 1288.84 736.482 1288.84 736.482 1340.23 799.905 1340.23 851.288 1288.84 928.361 1288.84 1036.21 1181.26 1036.21 929.166ZM719.355 971.985 993.394 971.985 993.394 1160.39 942.012 1211.77 839.247 1211.77 787.865 1263.15 787.865 1211.77 719.355 1211.77ZM796.428 1031.93 796.428 1151.82 847.811 1151.82 847.811 1031.93ZM882.066 1031.93 882.066 1151.82 933.448 1151.82 933.448 1031.93Z" fill="#FFFFFF" fill-rule="nonzero" fill-opacity="1" transform="matrix(1 0 0 1.00088 64.0966 -727.381)"/></g></g></g></g></svg>