<svg width="134" height="134" xmlns="http://www.w3.org/2000/svg" xmlns:xlink="http://www.w3.org/1999/xlink" xml:space="preserve" overflow="hidden"><g transform="translate(-510 -124)"><g><g><g><g><path d="M627.375 161.289C624.733 165.247 621.39 168.726 617.539 171.519 617.576 172.366 617.594 173.22 617.594 174.075 617.594 200.184 597.777 230.292 561.527 230.292 550.398 230.292 535.893 226.383 531.319 221.416 532.864 221.6 534.434 221.693 536.022 221.693 545.257 221.693 553.756 218.532 560.496 213.233 551.873 213.074 544.595 207.358 542.087 199.508 546.01 200.125 550.987 199.168 550.987 199.168 550.987 199.168 535.577 196.515 535.178 179.547 539.634 182.136 544.104 182.018 544.104 182.018 544.104 182.018 535.217 176.532 535.341 165.576 535.413 159.113 538.005 155.638 538.005 155.638 554.842 176.429 578.623 176.286 578.623 176.286 578.623 176.286 578.113 173.334 578.113 171.786 578.113 160.877 586.934 152.027 597.818 152.027 603.485 152.027 608.605 154.428 612.2 158.268 616.693 157.378 620.912 155.734 624.717 153.471 622.997 160.374 616.053 164.403 616.053 164.403 616.053 164.403 622 163.738 627.375 161.289Z" fill="#FFFFFF" fill-rule="nonzero" fill-opacity="1"/></g></g></g></g></g></svg>