<svg width="464" height="465" xmlns="http://www.w3.org/2000/svg" xmlns:xlink="http://www.w3.org/1999/xlink" xml:space="preserve" overflow="hidden"><g transform="translate(-633 -129)"><g><g><g><path d="M2955.35 759.778C2942.91 778.423 2927.16 794.811 2909.02 807.968 2909.19 811.958 2909.28 815.981 2909.28 820.009 2909.28 942.999 2815.93 1084.83 2645.16 1084.83 2592.74 1084.83 2524.41 1066.41 2502.86 1043.02 2510.14 1043.88 2517.54 1044.32 2525.02 1044.32 2568.52 1044.32 2608.56 1029.43 2640.31 1004.47 2599.69 1003.72 2565.4 976.794 2553.59 939.815 2572.07 942.721 2595.51 938.213 2595.51 938.213 2595.51 938.213 2522.92 925.716 2521.04 845.785 2542.03 857.981 2563.09 857.425 2563.09 857.425 2563.09 857.425 2521.23 831.583 2521.81 779.973 2522.15 749.528 2534.36 733.158 2534.36 733.158 2613.67 831.097 2725.7 830.424 2725.7 830.424 2725.7 830.424 2723.29 816.518 2723.29 809.226 2723.29 757.837 2764.85 716.148 2816.12 716.148 2842.81 716.148 2866.93 727.458 2883.87 745.547 2905.03 741.355 2924.91 733.61 2942.83 722.95 2934.73 755.468 2902.02 774.447 2902.02 774.447 2902.02 774.447 2930.03 771.314 2955.35 759.778Z" fill="#FFFFFF" fill-rule="nonzero" fill-opacity="1" transform="matrix(1 0 0 1.00215 -1862.64 -542.47)"/></g></g></g></g></svg>