<svg width="96" height="96" xmlns="http://www.w3.org/2000/svg" xmlns:xlink="http://www.w3.org/1999/xlink" xml:space="preserve" overflow="hidden"><g transform="translate(-242 -88)"><g><g><g><g><path d="M27.26 37.6C26.7387 37.6 26.32 38.0187 26.32 38.54L26.32 55.46C26.32 55.9813 26.7387 56.4 27.26 56.4L39.48 56.4C41.7492 56.4 45.12 54.8945 45.12 50.76 45.12 48.3587 43.9743 46.8678 42.5863 46.0233 42.983 45.2668 43.24 44.3563 43.24 43.24 43.24 39.1055 39.8692 37.6 37.6 37.6ZM53.58 37.6C53.0587 37.6 52.64 38.0187 52.64 38.54L52.64 55.46C52.64 55.9813 53.0587 56.4 53.58 56.4L67.467 56.4C67.6727 56.4 67.871 56.2825 67.9663 56.0842L69.538 52.9043C69.604 52.7868 69.516 52.64 69.3763 52.64L56.4 52.64 56.4 49.82C56.4 49.2987 56.8187 48.88 57.34 48.88L63.685 48.88C63.898 48.88 64.0888 48.7625 64.1843 48.5642L65.778 45.3917C65.844 45.2668 65.7487 45.12 65.6163 45.12L56.4 45.12 56.4 41.36 67.4157 41.36C67.6213 41.36 67.8122 41.2425 67.915 41.0588L69.538 37.8717C69.604 37.7468 69.516 37.6 69.3763 37.6ZM76.1327 37.6C75.6113 37.6 75.2 38.0187 75.2 38.54L75.2 55.8345C75.2 56.143 75.457 56.4 75.7655 56.4L78.96 56.4 78.96 52.64C78.96 51.6045 79.8045 50.76 80.84 50.76L86.4507 50.76 89.6452 56.1137C89.748 56.2898 89.9315 56.4 90.1298 56.4L93.8163 56.4C93.956 56.4 94.044 56.2458 93.9707 56.1137L90.4383 50.1212C92.6562 49.1443 94 47.0367 94 44.18 94 40.185 91.415 37.6 87.42 37.6ZM0.565468 37.7395C0.257032 37.7395 0 37.9965 0 38.305L0 48.88C0 51.722 1.96813 57.105 9.4 57.105 16.8319 57.105 18.8 51.722 18.8 48.88L18.8 37.7395 15.6055 37.7395C15.297 37.7395 15.04 37.9965 15.04 38.305L15.04 48.858C15.0253 49.607 14.6875 53.345 9.4 53.345 4.1125 53.345 3.77468 49.6143 3.76 48.88L3.76 37.7395ZM30.08 41.36 37.578 41.36C38.4445 41.382 39.48 41.7272 39.48 43.24 39.48 44.6427 38.5913 45.0392 37.791 45.1127 37.6882 45.1127 37.644 45.1127 37.578 45.12L30.08 45.12ZM78.96 41.36 87.42 41.36C89.9463 41.36 90.24 42.9683 90.24 44.18 90.24 45.3917 89.9463 47 87.42 47L78.96 47ZM31.02 48.88 39.458 48.88C40.3245 48.902 41.36 49.2472 41.36 50.76 41.36 52.2728 40.3245 52.618 39.458 52.64L30.08 52.64 30.08 49.82C30.08 49.2987 30.4987 48.88 31.02 48.88Z" fill="#FFFFFF" fill-rule="nonzero" fill-opacity="1" transform="matrix(1.01064 0 0 1 243 89)"/></g></g></g></g></g></svg>