<svg width="82" height="85" xmlns="http://www.w3.org/2000/svg" xmlns:xlink="http://www.w3.org/1999/xlink" xml:space="preserve" overflow="hidden"><defs><clipPath id="clip0"><rect x="436" y="152" width="82" height="85"/></clipPath><clipPath id="clip1"><rect x="436" y="152" width="82" height="85"/></clipPath><clipPath id="clip2"><rect x="437" y="152" width="81" height="85"/></clipPath><clipPath id="clip3"><rect x="437" y="152" width="81" height="85"/></clipPath></defs><g clip-path="url(#clip0)" transform="translate(-436 -152)"><g clip-path="url(#clip1)"><g clip-path="url(#clip2)"><g clip-path="url(#clip3)"><path d="M51.0075 21.8603C34.9984 21.8603 21.8603 34.9984 21.8603 51.0075L21.8603 123.875C21.8603 139.884 34.9984 153.022 51.0075 153.022L123.875 153.022C139.884 153.022 153.022 139.884 153.022 123.875L153.022 51.0075C153.022 34.9984 139.884 21.8603 123.875 21.8603L51.0075 21.8603ZM51.0075 36.4339 123.875 36.4339C132.015 36.4339 138.449 42.8681 138.449 51.0075L138.449 123.875C138.449 132.015 132.015 138.449 123.875 138.449L51.0075 138.449C42.8681 138.449 36.4339 132.015 36.4339 123.875L36.4339 51.0075C36.4339 42.8681 42.8681 36.4339 51.0075 36.4339ZM78.3329 49.1858 51.9183 52.8292 63.7593 125.697 93.8173 125.697C140.271 61.9376 119.321 49.1858 119.321 49.1858 119.321 49.1858 101.104 52.8292 95.639 53.74 103.837 74.6895 84.7088 102.015 84.7088 102.015L78.3329 49.1858Z" fill="#FFFFFF" fill-rule="nonzero" fill-opacity="1" transform="matrix(1.00361 0 0 1 388.946 107.059)"/></g></g></g></g></svg>