<svg width="580" height="581" xmlns="http://www.w3.org/2000/svg" xmlns:xlink="http://www.w3.org/1999/xlink" xml:space="preserve" overflow="hidden"><g transform="translate(-564 -64)"><g><path d="M5882.84 2304.05 5882.84 2601.5C5882.84 2676.05 5822.19 2736.71 5747.64 2736.71L5450.18 2736.71C5375.63 2736.71 5314.98 2676.05 5314.98 2601.5L5314.98 2304.05C5314.98 2229.49 5375.63 2168.84 5450.18 2168.84L5747.64 2168.84C5822.19 2168.84 5882.84 2229.49 5882.84 2304.05ZM5700.32 2290.53C5657.99 2290.53 5621.63 2316.48 5606.49 2353.4 5628.66 2362.45 5647.85 2378.14 5661.11 2398.69 5708.16 2399.23 5748.45 2428.17 5765.75 2469.27 5787.79 2450.75 5801.72 2422.89 5801.72 2391.93 5801.72 2335.96 5756.29 2290.53 5700.32 2290.53ZM5659.75 2425.73C5654.93 2425.73 5650.24 2426.22 5645.63 2426.98 5631.66 2394.44 5599.37 2371.65 5561.73 2371.65 5514.75 2371.65 5476.09 2407.17 5471.06 2452.8 5470.85 2452.8 5470.66 2452.77 5470.47 2452.77 5429.39 2452.77 5396.1 2486.06 5396.1 2527.14 5396.1 2528.65 5396.24 2530.14 5396.34 2531.64 5396.3 2532.41 5396.1 2533.13 5396.1 2533.9 5396.1 2571.23 5426.38 2601.5 5463.71 2601.5L5652.99 2601.5 5652.99 2601.16C5655.24 2601.33 5657.47 2601.5 5659.75 2601.5 5708.29 2601.5 5747.64 2562.15 5747.64 2513.62 5747.64 2465.08 5708.29 2425.73 5659.75 2425.73Z" fill="#FFFFFF" fill-rule="nonzero" fill-opacity="1" transform="matrix(1.00345 0 0 1 -4765.38 -2099.41)"/></g></g></svg>