<svg width="79" height="78" xmlns="http://www.w3.org/2000/svg" xmlns:xlink="http://www.w3.org/1999/xlink" xml:space="preserve" overflow="hidden"><g transform="translate(-606 -244)"><g><g><g><g><path d="M678.76 265.84 678.76 300.16C678.76 308.762 671.762 315.76 663.16 315.76L628.84 315.76C620.238 315.76 613.24 308.762 613.24 300.16L613.24 265.84C613.24 257.238 620.238 250.24 628.84 250.24L663.16 250.24C671.762 250.24 678.76 257.238 678.76 265.84ZM657.7 264.28C652.817 264.28 648.621 267.275 646.874 271.534 649.432 272.579 651.647 274.389 653.176 276.76 658.605 276.822 663.254 280.161 665.25 284.903 667.793 282.766 669.4 279.552 669.4 275.98 669.4 269.522 664.158 264.28 657.7 264.28ZM653.02 279.88C652.463 279.88 651.922 279.936 651.39 280.024 649.778 276.27 646.053 273.64 641.71 273.64 636.289 273.64 631.829 277.738 631.249 283.003 631.225 283.003 631.203 283 631.18 283 626.441 283 622.6 286.841 622.6 291.58 622.6 291.755 622.616 291.926 622.627 292.099 622.623 292.188 622.6 292.271 622.6 292.36 622.6 296.667 626.093 300.16 630.4 300.16L652.24 300.16 652.24 300.121C652.499 300.14 652.756 300.16 653.02 300.16 658.62 300.16 663.16 295.62 663.16 290.02 663.16 284.42 658.62 279.88 653.02 279.88Z" fill="#FFFFFF" fill-rule="nonzero" fill-opacity="1"/></g></g></g></g></g></svg>