<svg width="128" height="128" xmlns="http://www.w3.org/2000/svg" xmlns:xlink="http://www.w3.org/1999/xlink" xml:space="preserve" overflow="hidden"><g transform="translate(-1145 -568)"><g><g><g><g><path d="M1194.26 584.24C1170.45 584.24 1151.08 600.76 1151.08 621.07 1151.08 631.915 1156.31 641.668 1165.85 648.732L1159.16 668.834 1180.1 655.866C1185.92 657.692 1193.01 658.337 1199.86 657.583 1205.41 668.338 1217.96 675.68 1232.36 675.68 1236.74 675.68 1240.78 674.857 1244.54 673.735L1261.94 683.469 1257.09 666.83C1263.63 661.393 1267.92 653.822 1267.92 645.2 1267.92 629.424 1254.2 616.843 1236.81 614.988 1233.39 597.327 1215.51 584.24 1194.26 584.24ZM1179.02 604.56C1181.82 604.56 1184.1 606.842 1184.1 609.64 1184.1 612.438 1181.82 614.72 1179.02 614.72 1176.22 614.72 1173.94 612.438 1173.94 609.64 1173.94 606.842 1176.22 604.56 1179.02 604.56ZM1209.5 604.56C1212.3 604.56 1214.58 606.842 1214.58 609.64 1214.58 612.438 1212.3 614.72 1209.5 614.72 1206.7 614.72 1204.42 612.438 1204.42 609.64 1204.42 606.842 1206.7 604.56 1209.5 604.56ZM1232.36 619.8C1249.5 619.8 1262.84 631.319 1262.84 645.2 1262.84 652.711 1259.01 659.299 1252.69 663.982L1251.27 665.044 1253.58 672.971 1245.33 668.338 1244.26 668.695C1240.7 669.886 1236.65 670.6 1232.36 670.6 1215.22 670.6 1201.88 659.081 1201.88 645.2 1201.88 631.319 1215.22 619.8 1232.36 619.8ZM1220.93 635.04C1218.9 635.04 1217.12 636.816 1217.12 638.85 1217.12 640.884 1218.9 642.66 1220.93 642.66 1222.96 642.66 1224.74 640.884 1224.74 638.85 1224.74 636.816 1222.96 635.04 1220.93 635.04ZM1243.79 635.04C1241.76 635.04 1239.98 636.816 1239.98 638.85 1239.98 640.884 1241.76 642.66 1243.79 642.66 1245.82 642.66 1247.6 640.884 1247.6 638.85 1247.6 636.816 1245.82 635.04 1243.79 635.04Z" fill="#FFFFFF" fill-rule="nonzero" fill-opacity="1"/></g></g></g></g></g></svg>