<svg width="444" height="446" xmlns="http://www.w3.org/2000/svg" xmlns:xlink="http://www.w3.org/1999/xlink" xml:space="preserve" overflow="hidden"><g transform="translate(-612 -136)"><g><g><g><path d="M322.793 107.598C441.644 107.598 537.988 203.942 537.988 322.793 537.988 441.644 441.644 537.988 322.793 537.988 284.704 537.988 248.954 528.054 217.912 510.694L109.696 534.904 137.232 431.745C118.429 399.779 107.598 362.56 107.598 322.793 107.598 203.942 203.942 107.598 322.793 107.598ZM411.731 387.854C415.506 377.372 415.506 368.397 414.332 366.496 413.184 364.676 410.207 363.555 405.652 361.304 401.097 359.054 378.789 348.178 374.602 346.698 370.477 345.219 367.419 344.447 364.443 348.949 361.385 353.449 352.723 363.564 350.024 366.505 347.406 369.527 344.779 369.876 340.224 367.626 335.669 365.375 321.036 360.668 303.704 345.362 290.218 333.499 281.126 318.821 278.499 314.329 275.872 309.837 278.212 307.38 280.481 305.129 282.543 303.166 285.035 299.938 287.304 297.337 289.501 294.665 290.281 292.836 291.778 289.814 293.348 286.874 292.558 284.202 291.428 281.951 290.299 279.701 281.485 257.518 277.432 248.667 274.033 241.225 270.465 241.01 267.201 240.938 264.556 240.804 261.498 240.804 258.522 240.804 255.464 240.804 250.559 241.916 246.381 246.417 242.274 250.918 230.546 261.74 230.546 283.861 230.546 305.9 246.748 327.258 249.026 330.199 251.303 333.221 280.418 379.981 326.595 397.959 364.882 412.852 372.701 409.903 381.084 409.132 389.423 408.423 407.957 398.309 411.731 387.854Z" fill="#FFFFFF" fill-rule="nonzero" fill-opacity="1" transform="matrix(1.01373 0 0 1 506.957 37.1066)"/></g></g></g></g></svg>