<svg width="88" height="87" xmlns="http://www.w3.org/2000/svg" xmlns:xlink="http://www.w3.org/1999/xlink" xml:space="preserve" overflow="hidden"><g transform="translate(-16 -145)"><g><g><g><g><path d="M42.5 14.1667C58.1483 14.1667 70.8333 26.8517 70.8333 42.5 70.8333 58.1483 58.1483 70.8333 42.5 70.8333 37.485 70.8333 32.7781 69.5253 28.691 67.2397L14.4429 70.4272 18.0684 56.8449C15.5928 52.6362 14.1667 47.7358 14.1667 42.5 14.1667 26.8517 26.8517 14.1667 42.5 14.1667ZM54.2099 51.0661C54.7069 49.686 54.7069 48.5043 54.5523 48.254 54.4012 48.0144 54.0092 47.8668 53.4095 47.5705 52.8098 47.2742 49.8726 45.8422 49.3213 45.6474 48.7782 45.4526 48.3756 45.351 47.9837 45.9437 47.5811 46.5363 46.4407 47.868 46.0853 48.2552 45.7406 48.6531 45.3947 48.6991 44.795 48.4028 44.1953 48.1065 42.2686 47.4867 39.9866 45.4715 38.211 43.9096 37.014 41.977 36.6681 41.3856 36.3222 40.7941 36.6303 40.4706 36.929 40.1743 37.2005 39.9158 37.5287 39.4908 37.8274 39.1484 38.1166 38.7966 38.2193 38.5558 38.4165 38.1579 38.6231 37.7707 38.5192 37.4189 38.3704 37.1226 38.2217 36.8263 37.0612 33.9056 36.5276 32.7403 36.0801 31.7605 35.6103 31.7322 35.1806 31.7227 34.8323 31.705 34.4297 31.705 34.0378 31.705 33.6352 31.705 32.9894 31.8514 32.4393 32.444 31.8986 33.0367 30.3544 34.4616 30.3544 37.374 30.3544 40.2758 32.4877 43.0879 32.7876 43.4751 33.0874 43.873 36.9207 50.0296 43.0006 52.3966 48.0415 54.3575 49.071 53.9691 50.1748 53.8676 51.2727 53.7743 53.7129 52.4426 54.2099 51.0661Z" fill="#FFFFFF" fill-rule="nonzero" fill-opacity="1" transform="matrix(1.01176 0 0 1 17 146)"/></g></g></g></g></g></svg>