<svg width="550" height="551" xmlns="http://www.w3.org/2000/svg" xmlns:xlink="http://www.w3.org/1999/xlink" xml:space="preserve" overflow="hidden"><g transform="translate(-244 -138)"><g><g><g><g><path d="M901.117 227.947C894.84 204.311 876.345 185.696 852.862 179.379 810.297 167.9 639.618 167.9 639.618 167.9 639.618 167.9 468.94 167.9 426.374 179.379 402.891 185.697 384.397 204.311 378.119 227.947 366.714 270.788 366.714 360.173 366.714 360.173 366.714 360.173 366.714 449.558 378.119 492.399 384.397 516.035 402.891 533.874 426.374 540.192 468.94 551.671 639.618 551.671 639.618 551.671 639.618 551.671 810.296 551.671 852.862 540.192 876.345 533.874 894.84 516.035 901.117 492.399 912.522 449.558 912.522 360.173 912.522 360.173 912.522 360.173 912.522 270.788 901.117 227.947ZM583.797 441.328 583.797 279.018 726.45 360.175 583.797 441.328Z" fill="#FFFFFF" fill-rule="nonzero" fill-opacity="1" transform="matrix(1.00102 0 0 1 -121.263 51.4772)"/></g></g></g></g></g></svg>