<svg xmlns="http://www.w3.org/2000/svg"  viewBox="0 0 30 30" width="480px" height="480px"><path d="M 9 4 C 8.657 4 8.323 4.0355625 8 4.1015625 L 8 13.275391 C 7.646263 13.401511 7.3068564 13.555772 7 13.761719 L 7 4.421875 C 5.755 4.966875 4.7873594 6.0089688 4.3183594 7.2929688 L 6 8.4707031 L 6 14.611328 L 4 13.210938 L 4 21 C 4 23.049 5.236 24.806125 7 25.578125 L 7 21.238281 C 7.7157567 21.718662 8.5752393 22 9.5 22 C 10.424761 22 11.284243 21.718662 12 21.238281 L 12 26 L 21 26 C 21.369 26 21.726266 25.954906 22.072266 25.878906 L 13.361328 19.773438 C 13.757438 19.103628 14 18.332818 14 17.5 C 14 16.439688 13.615994 15.47704 13 14.707031 L 13 13.376953 L 25.794922 22.345703 C 25.915922 21.914703 26 21.469 26 21 L 26 15.974609 C 19.497 15.716609 14.283391 10.503 14.025391 4 L 12 4 L 12 13.761719 C 11.693144 13.555772 11.353737 13.401511 11 13.275391 L 11 4 L 9 4 z M 18.025391 4 C 18.275391 8.294 21.706 11.723609 26 11.974609 L 26 9 C 26 6.239 23.761 4 21 4 L 18.025391 4 z M 9.5 14 C 10.480989 14 11.364517 14.406452 12 15.056641 C 12.15425 15.214391 12.293344 15.385984 12.416016 15.570312 C 12.538687 15.754641 12.644031 15.951641 12.730469 16.158203 C 12.816906 16.364766 12.884141 16.580234 12.929688 16.804688 C 12.975072 17.029622 13 17.261689 13 17.5 C 13 17.738 12.975234 17.970859 12.929688 18.195312 C 12.884141 18.419766 12.816906 18.635234 12.730469 18.841797 C 12.644031 19.048359 12.538687 19.245359 12.416016 19.429688 C 12.293344 19.614016 12.15425 19.785609 12 19.943359 C 11.364517 20.593548 10.480989 21 9.5 21 C 8.5195528 21 7.6354091 20.59487 7 19.945312 C 6.9818906 19.926763 6.9688744 19.903706 6.9511719 19.884766 C 6.8180905 19.742375 6.6922542 19.592499 6.5839844 19.429688 C 6.4613125 19.245219 6.3559687 19.048422 6.2695312 18.841797 C 6.1830938 18.635172 6.1158594 18.419781 6.0703125 18.195312 C 6.0247656 17.970844 6 17.738 6 17.5 C 6 17.261689 6.0249282 17.029622 6.0703125 16.804688 C 6.1158594 16.580234 6.1830938 16.364766 6.2695312 16.158203 C 6.3559687 15.951641 6.4613125 15.754641 6.5839844 15.570312 C 6.7066562 15.385984 6.84575 15.214391 7 15.056641 C 7.6354827 14.406452 8.519011 14 9.5 14 z M 9.5253906 15.216797 C 9.4297656 15.216297 9.333875 15.271359 9.296875 15.380859 L 8.0136719 19.181641 C 7.9286719 19.436641 8.2455938 19.631453 8.4335938 19.439453 L 9.5273438 18.320312 L 10.5625 19.414062 C 10.7475 19.609063 11.070328 19.418109 10.986328 19.162109 L 9.7519531 15.382812 C 9.7164531 15.273312 9.6210156 15.217297 9.5253906 15.216797 z"/></svg>