<svg xmlns="http://www.w3.org/2000/svg"  viewBox="0 0 50 50" width="500px" height="500px"><path d="M 14 3.9902344 C 8.49 3.9902344 4 8.4802344 4 13.990234 L 4 35.990234 C 4 41.500234 8.49 45.990234 14 45.990234 L 36 45.990234 C 41.51 45.990234 46 41.500234 46 35.990234 L 46 13.990234 C 46 8.4802344 41.51 3.9902344 36 3.9902344 L 14 3.9902344 z M 14 5.9902344 L 36 5.9902344 C 40.41 5.9902344 44 9.5802344 44 13.990234 L 44 35.990234 C 44 40.400234 40.41 43.990234 36 43.990234 L 14 43.990234 C 9.59 43.990234 6 40.400234 6 35.990234 L 6 13.990234 C 6 9.5802344 9.59 5.9902344 14 5.9902344 z M 25 8 C 15.63 8 8 15.63 8 25 C 8 34.37 15.63 42 25 42 C 25.81 42 26.600859 41.940078 27.380859 41.830078 C 35.630859 40.670078 42 33.56 42 25 C 42 16.44 35.630859 9.3299219 27.380859 8.1699219 C 27.760859 8.6799219 28 9.32 28 10 C 28 10.85 27.640313 11.619922 27.070312 12.169922 C 33.260312 13.159922 38 18.53 38 25 C 38 31.47 33.260312 36.840078 27.070312 37.830078 C 26.390312 37.940078 25.7 38 25 38 C 17.83 38 12 32.17 12 25 C 12 17.83 17.83 12 25 12 C 26.1 12 27 11.1 27 10 C 27 8.9 26.1 8 25 8 z M 25 13 C 18.38 13 13 18.38 13 25 C 13 31.62 18.38 37 25 37 C 25.07 37 25.139219 37.000234 25.199219 36.990234 C 25.959219 36.990234 26.699922 36.899766 27.419922 36.759766 L 27.429688 36.759766 C 32.889688 35.629766 37 30.79 37 25 C 37 19.21 32.889688 14.370234 27.429688 13.240234 C 27.789688 13.740234 28 14.35 28 15 C 28 15.89 27.600469 16.7 26.980469 17.25 C 30.440469 18.14 33 21.28 33 25 C 33 28.72 30.440469 31.86 26.980469 32.75 C 26.350469 32.91 25.68 33 25 33 C 20.59 33 17 29.41 17 25 C 17 20.59 20.59 17 25 17 C 26.1 17 27 16.1 27 15 C 27 14.87 26.990937 14.749141 26.960938 14.619141 L 26.960938 14.599609 C 26.940938 14.489609 26.909141 14.389062 26.869141 14.289062 C 26.839141 14.199063 26.79 14.119063 26.75 14.039062 C 26.71 13.959063 26.659375 13.890313 26.609375 13.820312 C 26.489375 13.660313 26.359219 13.520391 26.199219 13.400391 C 26.189219 13.400391 26.189688 13.390859 26.179688 13.380859 C 26.109688 13.330859 26.029219 13.290234 25.949219 13.240234 C 25.809219 13.170234 25.659766 13.110312 25.509766 13.070312 C 25.409766 13.040312 25.309219 13.019766 25.199219 13.009766 C 25.139219 12.999766 25.07 13 25 13 z M 25 18 C 21.14 18 18 21.14 18 25 C 18 28.86 21.14 32 25 32 C 25.07 32 25.140937 32.000234 25.210938 31.990234 L 25.230469 31.990234 C 25.240469 31.990234 25.259531 31.990469 25.269531 31.980469 L 25.289062 31.980469 C 26.109063 31.960469 26.879609 31.790234 27.599609 31.490234 C 30.179609 30.460234 32 27.94 32 25 C 32 22.06 30.179609 19.539766 27.599609 18.509766 C 27.849609 18.949766 28 19.46 28 20 C 28 21.04 27.460156 21.96 26.660156 22.5 C 27.460156 23.04 28 23.96 28 25 C 28 26.04 27.460156 26.96 26.660156 27.5 C 26.180156 27.81 25.61 28 25 28 C 23.35 28 22 26.65 22 25 C 22 23.35 23.35 22 25 22 C 26.1 22 27 21.1 27 20 C 27 19.87 26.990937 19.749141 26.960938 19.619141 L 26.960938 19.599609 C 26.940938 19.489609 26.909141 19.389063 26.869141 19.289062 C 26.859141 19.269062 26.849844 19.240703 26.839844 19.220703 C 26.799844 19.120703 26.749219 19.029219 26.699219 18.949219 C 26.649219 18.869219 26.599062 18.800469 26.539062 18.730469 C 26.439063 18.610469 26.330703 18.509922 26.220703 18.419922 C 26.180703 18.379922 26.129844 18.360078 26.089844 18.330078 C 26.039844 18.300078 25.999219 18.270234 25.949219 18.240234 C 25.869219 18.200234 25.790937 18.170859 25.710938 18.130859 L 25.5 18.070312 C 25.44 18.050313 25.359063 18.029531 25.289062 18.019531 L 25.269531 18.019531 C 25.259531 18.009531 25.240469 18.009766 25.230469 18.009766 L 25.210938 18.009766 C 25.140938 17.999766 25.07 18 25 18 z"/></svg>