<svg xmlns="http://www.w3.org/2000/svg"  viewBox="0 0 72 72" width="512px" height="512px"><path d="M58.236,29.028c2.354,2.52,3.094,4.946,3.114,7.227c0.024,2.71-0.88,5.468-2.715,7.33L48.219,54.882	c-1.634,1.786-4.195,2.824-6.563,2.866L30,57.745c-3.629,0-6.62-2.96-6.621-2.959l-9.996-10.827	c-2.524-2.714-2.994-5.066-3.056-7.345c-0.076-2.809,1.253-5.674,2.866-7.288L28.3,14.162c2.259-2.258,5.181-3.15,7.686-3.169	c2.429-0.019,5.58,1.158,7.459,3.226L58.236,29.028z M26.357,37.976c0.256,0,0.501-0.102,0.682-0.282	c1.774-1.774,11.303-11.303,11.303-11.303c0.781-0.78,0.781-2.048,0-2.828s-2.048-0.781-2.828,0l-12,12	c-0.421,0.421-0.615,0.983-0.582,1.534c0.043,0.456,0.426,0.804,0.884,0.804C24.547,37.976,25.74,37.976,26.357,37.976z M32.253,43.067c0.23,0,0.613-0.254,0.613-0.254c0.001-0.001,5.147-5.147,5.148-5.148c0.781-0.781,0.001-2.827,0-2.828h-2.828	c-0.001,0.001-5.816,5.816-5.817,5.817c-0.462,0.462-0.65,1.094-0.566,1.695c0.071,0.384,0.406,0.662,0.796,0.662	C30.337,43.067,31.628,43.067,32.253,43.067z M39.969,45.399c0.781-0.781,0.781-2.048,0-2.828c-0.78-0.781-2.048-0.781-2.828,0	l-2.121,2.12c-0.46,0.46-0.649,1.09-0.566,1.689c0.06,0.328,0.345,0.566,0.679,0.566c0.788,0.038,2.305,0.038,2.949,0.038	c0.193,0,0.378-0.077,0.514-0.213C39.029,46.339,39.969,45.399,39.969,45.399z"/></svg>