<svg xmlns="http://www.w3.org/2000/svg"  viewBox="0 0 50 50" width="500px" height="500px"><path d="M 14 4 C 8.4886661 4 4 8.4886661 4 14 L 4 36 C 4 41.511334 8.4886661 46 14 46 L 36 46 C 41.511334 46 46 41.511334 46 36 L 46 14 C 46 8.4886661 41.511334 4 36 4 L 14 4 z M 14 6 L 36 6 C 40.430666 6 44 9.5693339 44 14 L 44 36 C 44 40.430666 40.430666 44 36 44 L 14 44 C 9.5693339 44 6 40.430666 6 36 L 6 14 C 6 9.5693339 9.5693339 6 14 6 z M 25 8 C 15.622998 8 8 15.623005 8 25 C 8 34.376995 15.622998 42 25 42 C 34.377002 42 42 34.376995 42 25 C 42 15.623005 34.377002 8 25 8 z M 25 10 C 27.378592 10 29.616939 10.567139 31.613281 11.548828 L 26.908203 20.384766 C 26.328334 20.163016 25.703119 20 25 20 C 24.296881 20 23.671666 20.163016 23.091797 20.384766 L 18.386719 11.548828 C 20.383061 10.567139 22.621408 10 25 10 z M 16.646484 12.535156 L 18.523438 16.058594 C 15.786004 18.060654 14 21.29005 14 24.933594 C 14 30.997001 18.936593 35.933594 25 35.933594 C 31.063407 35.933594 36 30.997001 36 24.933594 C 36 21.291021 34.215465 18.061341 31.478516 16.058594 L 33.353516 12.535156 C 37.364157 15.224992 40 19.798611 40 25 C 40 33.296117 33.296122 40 25 40 C 16.703878 40 10 33.296117 10 25 C 10 19.798611 12.635843 15.224992 16.646484 12.535156 z M 19.470703 17.837891 L 21.40625 21.474609 C 21.3631 21.519199 21.292967 21.539799 21.251953 21.585938 C 20.402014 22.542118 20 23.777778 20 25 C 20 26.222222 20.402014 27.457882 21.251953 28.414062 C 22.101892 29.370244 23.416667 30 25 30 C 26.583333 30 27.898108 29.370244 28.748047 28.414062 C 29.597986 27.457881 30 26.222222 30 25 C 30 23.777778 29.597986 22.542118 28.748047 21.585938 C 28.707037 21.539797 28.636904 21.519198 28.59375 21.474609 L 30.529297 17.837891 C 32.638642 19.484299 34 22.043884 34 24.933594 C 34 29.916187 29.982593 33.933594 25 33.933594 C 20.017407 33.933594 16 29.916187 16 24.933594 C 16 22.043123 17.36153 19.483653 19.470703 17.837891 z M 25 22 C 26.083333 22 26.768559 22.370244 27.251953 22.914062 C 27.735347 23.457881 28 24.222222 28 25 C 28 25.777778 27.735347 26.542118 27.251953 27.085938 C 26.768559 27.629756 26.083333 28 25 28 C 23.916667 28 23.231441 27.629756 22.748047 27.085938 C 22.264653 26.542119 22 25.777778 22 25 C 22 24.222222 22.264653 23.457882 22.748047 22.914062 C 23.231441 22.370244 23.916667 22 25 22 z"/></svg>