<svg xmlns="http://www.w3.org/2000/svg" xmlns:xlink="http://www.w3.org/1999/xlink" viewBox="0,0,256,256" width="480px" height="480px"><g fill="#000000" fill-rule="nonzero" stroke="none" stroke-width="1" stroke-linecap="butt" stroke-linejoin="miter" stroke-miterlimit="10" stroke-dasharray="" stroke-dashoffset="0" font-family="none" font-weight="none" font-size="none" text-anchor="none" style="mix-blend-mode: normal"><g transform="scale(5.33333,5.33333)"><path d="M24,22.5c0,-5.799 -4.701,-10.5 -10.5,-10.5c-5.799,0 -10.5,4.701 -10.5,10.5c0,0 0,0.339 0,0.5c0,0.552 0.448,1 1,1c0.552,0 20,0 20,0c0,0 0,-0.448 0,-1c0,-0.161 0,-0.5 0,-0.5z"></path><path d="M22.5,24c-5.799,0 -10.5,4.701 -10.5,10.5c0,5.799 4.701,10.5 10.5,10.5c0,0 0.339,0 0.5,0c0.552,0 1,-0.448 1,-1c0,-0.552 0,-20 0,-20c0,0 -0.448,0 -1,0c-0.161,0 -0.5,0 -0.5,0z"></path><path d="M24,25.5c0,5.799 4.701,10.5 10.5,10.5c5.799,0 10.5,-4.701 10.5,-10.5c0,0 0,-0.339 0,-0.5c0,-0.552 -0.448,-1 -1,-1c-0.552,0 -20,0 -20,0c0,0 0,0.448 0,1c0,0.161 0,0.5 0,0.5z"></path><path d="M25.5,24c5.799,0 10.5,-4.701 10.5,-10.5c0,-5.799 -4.701,-10.5 -10.5,-10.5c0,0 -0.339,0 -0.5,0c-0.552,0 -1,0.448 -1,1c0,0.552 0,20 0,20c0,0 0.448,0 1,0c0.161,0 0.5,0 0.5,0z"></path></g></g></svg>