<svg xmlns="http://www.w3.org/2000/svg" xmlns:xlink="http://www.w3.org/1999/xlink" viewBox="0,0,256,256" width="240px" height="240px"><defs><linearGradient x1="15.742" y1="3.242" x2="43.4" y2="30.9" gradientUnits="userSpaceOnUse" id="color-1"><stop offset="0" stop-color="#000000"></stop><stop offset="1" stop-color="#000000"></stop></linearGradient><linearGradient x1="-11.076" y1="18.79" x2="9.125" y2="38.99" gradientUnits="userSpaceOnUse" id="color-2"><stop offset="0" stop-color="#000000"></stop><stop offset="1" stop-color="#000000"></stop></linearGradient><linearGradient x1="-2.637" y1="10.351" x2="17.563" y2="30.551" gradientUnits="userSpaceOnUse" id="color-3"><stop offset="0" stop-color="#000000"></stop><stop offset="1" stop-color="#000000"></stop></linearGradient></defs><g fill="none" fill-rule="nonzero" stroke="none" stroke-width="1" stroke-linecap="butt" stroke-linejoin="miter" stroke-miterlimit="10" stroke-dasharray="" stroke-dashoffset="0" font-family="none" font-weight="none" font-size="none" text-anchor="none" style="mix-blend-mode: normal"><g transform="scale(5.33333,5.33333)"><path d="M12.999,6.445v19.111c0,1.901 1.544,3.445 3.445,3.445h24.111c1.901,0 3.445,-1.544 3.445,-3.445v-19.111c0,-1.901 -1.544,-3.445 -3.445,-3.445h-24.11c-1.902,-0.001 -3.446,1.543 -3.446,3.445z" fill="url(#color-1)"></path><path d="M3.999,43.501l0.001,-9.502l11.756,1.367l-9.185,9.184c-0.273,0.279 -0.653,0.451 -1.072,0.451c-0.827,0 -1.5,-0.674 -1.5,-1.5z" fill="url(#color-2)"></path><path d="M3.999,15.445v19.111c0,1.901 1.544,3.445 3.445,3.445h24.111c1.901,0 3.445,-1.544 3.445,-3.445v-5.56l-21.997,-16.997h-5.559c-1.901,0 -3.445,1.544 -3.445,3.446z" fill="url(#color-3)"></path><path d="M12.999,25.555v-13.556h18.556c1.901,0 3.445,1.544 3.445,3.445v13.556h-18.555c-1.902,0.001 -3.446,-1.543 -3.446,-3.445z" fill-opacity="0" fill="#ffffff"></path></g></g></svg>