<svg xmlns="http://www.w3.org/2000/svg"  viewBox="0 0 72 72" width="512px" height="512px"><path d="M62.991,18.668c1.854,1.2,2.386,3.677,1.186,5.531l-4.642,7.173C59.829,32.872,60,34.415,60,36	c0,13.25-10.75,24-24,24S12,49.25,12,36s10.75-24,24-24c5.99,0,11.46,2.2,15.67,5.83L37.48,39.76l-8.15-9.33	c-1.09-1.25-2.98-1.38-4.23-0.29c-1.25,1.09-1.38,2.98-0.29,4.23l10.76,12.34c0.58,0.65,1.4,1.03,2.26,1.03	c0.08,0,0.15-0.01,0.22-0.01c0.94-0.07,1.79-0.57,2.3-1.36l17.11-26.516C58.66,17.998,61.135,17.467,62.991,18.668z"/></svg>