<svg xmlns="http://www.w3.org/2000/svg"  viewBox="0 0 50 50" width="500px" height="500px"><path d="M 13.599609 5 C 8.8741552 5 5 8.8741552 5 13.599609 L 5 36.400391 C 5 41.125845 8.8741552 45 13.599609 45 L 20.740234 45 L 24.240234 49.083984 A 1.0001 1.0001 0 0 0 25.759766 49.083984 L 29.259766 45 L 36.400391 45 C 41.125845 45 45 41.125845 45 36.400391 L 45 13.599609 C 45 8.8741552 41.125845 5 36.400391 5 L 13.599609 5 z M 21 11 C 21.55 11 22 11.45 22 12 L 22 15 L 28 15 L 28 12 C 28 11.45 28.45 11 29 11 C 29.55 11 30 11.45 30 12 L 30 15 L 33 15 C 33.55 15 34 15.45 34 16 C 34 16.55 33.55 17 33 17 L 30 17 L 30 23 L 33 23 C 33.55 23 34 23.45 34 24 C 34 24.55 33.55 25 33 25 L 30 25 L 30 28 C 30 28.55 29.55 29 29 29 C 28.45 29 28 28.55 28 28 L 28 25 L 22 25 L 22 28 C 22 28.55 21.55 29 21 29 C 20.45 29 20 28.55 20 28 L 20 25 L 17 25 C 16.45 25 16 24.55 16 24 C 16 23.45 16.45 23 17 23 L 20 23 L 20 17 L 17 17 C 16.45 17 16 16.55 16 16 C 16 15.45 16.45 15 17 15 L 20 15 L 20 12 C 20 11.45 20.45 11 21 11 z M 22 17 L 22 23 L 28 23 L 28 17 L 22 17 z M 12.876953 29.009766 C 13.263672 28.959141 13.656875 29.14 13.859375 29.5 C 16.229375 33.57 20.39 36 25 36 C 29.6 36 33.760625 33.57 36.140625 29.5 C 36.420625 29.02 37.03 28.860625 37.5 29.140625 C 37.98 29.410625 38.139375 30.03 37.859375 30.5 C 35.129375 35.2 30.32 38 25 38 C 19.67 38 14.860625 35.2 12.140625 30.5 C 11.860625 30.02 12.02 29.410625 12.5 29.140625 C 12.62 29.070625 12.748047 29.026641 12.876953 29.009766 z"/></svg>