<svg xmlns="http://www.w3.org/2000/svg"  viewBox="0 0 50 50" width="500px" height="500px"><path d="M 25 1 C 21.429688 1 18.402344 3.359375 17.375 6.59375 C 18.003906 6.921875 18.59375 7.320313 19.125 7.8125 C 19.199219 7.882813 19.273438 7.960938 19.34375 8.03125 L 23.59375 12.28125 C 24.164063 12.851563 24.632813 13.492188 25 14.1875 C 25.367188 13.496094 25.835938 12.851563 26.40625 12.28125 L 30.65625 8.03125 C 30.726563 7.957031 30.800781 7.882813 30.875 7.8125 C 31.40625 7.320313 31.996094 6.921875 32.625 6.59375 C 31.601563 3.359375 28.570313 1 25 1 Z M 32.625 6.59375 C 32.835938 7.261719 32.941406 7.957031 32.96875 8.6875 C 32.972656 8.792969 33 8.894531 33 9 L 33 15 C 33 15.820313 32.886719 16.601563 32.65625 17.34375 C 33.402344 17.113281 34.179688 17 35 17 L 41 17 C 41.101563 17 41.210938 16.996094 41.3125 17 C 42.042969 17.027344 42.738281 17.164063 43.40625 17.375 C 44.96875 14.363281 44.492188 10.554688 41.96875 8.03125 C 40.457031 6.519531 38.449219 5.6875 36.3125 5.6875 C 35.007813 5.6875 33.75 6.007813 32.625 6.59375 Z M 43.40625 17.375 C 43.082031 17.996094 42.683594 18.589844 42.1875 19.125 C 42.117188 19.199219 42.039063 19.269531 41.96875 19.34375 L 37.71875 23.59375 C 37.148438 24.164063 36.507813 24.632813 35.8125 25 C 36.507813 25.367188 37.148438 25.835938 37.71875 26.40625 L 41.96875 30.65625 C 42.039063 30.726563 42.117188 30.800781 42.1875 30.875 C 42.683594 31.410156 43.082031 32.003906 43.40625 32.625 C 46.640625 31.597656 49 28.570313 49 25 C 49 21.429688 46.640625 18.398438 43.40625 17.375 Z M 43.40625 32.625 C 42.738281 32.835938 42.042969 32.941406 41.3125 32.96875 C 41.210938 32.972656 41.101563 33 41 33 L 35 33 C 34.179688 33 33.402344 32.886719 32.65625 32.65625 C 32.886719 33.402344 33 34.179688 33 35 L 33 41 C 33 41.105469 32.972656 41.210938 32.96875 41.3125 C 32.941406 42.042969 32.835938 42.738281 32.625 43.40625 C 33.75 43.992188 35.007813 44.3125 36.3125 44.3125 C 38.449219 44.3125 40.457031 43.480469 41.96875 41.96875 C 44.492188 39.445313 44.96875 35.636719 43.40625 32.625 Z M 32.625 43.40625 C 31.996094 43.078125 31.40625 42.679688 30.875 42.1875 C 30.800781 42.117188 30.730469 42.039063 30.65625 41.96875 L 26.40625 37.71875 C 25.835938 37.148438 25.367188 36.507813 25 35.8125 C 24.632813 36.507813 24.164063 37.148438 23.59375 37.71875 L 19.34375 41.96875 C 19.273438 42.039063 19.199219 42.117188 19.125 42.1875 C 18.59375 42.679688 18.003906 43.078125 17.375 43.40625 C 18.402344 46.640625 21.429688 49 25 49 C 28.570313 49 31.597656 46.640625 32.625 43.40625 Z M 17.375 43.40625 C 17.164063 42.738281 17.058594 42.042969 17.03125 41.3125 C 17.027344 41.207031 17 41.105469 17 41 L 17 35 C 17 34.179688 17.113281 33.402344 17.34375 32.65625 C 16.601563 32.886719 15.820313 33 15 33 L 9 33 C 8.894531 33 8.789063 32.972656 8.6875 32.96875 C 7.957031 32.941406 7.261719 32.835938 6.59375 32.625 C 6.007813 33.75 5.6875 35.007813 5.6875 36.3125 C 5.6875 38.449219 6.519531 40.457031 8.03125 41.96875 C 9.542969 43.480469 11.550781 44.3125 13.6875 44.3125 C 14.992188 44.3125 16.25 43.992188 17.375 43.40625 Z M 6.59375 32.625 C 6.921875 31.996094 7.320313 31.40625 7.8125 30.875 C 7.882813 30.800781 7.960938 30.726563 8.03125 30.65625 L 12.28125 26.40625 C 12.851563 25.835938 13.492188 25.367188 14.1875 25 C 13.492188 24.632813 12.851563 24.164063 12.28125 23.59375 L 8.03125 19.34375 C 7.960938 19.273438 7.882813 19.199219 7.8125 19.125 C 7.320313 18.59375 6.921875 18.003906 6.59375 17.375 C 3.359375 18.402344 1 21.429688 1 25 C 1 28.570313 3.359375 31.601563 6.59375 32.625 Z M 6.59375 17.375 C 7.261719 17.164063 7.957031 17.058594 8.6875 17.03125 C 8.789063 17.027344 8.894531 17 9 17 L 15 17 C 15.820313 17 16.601563 17.113281 17.34375 17.34375 C 17.113281 16.601563 17 15.820313 17 15 L 17 9 C 17 8.894531 17.027344 8.789063 17.03125 8.6875 C 17.058594 7.957031 17.164063 7.261719 17.375 6.59375 C 16.25 6.007813 14.992188 5.6875 13.6875 5.6875 C 11.550781 5.6875 9.542969 6.519531 8.03125 8.03125 C 6.519531 9.542969 5.6875 11.550781 5.6875 13.6875 C 5.6875 14.992188 6.007813 16.25 6.59375 17.375 Z M 19 10.5 L 19 15 C 19 17.695313 20.800781 19.964844 23.25 20.71875 C 23.703125 19.863281 23.9375 18.929688 23.9375 17.9375 C 23.9375 16.335938 23.320313 14.820313 22.1875 13.6875 Z M 31 10.5 L 27.8125 13.6875 C 26.679688 14.820313 26.0625 16.335938 26.0625 17.9375 C 26.0625 18.929688 26.296875 19.863281 26.75 20.71875 C 29.199219 19.964844 31 17.695313 31 15 Z M 10.5 19 L 13.6875 22.1875 C 14.820313 23.320313 16.335938 23.9375 17.9375 23.9375 C 18.929688 23.9375 19.863281 23.703125 20.71875 23.25 C 19.964844 20.800781 17.695313 19 15 19 Z M 35 19 C 32.304688 19 30.035156 20.800781 29.28125 23.25 C 30.136719 23.703125 31.070313 23.9375 32.0625 23.9375 C 33.664063 23.9375 35.179688 23.320313 36.3125 22.1875 L 39.5 19 Z M 24.15625 22.96875 C 23.980469 23.1875 23.796875 23.394531 23.59375 23.59375 C 23.390625 23.792969 23.1875 23.980469 22.96875 24.15625 C 22.996094 24.433594 23 24.714844 23 25 C 23 25.285156 22.996094 25.566406 22.96875 25.84375 C 23.1875 26.019531 23.390625 26.203125 23.59375 26.40625 C 23.796875 26.609375 23.980469 26.8125 24.15625 27.03125 C 24.433594 27.003906 24.714844 27 25 27 C 25.285156 27 25.566406 27.003906 25.84375 27.03125 C 26.019531 26.8125 26.203125 26.605469 26.40625 26.40625 C 26.609375 26.207031 26.8125 26.019531 27.03125 25.84375 C 27.003906 25.566406 27 25.285156 27 25 C 27 24.714844 27.003906 24.433594 27.03125 24.15625 C 26.8125 23.980469 26.605469 23.796875 26.40625 23.59375 C 26.203125 23.390625 26.019531 23.1875 25.84375 22.96875 C 25.566406 22.996094 25.285156 23 25 23 C 24.714844 23 24.433594 22.996094 24.15625 22.96875 Z M 17.9375 26.0625 C 16.335938 26.0625 14.820313 26.710938 13.6875 27.84375 L 10.5 31 L 15 31 C 17.695313 31 19.964844 29.199219 20.71875 26.75 C 19.863281 26.296875 18.929688 26.0625 17.9375 26.0625 Z M 32.0625 26.0625 C 31.070313 26.0625 30.105469 26.296875 29.25 26.75 C 30.007813 29.199219 32.304688 31 35 31 L 39.5 31 L 36.3125 27.8125 C 35.179688 26.679688 33.664063 26.0625 32.0625 26.0625 Z M 23.25 29.25 C 20.800781 30.007813 19 32.304688 19 35 L 19 39.5 L 22.1875 36.3125 C 23.320313 35.179688 23.9375 33.664063 23.9375 32.0625 C 23.9375 31.070313 23.703125 30.105469 23.25 29.25 Z M 26.75 29.28125 C 26.296875 30.136719 26.0625 31.070313 26.0625 32.0625 C 26.0625 33.664063 26.710938 35.179688 27.84375 36.3125 L 31 39.5 L 31 35 C 31 32.304688 29.199219 30.035156 26.75 29.28125 Z"/></svg>