<?xml version="1.0"?><svg xmlns="http://www.w3.org/2000/svg"  viewBox="0 0 30 30" width="480px" height="480px">    <path d="M 16.5 5 C 13.979 5 11.828406 6.5606719 10.941406 8.7636719 C 10.152406 8.2896719 9.239 8 8.25 8 C 5.351 8 3 10.35 3 13.25 C 3 13.53 3.0400312 13.799359 3.0820312 14.068359 C 1.3350312 14.385359 0 15.915 0 17.75 C 0 19.812 1.688 21.5 3.75 21.5 L 5.9589844 21.5 C 5.6639844 20.808 5.5 20.048 5.5 19.25 C 5.5 16.469 7.4852813 14.142281 10.113281 13.613281 C 11.249281 10.867281 13.943625 9 17.015625 9 C 18.755625 9 20.413234 9.6080781 21.740234 10.705078 C 21.975234 10.640078 22.214078 10.593594 22.455078 10.558594 C 22.225078 7.4545937 19.662 5 16.5 5 z M 17.015625 11 C 14.324625 11 12.095859 12.943 11.630859 15.5 L 11.25 15.5 C 9.188 15.5 7.5 17.188 7.5 19.25 C 7.5 21.312 9.188 23 11.25 23 L 27 23 C 28.65 23 30 21.65 30 20 C 30 18.35 28.65 17 27 17 L 26.925781 17 C 26.975781 16.757 27 16.506 27 16.25 C 27 14.178 25.322 12.5 23.25 12.5 C 22.524 12.5 21.852297 12.715266 21.279297 13.072266 C 20.273297 11.818266 18.746625 11 17.015625 11 z"/></svg>