<?xml version="1.0"?><svg xmlns="http://www.w3.org/2000/svg"  viewBox="0 0 50 50" width="500px" height="500px">    <path d="M 14.167969 2 C 12.421969 2 11 3.4285469 11 5.1855469 L 11 44.814453 C 11 46.570453 12.421969 48 14.167969 48 L 35.832031 48 C 37.578031 48 39 46.571453 39 44.814453 L 39 5.1855469 C 39 3.4285469 37.578031 2 35.832031 2 L 14.167969 2 z M 13 9 L 37 9 L 37 40 L 13 40 L 13 9 z M 24.998047 17 C 20.926047 17 17.563359 20.06 17.068359 24 L 22.181641 24 C 22.596641 22.837 23.696 22 25 22 C 26.304 22 27.403406 22.837 27.816406 24 L 32.929688 24 C 32.434688 20.06 29.070047 17 24.998047 17 z M 17.070312 26 C 17.565313 29.94 20.929953 33 25.001953 33 C 29.073953 33 32.436641 29.94 32.931641 26 L 27.818359 26 C 27.403359 27.163 26.304 28 25 28 C 23.696 28 22.596594 27.163 22.183594 26 L 17.070312 26 z M 22 43 L 28 43 C 28.553 43 29 43.448 29 44 C 29 44.552 28.553 45 28 45 L 22 45 C 21.447 45 21 44.552 21 44 C 21 43.448 21.447 43 22 43 z"/></svg>