<?xml version="1.0"?><svg xmlns="http://www.w3.org/2000/svg"  viewBox="0 0 50 50" width="500px" height="500px">    <path d="M 13 3 C 7.49 3 3 7.49 3 13 L 3 37 C 3 42.51 7.49 47 13 47 L 37 47 C 42.51 47 47 42.51 47 37 L 47 13 C 47 7.49 42.51 3 37 3 L 13 3 z M 25.001953 9.9980469 C 26.105953 9.9980469 27.209953 10.353453 28.126953 11.064453 L 37.226562 18.113281 C 37.541562 18.357281 37.749094 18.672672 37.871094 19.013672 C 38.137094 19.760672 37.955969 20.634266 37.292969 21.197266 L 36.261719 22.068359 L 34.550781 23.511719 L 29.349609 19.480469 C 28.109609 18.530469 26.57 18 25 18 C 23.43 18 21.880391 18.530469 20.650391 19.480469 L 19.220703 20.589844 L 18.849609 20.876953 C 18.342609 21.267953 18.331172 22.028547 18.826172 22.435547 C 19.185172 22.731547 19.700359 22.737125 20.068359 22.453125 L 21.869141 21.060547 C 22.439141 20.620547 23.089531 20.310391 23.769531 20.150391 C 24.579531 19.950391 25.420469 19.950391 26.230469 20.150391 C 26.900469 20.310391 27.549141 20.620547 28.119141 21.060547 L 32.439453 24.400391 L 32.990234 24.830078 L 28.292969 28.800781 C 27.345969 29.600781 26.173 30 25 30 C 23.827 30 22.654031 29.600781 21.707031 28.800781 L 17.009766 24.830078 L 15.117188 23.232422 L 12.707031 21.195312 C 12.586031 21.093312 12.482578 20.981328 12.392578 20.861328 C 12.055578 20.408328 11.944969 19.847359 12.042969 19.318359 C 12.127969 18.861359 12.367391 18.428281 12.775391 18.113281 L 21.876953 11.064453 C 22.793953 10.353453 23.897953 9.9980469 25.001953 9.9980469 z M 15.392578 26.082031 L 20.417969 30.328125 C 21.694969 31.406125 23.322 32 25 32 C 26.678 32 28.305031 31.406125 29.582031 30.328125 L 34.609375 26.082031 L 37.230469 28.109375 C 38.230469 28.889375 38.259062 30.379219 37.289062 31.199219 L 28.289062 38.800781 C 26.399062 40.400781 23.600938 40.400781 21.710938 38.800781 L 12.710938 31.199219 C 11.740937 30.379219 11.769531 28.889375 12.769531 28.109375 L 15.392578 26.082031 z"/></svg>