<svg xmlns="http://www.w3.org/2000/svg"  viewBox="0 0 72 72" width="512px" height="512px"><path d="M59.841,49.591c0.334,1.069,0.183,2.193-0.839,3.227c-1.631,1.65-4.476,2.062-4.836,2.401	c-0.36,0.34-0.518,1.631-1.665,2.369c-1.147,0.738-2.562,0.719-3.288,0.774c-2.921,0.222-3.686,0.357-5.506,1.52	c-0.588,0.375-3.477,2.357-7.707,2.357s-7.118-1.981-7.707-2.357c-1.821-1.162-2.586-1.297-5.506-1.52	c-0.725-0.055-2.141-0.036-3.288-0.774c-1.147-0.738-1.305-2.029-1.665-2.369c-0.36-0.34-3.205-0.751-4.836-2.401	c-1.022-1.034-1.173-2.158-0.839-3.227c0.439-1.406,1.976-1.893,2.866-2.401c4.87-2.787,5.65-5.45,5.88-5.845	c0.093-0.159,0.322-0.688-0.196-1.111c-0.479-0.391-3.034-1.633-4.109-3.504c-0.558-0.971-0.705-2.451-0.202-3.485	c0.805-1.653,2.139-2.617,3.987-2.617c0.676,0,1.36,0.174,1.459,0.197c0.036-1.066,0.039-2.301,0.108-3.414	C22.239,22.757,26.145,15,36,15s13.761,7.757,14.048,12.41c0.069,1.114,0.071,2.348,0.108,3.414	c0.099-0.023,0.782-0.197,1.459-0.197c1.848,0,3.182,0.964,3.987,2.617c0.503,1.034,0.356,2.514-0.202,3.485	c-1.075,1.871-3.63,3.113-4.109,3.504c-0.518,0.423-0.289,0.952-0.196,1.111c0.231,0.394,1.01,3.058,5.88,5.845	C57.865,47.698,59.402,48.185,59.841,49.591z"/></svg>