<svg xmlns="http://www.w3.org/2000/svg"  viewBox="0 0 24 24" width="384px" height="384px"><path d="M 7 3 C 4.803 3 3 4.803 3 7 L 3 17 C 3 19.197 4.803 21 7 21 L 17 21 C 19.197 21 21 19.197 21 17 L 21 7 C 21 4.803 19.197 3 17 3 L 7 3 z M 7 5 L 17 5 C 18.117 5 19 5.883 19 7 L 19 17 C 19 18.117 18.117 19 17 19 L 7 19 C 5.883 19 5 18.117 5 17 L 5 7 C 5 5.883 5.883 5 7 5 z M 10.75 6.75 L 7.125 7.25 L 8.75 17.25 L 12.875 17.25 C 19.25 8.5 16.375 6.75 16.375 6.75 C 16.375 6.75 13.875 7.25 13.125 7.375 C 14.25 10.25 11.625 14 11.625 14 L 10.75 6.75 z"/></svg>