<svg xmlns="http://www.w3.org/2000/svg"  viewBox="0 0 50 50" width="500px" height="500px"><path d="M 13 3 C 7.4886661 3 3 7.4886661 3 13 L 3 37 C 3 42.511334 7.4886661 47 13 47 L 37 47 C 42.511334 47 47 42.511334 47 37 L 47 13 C 47 7.4886661 42.511334 3 37 3 L 13 3 z M 13 5 L 37 5 C 41.430666 5 45 8.5693339 45 13 L 45 37 C 45 41.430666 41.430666 45 37 45 L 13 45 C 8.5693339 45 5 41.430666 5 37 L 5 13 C 5 8.5693339 8.5693339 5 13 5 z M 28 7 A 2 2 0 0 0 27 10.730469 L 27 39.269531 A 2 2 0 0 0 28 43 A 2 2 0 0 0 29 39.269531 L 29 10.730469 A 2 2 0 0 0 28 7 z M 18.984375 10.986328 A 1.0001 1.0001 0 0 0 18 12 L 18 38 A 1.0001 1.0001 0 1 0 20 38 L 20 12 A 1.0001 1.0001 0 0 0 18.984375 10.986328 z M 21.984375 13.986328 A 1.0001 1.0001 0 0 0 21 15 L 21 35 A 1.0001 1.0001 0 1 0 23 35 L 23 15 A 1.0001 1.0001 0 0 0 21.984375 13.986328 z M 15.984375 14.986328 A 1.0001 1.0001 0 0 0 15 16 L 15 34 A 1.0001 1.0001 0 1 0 17 34 L 17 16 A 1.0001 1.0001 0 0 0 15.984375 14.986328 z M 24.984375 17.986328 A 1.0001 1.0001 0 0 0 24 19 L 24 31 A 1.0001 1.0001 0 1 0 26 31 L 26 19 A 1.0001 1.0001 0 0 0 24.984375 17.986328 z M 12.984375 18.986328 A 1.0001 1.0001 0 0 0 12 20 L 12 30 A 1.0001 1.0001 0 1 0 14 30 L 14 20 A 1.0001 1.0001 0 0 0 12.984375 18.986328 z M 30.984375 18.986328 A 1.0001 1.0001 0 0 0 30 20 L 30 30 A 1.0001 1.0001 0 1 0 32 30 L 32 20 A 1.0001 1.0001 0 0 0 30.984375 18.986328 z M 9.984375 21.986328 A 1.0001 1.0001 0 0 0 9 23 L 9 27 A 1.0001 1.0001 0 1 0 11 27 L 11 23 A 1.0001 1.0001 0 0 0 9.984375 21.986328 z M 33.984375 21.986328 A 1.0001 1.0001 0 0 0 33 23 L 33 27 A 1.0001 1.0001 0 1 0 35 27 L 35 23 A 1.0001 1.0001 0 0 0 33.984375 21.986328 z M 39.984375 22.986328 A 1.0001 1.0001 0 0 0 39 24 L 39 26 A 1.0001 1.0001 0 1 0 41 26 L 41 24 A 1.0001 1.0001 0 0 0 39.984375 22.986328 z M 6.984375 23.486328 A 1.0001 1.0001 0 0 0 6 24.5 L 6 25.5 A 1.0001 1.0001 0 1 0 8 25.5 L 8 24.5 A 1.0001 1.0001 0 0 0 6.984375 23.486328 z M 36.984375 23.486328 A 1.0001 1.0001 0 0 0 36 24.5 L 36 25.5 A 1.0001 1.0001 0 1 0 38 25.5 L 38 24.5 A 1.0001 1.0001 0 0 0 36.984375 23.486328 z M 42.984375 23.486328 A 1.0001 1.0001 0 0 0 42 24.5 L 42 25.5 A 1.0001 1.0001 0 1 0 44 25.5 L 44 24.5 A 1.0001 1.0001 0 0 0 42.984375 23.486328 z"/></svg>