<svg width="330" height="329" xmlns="http://www.w3.org/2000/svg" xmlns:xlink="http://www.w3.org/1999/xlink" xml:space="preserve" overflow="hidden"><g transform="translate(-448 -277)"><g><g><g><g><path d="M1619.24 430.469C1600.39 430.469 1583.14 440.973 1574.56 457.743 1574.56 457.743 1574.56 457.755 1574.56 457.755 1574.55 457.768 1574.54 457.772 1574.53 457.78 1550.34 504.763 1529.56 545.804 1514.39 576.441 1506.81 591.766 1500.63 604.475 1496.1 614.099 1491.58 623.727 1488.96 629.249 1487.43 634.14L1487.41 634.178 1487.4 634.203C1485.74 639.588 1483.55 646.791 1483.55 655.29 1483.55 688.368 1510.73 715.455 1543.85 715.455 1581.38 715.455 1607.16 685.528 1619.24 671.711 1631.31 685.524 1657.09 715.455 1694.63 715.455 1727.75 715.455 1754.93 688.364 1754.93 655.29 1754.93 646.804 1752.74 639.612 1751.1 634.252L1751.08 634.215 1751.07 634.178C1749.54 629.291 1746.91 623.756 1742.38 614.128 1737.85 604.496 1731.67 591.778 1724.09 576.454 1708.92 545.813 1688.13 504.771 1663.94 457.78L1663.91 457.73C1655.34 440.973 1638.09 430.469 1619.24 430.469ZM1619.24 456.377C1628.96 456.377 1636.49 460.985 1640.86 469.547L1640.87 469.571 1640.88 469.596C1665.05 516.521 1685.78 557.475 1700.86 587.938 1708.4 603.171 1714.53 615.793 1718.94 625.156 1723.33 634.502 1726.23 641.564 1726.34 641.892 1727.84 646.779 1729.02 651.611 1729.02 655.29 1729.02 674.268 1713.74 689.547 1694.63 689.547 1671.43 689.547 1647.02 664.449 1635.91 651.861L1635.89 651.836 1635.85 651.798C1647.83 636.893 1667.82 610.628 1667.82 581.287 1667.82 555.096 1645.63 534.1 1619.24 534.1 1592.85 534.1 1570.66 555.096 1570.66 581.287 1570.66 610.67 1590.65 636.922 1602.62 651.798L1602.59 651.823 1602.57 651.861C1591.46 664.457 1567.05 689.547 1543.85 689.547 1524.74 689.547 1509.46 674.277 1509.46 655.29 1509.46 651.591 1510.64 646.783 1512.14 641.892 1512.23 641.609 1515.15 634.493 1519.56 625.131 1523.96 615.772 1530.08 603.155 1537.62 587.925 1552.69 557.471 1573.42 516.521 1597.58 469.609L1597.6 469.584 1597.61 469.571C1601.99 460.985 1609.52 456.377 1619.24 456.377ZM1619.24 560.008C1632.13 560.008 1641.91 569.715 1641.91 581.287 1641.91 595.141 1629.45 615.905 1619.23 629.951 1609.01 615.934 1596.57 595.208 1596.57 581.287 1596.57 569.715 1606.35 560.008 1619.24 560.008Z" fill="#000000" fill-rule="nonzero" fill-opacity="1" transform="matrix(1.00305 0 0 1 -1008.59 -128.886)"/></g></g></g></g></g></svg>