<svg width="235" height="235" xmlns="http://www.w3.org/2000/svg" xmlns:xlink="http://www.w3.org/1999/xlink" xml:space="preserve" overflow="hidden"><g transform="translate(-373 -86)"><g><g><g><g><path d="M988.951 641.68C959.888 641.68 927.602 652.549 920.809 688.095 920.082 691.879 922.734 693.822 925.23 694.376L954.734 697.379C957.511 697.23 959.722 694.662 960.258 691.927 962.797 679.681 973.165 673.632 984.797 673.632 991.078 673.632 998.199 675.98 1001.91 681.546 1006.21 687.761 1005.49 696.205 1005.49 703.404L1005.49 707.492C987.789 709.464 964.697 710.668 948.137 717.872 929.003 726.054 915.577 742.752 915.577 767.297 915.577 798.701 935.659 814.541 961.372 814.541 983.087 814.541 994.803 809.332 1011.57 792.426 1017.11 800.37 1019.08 804.273 1029.23 812.634 1031.5 813.843 1034.38 813.617 1036.4 811.823L1036.4 812.091C1042.49 806.716 1053.61 797.08 1059.83 791.884 1062.31 789.864 1061.77 786.712 1059.83 783.953 1054.24 776.325 1048.52 769.991 1048.52 755.814L1048.52 708.844C1048.52 688.887 1049.87 670.426 1035.01 656.685 1023.29 645.553 1003.79 641.68 988.951 641.68ZM997.222 731.781C999.981 731.596 1002.73 731.781 1005.49 731.781L1005.49 738.33C1005.51 750.117 1005.97 759.806 999.975 770.282 995.119 778.786 987.312 783.935 978.743 783.935 967.022 783.935 960.24 775.163 960.24 762.077 960.24 739.569 977.95 733.032 997.222 731.781ZM1083.12 807.789C1075.26 807.902 1066.06 809.547 1059.02 814.439 1056.85 815.941 1057.17 818.068 1059.57 817.782 1067.5 816.841 1085.01 814.624 1088.17 818.605 1091.31 822.603 1084.7 839.003 1081.74 846.338 1080.84 848.555 1082.79 849.407 1084.81 847.721 1098 836.798 1101.51 814.141 1098.82 810.828 1097.48 809.207 1090.98 807.676 1083.12 807.789ZM876.551 811.942C874.912 812.157 874.268 814.29 875.997 815.84 905.309 842.042 943.954 857.732 986.978 857.732 1017.66 857.732 1053.49 848.221 1078.07 830.255 1082.13 827.269 1078.61 822.675 1074.45 824.433 1046.89 836.011 1016.76 841.631 989.511 841.631 949.109 841.631 910.148 830.714 878.529 812.497 877.826 812.097 877.087 811.871 876.551 811.942Z" fill="#000000" fill-rule="nonzero" fill-opacity="1" transform="matrix(1 0 0 1.00495 -497.527 -549.361)"/></g></g></g></g></g></svg>