<svg width="236" height="236" xmlns="http://www.w3.org/2000/svg" xmlns:xlink="http://www.w3.org/1999/xlink" xml:space="preserve" overflow="hidden"><g transform="translate(-616 -188)"><g><g><g><g><path d="M1342.84 1401.38C1405.47 1401.38 1456.24 1350.6 1456.24 1287.97 1456.24 1225.34 1405.47 1174.57 1342.84 1174.57 1280.22 1174.57 1229.44 1225.34 1229.44 1287.97 1229.44 1350.6 1280.22 1401.38 1342.84 1401.38ZM1294.16 1340.23C1292.36 1343.09 1289.29 1344.67 1286.13 1344.67 1284.42 1344.67 1282.69 1344.21 1281.13 1343.24 1276.7 1340.47 1275.36 1334.64 1278.13 1330.21L1280.68 1326.13C1282.31 1325.93 1284.08 1325.77 1286.14 1325.77 1291.85 1325.77 1296.59 1327.58 1300.56 1329.98L1294.16 1340.23ZM1286.14 1316.32C1280.92 1316.32 1276.69 1312.09 1276.69 1306.87 1276.69 1301.66 1280.92 1297.42 1286.14 1297.42L1298.62 1297.42 1331.7 1244.5 1320.66 1226.83C1317.89 1222.4 1319.24 1216.57 1323.66 1213.81 1328.09 1211.04 1333.91 1212.4 1336.68 1216.81L1342.84 1226.67 1349.01 1216.81C1351.78 1212.38 1357.6 1211.03 1362.03 1213.81 1366.46 1216.57 1367.8 1222.4 1365.03 1226.83L1320.91 1297.42 1351.03 1297.42C1353.44 1299.15 1356.1 1301.84 1358.92 1306.31 1361.01 1309.63 1362.03 1313.01 1362.6 1316.32L1286.14 1316.32ZM1407.56 1330.21C1410.32 1334.64 1408.98 1340.47 1404.56 1343.24 1402.99 1344.21 1401.26 1344.67 1399.56 1344.67 1396.41 1344.67 1393.33 1343.09 1391.53 1340.23L1348.81 1271.89C1349.57 1270.01 1350.54 1267.99 1351.99 1265.68 1354.61 1261.51 1357.96 1258.61 1361.51 1256.53L1387.06 1297.42 1399.54 1297.42C1404.76 1297.42 1408.99 1301.66 1408.99 1306.87 1408.99 1312.09 1404.76 1316.32 1399.54 1316.32L1398.88 1316.32 1407.56 1330.21Z" fill="#000000" fill-rule="nonzero" fill-opacity="1" transform="matrix(1.00736 0 0 1 -618.116 -981.653)"/></g></g></g></g></g></svg>