<svg width="226" height="228" xmlns="http://www.w3.org/2000/svg" xmlns:xlink="http://www.w3.org/1999/xlink" xml:space="preserve" overflow="hidden"><g transform="translate(-612 -184)"><g><g><g><g><path d="M1098.12 1390.5C1094.69 1390.5 1091.36 1390.85 1088.13 1391.51L1088.13 1483.2C1084.59 1484.46 1081.19 1486.01 1078.13 1488.07L1078.13 1394.71C1065.69 1400.16 1056.02 1410.58 1051.33 1423.41L1068.14 1435.18 1068.14 1496.56 1048.14 1482.56 1048.14 1560.41C1048.14 1580.89 1060.5 1598.46 1078.13 1606.17L1078.13 1562.8C1085.29 1567.6 1093.88 1570.41 1103.12 1570.41 1112.36 1570.41 1120.95 1567.6 1128.11 1562.8L1128.11 1610.39 1218.06 1610.39C1221.75 1610.39 1225.32 1609.94 1228.78 1609.18L1141.71 1548.15C1145.67 1541.46 1148.1 1533.75 1148.1 1525.43 1148.1 1514.83 1144.26 1505.21 1138.1 1497.52L1138.1 1484.22 1265.99 1573.86C1267.2 1569.56 1268.04 1565.1 1268.04 1560.41L1268.04 1510.18C1203.04 1507.61 1150.93 1455.5 1148.35 1390.5L1128.11 1390.5 1128.11 1488.07C1125.04 1486.01 1121.65 1484.46 1118.11 1483.2L1118.11 1390.5 1098.12 1390.5ZM1188.33 1390.5C1190.83 1433.42 1225.12 1467.69 1268.04 1470.2L1268.04 1440.47C1268.04 1412.88 1245.66 1390.5 1218.06 1390.5L1188.33 1390.5ZM1103.12 1490.45C1112.93 1490.45 1121.76 1494.51 1128.11 1501.01 1129.65 1502.59 1131.04 1504.3 1132.26 1506.14 1133.49 1507.98 1134.54 1509.96 1135.41 1512.02 1136.27 1514.08 1136.94 1516.24 1137.4 1518.48 1137.85 1520.73 1138.1 1523.05 1138.1 1525.43 1138.1 1527.81 1137.85 1530.14 1137.4 1532.38 1136.94 1534.62 1136.27 1536.77 1135.41 1538.84 1134.54 1540.91 1133.49 1542.88 1132.26 1544.72 1131.04 1546.56 1129.65 1548.28 1128.11 1549.85 1121.76 1556.35 1112.93 1560.41 1103.12 1560.41 1093.32 1560.41 1084.48 1556.36 1078.13 1549.87 1077.95 1549.69 1077.82 1549.46 1077.64 1549.27 1076.31 1547.84 1075.06 1546.35 1073.98 1544.72 1072.74 1542.88 1071.69 1540.91 1070.83 1538.84 1069.97 1536.77 1069.3 1534.62 1068.84 1532.38 1068.39 1530.14 1068.14 1527.81 1068.14 1525.43 1068.14 1523.05 1068.39 1520.73 1068.84 1518.48 1069.3 1516.24 1069.97 1514.08 1070.83 1512.02 1071.69 1509.96 1072.74 1507.98 1073.98 1506.14 1075.2 1504.3 1076.59 1502.59 1078.13 1501.01 1084.48 1494.51 1093.31 1490.45 1103.12 1490.45ZM1103.38 1502.61C1102.42 1502.61 1101.46 1503.16 1101.09 1504.25L1088.27 1542.24C1087.41 1544.79 1090.58 1546.74 1092.46 1544.81L1103.39 1533.63 1113.74 1544.56C1115.59 1546.51 1118.81 1544.6 1117.97 1542.04L1105.63 1504.27C1105.28 1503.18 1104.33 1502.62 1103.38 1502.61Z" fill="#000000" fill-rule="nonzero" fill-opacity="1" transform="matrix(1.00014 0 0 1 -433.083 -1202.95)"/></g></g></g></g></g></svg>