<svg width="155" height="156" xmlns="http://www.w3.org/2000/svg" xmlns:xlink="http://www.w3.org/1999/xlink" xml:space="preserve" overflow="hidden"><g transform="translate(-98 -152)"><g><g><g><g><path d="M133.208 103.958C129.983 111.121 128.429 114.323 124.28 120.645 118.472 129.481 110.28 140.511 100.16 140.582 91.1504 140.663 88.8249 134.703 76.5898 134.809 64.366 134.867 61.8188 140.699 52.797 140.605 42.6654 140.511 34.9177 130.579 29.1096 121.756 12.8662 97.0168 11.1484 68.0123 21.1866 52.5866 28.2916 41.6487 39.5216 35.2213 50.0743 35.2213 60.8251 35.2213 67.5796 41.1229 76.4612 41.1229 85.0852 41.1229 90.3321 35.2097 102.766 35.2097 112.162 35.2097 122.095 40.3283 129.2 49.1627 105.968 61.9006 109.743 95.0769 133.208 103.958ZM93.324 25.3351C97.8464 19.5272 101.282 11.3354 100.032 2.9916 92.658 3.4941 84.0336 8.20355 78.9967 14.3036 74.4278 19.8661 70.6416 28.1163 72.1139 36.098 80.1656 36.3549 88.4975 31.5521 93.324 25.3351Z" fill="#000000" fill-rule="nonzero" fill-opacity="1" transform="matrix(1 0 0 1.01719 100.864 153.601)"/></g></g></g></g></g></svg>