<svg width="367" height="365" xmlns="http://www.w3.org/2000/svg" xmlns:xlink="http://www.w3.org/1999/xlink" xml:space="preserve" overflow="hidden"><g transform="translate(-90 -124)"><g><g><g><g><path d="M-603.45-507.437-569.895-578.033C-595.523-583.476-621.31-599.328-635.895-618.615L-670.982-544.849C-651.482-528.31-628.074-515.31-603.45-507.437" fill="#000000" fill-rule="evenodd" fill-opacity="1" transform="matrix(1.0058 0 0 1 818.64 910.461)"/><path d="M-463.421-620.73C-480.277-600.068-503.685-584.745-528.731-578.773L-495.282-508.388C-470.87-516.631-448.042-529.947-428.333-547.014Z" fill="#000000" fill-rule="evenodd" fill-opacity="1" transform="matrix(1.0058 0 0 1 818.64 910.461)"/><path d="M-670.982-544.849-688.525-507.964C-697.455-489.207-690.743-466.114-672.355-456.339-652.856-445.983-628.866-454.067-619.46-473.777L-603.45-507.437C-628.174-515.406-651.113-528.114-670.982-544.849" fill="#000000" fill-rule="evenodd" fill-opacity="1" transform="matrix(1.0058 0 0 1 818.64 910.461)"/><path d="M-393.774-701.259C-396.263-701.756-398.8-702.009-401.336-702.009-419.636-702.009-435.53-688.973-439.113-671.034-442.811-652.538-451.478-635.314-463.421-620.677L-428.386-546.909C-396.047-574.967-372.163-613.172-363.601-655.922-359.428-676.846-372.954-697.137-393.774-701.259" fill="#000000" fill-rule="evenodd" fill-opacity="1" transform="matrix(1.0058 0 0 1 818.64 910.461)"/><path d="M-528.731-578.773C-536.236-576.976-543.897-576.026-551.56-576.026-557.53-576.026-563.712-576.713-569.895-578.033-595.523-583.476-621.31-599.328-635.895-618.615-639.54-623.423-642.5-628.443-644.561-633.569-652.538-653.278-674.998-662.79-694.706-654.864-714.417-646.885-723.928-624.428-716.002-604.719-706.967-582.314-691.009-561.758-670.982-544.849-651.129-528.114-628.211-515.411-603.502-507.437-586.541-501.994-568.945-498.982-551.613-498.982-532.378-498.982-513.408-502.311-495.336-508.388Z" fill="#000000" fill-rule="evenodd" fill-opacity="1" transform="matrix(1.0058 0 0 1 818.64 910.461)"/><path d="M-409.892-508.124-428.386-547.014-463.421-620.73-463.473-620.677C-463.473-620.677-463.473-620.73-463.421-620.73L-514.359-727.891C-520.731-741.287-534.295-749.862-549.128-749.873-563.978-749.873-577.503-741.313-583.899-727.891L-635.842-618.615C-621.257-599.328-595.471-583.476-569.843-578.033L-553.039-613.331C-551.454-616.661-546.698-616.661-545.112-613.331L-528.679-578.773-528.573-578.773-528.679-578.773-495.229-508.388-478.797-473.83C-472.429-460.408-458.833-451.821-443.974-451.848-440.54-451.848-437.105-452.323-433.722-453.275-410.525-459.668-399.535-486.353-409.892-508.124" fill="#000000" fill-rule="evenodd" fill-opacity="1" transform="matrix(1.0058 0 0 1 818.64 910.461)"/><path d="M152.184 274.618 185.738 204.021C160.11 198.578 134.323 182.726 119.739 163.439L84.6521 237.205C104.151 253.745 127.56 266.743 152.184 274.618" fill="#000000" fill-rule="evenodd" fill-opacity="1" transform="matrix(1.0058 0 0 1 58.624 128.408)"/><path d="M292.213 161.325C275.357 181.986 251.949 197.31 226.901 203.282L260.35 273.666C284.763 265.424 307.59 252.107 327.3 235.038Z" fill="#000000" fill-rule="evenodd" fill-opacity="1" transform="matrix(1.0058 0 0 1 58.624 128.408)"/><path d="M84.6521 237.205 67.1087 274.088C58.1785 292.847 64.8893 315.939 83.2781 325.715 102.777 336.072 126.767 327.987 136.173 308.277L152.184 274.618C127.459 266.648 104.521 253.94 84.6521 237.205" fill="#000000" fill-rule="evenodd" fill-opacity="1" transform="matrix(1.0058 0 0 1 58.624 128.408)"/><path d="M361.858 80.7946C359.37 80.2979 356.833 80.0443 354.297 80.0443 335.998 80.0443 320.103 93.0803 316.521 111.02 312.822 129.514 304.155 146.741 292.213 161.378L327.247 235.145C359.587 207.085 383.47 168.882 392.031 126.132 396.205 105.207 382.678 84.9163 361.858 80.7946" fill="#000000" fill-rule="evenodd" fill-opacity="1" transform="matrix(1.0058 0 0 1 58.624 128.408)"/><path d="M226.901 203.282C219.398 205.078 211.735 206.029 204.074 206.029 198.103 206.029 191.92 205.342 185.738 204.021 160.11 198.578 134.323 182.726 119.739 163.439 116.093 158.63 113.133 153.61 111.073 148.484 103.094 128.774 80.6361 119.263 60.9262 127.19 41.2163 135.168 31.7049 157.626 39.6312 177.336 48.667 199.74 64.6252 220.296 84.6521 237.205 104.505 253.94 127.422 266.643 152.131 274.618 169.093 280.06 186.689 283.072 204.021 283.072 223.256 283.072 242.225 279.742 260.297 273.666Z" fill="#000000" fill-rule="evenodd" fill-opacity="1" transform="matrix(1.0058 0 0 1 58.624 128.408)"/><path d="M345.741 273.93 327.247 235.038 292.213 161.325 292.16 161.378C292.16 161.378 292.16 161.325 292.213 161.325L241.274 54.1626C234.901 40.7672 221.337 32.191 206.505 32.1804 191.655 32.1804 178.129 40.7408 171.734 54.1626L119.792 163.439C134.376 182.726 160.163 198.578 185.791 204.021L202.594 168.722C204.18 165.394 208.936 165.394 210.521 168.722L226.953 203.282 227.059 203.282 226.953 203.282 260.403 273.666 276.836 308.224C283.204 321.646 296.801 330.233 311.659 330.207 315.094 330.207 318.528 329.731 321.91 328.78 345.107 322.386 356.099 295.701 345.741 273.93" fill="#000000" fill-rule="evenodd" fill-opacity="1" transform="matrix(1.0058 0 0 1 58.624 128.408)"/></g></g></g></g></g></svg>