<svg width="427" height="426" xmlns="http://www.w3.org/2000/svg" xmlns:xlink="http://www.w3.org/1999/xlink" xml:space="preserve" overflow="hidden"><g transform="translate(-65 -76)"><g><g><g><g><path d="M421.849 181.93 261.218 181.93 341.648 42.8569 291.42 13.829 239.92 102.837 239.92 0 181.93 0 181.93 160.664 42.8569 80.2343 13.829 130.43 102.837 181.93 0 181.93 0 239.92 160.664 239.92 80.2343 378.993 130.43 408.053 181.93 319.012 181.93 421.849 239.92 421.849 239.92 261.218 378.993 341.648 408.053 291.42 319.012 239.92 421.849 239.92 421.849 181.93Z" fill="#000000" fill-rule="nonzero" fill-opacity="1" transform="matrix(1 0 0 1.00471 66.9977 76)"/></g></g></g></g></g></svg>