<svg width="360" height="360" xmlns="http://www.w3.org/2000/svg" xmlns:xlink="http://www.w3.org/1999/xlink" xml:space="preserve" overflow="hidden"><g transform="translate(-32 -114)"><g><g><g><g><path d="M88.6389 0C100.896 0 110.798 9.90257 110.798 22.1597L110.798 44.3194 199.437 44.3194 199.437 22.1597C199.437 9.90257 209.34 0 221.597 0 233.854 0 243.756 9.90257 243.756 22.1597L243.756 44.3194 276.996 44.3194C295.347 44.3194 310.236 59.208 310.236 77.5591L310.236 110.798 0 110.798 0 77.5591C0 59.208 14.8885 44.3194 33.2397 44.3194L66.4791 44.3194 66.4791 22.1597C66.4791 9.90257 76.3814 0 88.6389 0ZM0 132.958 310.236 132.958 310.236 321.315C310.236 339.666 295.347 354.555 276.996 354.555L33.2397 354.555C14.8885 354.555 0 339.666 0 321.315L0 132.958ZM44.3194 188.357 44.3194 210.517C44.3194 216.611 49.3054 221.597 55.3991 221.597L77.5591 221.597C83.6531 221.597 88.6389 216.611 88.6389 210.517L88.6389 188.357C88.6389 182.264 83.6531 177.278 77.5591 177.278L55.3991 177.278C49.3054 177.278 44.3194 182.264 44.3194 188.357ZM132.958 188.357 132.958 210.517C132.958 216.611 137.944 221.597 144.038 221.597L166.198 221.597C172.291 221.597 177.278 216.611 177.278 210.517L177.278 188.357C177.278 182.264 172.291 177.278 166.198 177.278L144.038 177.278C137.944 177.278 132.958 182.264 132.958 188.357ZM232.677 177.278C226.583 177.278 221.597 182.264 221.597 188.357L221.597 210.517C221.597 216.611 226.583 221.597 232.677 221.597L254.836 221.597C260.93 221.597 265.916 216.611 265.916 210.517L265.916 188.357C265.916 182.264 260.93 177.278 254.836 177.278L232.677 177.278ZM44.3194 276.996 44.3194 299.157C44.3194 305.248 49.3054 310.236 55.3991 310.236L77.5591 310.236C83.6531 310.236 88.6389 305.248 88.6389 299.157L88.6389 276.996C88.6389 270.903 83.6531 265.916 77.5591 265.916L55.3991 265.916C49.3054 265.916 44.3194 270.903 44.3194 276.996ZM144.038 265.916C137.944 265.916 132.958 270.903 132.958 276.996L132.958 299.157C132.958 305.248 137.944 310.236 144.038 310.236L166.198 310.236C172.291 310.236 177.278 305.248 177.278 299.157L177.278 276.996C177.278 270.903 172.291 265.916 166.198 265.916L144.038 265.916ZM221.597 276.996 221.597 299.157C221.597 305.248 226.583 310.236 232.677 310.236L254.836 310.236C260.93 310.236 265.916 305.248 265.916 299.157L265.916 276.996C265.916 270.903 260.93 265.916 254.836 265.916L232.677 265.916C226.583 265.916 221.597 270.903 221.597 276.996Z" fill="#000000" fill-rule="nonzero" fill-opacity="1" transform="matrix(1.00221 0 0 1 58.0229 116.328)"/></g></g></g></g></g></svg>