<svg width="368" height="368" xmlns="http://www.w3.org/2000/svg" xmlns:xlink="http://www.w3.org/1999/xlink" xml:space="preserve" overflow="hidden"><defs><clipPath id="clip0"><rect x="81" y="160" width="368" height="368"/></clipPath><clipPath id="clip1"><rect x="81" y="160" width="368" height="368"/></clipPath><clipPath id="clip2"><rect x="82" y="161" width="367" height="367"/></clipPath><clipPath id="clip3"><rect x="82" y="161" width="367" height="367"/></clipPath><clipPath id="clip4"><rect x="82" y="161" width="367" height="367"/></clipPath><clipPath id="clip5"><rect x="82" y="161" width="367" height="367"/></clipPath><clipPath id="clip6"><rect x="82" y="161" width="367" height="367"/></clipPath><clipPath id="clip7"><rect x="82" y="161" width="367" height="367"/></clipPath><clipPath id="clip8"><rect x="82" y="161" width="368" height="367"/></clipPath></defs><g clip-path="url(#clip0)" transform="translate(-81 -160)"><g clip-path="url(#clip1)"><g clip-path="url(#clip2)"><g clip-path="url(#clip3)"><g clip-path="url(#clip4)"><g clip-path="url(#clip5)"><g clip-path="url(#clip6)"><g clip-path="url(#clip7)"><g clip-path="url(#clip8)"><path d="M211.145 105.573C153.257 105.573 105.573 153.257 105.573 211.145L105.573 633.433C105.573 691.323 153.257 739.009 211.145 739.009L633.433 739.009C691.323 739.009 739.009 691.323 739.009 633.433L739.009 211.145C739.009 153.257 691.323 105.573 633.433 105.573L211.145 105.573ZM211.145 175.955 633.433 175.955C653.316 175.955 668.625 191.261 668.625 211.145L668.625 633.433C668.625 653.316 653.316 668.625 633.433 668.625L211.145 668.625C191.261 668.625 175.955 653.316 175.955 633.433L175.955 211.145C175.955 191.261 191.261 175.955 211.145 175.955ZM361.326 281.527C355.414 281.527 349.922 284.47 346.685 289.362L334.313 316.718 316.718 316.718C316.718 307.005 308.835 299.122 299.122 299.122 289.409 299.122 281.527 307.005 281.527 316.718 262.102 316.718 246.336 332.483 246.336 351.908L246.336 527.863C246.336 547.288 262.102 563.054 281.527 563.054L563.054 563.054C582.48 563.054 598.246 547.288 598.246 527.863L598.246 351.908C598.246 332.483 582.48 316.718 563.054 316.718L510.267 316.718 497.896 289.362C494.62 284.47 489.131 281.527 483.255 281.527L361.326 281.527ZM422.292 351.908C470.819 351.908 510.267 391.358 510.267 439.883 510.267 488.414 470.819 527.863 422.292 527.863 373.762 527.863 334.313 488.414 334.313 439.883 334.313 391.358 373.762 351.908 422.292 351.908ZM545.458 351.908C555.171 351.908 563.054 359.791 563.054 369.504 563.054 379.217 555.171 387.1 545.458 387.1 535.745 387.1 527.863 379.217 527.863 369.504 527.863 359.791 535.745 351.908 545.458 351.908ZM422.292 387.1C393.138 387.1 369.504 410.733 369.504 439.883 369.504 469.039 393.138 492.671 422.292 492.671 451.442 492.671 475.075 469.039 475.075 439.883 475.075 410.733 451.442 387.1 422.292 387.1Z" fill="#000000" fill-rule="nonzero" fill-opacity="1" transform="matrix(1 0 0 1.00817 -154.822 -77.0536)"/></g></g></g></g></g></g></g></g></g></svg>