<svg width="328" height="328" xmlns="http://www.w3.org/2000/svg" xmlns:xlink="http://www.w3.org/1999/xlink" xml:space="preserve" overflow="hidden"><g transform="translate(-84 -126)"><g><g><g><g><path d="M85 290.5C85 260.738 92.9642 232.764 106.887 208.175L177.033 330.289C191.02 355.325 217.78 372.25 248.5 372.25 257.633 372.25 265.808 370.781 274.558 368.035L225.827 452.467C146.249 441.418 85 373.08 85 290.5ZM318.179 332.397C326.035 320.134 330.25 305.253 330.25 290.5 330.25 266.103 319.52 244.196 302.596 229.188L400.121 229.188C407.785 248.092 412 268.849 412 290.5 412 380.808 338.808 453.425 248.5 454L318.179 332.397ZM390.157 208.75 248.5 208.75C208.328 208.75 175.883 236.915 168.347 274.342L119.61 189.89C149.506 151.608 196.129 127 248.5 127 309.046 127 361.864 159.879 390.157 208.75ZM192.297 290.5C192.297 259.461 217.461 234.297 248.5 234.297 279.539 234.297 304.703 259.461 304.703 290.5 304.703 321.539 279.539 346.703 248.5 346.703 217.461 346.703 192.297 321.539 192.297 290.5Z" fill="#000000" fill-rule="nonzero" fill-opacity="1"/></g></g></g></g></g></svg>