<svg width="402" height="402" xmlns="http://www.w3.org/2000/svg" xmlns:xlink="http://www.w3.org/1999/xlink" xml:space="preserve" overflow="hidden"><defs><clipPath id="clip0"><rect x="83" y="39" width="400" height="400"/></clipPath></defs><g transform="translate(-82 -38)"><g><g clip-path="url(#clip0)"><g><g><g><g><g><g><g><g><path d="M454.788 264.857 310.587 263.027C309.683 263.008 308.841 262.561 308.318 261.824 307.811 261.058 307.696 260.097 308.009 259.233 308.519 257.793 309.834 256.793 311.359 256.686L456.897 254.852C474.161 254.064 492.851 240.123 499.396 223.122L507.697 201.541C507.921 200.956 508.033 200.333 508.025 199.707 508.027 199.364 507.993 199.023 507.923 198.688 496.223 147.592 445.317 115.655 394.221 127.355 362.272 134.67 336.359 157.951 325.676 188.936 306.917 174.772 280.228 178.497 266.064 197.256 258.271 207.577 255.594 220.882 258.788 233.416 226.126 234.363 199.933 260.992 199.933 293.726 199.935 296.646 200.149 299.56 200.576 302.447 200.773 303.831 201.955 304.86 203.353 304.866L469.576 304.897C469.603 304.897 469.626 304.886 469.652 304.885 471.177 304.858 472.509 303.848 472.946 302.386L474.991 295.348C477.427 286.976 476.52 279.228 472.429 273.543 468.67 268.299 462.401 265.215 454.788 264.857ZM520.985 203.119C519.647 203.119 518.316 203.158 516.992 203.222 516.024 203.294 515.2 203.952 514.915 204.879L509.244 224.368C506.808 232.741 507.714 240.479 511.806 246.168 515.567 251.416 521.836 254.491 529.448 254.852L560.188 256.688C561.064 256.719 561.875 257.156 562.381 257.871 562.897 258.639 563.017 259.606 562.702 260.476 562.191 261.913 560.879 262.912 559.359 263.022L527.417 264.859C510.076 265.652 491.386 279.587 484.84 296.588L482.532 302.589C482.198 303.466 482.638 304.446 483.514 304.779 483.685 304.844 483.865 304.881 484.048 304.889 484.077 304.889 484.103 304.899 484.133 304.899L594.04 304.899C595.349 304.91 596.507 304.051 596.876 302.794 598.824 295.881 599.809 288.733 599.801 281.551 599.799 238.232 564.513 203.119 520.985 203.119Z" fill="#000000" fill-rule="nonzero" fill-opacity="1" transform="matrix(1.00034 0 0 1 -117 13.8644)"/></g></g></g></g></g></g></g></g></g></g></g></svg>