<svg width="282" height="282" xmlns="http://www.w3.org/2000/svg" xmlns:xlink="http://www.w3.org/1999/xlink" xml:space="preserve" overflow="hidden"><g transform="translate(-142 -150)"><g><g><g><g><path d="M421.958 134.064C388.021 100.127 337.36 100.127 303.423 134.064 269.486 168.001 269.486 223.006 303.423 256.943 337.36 290.88 388.021 290.88 421.958 256.943 428.745 250.156 439.768 250.156 446.555 256.943 453.343 263.73 453.343 274.753 446.555 281.541 399.044 329.052 326.392 329.052 278.88 281.541 231.368 234.029 231.368 157.033 278.88 109.521 326.392 62.0095 399.044 62.0095 446.555 109.521 453.343 116.309 453.343 127.331 446.555 134.119 439.768 140.906 428.745 140.906 421.958 134.119Z" fill="#000000" fill-rule="nonzero" fill-opacity="1" transform="matrix(1 0 0 1.00356 -63.436 95.3281)"/></g></g></g></g></g></svg>