<svg width="260" height="260" xmlns="http://www.w3.org/2000/svg" xmlns:xlink="http://www.w3.org/1999/xlink" xml:space="preserve" overflow="hidden"><g transform="translate(-100 -68)"><g><g><g><g><path d="M78.2142 24.066C48.3608 24.066 24.066 48.3546 24.066 78.2142L24.066 222.61C24.066 252.47 48.3608 276.759 78.2142 276.759L222.61 276.759C224.644 276.759 226.647 276.629 228.627 276.406L228.627 24.4185C226.647 24.1959 224.644 24.066 222.61 24.066L78.2142 24.066ZM240.66 27.227 240.66 84.2309 276.759 84.2309 276.759 78.2142C276.759 54.6901 261.657 34.6815 240.66 27.227ZM132.363 72.1979C175.489 72.1979 210.577 107.286 210.577 150.412 210.577 193.538 175.489 228.627 132.363 228.627 89.2365 228.627 54.1482 193.538 54.1482 150.412 54.1482 107.286 89.2365 72.1979 132.363 72.1979ZM132.363 84.2309C95.873 84.2309 66.1812 113.922 66.1812 150.412 66.1812 167.343 72.6275 182.764 83.1261 194.478 95.5987 181.85 113.423 174.478 132.363 174.478 151.255 174.478 169.145 181.832 181.623 194.455 192.103 182.741 198.544 167.331 198.544 150.412 198.544 113.922 168.853 84.2309 132.363 84.2309ZM240.66 96.2639 240.66 144.396 276.759 144.396 276.759 96.2639 240.66 96.2639ZM132.363 111.305C147.29 111.305 159.437 123.453 159.437 138.379 159.437 153.306 147.29 165.454 132.363 165.454 117.436 165.454 105.289 153.306 105.289 138.379 105.289 123.453 117.436 111.305 132.363 111.305ZM240.66 156.429 240.66 204.561 276.759 204.561 276.759 156.429 240.66 156.429ZM240.66 216.594 240.66 273.598C261.657 266.143 276.759 246.135 276.759 222.61L276.759 216.594 240.66 216.594Z" fill="#000000" fill-rule="nonzero" fill-opacity="1" transform="matrix(1.00763 0 0 1 78.7095 46.1283)"/></g></g></g></g></g></svg>