<svg width="723" height="721" xmlns="http://www.w3.org/2000/svg" xmlns:xlink="http://www.w3.org/1999/xlink" xml:space="preserve" overflow="hidden"><g transform="translate(-21 176)"><g><g><g><g><g><g><g><g><g><path d="M582.236 172.793 585.838 172.793 585.838 156.129 585.892 156.129 591.885 172.793 594.996 172.793 600.984 156.129 601.044 156.129 601.044 172.793 604.64 172.793 604.64 151.201 599.386 151.201 593.576 168.107 593.516 168.107 587.56 151.201 582.236 151.201 582.236 172.793ZM562.311 154.466 569.142 154.466 569.142 172.793 572.922 172.793 572.922 154.466 579.79 154.466 579.79 151.201 562.311 151.201 562.311 154.466ZM518.378 172.793 691.173 0 587.171 0 414.382 172.793 518.378 172.793ZM493.603 75.2514 284.427 75.2514C220.678 75.2514 209.521 78.6316 182.217 105.937 156.679 131.474 115.199 172.793 115.199 172.793L205.81 172.793 227.428 151.176C241.64 136.964 248.969 135.492 278.812 135.492L433.368 135.492 493.603 75.2514ZM179.427 93.614C160.567 111.408 119.533 151.269 97.4151 172.793L-0.000359985 172.793C-0.000359985 172.793 78.0586 94.9605 121.444 52.2554 166.144 9.70517 188.427 0 270.413 0L568.861 0 504.238 64.6175 276.475 64.6175C218.867 64.6175 205.922 68.6097 179.427 93.614Z" fill="#000000" fill-rule="evenodd" fill-opacity="1" transform="matrix(1.04267 0 0 1 22.6685 101.857)"/></g></g></g></g></g></g></g></g></g></g></svg>