<svg width="587" height="585" xmlns="http://www.w3.org/2000/svg" xmlns:xlink="http://www.w3.org/1999/xlink" xml:space="preserve" overflow="hidden"><g transform="translate(-13 44)"><g><g><g><g><path d="M351.166 231.451C351.166 196.234 379.798 167.602 415.014 167.602L670.407 167.602C705.624 167.602 734.256 196.234 734.256 231.451L734.256 486.843C734.256 522.06 705.624 550.692 670.407 550.692L415.014 550.692C379.798 550.692 351.166 522.06 351.166 486.843L351.166 231.451ZM908.941 203.317C919.316 208.903 925.801 219.678 925.801 231.451L925.801 486.843C925.801 498.615 919.316 509.39 908.941 514.977 898.565 520.564 885.996 519.965 876.119 513.381L780.347 449.532 766.18 440.055 766.18 422.996 766.18 295.298 766.18 278.24 780.347 268.762 876.119 204.913C885.896 198.428 898.466 197.73 908.941 203.317Z" fill="#000000" fill-rule="nonzero" fill-opacity="1" transform="matrix(1.00173 0 0 1 -334.434 -116.83)"/></g></g></g></g></g></svg>