<svg width="434" height="435" xmlns="http://www.w3.org/2000/svg" xmlns:xlink="http://www.w3.org/1999/xlink" xml:space="preserve" overflow="hidden"><g transform="translate(-100 -77)"><g><g><g><g><path d="M3814.74 325.81C3834.49 346.96 3840.71 367.321 3840.87 386.464 3841.08 409.209 3833.5 432.357 3818.09 447.984L3730.67 542.796C3716.96 557.788 3695.47 566.499 3675.58 566.852L3577.76 566.828C3547.31 566.828 3522.2 541.984 3522.2 541.994L3438.3 451.123C3417.11 428.345 3413.17 408.605 3412.65 389.478 3412.01 365.902 3423.16 341.857 3436.7 328.311L3563.49 201.042C3582.46 182.09 3606.98 174.605 3628 174.445 3648.38 174.285 3674.83 184.164 3690.6 201.521L3814.74 325.81ZM3547.19 400.909C3549.33 400.909 3551.39 400.053 3552.91 398.542 3567.8 383.653 3647.78 303.678 3647.78 303.678 3654.33 297.131 3654.33 286.489 3647.78 279.942 3641.22 273.397 3630.59 273.388 3624.04 279.942L3523.32 380.657C3519.79 384.19 3518.17 388.907 3518.43 393.531 3518.8 397.358 3522.02 400.28 3525.86 400.28 3531.99 400.909 3542.01 400.909 3547.19 400.909ZM3596.67 443.636C3598.6 443.636 3601.81 441.504 3601.81 441.504 3601.82 441.496 3645.01 398.307 3645.02 398.298 3651.58 391.743 3645.03 374.572 3645.02 374.563L3621.29 374.563C3621.28 374.572 3572.48 423.376 3572.47 423.385 3568.59 427.262 3567.01 432.566 3567.71 437.61 3568.31 440.833 3571.12 443.167 3574.4 443.167 3580.59 443.636 3591.43 443.636 3596.67 443.636ZM3661.43 463.208C3667.99 456.653 3667.99 446.02 3661.43 439.474 3654.88 432.919 3644.24 432.919 3637.7 439.474L3619.9 457.266C3616.03 461.127 3614.44 466.415 3615.14 471.441 3615.65 474.195 3618.03 476.192 3620.84 476.192 3627.45 476.512 3640.19 476.512 3645.59 476.512 3647.22 476.512 3648.76 475.865 3649.91 474.724 3653.54 471.098 3661.43 463.208 3661.43 463.208Z" fill="#000000" fill-rule="nonzero" fill-opacity="1" transform="matrix(1 0 0 1.00275 -3308.75 -77.3789)"/></g></g></g></g></g></svg>