<svg width="388" height="387" xmlns="http://www.w3.org/2000/svg" xmlns:xlink="http://www.w3.org/1999/xlink" xml:space="preserve" overflow="hidden"><g transform="translate(-60 -77)"><g><g><g><g><path d="M72.6409 239.715 450.375 239.715 450.375 355.941C450.375 391.986 421.049 421.319 384.998 421.319L138.018 421.319C101.966 421.319 72.6409 391.986 72.6409 355.941L72.6409 239.715ZM450.375 196.131 72.6409 196.131 72.6409 159.81C72.6409 123.767 101.966 94.4333 138.018 94.4333L176.126 94.4333C190.922 94.4333 205.436 99.5258 216.979 108.772L233.411 121.914C234.681 122.931 236.28 123.49 237.929 123.49L384.998 123.49C421.049 123.49 450.375 152.822 450.375 188.867L450.375 196.131Z" fill="#000000" fill-rule="nonzero" fill-opacity="1" transform="matrix(1.00322 0 0 1 -7.3175 11.1328)"/></g></g></g></g></g></svg>