<svg width="533" height="533" xmlns="http://www.w3.org/2000/svg" xmlns:xlink="http://www.w3.org/1999/xlink" xml:space="preserve" overflow="hidden"><g transform="translate(-73 -44)"><g><g><g><g><path d="M991.972 4050.71 991.972 4050.57 991.972 3905.11 990.63 3904.12 990.518 3904.12 959.976 3881.52C941.292 3867.65 914.666 3868.32 898.108 3884.65 887.032 3895.62 880.096 3910.83 880.096 3927.73L880.096 3968.02 991.972 4050.71ZM1282.85 4050.57 1282.85 4050.71 1394.73 3968.02 1394.73 3927.73C1394.73 3911.06 1388.02 3895.84 1377.05 3884.88 1360.72 3868.58 1334.93 3866.66 1316.37 3880.37L1284.19 3904.12 1282.85 3905.11 1282.85 4050.57ZM1014.35 4067.1 1130.77 4153.16C1134.72 4156.08 1140.12 4156.08 1144.07 4153.16L1260.48 4067.1 1260.48 3921.65 1137.41 4012.64 1014.35 3921.65 1014.35 4067.1ZM1282.85 4078.52 1282.85 4247.58C1282.85 4253.76 1287.86 4258.77 1294.04 4258.77L1366.76 4258.77C1382.21 4258.77 1394.73 4246.25 1394.73 4230.8L1394.73 3995.82 1282.85 4078.52ZM991.972 4078.52 880.096 3995.82 880.096 4230.8C880.096 4246.25 892.611 4258.77 908.065 4258.77L980.785 4258.77C986.96 4258.77 991.972 4253.76 991.972 4247.58L991.972 4078.52Z" fill="#000000" fill-rule="nonzero" fill-opacity="1" transform="matrix(1 0 0 1.00063 -798.486 -3750.01)"/></g></g></g></g></g></svg>