<svg width="452" height="453" xmlns="http://www.w3.org/2000/svg" xmlns:xlink="http://www.w3.org/1999/xlink" xml:space="preserve" overflow="hidden"><g transform="translate(-48 -108)"><g><g><g><g><path d="M1182.85 2974C1167.81 2974 1155.29 2986.33 1155.29 3001.39L1155.29 3050.18C1147.24 3052.93 1139.98 3057.9 1134.48 3064.64 1125.69 3075.35 1122.2 3089.48 1124.98 3103.06 1134.69 3149.99 1148.5 3216.95 1149 3219.37 1148.49 3221.82 1134.74 3288.46 1125.06 3335.38 1122.25 3349.04 1125.77 3363.24 1134.6 3374.02 1143.44 3384.79 1156.68 3391.07 1170.67 3391.07L1513.84 3391.07C1527.99 3391.07 1541.39 3384.73 1550.36 3373.82L1550.38 3373.82C1559.34 3362.89 1562.87 3348.5 1560.03 3334.67 1550.35 3287.76 1536.75 3221.77 1536.25 3219.35 1536.75 3216.91 1550.54 3149.89 1560.21 3102.96 1563 3089.41 1559.54 3075.3 1550.75 3064.57 1545.35 3057.99 1538.3 3053.16 1530.48 3050.38L1530.48 3001.39C1530.48 2986.33 1517.97 2974 1502.93 2974L1182.85 2974ZM1182.85 2994.86 1502.93 2994.86C1506.8 2994.86 1509.62 2997.73 1509.62 3001.39L1509.62 3047.67 1176.14 3047.67 1176.14 3001.39C1176.14 2997.73 1178.97 2994.86 1182.85 2994.86ZM1290.54 3140.27C1338.47 3140.27 1340.26 3176.66 1340.26 3183.76 1340.26 3202.39 1324.27 3213.04 1318.06 3216.59L1318.06 3217.48C1319.85 3217.8 1322.02 3218.48 1324.27 3219.35L1280.79 3219.35 1280.79 3228.12C1284.34 3227.23 1287.89 3227.22 1292.31 3227.22 1296.74 3227.22 1326.93 3228.12 1326.93 3258.3 1326.93 3287.58 1295.87 3290.23 1291.43 3290.23 1275.7 3290.23 1257.46 3280.69 1256.91 3254.96L1237.33 3254.96C1237.51 3267.75 1241.38 3307.1 1291.43 3307.1 1301.2 3307.1 1347.34 3304.44 1347.34 3257.4 1347.34 3233.52 1334.39 3223.31 1324.3 3219.35L1415.49 3219.35 1415.49 3186.16 1374.65 3186.16 1374.65 3171.48C1387.82 3171.48 1398.26 3169.33 1405.97 3165.06 1413.7 3160.79 1418.85 3152.9 1421.46 3141.43L1436.84 3141.43 1436.84 3219.35 1514.96 3219.35 1515.39 3221.47C1515.39 3221.47 1529.75 3291.11 1539.6 3338.87 1541.18 3346.55 1539.24 3354.49 1534.25 3360.58 1529.24 3366.68 1521.77 3370.21 1513.84 3370.21L1170.67 3370.21C1162.9 3370.21 1155.61 3366.76 1150.73 3360.81 1145.86 3354.84 1143.95 3347.09 1145.49 3339.6 1155.35 3291.82 1169.86 3221.47 1169.86 3221.47L1170.28 3219.35 1280.79 3219.35 1280.79 3211.27 1288.77 3211.27C1317.18 3211.27 1319.85 3189.08 1319.85 3184.63 1319.85 3175.76 1316.28 3158.02 1290.54 3158.02 1263.06 3158.02 1259.81 3185.38 1259.52 3192.41L1239.99 3192.41C1240.23 3182.22 1244.36 3140.27 1290.54 3140.27ZM1415.69 3219.35 1415.69 3303.83 1436.35 3303.83 1436.35 3219.35 1415.69 3219.35Z" fill="#000000" fill-rule="nonzero" fill-opacity="1" transform="matrix(1 0 0 1.0006 -1068.83 -2849.7)"/></g></g></g></g></g></svg>