<svg width="311" height="312" xmlns="http://www.w3.org/2000/svg" xmlns:xlink="http://www.w3.org/1999/xlink" xml:space="preserve" overflow="hidden"><g transform="translate(-141 -132)"><g><g><g><g><path d="M247.788 374.524 348.41 374.524 348.41 441.605 247.788 441.605 247.788 374.524ZM147.166 415.778 214.246 348.698 214.246 441.605 172.32 441.605C158.402 441.605 147.166 430.369 147.166 416.45L147.166 415.778ZM345.39 169.926 298.1 217.385 214.246 301.238 147.166 368.15 147.166 287.317C147.166 278.429 150.687 269.877 157.059 263.672L274.45 146.28C287.53 133.031 308.66 133.031 321.74 146.28L345.39 169.926ZM449.03 287.317 449.03 416.45C449.03 430.369 437.8 441.605 423.88 441.605L381.95 441.605 381.95 301.238 321.91 241.2 369.2 193.74 439.14 263.672C445.51 269.877 449.03 278.429 449.03 287.317Z" fill="#000000" fill-rule="nonzero" fill-opacity="1"/></g></g></g></g></g></svg>