<svg width="450" height="451" xmlns="http://www.w3.org/2000/svg" xmlns:xlink="http://www.w3.org/1999/xlink" xml:space="preserve" overflow="hidden"><g transform="translate(-94 -82)"><g><g><g><g><path d="M3298.3 114.243 3298.3 142.325 3228.97 134.585C3221.46 130.716 3212.95 128.615 3204.1 128.615 3201.01 128.615 3197.8 128.946 3194.7 129.499L3010.85 161.008 3010.85 114.243C3010.85 102.081 3020.8 92.1313 3032.96 92.1313L3276.19 92.1313C3288.34 92.1313 3298.3 102.081 3298.3 114.243ZM3374.36 206.669 3368.06 263.053C3358.33 246.802 3340.64 235.856 3320.41 235.856L3269.12 235.856 3258.61 174.607C3258.39 173.391 3258.17 172.285 3257.83 171.18L3298.3 175.713 3354.9 182.125C3367.07 183.562 3375.8 194.508 3374.36 206.669ZM3235.39 235.856 2988.74 235.856C2967.62 235.856 2949.38 247.686 2939.98 265.043L2934.01 230.328C2931.91 218.277 2939.98 206.779 2952.03 204.789L3200.35 162.114C3212.39 160.124 3223.79 168.195 3225.88 180.245L3235.39 235.856ZM3320.41 269.023 2988.74 269.023C2976.58 269.023 2966.63 278.973 2966.63 291.135L2966.63 501.194C2966.63 513.355 2976.58 523.305 2988.74 523.305L3320.41 523.305C3332.57 523.305 3342.52 513.355 3342.52 501.194L3342.52 291.135C3342.52 278.973 3332.57 269.023 3320.41 269.023ZM3204.32 324.302 3259.61 324.302C3268.78 324.302 3276.19 331.709 3276.19 340.885 3276.19 350.062 3268.78 357.469 3259.61 357.469L3204.32 357.469C3195.15 357.469 3187.74 350.062 3187.74 340.885 3187.74 331.709 3195.15 324.302 3204.32 324.302ZM3082.71 468.027C3043.13 468.027 3010.85 435.744 3010.85 396.165 3010.85 356.585 3043.13 324.302 3082.71 324.302 3098.4 324.302 3113.22 329.277 3125.71 338.564 3133.13 344.091 3134.56 354.484 3129.04 361.781 3123.62 369.189 3113.22 370.625 3105.82 365.208 3099.18 360.123 3091.11 357.469 3082.71 357.469 3061.38 357.469 3044.02 374.827 3044.02 396.165 3044.02 417.502 3061.38 434.86 3082.71 434.86 3098.08 434.86 3111.46 425.794 3117.64 412.748L3082.71 412.748C3073.53 412.748 3066.13 405.34 3066.13 396.165 3066.13 386.988 3073.53 379.581 3082.71 379.581L3137.99 379.581C3147.17 379.581 3154.57 386.988 3154.57 396.165 3154.57 435.744 3122.29 468.027 3082.71 468.027ZM3259.61 468.027 3204.32 468.027C3195.15 468.027 3187.74 460.619 3187.74 451.443 3187.74 442.267 3195.15 434.86 3204.32 434.86L3259.61 434.86C3268.78 434.86 3276.19 442.267 3276.19 451.443 3276.19 460.619 3268.78 468.027 3259.61 468.027ZM3281.72 412.748 3204.32 412.748C3195.15 412.748 3187.74 405.34 3187.74 396.165 3187.74 386.988 3195.15 379.581 3204.32 379.581L3281.72 379.581C3290.89 379.581 3298.3 386.988 3298.3 396.165 3298.3 405.34 3290.89 412.748 3281.72 412.748Z" fill="#000000" fill-rule="nonzero" fill-opacity="1" transform="matrix(1.00686 0 0 1 -2855.99 -1.05591)"/></g></g></g></g></g></svg>