<svg width="333" height="334" xmlns="http://www.w3.org/2000/svg" xmlns:xlink="http://www.w3.org/1999/xlink" xml:space="preserve" overflow="hidden"><g transform="translate(-100 -110)"><g><g><g><g><path d="M318.411 170.819C318.411 263.145 255.185 328.85 161.815 328.85 72.2949 328.85 0 256.556 0 167.035 0 77.5145 72.2949 5.21985 161.815 5.21985 205.401 5.21985 242.07 21.2056 270.323 47.566L226.28 89.912C168.666 34.3205 61.5289 76.0793 61.5289 167.035 61.5289 223.474 106.615 269.213 161.815 269.213 225.889 269.213 249.9 223.279 253.684 199.463L161.815 199.463 161.815 143.807 315.866 143.807C317.367 152.093 318.411 160.053 318.411 170.819Z" fill="#000000" fill-rule="nonzero" fill-opacity="1" transform="matrix(1.01786 0 0 1 103.581 107.933)"/></g></g></g></g></g></svg>