<svg width="357" height="357" xmlns="http://www.w3.org/2000/svg" xmlns:xlink="http://www.w3.org/1999/xlink" xml:space="preserve" overflow="hidden"><g transform="translate(-168 -165)"><g><g><g><g><path d="M2262.82 1668.35C2262.82 1621.28 2224.67 1583.12 2177.59 1583.12 2130.52 1583.12 2092.36 1621.28 2092.36 1668.35 2092.36 1668.35 2092.36 1671.1 2092.36 1672.41 2092.36 1676.89 2096 1680.53 2100.48 1680.53 2104.96 1680.53 2262.82 1680.53 2262.82 1680.53 2262.82 1680.53 2262.82 1676.89 2262.82 1672.41 2262.82 1671.1 2262.82 1668.35 2262.82 1668.35Z" fill="#000000" fill-rule="nonzero" fill-opacity="1" transform="matrix(1.0027 0 0 1 -1920.69 -1336.81)"/><path d="M2250.65 1680.53C2203.57 1680.53 2165.42 1718.68 2165.42 1765.76 2165.42 1812.83 2203.57 1850.98 2250.65 1850.98 2250.65 1850.98 2253.4 1850.98 2254.7 1850.98 2259.19 1850.98 2262.82 1847.35 2262.82 1842.87 2262.82 1838.39 2262.82 1680.53 2262.82 1680.53 2262.82 1680.53 2259.19 1680.53 2254.7 1680.53 2253.4 1680.53 2250.65 1680.53 2250.65 1680.53Z" fill="#000000" fill-rule="nonzero" fill-opacity="1" transform="matrix(1.0027 0 0 1 -1920.69 -1336.81)"/><path d="M2262.82 1692.7C2262.82 1739.77 2300.98 1777.93 2348.05 1777.93 2395.12 1777.93 2433.28 1739.77 2433.28 1692.7 2433.28 1692.7 2433.28 1689.95 2433.28 1688.64 2433.28 1684.16 2429.65 1680.53 2425.17 1680.53 2420.68 1680.53 2262.82 1680.53 2262.82 1680.53 2262.82 1680.53 2262.82 1684.16 2262.82 1688.64 2262.82 1689.95 2262.82 1692.7 2262.82 1692.7Z" fill="#000000" fill-rule="nonzero" fill-opacity="1" transform="matrix(1.0027 0 0 1 -1920.69 -1336.81)"/><path d="M2275 1680.53C2322.07 1680.53 2360.23 1642.37 2360.23 1595.3 2360.23 1548.22 2322.07 1510.07 2275 1510.07 2275 1510.07 2272.25 1510.07 2270.94 1510.07 2266.46 1510.07 2262.82 1513.7 2262.82 1518.18 2262.82 1522.66 2262.82 1680.53 2262.82 1680.53 2262.82 1680.53 2266.46 1680.53 2270.94 1680.53 2272.25 1680.53 2275 1680.53 2275 1680.53Z" fill="#000000" fill-rule="nonzero" fill-opacity="1" transform="matrix(1.0027 0 0 1 -1920.69 -1336.81)"/></g></g></g></g></g></svg>