<svg width="325" height="326" xmlns="http://www.w3.org/2000/svg" xmlns:xlink="http://www.w3.org/1999/xlink" xml:space="preserve" overflow="hidden"><g transform="translate(-97 -144)"><g><g><g><g><path d="M410.836 146.896C421.876 154.042 425.044 168.792 417.898 179.833L390.255 222.547C392.006 231.48 393.025 240.667 393.025 250.106 393.025 329.01 329.01 393.025 250.106 393.025 171.204 393.025 107.188 329.01 107.188 250.106 107.188 171.204 171.204 107.188 250.106 107.188 285.777 107.188 318.349 120.289 343.42 141.905L258.919 272.497 210.388 216.938C203.897 209.494 192.641 208.72 185.198 215.211 177.754 221.702 176.98 232.956 183.471 240.4L247.546 313.883C251 317.754 255.883 320.017 261.004 320.017 261.48 320.017 261.897 319.957 262.314 319.957 267.912 319.541 272.973 316.563 276.011 311.859L377.899 153.958C385.045 142.906 399.783 139.744 410.836 146.896Z" fill="#000000" fill-rule="nonzero" fill-opacity="1" transform="matrix(1.00003 0 0 1 -3.71606 56.7289)"/></g></g></g></g></g></svg>