<svg width="720" height="720" xmlns="http://www.w3.org/2000/svg" xmlns:xlink="http://www.w3.org/1999/xlink" xml:space="preserve" overflow="hidden"><g transform="translate(-280 0)"><g><path d="M623.393 483.883 594.671 549.669C583.629 574.956 548.636 574.956 537.595 549.669L508.872 483.883C483.311 425.337 437.302 378.736 379.912 353.261L300.852 318.167C275.716 307.01 275.716 270.443 300.852 259.286L377.443 225.288C436.309 199.158 483.143 150.829 508.267 90.2873L537.363 20.1795C548.159-5.83758 584.106-5.83764 594.903 20.1795L623.999 90.288C649.123 150.829 695.957 199.158 754.823 225.288L831.414 259.286C856.55 270.443 856.55 307.01 831.414 318.167L752.353 353.261C694.964 378.736 648.955 425.337 623.393 483.883Z" fill="#000000" fill-rule="nonzero" fill-opacity="1"/><path d="M890.323 691.32 882.245 709.833C876.333 723.387 857.566 723.387 851.654 709.833L843.576 691.32C829.177 658.31 803.241 632.028 770.879 617.65L745.991 606.593C732.535 600.614 732.535 581.052 745.991 575.073L769.487 564.634C802.682 549.886 829.082 522.631 843.234 488.5L851.529 468.494C857.311 454.551 876.588 454.551 882.369 468.494L890.665 488.5C904.817 522.631 931.217 549.886 964.413 564.634L987.907 575.073C1001.37 581.052 1001.37 600.614 987.907 606.593L963.02 617.65C930.658 632.028 904.722 658.31 890.323 691.32Z" fill="#000000" fill-rule="nonzero" fill-opacity="1"/></g></g></svg>