<svg width="433" height="436" xmlns="http://www.w3.org/2000/svg" xmlns:xlink="http://www.w3.org/1999/xlink" xml:space="preserve" overflow="hidden"><g transform="translate(-56 -60)"><g><g><g><g><path d="M80.2032 40.1016C58.047 40.1016 40.1016 58.047 40.1016 80.2032L40.1016 421.067C40.1016 443.222 58.047 461.168 80.2032 461.168L344.975 461.168 461.168 344.975 461.168 80.2032C461.168 58.047 443.222 40.1016 421.067 40.1016L80.2032 40.1016ZM250.635 110.28C300.361 110.28 340.864 150.782 340.864 200.508 340.864 235.196 321.414 266.18 290.737 281.319L290.737 360.915 270.685 360.915 270.685 380.965 230.584 380.965 230.584 360.915 210.534 360.915 210.534 281.319C179.856 266.18 160.407 235.196 160.407 200.508 160.407 197.601 160.497 194.602 160.798 191.795 163.004 168.536 173.835 148.178 189.875 133.541 205.916 119.005 227.276 110.28 250.635 110.28ZM250.635 130.33C214.343 130.33 184.259 157.602 180.751 193.694 180.551 195.9 180.457 198.202 180.457 200.508 180.457 229.281 197.692 254.747 224.26 265.575L230.584 268.081 230.584 300.762 270.685 300.762 270.685 268.081 277.011 265.575C303.578 254.747 320.812 229.281 320.812 200.508 320.812 161.81 289.333 130.33 250.635 130.33ZM230.584 320.812 230.584 340.864 270.685 340.864 270.685 320.812 230.584 320.812ZM360.915 340.864 437.003 340.864 340.864 437.003 340.864 360.915C340.864 349.886 349.886 340.864 360.915 340.864Z" fill="#000000" fill-rule="nonzero" fill-opacity="1" transform="matrix(1 0 0 1.00279 22.3672 28.1509)"/></g></g></g></g></g></svg>