<svg width="129" height="129" xmlns="http://www.w3.org/2000/svg" xmlns:xlink="http://www.w3.org/1999/xlink" xml:space="preserve" overflow="hidden"><g transform="translate(-185 -193)"><g><g><g><g><path d="M220.543 206.7C208.54 206.7 198.7 216.54 198.7 228.543L198.7 286.457C198.7 298.46 208.54 308.3 220.543 308.3L238.68 308.3 247.57 318.673C248.482 319.739 250.086 319.864 251.152 318.951 251.252 318.866 251.344 318.773 251.43 318.673L260.32 308.3 278.457 308.3C290.46 308.3 300.3 298.46 300.3 286.457L300.3 228.543C300.3 216.54 290.46 206.7 278.457 206.7L220.543 206.7ZM239.34 221.94C240.737 221.94 241.88 223.083 241.88 224.48L241.88 232.1 257.12 232.1 257.12 224.48C257.12 223.083 258.263 221.94 259.66 221.94 261.057 221.94 262.2 223.083 262.2 224.48L262.2 232.1 269.82 232.1C271.217 232.1 272.36 233.243 272.36 234.64 272.36 236.037 271.217 237.18 269.82 237.18L262.2 237.18 262.2 252.42 269.82 252.42C271.217 252.42 272.36 253.563 272.36 254.96 272.36 256.357 271.217 257.5 269.82 257.5L262.2 257.5 262.2 265.12C262.2 266.517 261.057 267.66 259.66 267.66 258.263 267.66 257.12 266.517 257.12 265.12L257.12 257.5 241.88 257.5 241.88 265.12C241.88 266.517 240.737 267.66 239.34 267.66 237.943 267.66 236.8 266.517 236.8 265.12L236.8 257.5 229.18 257.5C227.783 257.5 226.64 256.357 226.64 254.96 226.64 253.563 227.783 252.42 229.18 252.42L236.8 252.42 236.8 237.18 229.18 237.18C227.783 237.18 226.64 236.037 226.64 234.64 226.64 233.243 227.783 232.1 229.18 232.1L236.8 232.1 236.8 224.48C236.8 223.083 237.943 221.94 239.34 221.94ZM241.88 237.18 241.88 252.42 257.12 252.42 257.12 237.18 241.88 237.18ZM218.707 267.685C219.69 267.556 220.688 268.016 221.203 268.93 227.223 279.268 237.791 285.44 249.5 285.44 261.184 285.44 271.752 279.268 277.797 268.93 278.508 267.711 280.056 267.306 281.25 268.017 282.469 268.703 282.874 270.276 282.163 271.47 275.229 283.408 263.013 290.52 249.5 290.52 235.962 290.52 223.746 283.408 216.837 271.47 216.126 270.251 216.531 268.703 217.75 268.017 218.055 267.839 218.38 267.728 218.707 267.685Z" fill="#000000" fill-rule="nonzero" fill-opacity="1"/></g></g></g></g></g></svg>