<svg width="123" height="121" xmlns="http://www.w3.org/2000/svg" xmlns:xlink="http://www.w3.org/1999/xlink" xml:space="preserve" overflow="hidden"><g transform="translate(-222 -228)"><g><g><g><g><path d="M322.832 21.3663C322.31 21.3663 321.79 21.5319 321.346 21.8679L266.142 64.9536C265.11 65.7697 264.919 67.2774 265.734 68.3335 266.55 69.3655 268.059 69.5575 269.114 68.7415L272.429 66.1537 272.429 129.252C272.429 130.572 273.509 131.652 274.829 131.652L308.431 131.652 308.431 88.449 337.233 88.449 337.233 131.652 370.835 131.652C372.155 131.652 373.235 130.572 373.235 129.252L373.235 66.1537 376.55 68.7415C377.006 69.0775 377.508 69.2477 378.036 69.2477 378.756 69.2477 379.45 68.9335 379.93 68.3335 380.745 67.2774 380.554 65.7697 379.521 64.9536L324.318 21.8679C323.874 21.5319 323.354 21.3663 322.832 21.3663ZM346.834 30.8451 346.834 33.3671 361.235 44.5992 361.235 30.8451 346.834 30.8451Z" fill="#000000" fill-rule="nonzero" fill-opacity="1" transform="matrix(1.00826 0 0 1 -41 210.148)"/></g></g></g></g></g></svg>