<svg width="497" height="497" xmlns="http://www.w3.org/2000/svg" xmlns:xlink="http://www.w3.org/1999/xlink" xml:space="preserve" overflow="hidden"><g transform="translate(-73 -49)"><g><g><g><g><path d="M3493.82 957.114C3269.33 957.114 3251.75 974.685 3251.75 1199.17L3251.75 1204.74C3251.75 1429.23 3269.33 1446.8 3493.82 1446.8L3499.38 1446.8C3723.87 1446.8 3741.45 1429.23 3741.45 1204.74L3741.45 1199.17C3741.45 974.685 3723.87 957.114 3499.38 957.114L3493.82 957.114ZM3641.24 1051.71C3650.47 1051.69 3657.96 1059.14 3657.98 1068.37 3658 1077.59 3650.55 1085.07 3641.33 1085.09 3632.1 1085.12 3624.61 1077.68 3624.58 1068.46 3624.56 1059.22 3632.02 1051.73 3641.24 1051.71ZM3496.34 1090.66C3557.8 1090.52 3607.75 1140.24 3607.9 1201.7 3608.04 1263.15 3558.32 1313.1 3496.86 1313.25 3435.4 1313.39 3385.45 1263.67 3385.3 1202.22 3385.17 1140.76 3434.88 1090.81 3496.34 1090.66ZM3496.49 1157.44C3471.91 1157.51 3452.03 1177.48 3452.08 1202.07 3452.15 1226.65 3472.13 1246.53 3496.71 1246.48 3521.3 1246.42 3541.17 1226.44 3541.12 1201.85 3541.05 1177.27 3521.08 1157.39 3496.49 1157.44Z" fill="#000000" fill-rule="nonzero" fill-opacity="1" transform="matrix(1.00504 0 0 1 -3192.51 -903.284)"/></g></g></g></g></g></svg>