<svg width="471" height="472" xmlns="http://www.w3.org/2000/svg" xmlns:xlink="http://www.w3.org/1999/xlink" xml:space="preserve" overflow="hidden"><g transform="translate(-89 -74)"><g><g><g><g><path d="M515.296 550.948 422.593 550.948 422.593 252.418 515.296 252.418ZM468.894 211.696C439.25 211.696 415.207 187.143 415.207 157.499 415.207 127.849 439.243 103.812 468.894 103.812 498.544 103.812 522.581 127.849 522.581 157.499 522.581 187.143 498.527 211.696 468.894 211.696ZM862.252 550.948 769.749 550.948 769.749 405.625C769.749 370.992 769.051 326.576 721.552 326.576 673.353 326.576 665.968 364.204 665.968 403.129L665.968 550.948 573.364 550.948 573.364 252.418 662.275 252.418 662.275 293.14 663.572 293.14C675.949 269.685 706.18 244.932 751.285 244.932 845.105 244.932 862.352 306.714 862.352 386.961L862.352 550.948Z" fill="#000000" fill-rule="nonzero" fill-opacity="1" transform="matrix(1 0 0 1.0023 -314.255 -18.1706)"/></g></g></g></g></g></svg>