<svg width="414" height="415" xmlns="http://www.w3.org/2000/svg" xmlns:xlink="http://www.w3.org/1999/xlink" xml:space="preserve" overflow="hidden"><g transform="translate(-44 -65)"><g><g><g><g><path d="M348.469 135.516C327.093 135.516 309.75 152.858 309.75 174.234 309.75 186.415 315.477 197.869 325.238 205.209L500.762 336.853C509.958 343.71 522.542 343.71 531.737 336.853L707.263 205.209C717.023 197.869 722.75 186.415 722.75 174.234 722.75 152.858 705.407 135.516 684.031 135.516L348.469 135.516ZM309.75 225.859 309.75 393.641C309.75 422.115 332.901 445.266 361.375 445.266L671.125 445.266C699.599 445.266 722.75 422.115 722.75 393.641L722.75 225.859 547.225 357.503C528.834 371.297 503.666 371.297 485.275 357.503L309.75 225.859Z" fill="#000000" fill-rule="nonzero" fill-opacity="1" transform="matrix(1.00242 0 0 1 -266.5 -17.8906)"/></g></g></g></g></g></svg>