<svg width="640" height="640" xmlns="http://www.w3.org/2000/svg" xmlns:xlink="http://www.w3.org/1999/xlink" xml:space="preserve" overflow="hidden"><g transform="translate(6 12)"><g><g><g><path d="M499.539 177.92C400.044 177.92 319.386 259.135 319.386 359.309 319.386 459.483 400.05 540.698 499.539 540.698 599.029 540.698 679.693 459.489 679.693 359.309 679.693 259.129 599.039 177.92 499.539 177.92ZM787.236 188.545C737.487 188.545 697.165 265.017 697.165 359.312 697.165 453.606 737.493 530.084 787.242 530.084 836.991 530.084 877.32 453.611 877.32 359.312L877.313 359.312C877.313 264.99 836.99 188.545 787.238 188.545ZM926.474 206.333C908.982 206.333 894.8 274.829 894.8 359.312 894.8 443.796 908.973 512.292 926.474 512.292 943.976 512.292 958.157 443.778 958.157 359.309 958.157 274.823 943.97 206.333 926.476 206.333Z" fill="#000000" fill-rule="nonzero" fill-opacity="1" transform="matrix(1.00036 0 0 1 -324.502 -51.538)"/></g></g></g></g></svg>