<svg width="528" height="529" xmlns="http://www.w3.org/2000/svg" xmlns:xlink="http://www.w3.org/1999/xlink" xml:space="preserve" overflow="hidden"><g transform="translate(-84 -77)"><g><g><g><g><path d="M260.542 20.8434C128.195 20.8434 20.8434 120.908 20.8434 244.91 20.8434 310.574 51.05 372.046 104.217 414.791L104.217 506.509 193.86 459.613C215.72 465.841 237.623 467.917 260.542 467.917 392.889 467.917 500.241 367.894 500.241 243.851 500.241 120.908 392.889 20.8434 260.542 20.8434ZM284.52 318.92 224.066 254.272 111.504 317.861 236.564 185.514 298.077 246.986 407.504 185.514Z" fill="#000000" fill-rule="nonzero" fill-opacity="1" transform="matrix(1 -1.22465e-16 1.23956e-16 1.01218 90.916 81.9276)"/></g></g></g></g></g></svg>