<svg width="513" height="514" xmlns="http://www.w3.org/2000/svg" xmlns:xlink="http://www.w3.org/1999/xlink" xml:space="preserve" overflow="hidden"><defs><clipPath id="clip0"><rect x="170" y="55" width="512" height="512"/></clipPath><clipPath id="clip1"><rect x="170" y="55" width="512" height="512"/></clipPath><clipPath id="clip2"><rect x="170" y="55" width="512" height="512"/></clipPath><clipPath id="clip3"><rect x="170" y="55" width="512" height="512"/></clipPath><clipPath id="clip4"><rect x="170" y="55" width="512" height="512"/></clipPath></defs><g transform="translate(-169 -54)"><g><g clip-path="url(#clip0)"><g clip-path="url(#clip1)"><g clip-path="url(#clip2)"><g clip-path="url(#clip3)"><g clip-path="url(#clip4)"><path d="M682 295C682 409.9 567.4 503 426 503 388.9 503 353.7 496.6 321.9 485.1 310 493.8 290.6 505.7 267.6 515.7 243.6 526.1 214.7 535 186 535 179.5 535 173.7 531.1 171.2 525.1 168.7 519.1 170.1 512.3 174.6 507.7L174.6 507.7 174.9 507.4C175.2 507.1 175.6 506.7 176.2 506 177.3 504.8 179 502.9 181.1 500.3 185.2 495.3 190.7 487.9 196.3 478.7 206.3 462.1 215.8 440.3 217.7 415.8 187.7 381.8 170 340.1 170 295 170 180.1 284.6 87 426 87 567.4 87 682 180.1 682 295Z" fill="#000000" fill-rule="nonzero" fill-opacity="1"/></g></g></g></g></g></g></g></svg>