<svg width="337" height="340" xmlns="http://www.w3.org/2000/svg" xmlns:xlink="http://www.w3.org/1999/xlink" xml:space="preserve" overflow="hidden"><g transform="translate(-84 -144)"><g><g><g><g><path d="M414.035 117.18C370.96 117.18 335.916 152.224 335.916 195.3L335.916 367.163C335.916 410.239 370.96 445.284 414.035 445.284L585.9 445.284C628.976 445.284 664.02 410.239 664.02 367.163L664.02 195.3C664.02 152.224 628.976 117.18 585.9 117.18L414.035 117.18ZM351.54 226.548 648.395 226.548 648.395 289.044 351.54 289.044 351.54 226.548ZM367.163 242.172 367.163 257.796 382.788 257.796 382.788 242.172 367.163 242.172ZM398.412 242.172 398.412 257.796 414.035 257.796 414.035 242.172 398.412 242.172ZM429.66 242.172 429.66 257.796 445.284 257.796 445.284 242.172 429.66 242.172ZM460.907 242.172 460.907 257.796 476.532 257.796 476.532 242.172 460.907 242.172ZM492.157 242.172 492.157 257.796 507.779 257.796 507.779 242.172 492.157 242.172ZM523.404 242.172 523.404 257.796 539.029 257.796 539.029 242.172 523.404 242.172ZM554.651 242.172 554.651 257.796 570.276 257.796 570.276 242.172 554.651 242.172ZM585.9 242.172 585.9 257.796 601.523 257.796 601.523 242.172 585.9 242.172ZM617.148 242.172 617.148 257.796 632.772 257.796 632.772 242.172 617.148 242.172ZM351.54 304.668 648.395 304.668 648.395 359.352 351.54 359.352 351.54 304.668ZM351.54 374.975 648.395 374.975C644.529 405.755 617.711 429.66 585.9 429.66L414.035 429.66C382.225 429.66 355.406 405.755 351.54 374.975Z" fill="#000000" fill-rule="nonzero" fill-opacity="1" transform="matrix(1 0 0 1.00461 -246.798 33.623)"/></g></g></g></g></g></svg>