<svg width="541" height="541" xmlns="http://www.w3.org/2000/svg" xmlns:xlink="http://www.w3.org/1999/xlink" xml:space="preserve" overflow="hidden"><g transform="translate(-40 -61)"><g><g><g><g><path d="M2526.61 3768.3C2523.65 3765.59 2519.91 3764.05 2515.92 3764.05 2515.65 3764.05 2515.27 3764.17 2514.88 3764.17L2130.03 3788.92C2121.91 3789.43 2115.46 3796.4 2115.46 3804.52L2115.46 4175.06C2115.46 4179.45 2117.27 4183.44 2120.36 4186.4 2123.59 4189.37 2127.71 4190.91 2132.09 4190.66L2516.94 4165.78C2525.19 4165.27 2531.51 4158.44 2531.51 4150.19L2531.51 3779.77C2531.51 3775.39 2529.83 3771.26 2526.61 3768.3ZM2442.71 3868.7C2434.97 3871.15 2432.52 3871.28 2432.52 3871.28L2432.52 4093.48C2419.38 4100.57 2408.55 4103.92 2397.21 4103.92 2383.42 4103.92 2375.56 4100.83 2364.99 4084.58 2342.56 4049.92 2269.48 3932.37 2269.48 3932.37L2269.48 4079.94 2298.23 4086C2298.23 4086 2297.45 4102.76 2272.32 4104.69 2250.28 4106.37 2202.21 4108.82 2202.21 4108.82 2202.21 4102.76 2203.5 4094.38 2213.03 4091.93 2217.55 4090.77 2231.08 4087.16 2231.08 4087.16L2231.08 3888.03 2202.21 3888.03C2202.21 3874.76 2206.07 3864.45 2220 3863.42L2294.62 3859.17 2394.25 4012.8 2394.25 3876.05 2365.37 3873.6C2365.37 3861.61 2376.97 3854.27 2386.9 3853.23L2451.86 3849.63C2451.86 3858 2451.47 3865.87 2442.71 3868.7ZM2015.71 3709.14 2089.69 3783.12 2089.69 4163.85 2023.7 4084.45C2018.42 4076.98 2015.71 4068.34 2015.71 4059.19L2015.71 3709.14ZM2502.12 3739.69 2127.58 3763.27C2114.82 3764.17 2102.45 3759.41 2093.43 3750.51L2031.95 3688.9 2382.39 3664.55C2392.83 3663.64 2403.27 3666.74 2411.77 3673.05L2502.12 3739.69Z" fill="#000000" fill-rule="nonzero" fill-opacity="1" transform="matrix(1.00634 -1.23241e-16 1.22465e-16 1 -1977.23 -3596.2)"/></g></g></g></g></g></svg>