<svg width="385" height="384" xmlns="http://www.w3.org/2000/svg" xmlns:xlink="http://www.w3.org/1999/xlink" xml:space="preserve" overflow="hidden"><g transform="translate(-113 -168)"><g><g><g><g><path d="M208.222 63.0973C176.408 63.0973 149.268 82.7922 138.074 110.593 128.118 104.612 116.591 100.956 104.111 100.956 67.5267 100.956 37.8584 130.612 37.8584 167.208 37.8584 170.741 38.3637 174.142 38.8937 177.536 16.8474 181.536 0 200.839 0 223.996 0 250.017 21.3016 271.318 47.3231 271.318L75.1993 271.318C71.4765 262.586 69.4072 252.995 69.4072 242.925 69.4072 207.83 94.4604 178.468 127.625 171.793 141.96 137.14 175.961 113.575 214.728 113.575 236.687 113.575 257.604 121.249 274.351 135.093 277.316 134.272 280.33 133.686 283.372 133.244 280.469 94.073 248.124 63.0973 208.222 63.0973ZM214.728 138.814C180.769 138.814 152.643 163.334 146.776 195.602L141.969 195.602C115.948 195.602 94.6461 216.904 94.6461 242.925 94.6461 268.947 115.948 290.248 141.969 290.248L340.726 290.248C361.548 290.248 378.584 273.212 378.584 252.39 378.584 231.567 361.548 214.531 340.726 214.531L339.789 214.531C340.419 211.464 340.726 208.298 340.726 205.067 340.726 178.919 319.551 157.743 293.403 157.743 284.241 157.743 275.765 160.46 268.534 164.965 255.839 149.141 236.572 138.814 214.728 138.814Z" fill="#000000" fill-rule="nonzero" fill-opacity="1" transform="matrix(1 0 0 1.00571 118 171.254)"/></g></g></g></g></g></svg>