<svg width="501" height="502" xmlns="http://www.w3.org/2000/svg" xmlns:xlink="http://www.w3.org/1999/xlink" xml:space="preserve" overflow="hidden"><g transform="translate(-117 -90)"><g><g><g><g><path d="M1694.12 2613.42C1561.05 2613.42 1468.13 2713.97 1468.13 2857.91 1468.13 2980.23 1552.61 3106.72 1694.12 3106.72 1836.72 3106.72 1921.97 2980.23 1921.97 2857.91 1921.97 2713.97 1828.24 2613.42 1694.12 2613.42ZM1694.12 2672.92C1761.99 2672.92 1775.21 2767.5 1775.21 2854.21 1775.21 2929.51 1768.31 3041.36 1694.12 3041.36 1621.02 3041.36 1614.89 2928.86 1614.89 2854.21 1614.89 2773.47 1626.3 2672.92 1694.12 2672.92Z" fill="#000000" fill-rule="nonzero" fill-opacity="1" transform="matrix(1 0 0 1.00292 -1327.18 -2523.8)"/></g></g></g></g></g></svg>