<svg width="512" height="512" xmlns="http://www.w3.org/2000/svg" xmlns:xlink="http://www.w3.org/1999/xlink" xml:space="preserve" overflow="hidden"><defs><clipPath id="clip0"><rect x="156" y="104" width="512" height="512"/></clipPath><clipPath id="clip1"><rect x="156" y="104" width="512" height="512"/></clipPath></defs><g clip-path="url(#clip0)" transform="translate(-156 -104)"><g clip-path="url(#clip1)"><path d="M320.9 128.6C313.2 110 292.9 100.1 273.5 105.4L185.5 129.4C168.1 134.2 156 150 156 168 156 415.4 356.6 616 604 616 622 616 637.8 603.9 642.6 586.5L666.6 498.5C671.9 479.1 662 458.8 643.4 451.1L547.4 411.1C531.1 404.3 512.2 409 501.1 422.7L460.7 472C390.3 438.7 333.3 381.7 300 311.3L349.3 271C363 259.8 367.7 241 360.9 224.7L320.9 128.7Z" fill="#000000" fill-rule="nonzero" fill-opacity="1"/></g></g></svg>