<svg width="502" height="503" xmlns="http://www.w3.org/2000/svg" xmlns:xlink="http://www.w3.org/1999/xlink" xml:space="preserve" overflow="hidden"><g transform="translate(-158 -98)"><g><g><g><g><path d="M886.1 359.23C886.1 495.936 775.337 606.699 638.631 606.699 613.085 606.699 588.538 602.807 565.387 595.623 575.466 579.158 590.534 552.216 596.122 530.761 599.115 519.187 611.489 471.888 611.489 471.888 619.571 487.256 643.121 500.327 668.167 500.327 742.807 500.327 796.592 431.675 796.592 346.357 796.592 264.633 729.834 203.464 644.019 203.464 537.248 203.464 480.47 275.11 480.47 353.243 480.47 389.565 499.828 434.767 530.662 449.137 535.352 451.332 537.846 450.334 538.944 445.844 539.743 442.451 543.933 425.587 545.829 417.804 546.428 415.309 546.129 413.114 544.133 410.72 534.055 398.246 525.872 375.495 525.872 354.241 525.872 299.658 567.184 246.87 637.633 246.87 698.402 246.87 741.011 288.281 741.011 347.555 741.011 414.511 707.184 460.911 663.178 460.911 638.93 460.911 620.669 440.854 626.556 416.208 633.541 386.77 647.012 355.039 647.012 333.784 647.012 314.824 636.834 298.959 615.68 298.959 590.833 298.959 570.875 324.604 570.875 359.03 570.875 380.983 578.26 395.751 578.26 395.751 578.26 395.751 553.812 499.329 549.322 518.688 544.332 540.042 546.328 570.178 548.424 589.736 456.421 553.713 391.161 464.105 391.161 359.23 391.161 222.523 501.923 111.76 638.631 111.76 775.337 111.76 886.1 222.523 886.1 359.23Z" fill="#000000" fill-rule="nonzero" fill-opacity="1" transform="matrix(1 0 0 1.002 -229.277 -10.3384)"/></g></g></g></g></g></svg>