<svg width="514" height="512" xmlns="http://www.w3.org/2000/svg" xmlns:xlink="http://www.w3.org/1999/xlink" xml:space="preserve" overflow="hidden"><defs><clipPath id="clip0"><rect x="126" y="92" width="514" height="512"/></clipPath><clipPath id="clip1"><rect x="126" y="92" width="514" height="512"/></clipPath><clipPath id="clip2"><rect x="127" y="92" width="512" height="512"/></clipPath><clipPath id="clip3"><rect x="127" y="92" width="512" height="512"/></clipPath><clipPath id="clip4"><rect x="127" y="92" width="512" height="512"/></clipPath><clipPath id="clip5"><rect x="127" y="92" width="512" height="512"/></clipPath><clipPath id="clip6"><rect x="127" y="92" width="512" height="512"/></clipPath><clipPath id="clip7"><rect x="127" y="92" width="512" height="512"/></clipPath><clipPath id="clip8"><rect x="158" y="92" width="451" height="512"/></clipPath><clipPath id="clip9"><rect x="158" y="92" width="451" height="512"/></clipPath><clipPath id="clip10"><rect x="158" y="92" width="451" height="512"/></clipPath><clipPath id="clip11"><rect x="158" y="92" width="451" height="512"/></clipPath></defs><g clip-path="url(#clip0)" transform="translate(-126 -92)"><g clip-path="url(#clip1)"><g clip-path="url(#clip2)"><g clip-path="url(#clip3)"><g clip-path="url(#clip4)"><g clip-path="url(#clip5)"><g clip-path="url(#clip6)"><g clip-path="url(#clip7)"><g clip-path="url(#clip8)"><g clip-path="url(#clip9)"><g clip-path="url(#clip10)"><g clip-path="url(#clip11)"><path d="M734.781 475.599C783.24 444.326 815.313 389.772 815.313 327.724 815.313 230.606 736.58 151.872 639.461 151.872 542.343 151.872 463.61 230.606 463.61 327.724 463.61 389.772 495.683 444.226 544.142 475.599 545.341 492.885 548.138 513.567 551.336 532.651L551.536 533.651C471.603 499.379 415.65 420.146 415.65 327.724 415.65 204.128 515.866 103.912 639.461 103.912 763.057 103.912 863.273 204.128 863.273 327.724 863.273 420.146 807.32 499.479 727.387 533.651L727.587 532.551C730.685 513.368 733.582 492.785 734.781 475.599ZM732.483 437.531C730.884 431.836 728.586 426.441 725.489 421.345 719.694 411.653 712 404.359 703.607 398.964 723.091 381.379 735.381 356 735.381 327.724 735.381 274.769 692.417 231.805 639.461 231.805 586.506 231.805 543.542 274.769 543.542 327.724 543.542 356 555.832 381.479 575.315 398.964 566.923 404.359 559.229 411.653 553.434 421.345 550.336 426.441 548.038 431.836 546.44 437.531 515.366 411.154 495.583 371.687 495.583 327.724 495.583 248.291 560.028 183.845 639.461 183.845 718.895 183.845 783.34 248.291 783.34 327.724 783.34 371.687 763.557 411.154 732.483 437.531ZM639.461 415.65C672.334 415.65 703.408 424.243 703.408 459.413 703.408 492.385 690.518 563.425 682.825 592.201 677.729 611.185 658.346 615.582 639.461 615.582 620.577 615.582 601.294 611.185 596.098 592.201 588.305 563.725 575.515 492.585 575.515 459.513 575.515 424.443 606.589 415.75 639.461 415.75ZM639.461 271.771C670.363 271.771 695.414 296.822 695.414 327.724 695.414 358.626 670.363 383.677 639.461 383.677 608.56 383.677 583.509 358.626 583.509 327.724 583.509 296.822 608.56 271.771 639.461 271.771Z" fill="#000000" fill-rule="nonzero" fill-opacity="1" transform="matrix(1 0 0 1.00084 -256.157 -12)"/></g></g></g></g></g></g></g></g></g></g></g></g></svg>