<svg width="469" height="469" xmlns="http://www.w3.org/2000/svg" xmlns:xlink="http://www.w3.org/1999/xlink" xml:space="preserve" overflow="hidden"><g transform="translate(-81 -77)"><g><g><g><g><path d="M591.465 182.066C576.996 182.066 564.264 188.046 554.908 197.402 520.474 173.578 474.079 158.241 422.668 156.601L449.386 36.2253 534.46 55.3235C534.46 76.1578 551.436 93.1337 572.27 93.1337 593.491 93.1337 610.563 75.6756 610.563 54.8412 610.563 34.0068 593.587 16.5484 572.27 16.5484 557.416 16.5484 544.588 25.5187 538.221 37.7686L444.274 16.9343C439.548 15.6803 434.918 19.0563 433.664 23.7826L404.342 156.505C353.316 158.627 307.404 173.964 272.873 197.788 263.516 188.046 250.302 182.066 235.834 182.066 182.205 182.066 164.65 254.021 213.746 278.618 212.01 286.237 211.238 294.34 211.238 302.442 211.238 383.271 302.291 448.765 414.083 448.765 526.357 448.765 617.411 383.271 617.411 302.442 617.411 294.34 616.543 285.852 614.421 278.232 662.55 253.539 644.805 182.066 591.465 182.066ZM291.585 283.73C291.585 262.51 308.562 245.437 329.878 245.437 350.712 245.437 367.689 262.413 367.689 283.73 367.689 304.564 350.712 321.54 329.878 321.54 308.658 321.637 291.585 304.564 291.585 283.73ZM498.289 373.915C463.179 409.025 364.12 409.025 329.01 373.915 325.151 370.54 325.151 364.559 329.01 360.701 332.386 357.325 338.366 357.325 341.742 360.701 368.557 388.191 457.488 388.673 485.461 360.701 488.836 357.325 494.817 357.325 498.193 360.701 502.147 364.559 502.147 370.54 498.289 373.915ZM497.517 321.637C476.683 321.637 459.707 304.66 459.707 283.826 459.707 262.606 476.683 245.533 497.517 245.533 518.737 245.533 535.81 262.51 535.81 283.826 535.714 304.564 518.737 321.637 497.517 321.637Z" fill="#000000" fill-rule="nonzero" fill-opacity="1" transform="matrix(1 0 0 1.00273 -99.37 83.059)"/></g></g></g></g></g></svg>