<svg width="513" height="513" xmlns="http://www.w3.org/2000/svg" xmlns:xlink="http://www.w3.org/1999/xlink" xml:space="preserve" overflow="hidden"><g transform="translate(164 -49)"><g><g><g><g><path d="M-99 194C-72.49 194-51 172.51-51 146-51 119.49-72.49 98-99 98-125.51 98-147 119.49-147 146-147 172.51-125.51 194-99 194ZM29 114C11.3 114-3 128.3-3 146-3 163.7 11.3 178 29 178L317 178C334.7 178 349 163.7 349 146 349 128.3 334.7 114 317 114L29 114ZM29 274C11.3 274-3 288.3-3 306-3 323.7 11.3 338 29 338L317 338C334.7 338 349 323.7 349 306 349 288.3 334.7 274 317 274L29 274ZM29 434C11.3 434-3 448.3-3 466-3 483.7 11.3 498 29 498L317 498C334.7 498 349 483.7 349 466 349 448.3 334.7 434 317 434L29 434ZM-99 514C-72.49 514-51 492.51-51 466-51 439.49-72.49 418-99 418-125.51 418-147 439.49-147 466-147 492.51-125.51 514-99 514ZM-51 306C-51 279.49-72.49 258-99 258-125.51 258-147 279.49-147 306-147 332.51-125.51 354-99 354-72.49 354-51 332.51-51 306Z" fill="#000000" fill-rule="nonzero" fill-opacity="1"/></g></g></g></g></g></svg>