<svg width="512" height="510" xmlns="http://www.w3.org/2000/svg" xmlns:xlink="http://www.w3.org/1999/xlink" xml:space="preserve" overflow="hidden"><g transform="translate(80 -88)"><g><g><g><g><path d="M271.341 20.8381C133.121 20.8381 20.8381 133.121 20.8381 271.341 20.8381 409.561 133.121 521.845 271.341 521.845 409.561 521.845 521.845 409.561 521.845 271.341 521.845 133.121 409.561 20.8381 271.341 20.8381ZM271.341 42.5455C397.83 42.5455 500.137 144.853 500.137 271.341 500.137 397.83 397.83 500.137 271.341 500.137 144.853 500.137 42.5455 397.83 42.5455 271.341 42.5455 267.389 42.6449 263.458 42.8423 259.555 48.9628 138.557 148.805 42.5455 271.341 42.5455ZM271.341 65.1219C157.628 65.1219 65.1219 157.628 65.1219 271.341 65.1219 385.055 157.628 477.561 271.341 477.561 385.055 477.561 477.561 385.055 477.561 271.341 477.561 157.628 385.055 65.1219 271.341 65.1219ZM271.341 97.6829C277.343 97.6829 282.195 102.535 282.195 108.536L282.195 119.39C282.195 125.392 277.343 130.244 271.341 130.244 265.34 130.244 260.487 125.392 260.487 119.39L260.487 108.536C260.487 102.535 265.34 97.6829 271.341 97.6829ZM333.602 110.084C335.011 110.072 336.441 110.342 337.82 110.912 343.356 113.202 345.982 119.547 343.691 125.093L339.537 135.119C337.812 139.298 333.777 141.818 329.511 141.818 328.121 141.818 326.712 141.555 325.356 140.991 319.82 138.69 317.192 132.345 319.483 126.81L323.638 116.783C325.356 112.631 329.373 110.118 333.602 110.084ZM208.975 110.126C213.203 110.15 217.213 112.674 218.939 116.825L223.115 126.83C225.426 132.365 222.799 138.712 217.264 141.013 215.908 141.587 214.476 141.861 213.088 141.861 208.834 141.861 204.807 139.341 203.082 135.162L198.906 125.156C196.595 119.62 199.22 113.275 204.757 110.974 206.139 110.397 207.566 110.119 208.975 110.126ZM401.586 141.097 303.902 303.902 141.097 401.586 238.781 238.781 401.586 141.097ZM156.106 145.464C158.884 145.464 161.68 146.513 163.801 148.624L171.475 156.297C175.718 160.54 175.729 167.412 171.497 171.665 169.38 173.782 166.58 174.846 163.801 174.846 161.022 174.846 158.245 173.771 156.128 171.665L148.453 163.992C144.209 159.76 144.199 152.898 148.433 148.644 150.555 146.523 153.327 145.464 156.106 145.464ZM421.617 197.74C425.849 197.756 429.869 200.266 431.602 204.418 433.914 209.953 431.308 216.309 425.772 218.62L415.746 222.818C414.379 223.393 412.969 223.645 411.569 223.645 407.325 223.645 403.279 221.156 401.543 216.989 399.231 211.442 401.837 205.097 407.372 202.785L417.379 198.589C418.759 198.01 420.208 197.734 421.617 197.74ZM120.874 198.206C122.282 198.196 123.716 198.464 125.093 199.033L135.119 203.188C140.654 205.478 143.281 211.834 140.991 217.37 139.266 221.548 135.219 224.068 130.964 224.068 129.575 224.068 128.167 223.807 126.81 223.242L116.783 219.086C111.248 216.796 108.62 210.44 110.912 204.905 112.628 200.745 116.647 198.237 120.874 198.206ZM271.341 249.635C260.19 249.633 250.851 258.083 249.74 269.179 249.669 269.898 249.633 270.619 249.635 271.341 249.635 283.33 259.352 293.048 271.341 293.048 283.33 293.048 293.048 283.33 293.048 271.341 293.048 259.352 283.33 249.635 271.341 249.635ZM108.536 260.487 119.39 260.487C125.392 260.487 130.244 265.34 130.244 271.341 130.244 277.343 125.392 282.195 119.39 282.195L108.536 282.195C102.535 282.195 97.6829 277.343 97.6829 271.341 97.6829 265.34 102.535 260.487 108.536 260.487ZM423.292 260.487 434.146 260.487C440.148 260.487 444.999 265.34 444.999 271.341 444.999 277.343 440.148 282.195 434.146 282.195L423.292 282.195C417.291 282.195 412.439 277.343 412.439 271.341 412.439 265.34 417.291 260.487 423.292 260.487ZM411.654 318.614C413.064 318.603 414.492 318.871 415.873 319.441L425.899 323.596C431.435 325.887 434.061 332.243 431.771 337.778 430.046 341.957 426 344.477 421.745 344.477 420.356 344.477 418.947 344.214 417.59 343.65L407.564 339.494C402.028 337.205 399.402 330.848 401.691 325.313 403.409 321.153 407.424 318.644 411.654 318.614ZM131.156 319.037C135.385 319.056 139.407 321.543 141.14 325.694 143.452 331.23 140.846 337.585 135.31 339.898L125.304 344.094C123.937 344.669 122.507 344.922 121.108 344.922 116.863 344.922 112.818 342.433 111.081 338.265 108.769 332.73 111.375 326.374 116.91 324.062L126.937 319.865C128.315 319.29 129.746 319.032 131.156 319.037ZM378.882 367.837C381.66 367.837 384.433 368.906 386.555 371.018L394.23 378.69C398.474 382.923 398.484 389.784 394.25 394.038 392.134 396.155 389.334 397.219 386.555 397.219 383.776 397.219 380.998 396.164 378.882 394.059L371.208 386.385C366.963 382.143 366.953 375.271 371.186 371.018 373.308 368.895 376.103 367.837 378.882 367.837ZM329.658 400.822C333.889 400.845 337.883 403.37 339.601 407.521L343.776 417.527C346.088 423.061 343.462 429.407 337.926 431.708 336.57 432.283 335.161 432.556 333.772 432.556 329.517 432.556 325.47 430.036 323.744 425.858L319.568 415.853C317.257 410.316 319.884 403.971 325.419 401.67 326.8 401.093 328.248 400.815 329.658 400.822ZM213.109 400.865C214.518 400.854 215.949 401.121 217.327 401.691 222.862 403.992 225.49 410.337 223.199 415.873L219.044 425.899C217.318 430.078 213.283 432.599 209.018 432.599 207.629 432.599 206.22 432.336 204.862 431.771 199.327 429.482 196.7 423.136 198.991 417.59L203.146 407.564C204.862 403.412 208.88 400.899 213.109 400.865ZM271.341 412.439C277.343 412.439 282.195 417.291 282.195 423.292L282.195 434.146C282.195 440.148 277.343 444.999 271.341 444.999 265.34 444.999 260.487 440.148 260.487 434.146L260.487 423.292C260.487 417.291 265.34 412.439 271.341 412.439Z" fill="#000000" fill-rule="nonzero" fill-opacity="1" transform="matrix(1 0 0 1.00438 -94.83 71.0432)"/></g></g></g></g></g></svg>