<svg width="628" height="627" xmlns="http://www.w3.org/2000/svg" xmlns:xlink="http://www.w3.org/1999/xlink" xml:space="preserve" overflow="hidden"><g transform="translate(-314 -46)"><g><g><g><path d="M781.749 221.105C700.458 221.105 634.25 287.314 634.25 368.605L634.25 693.105C634.25 774.398 700.458 840.605 781.749 840.605L1106.25 840.605C1187.54 840.605 1253.75 774.398 1253.75 693.105L1253.75 368.605C1253.75 287.314 1187.54 221.105 1106.25 221.105L781.749 221.105ZM943.999 280.25C1082.5 280.25 1194.75 392.497 1194.75 531 1194.75 669.502 1082.5 781.749 943.999 781.749 805.497 781.749 693.249 669.502 693.249 531 693.249 392.497 805.497 280.25 943.999 280.25ZM943.999 324.5C927.774 324.5 912.002 326.404 896.869 329.973 877.826 334.472 868.782 356.469 878.576 373.417L890.415 393.9C930.727 378.221 977.497 380.001 1017.78 403.262 1058.08 426.522 1082.86 466.159 1089.4 508.875L1113.31 508.875C1132.7 508.875 1147.36 490.297 1141.8 471.712 1116.31 386.575 1037.41 324.5 943.999 324.5ZM811.739 380.907C805.131 381.522 798.693 384.396 793.676 389.723 758.881 426.642 737.499 476.277 737.499 531 737.499 585.722 758.881 635.357 793.676 672.276 807.054 686.466 830.567 683.202 840.317 666.313L852.071 645.974C818.338 618.908 796.499 577.521 796.499 531 796.499 484.463 818.424 443.19 852.157 416.168L840.347 395.686C834.243 385.13 822.751 379.883 811.739 380.907ZM941.868 413.259C929.411 413.554 917.094 415.796 905.368 419.855L948.263 494.125C953.529 503.255 963.27 508.875 973.816 508.875L1059.64 508.875C1053.4 476.351 1033.81 446.605 1003 428.816 983.75 417.706 962.627 412.765 941.868 413.259ZM867.022 441.923C841.978 463.591 825.999 495.423 825.999 531 825.999 566.562 842.036 598.351 867.051 620.019L909.947 545.75C915.213 536.619 915.213 525.38 909.947 516.25L867.022 441.923ZM973.787 553.125C963.255 553.125 953.5 558.744 948.234 567.875L905.338 642.201C936.638 653.057 972.186 650.972 1003 633.183 1033.8 615.409 1053.32 585.619 1059.58 553.125L973.787 553.125ZM1089.51 553.125C1082.93 595.87 1058.03 635.477 1017.75 658.737 977.437 682.013 930.711 683.65 890.443 667.956L878.576 688.583C868.796 705.53 877.826 727.527 896.869 732.026 912.002 735.595 927.774 737.499 943.999 737.499 1037.41 737.499 1116.31 675.424 1141.8 590.287 1147.36 571.702 1132.72 553.125 1113.31 553.125L1089.51 553.125Z" fill="#000000" fill-rule="nonzero" fill-opacity="1" transform="matrix(1.0016 0 0 1 -317.297 -170.262)"/></g></g></g></g></svg>