<svg width="501" height="501" xmlns="http://www.w3.org/2000/svg" xmlns:xlink="http://www.w3.org/1999/xlink" xml:space="preserve" overflow="hidden"><g transform="translate(-389 -109)"><g><g><g><g><path d="M530 149.902C474.887 149.902 430 194.789 430 249.902L430 469.902C430 525.016 474.887 569.902 530 569.902L750 569.902C805.113 569.902 850 525.016 850 469.902L850 249.902C850 194.789 805.113 149.902 750 149.902L530 149.902ZM640 190C733.9 190 810 266.1 810 360 810 453.9 733.9 530 640 530 546.1 530 470 453.9 470 360 470 266.1 546.1 190 640 190ZM640 220C629 220 618.307 221.291 608.047 223.711 595.137 226.761 589.005 241.674 595.645 253.164L603.672 267.051C631.002 256.421 662.71 257.628 690.02 273.398 717.34 289.168 734.144 316.04 738.574 345L754.785 345C767.935 345 777.872 332.405 774.102 319.805 756.822 262.085 703.33 220 640 220ZM550.332 258.242C545.852 258.659 541.487 260.608 538.086 264.219 514.496 289.249 500 322.9 500 360 500 397.1 514.496 430.751 538.086 455.781 547.156 465.401 563.097 463.188 569.707 451.738L577.676 437.949C554.806 419.599 540 391.54 540 360 540 328.45 554.864 300.468 577.734 282.148L569.727 268.262C565.589 261.105 557.798 257.548 550.332 258.242ZM638.555 280.176C630.11 280.376 621.759 281.896 613.809 284.648L642.891 335C646.461 341.19 653.065 345 660.215 345L718.398 345C714.168 322.95 700.89 302.783 680 290.723 666.95 283.191 652.629 279.841 638.555 280.176ZM587.812 299.609C570.833 314.299 560 335.88 560 360 560 384.11 570.872 405.662 587.832 420.352L616.914 370C620.484 363.81 620.484 356.19 616.914 350L587.812 299.609ZM660.195 375C653.055 375 646.441 378.81 642.871 385L613.789 435.391C635.009 442.751 659.11 441.337 680 429.277 700.88 417.227 714.119 397.03 718.359 375L660.195 375ZM738.652 375C734.192 403.98 717.31 430.832 690 446.602 662.67 462.382 630.991 463.492 603.691 452.852L595.645 466.836C589.015 478.326 595.137 493.239 608.047 496.289 618.307 498.709 629 500 640 500 703.33 500 756.822 457.915 774.102 400.195 777.872 387.595 767.945 375 754.785 375L738.652 375Z" fill="#000000" fill-rule="nonzero" fill-opacity="1"/></g></g></g></g></g></svg>