<svg width="228" height="227" xmlns="http://www.w3.org/2000/svg" xmlns:xlink="http://www.w3.org/1999/xlink" xml:space="preserve" overflow="hidden"><g transform="matrix(1 0 0 1 0 -197)"><g><g><g><g><path d="M3730.29 2176.36C3731.82 2181.25 3731.13 2186.39 3726.47 2191.12 3719.01 2198.67 3705.97 2200.56 3704.35 2202.1 3702.67 2203.67 3701.98 2209.57 3696.72 2212.94 3691.46 2216.32 3685.01 2216.23 3681.69 2216.48 3668.32 2217.49 3664.82 2218.12 3656.5 2223.44 3653.81 2225.15 3640.6 2234.22 3621.24 2234.22 3601.87 2234.22 3588.67 2225.16 3585.97 2223.44 3577.66 2218.12 3574.17 2217.5 3560.79 2216.48 3557.5 2216.23 3551.01 2216.32 3545.75 2212.94 3540.49 2209.57 3539.8 2203.67 3538.14 2202.1 3536.5 2200.55 3523.46 2198.67 3516.01 2191.12 3511.35 2186.39 3510.66 2181.25 3512.18 2176.36 3514.18 2169.93 3521.23 2167.71 3525.29 2165.38 3547.58 2152.63 3551.15 2140.45 3552.17 2138.64 3552.61 2137.92 3553.67 2135.49 3551.28 2133.56 3549.12 2131.77 3537.4 2126.09 3532.48 2117.53 3529.95 2113.09 3529.28 2106.32 3531.58 2101.59 3535.24 2094.02 3541.36 2089.62 3549.81 2089.62 3552.91 2089.62 3556.04 2090.41 3556.49 2090.52 3556.63 2085.64 3556.66 2080 3556.96 2074.9 3558.3 2053.61 3576.16 2018.13 3621.24 2018.13 3666.32 2018.13 3684.19 2053.61 3685.51 2074.9 3685.81 2080 3685.81 2085.64 3685.98 2090.51 3686.45 2090.41 3689.57 2089.61 3692.67 2089.61 3701.11 2089.61 3707.23 2094.02 3710.9 2101.59 3713.19 2106.31 3712.53 2113.08 3710 2117.53 3705.07 2126.08 3693.37 2131.77 3691.2 2133.56 3688.81 2135.49 3689.87 2137.91 3690.3 2138.64 3691.33 2140.44 3694.9 2152.62 3717.18 2165.38 3721.24 2167.71 3728.3 2169.93 3730.29 2176.36Z" fill="#000000" fill-rule="nonzero" fill-opacity="1" transform="matrix(1.00744 0 0 1 -3534.35 -1814.28)"/></g></g></g></g></g></svg>