<svg width="162" height="160" xmlns="http://www.w3.org/2000/svg" xmlns:xlink="http://www.w3.org/1999/xlink" xml:space="preserve" overflow="hidden"><g transform="translate(-102 -100)"><g><g><g><g><path d="M27.4035 63.0479 28.8303 79.0374 27.4035 95.8387C27.3298 96.4537 26.8624 96.9211 26.3212 96.9211 25.78 96.9211 25.288 96.4537 25.288 95.8387L23.9106 79.0374 25.288 63.0479C25.288 62.5067 25.7554 62.0147 26.3212 62.0147 26.8624 62.0147 27.3298 62.5067 27.4035 63.0479ZM32.6678 51.8307C31.979 51.8307 31.5117 52.3719 31.4378 53.0606L30.2079 79.0374 31.4378 95.8387C31.5117 96.5275 31.979 97.0687 32.6678 97.0687 33.2828 97.0687 33.8239 96.5275 33.8239 95.8387L35.2507 79.0374 33.8239 53.0606C33.8239 52.3719 33.2828 51.8307 32.6678 51.8307ZM38.9406 45.9022C38.1781 45.9022 37.6369 46.4433 37.5631 47.206L36.4808 79.185 37.5631 95.8634C37.6369 96.6259 38.1781 97.167 38.9406 97.167 39.6294 97.167 40.2444 96.6259 40.2444 95.8634L41.5481 79.185 40.2444 47.206C40.2444 46.4433 39.6294 45.9022 38.9406 45.9022ZM1.77115 69.6651C1.42675 69.6651 1.22996 69.9357 1.15616 70.2801L0 79.0374 1.15616 87.6471C1.22996 87.9916 1.42675 88.2622 1.77115 88.2622 2.11554 88.2622 2.31233 87.9916 2.38613 87.6471L3.76369 79.0374 2.38613 70.2801C2.31233 69.9357 2.11554 69.6651 1.77115 69.6651ZM7.57657 64.2779C7.23218 64.2779 6.96159 64.5485 6.96159 64.8929L5.38724 79.0374 6.96159 92.8376C6.96159 93.2559 7.23218 93.5264 7.57657 93.5264 7.92096 93.5264 8.19155 93.2559 8.26534 92.9114L10.0365 79.0374 8.26534 64.8929C8.19155 64.5485 7.92096 64.2779 7.57657 64.2779ZM13.8001 61.4735C13.3821 61.4735 13.0376 61.8179 12.9884 62.2853L11.5616 79.0374 12.9884 95.2237C13.0623 95.6418 13.4066 95.9863 13.8001 95.9863 14.2183 95.9863 14.5628 95.6418 14.5628 95.2237L16.2601 79.0374 14.5628 62.2853C14.5628 61.8179 14.2183 61.4735 13.8001 61.4735ZM20.0238 60.9324C19.5564 60.9324 19.1382 61.2768 19.1382 61.8179L17.7115 79.0374 19.1382 95.7157C19.1382 96.2569 19.5564 96.6012 20.0238 96.6012 20.4911 96.6012 20.9094 96.2569 20.9832 95.7157L22.5575 79.0374 20.9832 61.8179C20.9094 61.2768 20.4911 60.9324 20.0238 60.9324ZM79.4064 33.6518C79.1358 33.455 78.7176 33.3073 78.3732 33.3073 77.832 33.3073 77.34 33.5042 76.9957 33.7747 76.5283 34.193 76.233 34.808 76.1839 35.423L76.1839 35.6198 75.3721 79.0866 75.7903 87.0813 76.2085 94.8794C76.2822 96.0355 77.2416 96.9949 78.3978 96.9949 79.5541 96.9949 80.5133 96.0355 80.5133 94.8794L81.4727 79.0866 80.5133 35.423C80.4149 34.6849 80.0214 33.9962 79.4064 33.6518ZM72.8385 37.4155C72.494 37.2187 72.1496 37.0711 71.756 37.0711 71.3625 37.0711 70.9934 37.2187 70.6737 37.4155 70.1325 37.7599 69.7881 38.3749 69.7881 39.0636L69.7143 39.4817 69.0256 79.0374C69.0256 79.0374 69.0256 79.1113 69.7881 95.1745L69.7881 95.2484C69.7881 95.6665 69.9357 96.0601 70.2063 96.4045 70.6245 96.872 71.1657 97.167 71.7807 97.167 72.3218 97.167 72.8138 96.8965 73.1582 96.5521 73.5763 96.2077 73.7732 95.7402 73.7732 95.1745L73.847 93.5264 74.6095 79.1113 73.7978 39.0636C73.724 38.3749 73.3796 37.7599 72.8385 37.4155ZM45.4348 42.9504C44.6722 42.9504 44.008 43.6391 44.008 44.4509L42.9257 79.0374 44.008 95.5681C44.0819 96.3799 44.6968 96.9949 45.4348 96.9949 46.2466 96.9949 46.8615 96.3799 46.9354 95.5681L48.1654 79.0374 46.9354 44.4509C46.8862 43.6391 46.2712 42.9504 45.4348 42.9504ZM138.101 58.3986C135.443 58.3986 132.91 58.9398 130.573 59.8991 128.999 42.4829 114.387 28.8058 96.5521 28.8058 92.1734 28.8058 87.9424 29.6175 84.1786 31.118 82.6782 31.6592 82.26 32.2003 82.26 33.3813L82.26 94.8056C82.26 96.0355 83.2193 96.9211 84.3755 97.0687L138.076 97.0687C148.727 97.0687 157.41 88.4589 157.41 77.8074 157.435 67.0822 148.751 58.3986 138.101 58.3986ZM65.1142 43.5653C64.0811 43.5653 63.2694 44.3771 63.1954 45.484L62.3837 79.1113 63.1954 95.2484C63.2694 96.2814 64.0811 97.0933 65.1142 97.0933 66.1474 97.0933 66.9592 96.2814 66.9592 95.2484L67.9185 79.1113 66.9592 45.484C66.8854 44.3771 66.1474 43.5653 65.1142 43.5653ZM51.929 41.6465C51.1172 41.6465 50.3547 42.4091 50.3547 43.2946L49.3953 79.0374 50.3547 95.4944C50.4284 96.3799 51.1172 97.0687 51.929 97.0687 52.8146 97.0687 53.5034 96.3799 53.5771 95.4944L54.6596 79.0374 53.5771 43.2946C53.5034 42.4091 52.8146 41.6465 51.929 41.6465ZM58.497 42.4829C57.5377 42.4829 56.7997 43.2454 56.7997 44.1803L55.8403 79.0374 56.7997 95.3713C56.8734 96.3307 57.5623 97.0687 58.497 97.0687 59.4318 97.0687 60.1944 96.3062 60.1944 95.3713L61.2276 79.0374 60.1944 44.1803C60.1944 43.2209 59.4564 42.4829 58.497 42.4829Z" fill="#000000" fill-rule="nonzero" fill-opacity="1" transform="matrix(1.00366 0 0 1 104.988 118.029)"/></g></g></g></g></g></svg>