<svg width="269" height="274" xmlns="http://www.w3.org/2000/svg" xmlns:xlink="http://www.w3.org/1999/xlink" xml:space="preserve" overflow="hidden"><g transform="translate(-24 -158)"><g><g><g><g><path d="M131.265 4.23438C58.8049 4.23438 0 63.0394 0 135.5 0 207.961 58.8049 266.765 131.265 266.765 203.726 266.765 262.531 207.961 262.531 135.5 262.531 63.0394 203.726 4.23438 131.265 4.23438ZM184.566 197.375C182.343 197.375 180.967 196.687 178.902 195.469 145.874 175.568 107.447 174.721 69.4966 182.501 67.4325 183.031 64.7331 183.878 63.198 183.878 58.0639 183.878 54.8353 179.802 54.8353 175.515 54.8353 170.063 58.0639 167.469 62.0335 166.623 105.383 157.042 149.685 157.889 187.477 180.49 190.706 182.554 192.611 184.407 192.611 189.224 192.611 194.04 188.853 197.375 184.566 197.375ZM198.804 162.653C196.051 162.653 194.199 161.436 192.294 160.43 159.212 140.846 109.882 132.96 66.0034 144.869 63.4626 145.557 62.0866 146.245 59.7048 146.245 54.0411 146.245 49.4362 141.64 49.4362 135.976 49.4362 130.313 52.1888 126.555 57.6404 125.02 72.3549 120.892 87.3869 117.822 109.406 117.822 143.757 117.822 176.944 126.343 203.091 141.904 207.379 144.445 209.072 147.727 209.072 152.332 209.019 158.048 204.573 162.653 198.804 162.653ZM215.212 122.321C212.46 122.321 210.766 121.632 208.384 120.256 170.698 97.7611 103.319 92.3624 59.7048 104.536 57.7993 105.065 55.4174 105.912 52.8769 105.912 45.8901 105.912 40.5443 100.46 40.5443 93.4209 40.5443 86.2224 44.9902 82.1467 49.754 80.7708 68.3853 75.3189 89.2395 72.7255 111.946 72.7255 150.585 72.7255 191.076 80.7708 220.664 98.0257 224.792 100.408 227.492 103.689 227.492 109.988 227.492 117.186 221.669 122.321 215.212 122.321Z" fill="#000000" fill-rule="nonzero" fill-opacity="1" transform="matrix(1.00008 0 0 1 28.9695 160)"/></g></g></g></g></g></svg>