<svg width="241" height="242" xmlns="http://www.w3.org/2000/svg" xmlns:xlink="http://www.w3.org/1999/xlink" xml:space="preserve" overflow="hidden"><g transform="translate(-24 -222)"><g><g><g><g><path d="M215.845 58.8667C183.916 58.8667 157.907 84.4167 157.054 116.143L121.048 167.613C118.38 167.108 115.641 166.789 112.828 166.789 103.524 166.789 94.9091 169.711 87.7826 174.646L39.2445 155.445 39.2445 208.199 69.7127 220.252C74.0048 240.132 91.6845 255.089 112.828 255.089 134.448 255.089 152.409 239.441 156.173 218.891L212.817 176.447C213.826 176.498 214.823 176.6 215.845 176.6 248.31 176.6 274.711 150.198 274.711 117.733 274.711 85.2684 248.31 58.8667 215.845 58.8667ZM215.845 78.4889C237.488 78.4889 255.089 96.0901 255.089 117.733 255.089 139.377 237.488 156.978 215.845 156.978 194.201 156.978 176.6 139.377 176.6 117.733 176.6 96.0901 194.201 78.4889 215.845 78.4889ZM215.845 88.3C199.589 88.3 186.411 101.477 186.411 117.733 186.411 133.989 199.589 147.167 215.845 147.167 232.101 147.167 245.278 133.989 245.278 117.733 245.278 101.477 232.101 88.3 215.845 88.3ZM112.828 176.6C131.763 176.6 147.167 192.004 147.167 210.939 147.167 229.874 131.763 245.278 112.828 245.278 98.8832 245.278 86.9084 236.893 81.5357 224.928L103.803 233.742C106.765 234.919 109.806 235.486 112.808 235.486 122.58 235.486 131.824 229.618 135.631 219.984 140.625 207.386 134.451 193.12 121.853 188.136L99.5103 179.282C103.606 177.553 108.109 176.6 112.828 176.6Z" fill="#000000" fill-rule="nonzero" fill-opacity="1" transform="matrix(1 0 0 1.00441 -11.721 183.989)"/></g></g></g></g></g></svg>