<svg width="456" height="457" xmlns="http://www.w3.org/2000/svg" xmlns:xlink="http://www.w3.org/1999/xlink" xml:space="preserve" overflow="hidden"><g transform="translate(-164 -152)"><g><g><g><g><path d="M480.357 136.101C445.031 136.101 416.309 164.822 416.309 200.149L416.309 520.387C416.309 555.713 445.031 584.434 480.357 584.434L704.523 584.434 704.523 472.351C704.523 445.831 726.039 424.315 752.559 424.315L864.642 424.315 864.642 200.149C864.642 164.822 835.921 136.101 800.595 136.101L480.357 136.101ZM864.642 456.339 819.309 456.339 752.559 456.339C743.753 456.339 736.547 463.544 736.547 472.351L736.547 539.101 736.547 584.434 768.571 552.41 832.619 488.363 864.642 456.339Z" fill="#000000" fill-rule="nonzero" fill-opacity="1" transform="matrix(1 0 0 1.00032 -247.767 20.5312)"/></g></g></g></g></g></svg>