<svg width="420" height="419" xmlns="http://www.w3.org/2000/svg" xmlns:xlink="http://www.w3.org/1999/xlink" xml:space="preserve" overflow="hidden"><g transform="translate(168 -129)"><g><g><g><g><path d="M51.2455 256.227C51.2455 142.907 142.907 51.2455 256.227 51.2455 369.548 51.2455 461.209 142.907 461.209 256.227 461.209 369.548 369.548 461.209 256.227 461.209 142.907 461.842 51.2455 369.531 51.2455 256.227ZM256.227 393.087C331.985 393.087 393.087 331.968 393.087 256.227 393.087 180.487 331.985 119.351 256.227 119.351 180.47 119.351 119.368 180.47 119.368 256.227 119.368 331.985 180.47 393.087 256.227 393.087ZM324.35 256.227C324.35 293.79 293.79 324.35 256.227 324.35 218.665 324.35 188.105 293.79 188.105 256.227 188.105 218.665 218.665 188.105 256.227 188.105 293.79 188.105 324.35 218.665 324.35 256.227Z" fill="#000000" fill-rule="nonzero" fill-opacity="1" transform="matrix(1.00295 0 0 1 -215.01 83.1675)"/></g></g></g></g></g></svg>