<svg width="720" height="722" xmlns="http://www.w3.org/2000/svg" xmlns:xlink="http://www.w3.org/1999/xlink" xml:space="preserve" overflow="hidden"><defs><clipPath id="clip0"><rect x="-230" y="67" width="720" height="720"/></clipPath><clipPath id="clip1"><rect x="-230" y="67" width="720" height="720"/></clipPath><clipPath id="clip2"><rect x="-230" y="67" width="720" height="720"/></clipPath><clipPath id="clip3"><rect x="-230" y="67" width="720" height="720"/></clipPath><clipPath id="clip4"><rect x="-230" y="67" width="720" height="720"/></clipPath></defs><g transform="translate(230 -66)"><g><g clip-path="url(#clip0)"><g clip-path="url(#clip1)"><g clip-path="url(#clip2)"><g clip-path="url(#clip3)"><g clip-path="url(#clip4)"><path d="M130 227.898 204.295 137.087C204.295 137.087 331.555 139.788 458.365 198.738 425.897 247.832 361.458 271.862 361.458 271.862 357.115 228.73 326.897 218.2 230.8 218.2L130.022 787.022 28.547 218.088C-66.853 218.088-97.07 228.64-101.413 271.75-101.413 271.75-165.875 247.967-198.32 198.85-71.533 139.9 55.75 137.2 55.75 137.2L130.045 227.898 129.932 227.898ZM130 110.943C232.42 109.997 349.735 126.76 469.84 179.252 485.905 150.182 490 137.425 490 137.425 358.758 85.3825 235.818 67.4725 130 67 24.182 67.4725-98.758 85.2925-230 137.425-230 137.425-224.15 153.242-209.84 179.387-89.712 126.647 27.58 110.02 130 110.83Z" fill="#000000" fill-rule="nonzero" fill-opacity="1"/></g></g></g></g></g></g></g></svg>