<svg width="343" height="344" xmlns="http://www.w3.org/2000/svg" xmlns:xlink="http://www.w3.org/1999/xlink" xml:space="preserve" overflow="hidden"><defs><clipPath id="clip0"><rect x="310" y="160" width="343" height="344"/></clipPath><clipPath id="clip1"><rect x="310" y="160" width="343" height="344"/></clipPath><clipPath id="clip2"><rect x="311" y="161" width="342" height="343"/></clipPath><clipPath id="clip3"><rect x="311" y="161" width="342" height="343"/></clipPath></defs><g clip-path="url(#clip0)" transform="translate(-310 -160)"><g clip-path="url(#clip1)"><g clip-path="url(#clip2)"><g clip-path="url(#clip3)"><path d="M158.138 82.5067C116.613 82.5067 82.5067 116.613 82.5067 158.138L82.5067 201.593C82.3456 212.985 91.4498 222.351 102.842 222.512 114.233 222.673 123.599 213.569 123.76 202.177 123.763 201.982 123.763 201.788 123.76 201.593L123.76 158.138C123.76 138.911 138.911 123.76 158.138 123.76L501.916 123.76C521.143 123.76 536.293 138.911 536.293 158.138L536.293 343.778C536.132 355.17 545.236 364.535 556.628 364.696 568.02 364.857 577.386 355.753 577.547 344.361 577.549 344.167 577.549 343.972 577.547 343.778L577.547 158.138C577.547 116.613 543.441 82.5067 501.916 82.5067L158.138 82.5067ZM332.256 165.04C283.866 165.37 246.58 181.761 221.387 213.76 199.193 241.991 187.731 281.069 187.332 330.188 187.717 379.018 199.179 418.076 221.387 446.293 246.566 478.292 283.873 494.683 332.524 495.013 375.538 494.724 405.941 483.355 431.092 458.218 464.507 424.83 463.459 382.949 452.417 357.207 444.441 338.615 429.359 323.57 408.746 313.697 408.265 313.45 407.764 313.233 407.269 312.999 403.639 266.52 376.825 239.805 332.739 239.516 306.007 239.516 283.724 251.006 269.973 271.88 268.433 274.218 269.046 277.361 271.37 278.97L294.306 294.709C295.447 295.493 296.853 295.776 298.2 295.515 299.548 295.253 300.774 294.44 301.531 293.285 309.836 280.703 323.091 278.084 333.115 278.084 345.299 278.153 354.347 281.528 360.027 288.129 363.093 291.69 365.441 296.349 367.063 302.014 356.654 300.763 345.58 300.468 334.002 301.128 291.291 303.589 263.819 328.892 265.703 364.109 266.651 382.068 275.591 397.538 290.868 407.645 303.492 415.965 319.708 420.089 336.553 419.14 358.844 417.916 376.376 409.342 388.684 393.652 396.563 383.628 401.881 371.312 404.879 356.186 410.682 360.875 414.942 366.367 417.609 372.596 423.866 387.145 424.194 411.106 404.503 430.77 386.709 448.55 365.13 456.266 332.444 456.499 296.113 456.224 268.748 444.698 251.092 422.256 234.329 400.942 225.652 369.917 225.336 330.08 225.652 290.161 234.329 259.112 251.092 237.798 268.748 215.356 296.115 203.815 332.363 203.554 369.01 203.829 396.888 215.432 415.246 238.039 424.225 249.095 431.105 263.098 435.685 279.695 436.441 282.418 439.273 284.023 441.996 283.321L468.881 276.15C470.214 275.806 471.335 274.916 472.023 273.733 472.697 272.523 472.864 271.119 472.506 269.785 466.58 247.989 457.172 229.071 444.521 213.518 418.641 181.684 380.976 165.37 332.256 165.04ZM102.811 259.66C91.4298 259.837 82.3434 269.2 82.5067 280.582L82.5067 501.916C82.5067 543.441 116.613 577.547 158.138 577.547L501.916 577.547C543.441 577.547 577.547 543.441 577.547 501.916L577.547 450.859C577.708 439.467 568.603 430.102 557.212 429.941 545.82 429.78 536.454 438.884 536.293 450.276 536.291 450.47 536.291 450.665 536.293 450.859L536.293 501.916C536.293 521.143 521.143 536.293 501.916 536.293L158.138 536.293C138.911 536.293 123.76 521.143 123.76 501.916L123.76 280.582C123.923 269.19 114.821 259.823 103.429 259.659 103.223 259.656 103.017 259.656 102.811 259.66ZM345.47 339.293C353.679 339.293 361.507 339.934 368.809 341.226 364.904 374.421 349.337 379.855 334.458 380.68 324.255 381.079 314.797 378.53 309.131 373.455 305.68 370.361 303.806 366.511 303.572 362.014 303.049 352.1 311.316 341.005 336.123 339.561 339.286 339.382 342.403 339.293 345.47 339.293Z" fill="#000000" fill-rule="nonzero" fill-opacity="1" transform="matrix(1 0 0 1.00292 151.3 -0.490813)"/></g></g></g></g></svg>