<svg width="461" height="464" xmlns="http://www.w3.org/2000/svg" xmlns:xlink="http://www.w3.org/1999/xlink" xml:space="preserve" overflow="hidden"><g transform="translate(25 -56)"><g><g><g><g><path d="M404.331 189.449C364.597 189.544 325.838 177.152 293.528 154.025L293.528 315.324C293.498 396.348 227.792 462.005 146.769 461.975 65.7458 461.945 0.0876034 396.24 0.117356 315.216 0.147106 234.193 65.8532 168.534 146.877 168.565 153.597 168.567 160.31 169.031 166.967 169.954L166.967 251.082C131.486 239.922 93.6768 259.637 82.516 295.119 71.3559 330.599 91.071 368.409 126.553 379.569 162.033 390.73 199.843 371.014 211.004 335.533 213.06 328.994 214.106 322.178 214.106 315.324L214.106 0 293.528 0C293.473 6.70702 294.036 13.405 295.206 20.009 300.784 49.8042 318.382 75.9893 343.862 92.4098 361.799 104.269 382.827 110.591 404.331 110.586Z" fill="#000000" fill-rule="nonzero" fill-opacity="1" transform="matrix(1 0 0 1.00196 5.52065 57)"/></g></g></g></g></g></svg>