<svg width="409" height="410" xmlns="http://www.w3.org/2000/svg" xmlns:xlink="http://www.w3.org/1999/xlink" xml:space="preserve" overflow="hidden"><g transform="translate(96 -60)"><g><g><g><g><path d="M202.663 215.123C278.662 190.991 290.762 120.285 281.079 58.2995 280.914 57.2486 281.387 54.8093 283.496 55.8825 359.727 94.8315 439.104 168.083 439.104 285.095 439.104 371.947 370.348 450.362 270.218 450.362 161.643 450.362 101.332 374.365 101.332 283.894 101.332 229.61 137.256 176.144 178.839 151.645 181.128 150.294 183.358 151.877 183.388 154.294 183.643 175.049 193.514 206.439 202.663 215.123Z" fill="#000000" fill-rule="nonzero" fill-opacity="1" transform="matrix(1 0 0 1.0109 -161.612 10.171)"/></g></g></g></g></g></svg>