<svg width="421" height="421" xmlns="http://www.w3.org/2000/svg" xmlns:xlink="http://www.w3.org/1999/xlink" xml:space="preserve" overflow="hidden"><g transform="translate(88 -132)"><g><g><g><g><path d="M669.055 926.959 640.755 1002.24 640.755 1285.78 734.733 1285.78 734.733 1337.05 798.005 1337.05 849.266 1285.78 926.156 1285.78 1033.75 1178.45 1033.75 926.959ZM717.646 969.676 991.034 969.676 991.034 1157.63 939.774 1208.89 837.254 1208.89 785.994 1260.15 785.994 1208.89 717.646 1208.89ZM794.536 1029.48 794.536 1149.08 845.797 1149.08 845.797 1029.48ZM879.971 1029.48 879.971 1149.08 931.231 1149.08 931.231 1029.48Z" fill="#000000" fill-rule="nonzero" fill-opacity="1" transform="matrix(1 0 0 1.00088 -713.412 -789.185)"/></g></g></g></g></g></svg>