<svg width="465" height="465" xmlns="http://www.w3.org/2000/svg" xmlns:xlink="http://www.w3.org/1999/xlink" xml:space="preserve" overflow="hidden"><g transform="translate(164 -105)"><g><g><g><g><path d="M2955.33 759.774C2942.89 778.419 2927.14 794.807 2909 807.964 2909.17 811.954 2909.26 815.977 2909.26 820.005 2909.26 942.994 2815.92 1084.82 2645.15 1084.82 2592.73 1084.82 2524.4 1066.4 2502.85 1043.01 2510.13 1043.87 2517.53 1044.31 2525.01 1044.31 2568.51 1044.31 2608.55 1029.42 2640.3 1004.46 2599.68 1003.71 2565.39 976.789 2553.58 939.81 2572.06 942.716 2595.5 938.208 2595.5 938.208 2595.5 938.208 2522.91 925.711 2521.03 845.781 2542.02 857.977 2563.08 857.421 2563.08 857.421 2563.08 857.421 2521.22 831.579 2521.8 779.969 2522.14 749.524 2534.35 733.154 2534.35 733.154 2613.66 831.093 2725.69 830.42 2725.69 830.42 2725.69 830.42 2723.28 816.514 2723.28 809.222 2723.28 757.833 2764.84 716.144 2816.11 716.144 2842.8 716.144 2866.92 727.454 2883.86 745.543 2905.01 741.351 2924.89 733.606 2942.81 722.946 2934.71 755.464 2902 774.443 2902 774.443 2902 774.443 2930.01 771.31 2955.33 759.774Z" fill="#000000" fill-rule="nonzero" fill-opacity="1" transform="matrix(1.00001 0 0 1 -2658.64 -564.026)"/></g></g></g></g></g></svg>