<svg width="244" height="246" xmlns="http://www.w3.org/2000/svg" xmlns:xlink="http://www.w3.org/1999/xlink" xml:space="preserve" overflow="hidden"><defs><clipPath id="clip0"><rect x="80" y="166" width="244" height="246"/></clipPath><clipPath id="clip1"><rect x="80" y="166" width="244" height="246"/></clipPath><clipPath id="clip2"><rect x="80" y="167" width="244" height="244"/></clipPath><clipPath id="clip3"><rect x="80" y="167" width="244" height="244"/></clipPath><clipPath id="clip4"><rect x="80" y="167" width="244" height="244"/></clipPath></defs><g clip-path="url(#clip0)" transform="translate(-80 -166)"><g clip-path="url(#clip1)"><g clip-path="url(#clip2)"><g clip-path="url(#clip3)"><g clip-path="url(#clip4)"><path d="M69.2858 95.5667C67.9609 95.5667 66.8967 96.6309 66.8967 97.9558L66.8967 140.961C66.8967 142.286 67.9609 143.35 69.2858 143.35L100.345 143.35C106.113 143.35 114.68 139.524 114.68 129.015 114.68 122.912 111.768 119.122 108.24 116.976 109.248 115.053 109.902 112.739 109.902 109.902 109.902 99.3932 101.334 95.5667 95.5667 95.5667ZM136.183 95.5667C134.858 95.5667 133.793 96.6309 133.793 97.9558L133.793 140.961C133.793 142.286 134.858 143.35 136.183 143.35L171.479 143.35C172.001 143.35 172.505 143.051 172.748 142.547L176.742 134.465C176.91 134.166 176.687 133.793 176.331 133.793L143.35 133.793 143.35 126.626C143.35 125.301 144.414 124.237 145.739 124.237L161.866 124.237C162.407 124.237 162.892 123.938 163.135 123.434L167.186 115.371C167.354 115.053 167.111 114.68 166.775 114.68L143.35 114.68 143.35 105.123 171.348 105.123C171.871 105.123 172.356 104.825 172.617 104.358L176.742 96.2572C176.91 95.9398 176.687 95.5667 176.331 95.5667ZM193.504 95.5667C192.179 95.5667 191.133 96.6309 191.133 97.9558L191.133 141.913C191.133 142.697 191.787 143.35 192.571 143.35L200.69 143.35 200.69 133.793C200.69 131.161 202.836 129.015 205.468 129.015L219.729 129.015 227.848 142.622C228.11 143.07 228.576 143.35 229.08 143.35L238.45 143.35C238.805 143.35 239.029 142.958 238.842 142.622L229.864 127.391C235.501 124.908 238.917 119.552 238.917 112.291 238.917 102.137 232.346 95.5667 222.193 95.5667ZM1.43723 95.9212C0.65329 95.9212 0 96.5744 0 97.3585L0 124.237C0 131.46 5.00233 145.142 23.8917 145.142 42.7811 145.142 47.7833 131.46 47.7833 124.237L47.7833 95.9212 39.664 95.9212C38.8799 95.9212 38.2267 96.5744 38.2267 97.3585L38.2267 124.181C38.1893 126.084 37.3307 135.585 23.8917 135.585 10.4526 135.585 9.59398 126.103 9.55667 124.237L9.55667 95.9212ZM76.4533 105.123 95.5107 105.123C97.7131 105.179 100.345 106.057 100.345 109.902 100.345 113.467 98.0862 114.475 96.0521 114.661 95.7908 114.661 95.6785 114.661 95.5107 114.68L76.4533 114.68ZM200.69 105.123 222.193 105.123C228.614 105.123 229.36 109.211 229.36 112.291 229.36 115.371 228.614 119.458 222.193 119.458L200.69 119.458ZM78.8425 124.237 100.289 124.237C102.491 124.293 105.123 125.17 105.123 129.015 105.123 132.86 102.491 133.737 100.289 133.793L76.4533 133.793 76.4533 126.626C76.4533 125.301 77.5175 124.237 78.8425 124.237Z" fill="#000000" fill-rule="nonzero" fill-opacity="1" transform="matrix(1.01064 0 0 1 82.5417 169.542)"/></g></g></g></g></g></svg>