<svg width="601" height="604" xmlns="http://www.w3.org/2000/svg" xmlns:xlink="http://www.w3.org/1999/xlink" xml:space="preserve" overflow="hidden"><defs><clipPath id="clip0"><rect x="-201" y="28" width="601" height="604"/></clipPath><clipPath id="clip1"><rect x="-201" y="28" width="601" height="604"/></clipPath><clipPath id="clip2"><rect x="-201" y="28" width="601" height="603"/></clipPath><clipPath id="clip3"><rect x="-201" y="28" width="602" height="603"/></clipPath><clipPath id="clip4"><rect x="-201" y="28" width="602" height="603"/></clipPath><clipPath id="clip5"><rect x="-201" y="28" width="602" height="603"/></clipPath><clipPath id="clip6"><rect x="-201" y="28" width="602" height="603"/></clipPath><clipPath id="clip7"><rect x="-201" y="29" width="602" height="602"/></clipPath><clipPath id="clip8"><rect x="-201" y="29" width="602" height="602"/></clipPath></defs><g clip-path="url(#clip0)" transform="translate(201 -28)"><g clip-path="url(#clip1)"><g clip-path="url(#clip2)"><g clip-path="url(#clip3)"><g clip-path="url(#clip4)"><g clip-path="url(#clip5)"><g clip-path="url(#clip6)"><g clip-path="url(#clip7)"><g clip-path="url(#clip8)"><path d="M394.709 169.16C270.826 169.16 169.16 270.826 169.16 394.709L169.16 958.575C169.16 1082.46 270.826 1184.12 394.709 1184.12L958.575 1184.12C1082.46 1184.12 1184.12 1082.46 1184.12 958.575L1184.12 394.709C1184.12 270.826 1082.46 169.16 958.575 169.16L394.709 169.16ZM394.709 281.935 958.575 281.935C1021.56 281.935 1071.35 331.724 1071.35 394.709L1071.35 958.575C1071.35 1021.56 1021.56 1071.35 958.575 1071.35L394.709 1071.35C331.724 1071.35 281.935 1021.56 281.935 958.575L281.935 394.709C281.935 331.724 331.724 281.935 394.709 281.935ZM606.159 380.612 401.757 408.805 493.385 972.674 725.981 972.674C1085.45 479.288 923.335 380.612 923.335 380.612 923.335 380.612 782.368 408.805 740.078 415.853 803.516 577.966 655.498 789.417 655.498 789.417L606.159 380.612Z" fill="#000000" fill-rule="nonzero" fill-opacity="1" transform="matrix(1.00563 0 0 1 -588.666 -348.054)"/></g></g></g></g></g></g></g></g></g></svg>