<svg width="580" height="580" xmlns="http://www.w3.org/2000/svg" xmlns:xlink="http://www.w3.org/1999/xlink" xml:space="preserve" overflow="hidden"><g transform="translate(128 -56)"><g><path d="M5872.71 2300.08 5872.71 2597.02C5872.71 2671.44 5812.17 2732 5737.75 2732L5440.8 2732C5366.38 2732 5305.83 2671.44 5305.83 2597.02L5305.83 2300.08C5305.83 2225.65 5366.38 2165.11 5440.8 2165.11L5737.75 2165.11C5812.17 2165.11 5872.71 2225.65 5872.71 2300.08ZM5690.51 2286.59C5648.25 2286.59 5611.95 2312.49 5596.84 2349.35 5618.97 2358.38 5638.13 2374.05 5651.37 2394.56 5698.34 2395.1 5738.56 2423.99 5755.83 2465.02 5777.83 2446.53 5791.73 2418.72 5791.73 2387.81 5791.73 2331.94 5746.38 2286.59 5690.51 2286.59ZM5650.01 2421.55C5645.2 2421.55 5640.52 2422.04 5635.91 2422.8 5621.97 2390.32 5589.73 2367.57 5552.16 2367.57 5505.26 2367.57 5466.66 2403.03 5461.64 2448.58 5461.43 2448.58 5461.24 2448.55 5461.05 2448.55 5420.05 2448.55 5386.81 2481.78 5386.81 2522.79 5386.81 2524.3 5386.95 2525.79 5387.05 2527.28 5387.01 2528.05 5386.81 2528.77 5386.81 2529.54 5386.81 2566.8 5417.04 2597.02 5454.31 2597.02L5643.26 2597.02 5643.26 2596.68C5645.51 2596.85 5647.73 2597.02 5650.01 2597.02 5698.47 2597.02 5737.75 2557.74 5737.75 2509.29 5737.75 2460.84 5698.47 2421.55 5650.01 2421.55Z" fill="#000000" fill-rule="nonzero" fill-opacity="1" transform="matrix(1.00518 0 0 1 -5457.38 -2103.69)"/></g></g></svg>