<svg width="660" height="658" xmlns="http://www.w3.org/2000/svg" xmlns:xlink="http://www.w3.org/1999/xlink" xml:space="preserve" overflow="hidden"><g transform="translate(232 -46)"><g><g><g><g><path d="M6638.28 3247.49C6505.93 3247.49 6398.25 3339.32 6398.25 3452.21 6398.25 3512.48 6427.33 3566.7 6480.36 3605.96L6443.17 3717.7 6559.57 3645.62C6591.92 3655.77 6631.33 3659.35 6669.4 3655.17 6700.25 3714.95 6770.01 3755.75 6850.05 3755.75 6874.4 3755.75 6896.85 3751.18 6917.75 3744.94L7014.47 3799.05 6987.51 3706.56C7023.86 3676.34 7047.71 3634.26 7047.71 3586.33 7047.71 3498.64 6971.45 3428.71 6874.79 3418.4 6855.77 3320.23 6756.39 3247.49 6638.28 3247.49ZM6553.56 3360.44C6569.12 3360.44 6581.79 3373.12 6581.79 3388.67 6581.79 3404.23 6569.12 3416.91 6553.56 3416.91 6538 3416.91 6525.32 3404.23 6525.32 3388.67 6525.32 3373.12 6538 3360.44 6553.56 3360.44ZM6722.99 3360.44C6738.54 3360.44 6751.22 3373.12 6751.22 3388.67 6751.22 3404.23 6738.54 3416.91 6722.99 3416.91 6707.42 3416.91 6694.75 3404.23 6694.75 3388.67 6694.75 3373.12 6707.42 3360.44 6722.99 3360.44ZM6850.05 3445.15C6945.32 3445.15 7019.48 3509.18 7019.48 3586.33 7019.48 3628.08 6998.18 3664.7 6963.05 3690.73L6955.16 3696.63 6968 3740.7 6922.14 3714.95 6916.19 3716.93C6896.4 3723.55 6873.9 3727.52 6850.05 3727.52 6754.78 3727.52 6680.63 3663.49 6680.63 3586.33 6680.63 3509.18 6754.78 3445.15 6850.05 3445.15ZM6786.52 3529.86C6775.23 3529.86 6765.34 3539.73 6765.34 3551.04 6765.34 3562.34 6775.23 3572.21 6786.52 3572.21 6797.8 3572.21 6807.7 3562.34 6807.7 3551.04 6807.7 3539.73 6797.8 3529.86 6786.52 3529.86ZM6913.59 3529.86C6902.3 3529.86 6892.41 3539.73 6892.41 3551.04 6892.41 3562.34 6902.3 3572.21 6913.59 3572.21 6924.87 3572.21 6934.76 3562.34 6934.76 3551.04 6934.76 3539.73 6924.87 3529.86 6913.59 3529.86Z" fill="#000000" fill-rule="nonzero" fill-opacity="1" transform="matrix(1.0018 0 0 1 -6637.14 -3141.66)"/></g></g></g></g></g></svg>