<svg width="550" height="552" xmlns="http://www.w3.org/2000/svg" xmlns:xlink="http://www.w3.org/1999/xlink" xml:space="preserve" overflow="hidden"><g transform="translate(226 -104)"><g><g><g><g><path d="M900.396 227.765C894.124 204.148 875.644 185.547 852.18 179.235 809.649 167.766 639.106 167.766 639.106 167.766 639.106 167.766 468.565 167.766 426.033 179.235 402.569 185.548 384.089 204.148 377.816 227.765 366.421 270.571 366.421 359.885 366.421 359.885 366.421 359.885 366.421 449.198 377.816 492.005 384.089 515.622 402.569 533.447 426.033 539.76 468.565 551.23 639.106 551.23 639.106 551.23 639.106 551.23 809.648 551.23 852.18 539.76 875.644 533.447 894.124 515.622 900.396 492.005 911.792 449.198 911.792 359.885 911.792 359.885 911.792 359.885 911.792 270.571 900.396 227.765ZM583.33 440.975 583.33 278.795 725.869 359.887 583.33 440.975Z" fill="#000000" fill-rule="nonzero" fill-opacity="1" transform="matrix(1 0 0 1.0008 -590.599 17.4772)"/></g></g></g></g></g></svg>